<svg classname='' id="eC5EwShU32j1" xmlns="http://www.w3.org/2000/svg" xmlns:xlink="http://www.w3.org/1999/xlink" viewBox="0 0 500 500" shape-rendering="geometricPrecision" text-rendering="geometricPrecision">
<style>
#eC5EwShU32j102_ts {animation: eC5EwShU32j102_ts__ts 4000ms linear infinite normal forwards}@keyframes eC5EwShU32j102_ts__ts { 0% {transform: translate(340.879349px,217.559349px) scale(1,1)} 50% {transform: translate(340.879349px,217.559349px) scale(1.049319,1.049318)} 100% {transform: translate(340.879349px,217.559349px) scale(1,1)}} #eC5EwShU32j116_ts {animation: eC5EwShU32j116_ts__ts 4000ms linear infinite normal forwards}@keyframes eC5EwShU32j116_ts__ts { 0% {transform: translate(160.592652px,85.439694px) scale(1,1)} 50% {transform: translate(160.592652px,85.439694px) scale(0.894066,0.894066)} 100% {transform: translate(160.592652px,85.439694px) scale(1,1)}} #eC5EwShU32j123_ts {animation: eC5EwShU32j123_ts__ts 4000ms linear infinite normal forwards}@keyframes eC5EwShU32j123_ts__ts { 0% {transform: translate(418.240006px,162.090004px) scale(1,1)} 25% {transform: translate(418.240006px,162.090004px) scale(0.909761,0.909761)} 50% {transform: translate(418.240006px,162.090004px) scale(1,1)} 75% {transform: translate(418.240006px,162.090004px) scale(0.909761,0.909761)} 100% {transform: translate(418.240006px,162.090004px) scale(1,1)}} #eC5EwShU32j128_ts {animation: eC5EwShU32j128_ts__ts 4000ms linear infinite normal forwards}@keyframes eC5EwShU32j128_ts__ts { 0% {transform: translate(160.589996px,245.589997px) scale(1,1)} 25% {transform: translate(160.589996px,245.589997px) scale(0.815873,0.815873)} 50% {transform: translate(160.589996px,245.589997px) scale(1,1)} 75% {transform: translate(160.589996px,245.589997px) scale(1,1)} 100% {transform: translate(160.589996px,245.589997px) scale(1,1)}} #eC5EwShU32j134_ts {animation: eC5EwShU32j134_ts__ts 4000ms linear infinite normal forwards}@keyframes eC5EwShU32j134_ts__ts { 0% {transform: translate(250px,65.930001px) scale(1,1)} 25% {transform: translate(250px,65.930001px) scale(1.13895,1.13895)} 50% {transform: translate(250px,65.930001px) scale(1,1)} 75% {transform: translate(250px,65.930001px) scale(1.13895,1.13895)} 100% {transform: translate(250px,65.930001px) scale(1,1)}} #eC5EwShU32j142_ts {animation: eC5EwShU32j142_ts__ts 4000ms linear infinite normal forwards}@keyframes eC5EwShU32j142_ts__ts { 0% {transform: translate(106.869991px,175.639999px) scale(1,1)} 50% {transform: translate(106.869991px,175.639999px) scale(1.089553,1.089553)} 100% {transform: translate(106.869991px,175.639999px) scale(1,1)}} #eC5EwShU32j157_ts {animation: eC5EwShU32j157_ts__ts 4000ms linear infinite normal forwards}@keyframes eC5EwShU32j157_ts__ts { 0% {transform: translate(349.989227px,98.83923px) scale(1,1)} 50% {transform: translate(349.989227px,98.83923px) scale(0.910728,0.910724)} 100% {transform: translate(349.989227px,98.83923px) scale(1,1)}}
</style>
<g><path d="M95.6,337.52c0-1.92-.11-3.82-.13-5.7l.28.28c-4.54,0-9.09.16-13.63.17l-13.63.06.51-.51v11.52l-.46-.46c2.24,0,4.48,0,6.74.05l6.77.12l13.75.29Zm-13.36,6.1l-6.86.12c-2.29.05-4.59,0-6.89.06h-.49v-.46-11.52-.52h.52l13.63.07c4.54,0,9.09.11,13.63.17h.22v.28c0,1.95-.09,3.9-.13,5.82l-.15,5.7Z" fill="#ebebeb"/><path d="M80.4,352c-.05-1.92-.12-3.81-.14-5.7l.28.28c-4.54.06-9.08.17-13.63.17l-13.63.07.52-.52-.06,11.52-.46-.46c2.25,0,4.49,0,6.74.06l6.77.11l13.75.29ZM67,358.15l-6.86.11c-2.29.05-4.59,0-6.89.06h-.46v-.46-11.52-.51h.52l13.63.06c4.55,0,9.09.12,13.63.17h.29v.28c0,2-.09,3.9-.13,5.82l-.15,5.7Z" fill="#ebebeb"/><path d="M110.81,352c0-1.92-.12-3.81-.14-5.7l.29.28c-4.55.06-9.09.17-13.63.17l-13.63.07.51-.52-.06,11.52-.45-.46c2.24,0,4.48,0,6.73.06l6.78.11l13.75.29Zm-13.37,6.11l-6.85.11c-2.29.05-4.6,0-6.89.06h-.46v-.46l-.06-11.52v-.51h.52l13.63.06c4.54,0,9.08.12,13.63.17h.28v.28c0,2-.09,3.9-.14,5.82l-.14,5.7Z" fill="#ebebeb"/><path d="M431.6,352c-.05-1.92-.12-3.81-.14-5.7l.28.28c-4.54.06-9.08.17-13.63.17l-13.63.07.52-.52-.06,11.52-.46-.46c2.25,0,4.49,0,6.74.06l6.78.11l13.74.29Zm-13.37,6.11l-6.85.11c-2.3.05-4.6,0-6.9.06h-.48v-.46-11.48-.51h.51l13.63.06c4.55,0,9.09.12,13.63.17h.23v.28c0,2-.09,3.9-.14,5.82l-.15,5.7Z" fill="#ebebeb"/><path d="M431.6,68.05c-.05-1.92-.12-3.82-.14-5.7l.28.28c-4.54,0-9.08.16-13.63.17l-13.63.06.52-.51-.06,11.52-.46-.46c2.25,0,4.49,0,6.74.06l6.78.11l13.74.29Zm-13.37,6.1l-6.85.12c-2.3,0-4.6,0-6.9.06h-.48v-.46-11.52-.52h.51l13.63.07c4.55,0,9.09.12,13.63.17h.23v.28c0,1.95-.09,3.9-.14,5.82l-.15,5.7Z" fill="#ebebeb"/><path d="M446.81,82.57c-.05-1.91-.12-3.81-.14-5.7l.28.29c-4.54,0-9.09.16-13.63.16l-13.63.07.51-.52-.05,11.52-.46-.46c2.25,0,4.49,0,6.74.06l6.77.12l13.75.28Zm-13.37,6.11l-6.86.12c-2.29,0-4.59,0-6.89,0h-.46v-.47l-.05-11.52v-.51h.52l13.63.06c4.54,0,9.09.12,13.63.17h.29v.27c0,2-.09,3.9-.13,5.82l-.15,5.7Z" fill="#ebebeb"/><path d="M80.4,68.06c-.05-1.92-.12-3.81-.14-5.7l.28.28c-4.54,0-9.08.17-13.63.17l-13.63.07.52-.52-.06,11.52-.46-.46c2.25,0,4.49,0,6.74.06l6.77.11l13.75.29ZM67,74.17l-6.86.11c-2.29,0-4.59,0-6.89.06h-.46v-.46-11.52-.52h.52l13.63.06c4.55,0,9.09.12,13.63.17h.29v.28c0,2-.09,3.9-.13,5.82l-.15,5.7Z" fill="#ebebeb"/><path d="M219,188.35c.05,1.92.12,3.82.14,5.7l-.28-.28c4.54-.05,9.08-.16,13.63-.17l13.63-.06-.52.51.06-11.52.46.46c-2.25,0-4.49,0-6.74-.05l-6.78-.12-13.74-.29Zm13.37-6.1l6.85-.12c2.3,0,4.6,0,6.9-.06h.45v.46l.06,11.52v.52h-.51l-13.63-.07c-4.55,0-9.09-.11-13.63-.17h-.29v-.28c0-2,.09-3.9.14-5.82l.15-5.7Z" fill="#ebebeb"/><path d="M234.16,173.83c0,1.92.11,3.81.13,5.7l-.28-.28c4.55-.06,9.09-.17,13.63-.17l13.63-.07-.51.52.05-11.52.46.46c-2.24,0-4.48,0-6.74-.06l-6.77-.12L234,168Zm13.36-6.11l6.86-.11c2.29-.05,4.6,0,6.89-.06h.46v.45l.06,11.52v.48h-.52-13.63c-4.54,0-9.08-.12-13.63-.17h-.28v-.27c0-2,.09-3.9.14-5.82L234,168Z" fill="#ebebeb"/><path d="M87,139.46c-1.701613,1.034007-3.558762,1.786996-5.5,2.23-9.65874,2.244995-19.419714-3.315495-22.414393-12.768703s1.784136-19.619752,10.973721-23.345712s19.699222.241813,24.133565,9.111303s1.301997,19.657635-7.192893,24.773112Z" fill="#ebebeb"/><path d="M83.05,121.09c-.03889,3.191859-2.657847,5.74789-5.849707,5.709156s-5.74802-2.657566-5.709442-5.849428s2.657285-5.74815,5.849149-5.709728c1.533833.015802,2.998247.641698,4.069674,1.739395s1.661675,2.576839,1.640326,4.110605Z" fill="#fff"/><path d="M87.07,137.08v2.38c-1.701613,1.034007-3.558762,1.786996-5.5,2.23-4.959118,1.159902-10.17647.26931-14.47-2.47v-2.38c.066274-5.522847,4.597153-9.946274,10.12-9.88s9.946274,4.597153,9.88,10.12Z" fill="#fff"/><path d="M431.87,271.81l6.06-9.78-3-1.85c-.875237-.547605-1.366684-1.542107-1.27-2.57.049944-.571897.069971-1.146013.06-1.72-.037894-1.032305.512243-1.996982,1.42-2.49l3.11-1.66-5.44-10.14-3.11,1.66c-.907117.486002-2.011237.416268-2.85-.18-.474343-.327926-.96497-.631647-1.47-.91-.907156-.491148-1.463142-1.448679-1.44-2.48l.11-3.52-11.49-.36-.11,3.54c-.046962,1.029899-.664014,1.947764-1.6,2.38-.26.12-.51.24-.76.38s-.5.27-.74.42c-.874613.535229-1.975387.535229-2.85,0l-3-1.87-6.06,9.78l3,1.86c.87322.548554,1.361136,1.543747,1.26,2.57-.051768.571775-.068465,1.146184-.05,1.72.027414,1.02975-.525047,1.987865-1.43,2.48l-3.1,1.66l5.43,10.14l3.11-1.66c.907117-.486002,2.011237-.416268,2.85.18.468723.328178.956221.62869,1.46.9.911025.488443,1.471188,1.446514,1.45,2.48l-.11,3.53l11.5.36.11-3.53c.037395-1.027691.653255-1.945671,1.59-2.37l.77-.39c.25-.13.49-.27.73-.42.882081-.534241,1.987919-.534241,2.87,0Zm-9.74-7.26c-4.588351,2.447478-10.292011.713843-12.742261-3.873029s-.720061-10.291577,3.865329-12.744599s10.291141-.726279,12.746932,3.857628c1.183949,2.20428,1.441259,4.789326.715054,7.183739s-2.376122,4.401013-4.585054,5.576261Z" fill="#ebebeb"/><path d="M198.62,57.41l7-4-1.24-2.14c-.348855-.628185-.32192-1.397742.07-2c.219749-.323038.423333-.656782.61-1c.321023-.646016.978628-1.056052,1.7-1.06h2.47v-8.14h-2.47c-.745196.017318-1.432383-.40046-1.76-1.07-.186667-.343218-.390251-.676962-.61-1-.39192-.602258-.418855-1.371815-.07-2l1.24-2.14-7-4-1.24,2.15c-.370013.622442-1.057309.985396-1.78.94h-.59-.59c-.719699.043875-1.403308-.319171-1.77-.94l-1.25-2.15-7,4L185.66,35c.353415.627081.326392,1.399162-.07,2-.217913.322253-.418207.656075-.6,1-.326196.645978-.986351,1.055197-1.71,1.06h-2.46v8.06h2.46c.729474.002952,1.394953.416941,1.72,1.07.181793.343925.382087.677747.6,1c.396392.600838.423415,1.372919.07,2l-1.24,2.14l7,4l1.24-2.15c.367659-.618721,1.051904-.97824,1.77-.93h1.19c.723698-.05012,1.413321.314063,1.78.94ZM195,49.7c-3.643773-.005521-6.593676-2.962882-6.589997-6.606657s2.959549-6.595172,6.603325-6.593335s6.596668,2.956215,6.596672,6.599992c.000002,1.752163-.696726,3.432416-1.936629,4.670444s-2.92121,1.932211-4.673371,1.929556Z" fill="#ebebeb"/><path d="M396.36,278.88l-4-7-2.14,1.24c-.627081.353415-1.399162.326392-2-.07-.320985-.219895-.654923-.420258-1-.6-.645978-.326196-1.055197-.986351-1.06-1.71v-2.44h-8.16v2.46c-.004803.723649-.414022,1.383804-1.06,1.71-.343773.182062-.677581.382347-1,.6-.599364.400983-1.374069.428098-2,.07l-2.14-1.24-4,7l2.15,1.24c.622442.370013.985396,1.057309.94,1.78c0,.19,0,.39,0,.59s0,.4,0,.59c.046225.720207-.317435,1.40497-.94,1.77l-2.15,1.25l4,7l2.14-1.24c.628185-.348855,1.397742-.32192,2,.07.34.22.68.42,1,.61.646016.321023,1.056052.978628,1.06,1.7v2.47h8.06v-2.47c.001608-.722046.412348-1.38078,1.06-1.7.36-.19.7-.39,1-.61.602258-.39192,1.371815-.418855,2-.07l2.14,1.24l4-7-2.15-1.24c-.618721-.367659-.97824-1.051904-.93-1.77c0-.2,0-.4,0-.6s0-.4,0-.59c-.05012-.723698.314063-1.413321.94-1.78Zm-7.71,3.61c0,3.645079-2.954921,6.6-6.6,6.6s-6.6-2.954921-6.6-6.6s2.954921-6.6,6.6-6.6c1.751243-.002659,3.431524.691842,4.669841,1.930159s1.932818,2.918598,1.930159,4.669841Z" fill="#ebebeb"/><polygon points="308.67,150.73 312.36,158.21 320.61,159.41 314.63,165.23 316.05,173.44 308.67,169.56 301.28,173.44 302.69,165.23 296.72,159.41 304.98,158.21 308.67,150.73" fill="#ebebeb"/><g><path d="M403,105.93c-1.285391,3.265873-2.041559,6.715891-2.24,10.22h-9v-.25c0-.23.05-.46.07-.7.109732-1.200126.310307-2.390204.6-3.56.461015-1.927419,1.131678-3.798569,2-5.58.035496-.088099.125706-.141405.22-.13h8.35Z" fill="#ebebeb"/><path d="M402.71,128.75h-8.32c-.088041.005515-.169298-.047302-.2-.13-.957222-1.998185-1.649729-4.112687-2.06-6.29-.201733-1.050592-.338658-2.112597-.41-3.18s0-.07,0-.11v-.25h8.89c.16,0,.15,0,.16.16.06.73.11,1.46.18,2.18.111778,1.150361.295471,2.292596.55,3.42.301851,1.381534.69607,2.741255,1.18,4.07s.01.08.03.13Z" fill="#ebebeb"/><path d="M437.67,131.39c-.021908.042976-.048756.083248-.08.12-.702846,1.079361-1.488547,2.102444-2.35,3.06-1.041607,1.171877-2.197307,2.237131-3.45,3.18-1.233899.932239-2.553091,1.745852-3.94,2.43-1.32964.668566-2.719058,1.210942-4.15,1.62-1.134941.325953-2.291019.573207-3.46.74l-.34.06h-.21l-.19-.13.22-.15c2.534847-1.728565,4.753804-3.87987,6.56-6.36c1.016615-1.405506,1.913114-2.894095,2.68-4.45.02823-.083624.112929-.134443.2-.12h8.51Z" fill="#ebebeb"/><path d="M429.35,116.14h-11.68v-10.2h9.12c.082048-.012768.160228.039352.18.12.838577,1.925582,1.462344,3.937733,1.86,6c.210114,1.070795.360347,2.152474.45,3.24.02.26.05.54.07.84Z" fill="#ebebeb"/><path d="M429.28,118.87c0,.24,0,.48,0,.72-.06.56-.1,1.13-.18,1.7-.11.78-.22,1.56-.38,2.34-.35128,1.708854-.85668,3.382363-1.51,5-.028211.096043-.120289.158824-.22.15h-9.39v-9.88Z" fill="#ebebeb"/><path d="M415,106v10.22h-11.4c0-.26,0-.51.05-.77.06-.57.1-1.14.19-1.71.14-.86.29-1.73.48-2.59.383361-1.71587.932611-3.390411,1.64-5c.034028-.078756.114496-.127037.2-.12h8.84Z" fill="#ebebeb"/><path d="M415.05,119v9.75h-9.11c-.091794.008003-.1761-.051011-.2-.14-.6955-1.657682-1.215015-3.383813-1.55-5.15-.17-.9-.3-1.82-.42-2.74-.08-.59-.09-1.2-.13-1.8v-.07h11.27c.09,0,.14.04.14.15Z" fill="#ebebeb"/><path d="M441.73,116.22h-9.57c-.186628-3.527404-.939584-7.001804-2.23-10.29h8.92c.091591-.010227.178313.043458.21.13c1.018805,2.021714,1.762087,4.170841,2.21,6.39.227599,1.185975.381229,2.384955.46,3.59Z" fill="#ebebeb"/><path d="M441.74,118.79v.67c-.07.86-.17,1.72-.32,2.58-.351472,1.977687-.942489,3.90521-1.76,5.74-.13.3-.27.59-.4.89-.021834.057493-.078631.094006-.14.09h-8.92c.11-.31.21-.61.32-.9.506818-1.522371.901211-3.079888,1.18-4.66.201254-1.148118.338135-2.306594.41-3.47c0-.28,0-.55.05-.83c0-.07,0-.11.1-.1h9.48Z" fill="#ebebeb"/><path d="M437.4,103.33v0h-8.5c-.088997.011654-.174857-.03741-.21-.12-1.108359-2.222707-2.503603-4.290359-4.15-6.15-.967255-1.079377-2.035444-2.063852-3.19-2.94-.57-.44-1.16-.85-1.74-1.27l-.1-.08.11-.08c0,0,0-.1-.05-.18c2.941757.348575,5.797044,1.222435,8.43,2.58c3.796975,1.881906,7.037075,4.722163,9.4,8.24Z" fill="#ebebeb"/><path d="M413.42,142.48c-.079597.011351-.160403.011351-.24,0-.919826-.121632-1.83148-.29862-2.73-.53-1.678201-.429316-3.307021-1.032583-4.86-1.8-1.774892-.879983-3.43694-1.971226-4.95-3.25-1.087279-.908736-2.091264-1.912721-3-3-.677748-.816858-1.29918-1.678845-1.86-2.58v-.08h7.93c.088041-.005515.169298.047302.2.13.808029,1.64112,1.765401,3.204381,2.86,4.67c1.015623,1.327334,2.139467,2.568245,3.36,3.71c1.005928.95105,2.08601,1.820466,3.23,2.6Z" fill="#ebebeb"/><path d="M413.32,92.8c-.36.26-.78.56-1.18.87-1.36319,1.05371-2.628338,2.22849-3.78,3.51-1.573665,1.701125-2.918375,3.600527-4,5.65-.07.13-.13.27-.2.39-.030389.038842-.072458.066888-.12.08-.15,0-.29,0-.43,0h-7.61c3.96083-5.838251,10.211543-9.723142,17.2-10.69l-.05.09Z" fill="#ebebeb"/><path d="M425.87,131.4c-1.076472,1.882964-2.372162,3.63181-3.86,5.21-1.316037,1.417607-2.796499,2.673146-4.41,3.74v-8.95Z" fill="#ebebeb"/><path d="M415,131.4v8.78c-3.29784-2.261382-6.014932-5.269714-7.93-8.78Z" fill="#ebebeb"/><path d="M425.61,103.29h-7.94v-8.36c1.629684,1.053619,3.124149,2.302925,4.45,3.72c1.319279,1.422972,2.488761,2.977813,3.49,4.64Z" fill="#ebebeb"/><path d="M415,95.19v8.17h-7.61c1.862156-3.281488,4.468769-6.079914,7.61-8.17Z" fill="#ebebeb"/></g><path d="M189.28,318.94c-1.690533,11.421316-12.046171,19.506433-23.536446,18.375974s-20.07172-11.078683-19.504035-22.610469s10.084731-20.58906,21.630481-20.585505v21.65Z" fill="#dbdbdb"/><path d="M193.92,311.36c.001537,1.061262-.0787,2.121066-.24,3.17l-21.41-3.17v-21.65c5.743564-.005313,11.253414,2.273956,15.314729,6.335271s6.340584,9.571165,6.335271,15.314729Z" fill="#ebebeb"/><rect width="23.02" height="1" rx="0" ry="0" transform="translate(178.85 327.25)" fill="#c7c7c7"/><path d="M203.48,329.87c-.858358.004049-1.634451-.509897-1.96574-1.301758s-.152387-1.705346.453134-2.313737s1.51815-.791609,2.311568-.464068s1.311028,1.101195,1.311038,1.959563c.00266.561337-.218468,1.100597-.614458,1.498464s-.934198.621542-1.495542.621536Zm0-3.23c-.454792-.004043-.866871.267343-1.042786.686756s-.080729.90356.240871,1.225159.805747.416785,1.225159.240871.690799-.587994.686756-1.042786c0-.29439-.116946-.576723-.325111-.784889s-.490499-.325111-.784889-.325111Z" fill="#c7c7c7"/><rect width="17.88" height="0.81" rx="0" ry="0" transform="translate(209.33 326.54)" fill="#c7c7c7"/><rect width="10.12" height="0.81" rx="0" ry="0" transform="translate(209.33 328.16)" fill="#c7c7c7"/><rect width="4.57" height="32.54" rx="0" ry="0" transform="translate(77.97 240.8)" fill="#ebebeb"/><rect width="4.57" height="24.67" rx="0" ry="0" transform="translate(85.83 248.67)" fill="#ebebeb"/><rect width="4.57" height="12.33" rx="0" ry="0" transform="translate(93.69 261)" fill="#ebebeb"/><rect width="4.57" height="19.38" rx="0" ry="0" transform="translate(101.55 253.96)" fill="#ebebeb"/><rect width="4.57" height="26.77" rx="0" ry="0" transform="translate(109.41 246.56)" fill="#ebebeb"/><rect width="4.57" height="31.12" rx="0" ry="0" transform="translate(117.27 242.21)" fill="#ebebeb"/><path d="M75.32,236.66l.05,9.17v9.17v18.34l-.11-.12c4.2,0,8.4,0,12.61,0h12.61h12.6l12.61.07-12.61.07h-12.6-12.61q-6.32,0-12.61,0h-.06v-.11-18.34-9.17Z" fill="#ebebeb"/><path d="M74.31,238.5c.324333-.096079.661882-.13996,1-.13.338084-.009289.675529.034579,1,.13-.326389.085988-.662474.129679-1,.13s-.673719-.043462-1-.13Z" fill="#ebebeb"/><path d="M74.31,241.28c.326281-.086538.662438-.130239,1-.13s.673611.044012,1,.13c-.324471.095421-.661916.139289-1,.13-.338118.00996-.675667-.033921-1-.13Z" fill="#ebebeb"/><path d="M74.31,244.07c.326281-.086538.662438-.130239,1-.13s.673611.044012,1,.13c-.325449.090697-.662179.134472-1,.13-.337861.005165-.67469-.038622-1-.13Z" fill="#ebebeb"/><path d="M74.31,246.86c.32531-.091378.662139-.135165,1-.13.337821-.004472.674551.039303,1,.13-.326389.085988-.662474.129679-1,.13s-.673719-.043462-1-.13Z" fill="#ebebeb"/><path d="M74.31,249.65c.324333-.096079.661882-.13996,1-.13.338084-.009289.675529.034579,1,.13-.326389.085988-.662474.129679-1,.13s-.673719-.043462-1-.13Z" fill="#ebebeb"/><path d="M74.31,252.43c.325778-.088141.662618-.128562,1-.12.337356-.008003.674116.032408,1,.12-.324471.095421-.661916.139289-1,.13-.338118.00996-.675667-.033921-1-.13Z" fill="#ebebeb"/><path d="M74.31,255.22c.326281-.086538.662438-.130239,1-.13s.673611.044012,1,.13c-.325449.090697-.662179.134472-1,.13-.337861.005165-.67469-.038622-1-.13Z" fill="#ebebeb"/><path d="M74.31,258c.32531-.091378.662139-.135165,1-.13.337821-.004472.674551.039303,1,.13-.325449.090697-.662179.134472-1,.13-.337861.005165-.67469-.038622-1-.13Z" fill="#ebebeb"/><path d="M74.31,260.8c.32531-.091378.662139-.135165,1-.13.337821-.004472.674551.039303,1,.13-.326389.085988-.662474.129679-1,.13s-.673719-.043462-1-.13Z" fill="#ebebeb"/><path d="M74.31,263.59c.324333-.096079.661882-.13996,1-.13.338084-.009289.675529.034579,1,.13-.326389.085988-.662474.129679-1,.13s-.673719-.043462-1-.13Z" fill="#ebebeb"/><path d="M74.31,266.37c.326281-.086538.662438-.130239,1-.13s.673611.044012,1,.13c-.324471.095421-.661916.139289-1,.13-.338118.00996-.675667-.033921-1-.13Z" fill="#ebebeb"/><path d="M74.31,269.16c.326281-.086538.662438-.130239,1-.13s.673611.044012,1,.13c-.325449.090697-.662179.134472-1,.13-.337861.005165-.67469-.038622-1-.13Z" fill="#ebebeb"/></g><g><ellipse rx="128.14" ry="30.72" transform="translate(250 435.74)" fill="#ebebeb"/></g><g><polygon points="217.59,420 334.07,404.42 383.01,439.1 268.11,462.05 217.59,420" fill="#a285d5"/><path d="M224.65,420.37L270.89,459l107.67-21.43-47.35-33.28c0,0-31.44.2-32.94.47s-15.85,4.24-15.85,4.24-19.55.94-20.91,1.21-36.86,10.16-36.86,10.16Z" fill="#fff"/><polygon points="282.42,408.96 288.06,413.71 293.66,418.51 304.79,428.18 315.83,437.96 321.31,442.89 326.75,447.86 321.11,443.12 315.51,438.32 304.38,428.65 293.35,418.87 287.87,413.94 282.42,408.96" fill="#dbdbdb"/><path d="M289.08,433.72c1.36-.26,2.72-.46,4.09-.64s2.75-.34,4.13-.48s2.76-.26,4.14-.34s2.77-.16,4.16-.17c-1.37.27-2.74.46-4.11.65s-2.74.33-4.11.47-2.76.26-4.14.34-2.76.16-4.16.17Z" fill="#dbdbdb"/><path d="M264.33,444.29c3.61-1.19,7.24-2.32,10.87-3.44s7.28-2.18,10.93-3.25c1.82-.54,3.65-1,5.5-1.52.472894-.117976.954406-.198228,1.44-.24l1.43-.15l2.83-.26c3.79-.32,7.58-.61,11.38-.82-3.77.49-7.55.9-11.33,1.33l-2.83.3c-.931103.077707-1.85631.214651-2.77.41-1.83.48-3.65,1-5.48,1.53l-11,3.11c-3.63,1.02-7.3,2.04-10.97,3Z" fill="#dbdbdb"/><path d="M267.56,447.05c3.5-1.2,7-2.33,10.54-3.44s7.06-2.19,10.6-3.26c1.77-.54,3.54-1.05,5.33-1.54.45-.12.89-.24,1.37-.34s.93-.12,1.39-.18l2.76-.27c3.69-.31,7.37-.59,11.06-.79-3.66.49-7.33.89-11,1.32l-2.75.3c-.46.06-.92.1-1.36.19s-.87.22-1.31.34l-5.32,1.55c-3.55,1-7.08,2.1-10.64,3.11s-7.1,2.04-10.67,3.01Z" fill="#dbdbdb"/><path d="M270.82,449.39q5.32-1.58,10.68-3c3.57-1,7.16-1.91,10.74-2.85c1.8-.46,3.56-.93,5.42-1.3l5.49-.82c3.67-.51,7.34-1,11-1.45-3.64.71-7.29,1.34-10.94,2l-5.48.89c-1.76.36-3.57.87-5.36,1.3-3.6.88-7.18,1.83-10.77,2.69s-7.17,1.72-10.78,2.54Z" fill="#dbdbdb"/><path d="M323.55,439q5-1.69,10.05-3.06c.85-.23,1.69-.46,2.55-.66.43-.1.85-.2,1.31-.27l1.3-.18l5.2-.71c3.47-.48,6.94-.91,10.41-1.36s6.95-.87,10.42-1.27c-3.45.56-6.91,1.11-10.37,1.63s-6.92,1.06-10.38,1.54l-5.2.75-1.3.18c-.4.08-.83.18-1.25.29l-2.54.62c-3.39.87-6.75,1.73-10.2,2.5Z" fill="#dbdbdb"/><path d="M320.49,435.91q4.89-1.38,9.86-2.47c1.66-.37,3.3-.76,5-1l5-.72c3.35-.49,6.71-.93,10.07-1.39s6.71-.88,10.08-1.29c-3.34.57-6.68,1.13-10,1.66s-6.69,1.07-10,1.56l-5,.76c-.83.11-1.64.3-2.47.47l-2.49.5q-5.03,1.06-10.05,1.92Z" fill="#dbdbdb"/><path d="M317.5,433.13c3.25-.89,6.51-1.71,9.8-2.42c1.65-.36,3.28-.75,5-1l5-.58c3.34-.39,6.69-.74,10-1.09s6.7-.68,10.05-1c-3.33.48-6.67.94-10,1.36s-6.67.87-10,1.27c-1.66.2-3.35.39-5,.61l-4.93,1q-4.93,1.01-9.92,1.85Z" fill="#dbdbdb"/><path d="M314.92,431c3.16-1.23,6.38-2.25,9.65-3.17.41-.12.82-.22,1.24-.31.425175-.092618.856177-.156099,1.29-.19l2.53-.23l5.05-.43c6.74-.55,13.49-1.06,20.24-1.49-6.73.73-13.46,1.38-20.19,2l-5.05.47-2.52.25c-.823369.093372-1.636655.260714-2.43.5-3.27.9-6.51,1.87-9.81,2.6Z" fill="#dbdbdb"/><path d="M312.11,428.51c3.16-1.23,6.39-2.25,9.65-3.17.41-.12.82-.22,1.24-.31.425409-.09133.856324-.154798,1.29-.19l2.53-.23l5.05-.43c6.75-.55,13.49-1.06,20.24-1.49-6.72.73-13.46,1.38-20.19,2l-5.05.47-2.52.25c-.823369.093372-1.636655.260714-2.43.5-3.26.87-6.51,1.83-9.81,2.6Z" fill="#dbdbdb"/><path d="M309.3,426c3.17-1.22,6.39-2.24,9.65-3.16.41-.12.82-.22,1.25-.31.425175-.092618.856177-.156099,1.29-.19l2.52-.23l5.06-.43c6.74-.55,13.48-1.06,20.23-1.49-6.72.73-13.45,1.38-20.19,2l-5,.47-2.53.25c-.823975.089538-1.637611.256953-2.43.5-3.3.85-6.54,1.81-9.85,2.59Z" fill="#dbdbdb"/><path d="M306.5,423.46c3.16-1.22,6.38-2.25,9.65-3.17.41-.11.82-.21,1.24-.3.424275-.097475.855638-.161009,1.29-.19l2.53-.23l5.05-.44c6.74-.54,13.49-1.06,20.24-1.48-6.73.73-13.46,1.37-20.19,2l-5.05.47-2.52.24c-.82677.097786-1.643279.26845-2.44.51-3.3.87-6.5,1.83-9.8,2.59Z" fill="#dbdbdb"/><path d="M302.75,421.25c3.16-1.23,6.38-2.25,9.65-3.17.41-.11.82-.22,1.24-.31.424524-.094235.855895-.154426,1.29-.18l2.53-.23l5.05-.44c6.74-.54,13.49-1.06,20.24-1.49-6.73.73-13.46,1.38-20.19,2l-5.05.46-2.52.25c-.82649.094364-1.643008.261683-2.44.5-3.26.89-6.5,1.85-9.8,2.61Z" fill="#dbdbdb"/><path d="M299.1,419.07c3.16-1.23,6.39-2.25,9.65-3.17.41-.12.82-.22,1.24-.31.425409-.09133.856324-.154798,1.29-.19l2.53-.23l5.06-.43c6.74-.55,13.48-1.06,20.23-1.49-6.72.73-13.46,1.38-20.19,2l-5.05.47-2.52.25c-.823369.093372-1.636655.260714-2.43.5-3.26.87-6.51,1.84-9.81,2.6Z" fill="#dbdbdb"/><path d="M296.3,416.55c3.15-1.23,6.37-2.25,9.63-3.17.41-.11.82-.22,1.24-.3.423347-.102328.855127-.165923,1.29-.19l2.53-.19l5.05-.35c6.74-.42,13.48-.81,20.23-1.11-6.73.6-13.46,1.12-20.19,1.65l-5.05.38-2.52.21c-.820386.086184-1.630707.250257-2.42.49-3.26.86-6.5,1.82-9.79,2.58Z" fill="#dbdbdb"/><path d="M293.49,414c3.15-1.22,6.36-2.24,9.62-3.15.41-.12.81-.22,1.23-.31.425967-.104669.861619-.16499,1.3-.18l2.53-.15l5.05-.25q10.09-.44,20.21-.69c-6.73.46-13.46.84-20.19,1.23l-5,.28-2.52.16c-.821293.085739-1.631977.253236-2.42.5-3.3.87-6.52,1.82-9.81,2.56Z" fill="#dbdbdb"/><path d="M290.68,411.5c3.15-1.22,6.35-2.24,9.6-3.15.41-.12.82-.22,1.24-.31.421865-.106959.854829-.164016,1.29-.17l2.53-.08l5.05-.08c3.36,0,6.73,0,10.09-.06s6.73,0,10.1.06c-6.73.22-13.46.37-20.18.53l-5,.12-2.52.09c-.814281.083266-1.618247.24741-2.4.49-3.29.85-6.48,1.8-9.8,2.56Z" fill="#dbdbdb"/><path d="M274,452.81c3.62-1,7.25-1.87,10.88-2.76s7.28-1.73,10.92-2.59c1.83-.42,3.64-.82,5.51-1.19l5.53-.94c3.69-.59,7.38-1.18,11.09-1.69-3.66.79-7.33,1.49-11,2.2l-5.52,1c-1.8.37-3.64.83-5.46,1.22L285,450.5c-3.66.8-7.32,1.58-11,2.31Z" fill="#dbdbdb"/><path d="M325.76,441.92c3.64-.89,7.31-1.72,11-2.54s7.34-1.57,11-2.35c1.84-.39,3.67-.75,5.55-1.08l5.56-.82c3.72-.52,7.44-1,11.17-1.47-3.69.71-7.39,1.34-11.09,2l-5.56.89c-1.82.33-3.67.75-5.51,1.1l-11,2.21c-3.74.69-7.43,1.4-11.12,2.06Z" fill="#dbdbdb"/></g><g><path d="M380.13,302.19c16,15.66,18.68,39.89,15.31,61.11-.09.48-.83.35-.83-.1c0-4.83.15-9.62.13-14.39-.09-.22-.16-.43-.25-.64-4.17-3-8-6.47-10.39-11.17-2.67-5.25-3.72-11.18-5.76-16.67-.19-.52.37-.37.74-.1c9.72,7.18,12.83,14.9,15.62,25.22-.056609-5.398408-.625831-10.779237-1.7-16.07-2.1-9.79-6.26-19.49-13.29-26.76-.26-.28.15-.7.42-.43Z" fill="#263238"/><path d="M377.13,304c-2.75.09-4.48,4.49-6.62,5.77-.45133.359979-1.033003.514053-1.603353.424698s-1.077033-.413938-1.396647-.894698c-2.13-3,.79-6.63,3.53-8.67-2,.8-3.59,2.22-5.7,2.62-.546225.173007-1.140419.103434-1.631905-.191075s-.833056-.785667-.938095-1.348925c-.94-4.05,4.14-5.84,7.62-5.93-1.69-1.17-6.53-4.36-4-5.93s8.28,3,10.13,4.49c2.72,2.21,6,5.5,6.09,9c.16,4-3.37,1.52-5.48.66Z" fill="#a285d5"/><path d="M377.13,304c-2.75.09-4.48,4.49-6.62,5.77-.45133.359979-1.033003.514053-1.603353.424698s-1.077033-.413938-1.396647-.894698c-2.13-3,.79-6.63,3.53-8.67-2,.8-3.59,2.22-5.7,2.62-.546225.173007-1.140419.103434-1.631905-.191075s-.833056-.785667-.938095-1.348925c-.94-4.05,4.14-5.84,7.62-5.93-1.69-1.17-6.53-4.36-4-5.93s8.28,3,10.13,4.49c2.72,2.21,6,5.5,6.09,9c.16,4-3.37,1.52-5.48.66Z" opacity="0.1"/><path d="M377.92,304.7c-3.51-1.6-10.27.7-10.85-.63-1.16-2.71,4.24-4.57,7.15-4.93-2.68-.73-7.83-1.89-7.67-4.48.19-3.16,7.89-.44,11.79,2.55c4.91,3.76,4.87,7.39,4.06,8.12-1.11,1-3.9-.33-4.48-.63Z" fill="#a285d5"/><path d="M416.56,300.64c-16.58,15-20.18,39.15-17.62,60.48.07.49.82.38.83-.07.19-4.82.22-9.61.42-14.38.1-.22.18-.42.27-.63c4.29-2.88,8.25-6.16,10.81-10.77c2.87-5.14,4.14-11,6.39-16.43.21-.52-.35-.39-.73-.13-10,6.8-13.39,14.4-16.57,24.61.26737-5.39326,1.037374-10.749808,2.3-16c2.48-9.7,7-19.24,14.31-26.24.121503-.113218.128218-.303497.015-.425s-.303497-.128218-.425-.015Z" fill="#263238"/><path d="M419.5,302.58c2.74.2,4.3,4.66,6.39,6c.438001.391315,1.022808.575963,1.606102.507116s1.10904-.384579,1.443898-.867116c2.24-2.88-.53-6.65-3.2-8.8c1.93.88,3.5,2.36,5.6,2.84.53949.194804,1.136653.148604,1.63976-.126861s.86373-.753681.99024-1.313139c1.09-4-3.91-6-7.39-6.21c1.73-1.11,6.69-4.11,4.18-5.78s-8.39,2.67-10.29,4.1c-2.8,2.1-6.17,5.28-6.42,8.72-.32,4.04,3.3,1.7,5.45.93Z" fill="#a285d5"/><path d="M419.5,302.58c2.74.2,4.3,4.66,6.39,6c.438001.391315,1.022808.575963,1.606102.507116s1.10904-.384579,1.443898-.867116c2.24-2.88-.53-6.65-3.2-8.8c1.93.88,3.5,2.36,5.6,2.84.53949.194804,1.136653.148604,1.63976-.126861s.86373-.753681.99024-1.313139c1.09-4-3.91-6-7.39-6.21c1.73-1.11,6.69-4.11,4.18-5.78s-8.39,2.67-10.29,4.1c-2.8,2.1-6.17,5.28-6.42,8.72-.32,4.04,3.3,1.7,5.45.93Z" opacity="0.1"/><path d="M418.67,303.23c3.58-1.46,10.25,1.09,10.87-.22c1.27-2.66-4.06-4.72-7-5.19c2.71-.63,7.9-1.59,7.84-4.18-.07-3.17-7.87-.75-11.88,2.09-5,3.58-5.15,7.2-4.37,8c1.12,1,3.95-.26,4.54-.5Z" fill="#a285d5"/><path d="M399.61,340.36c-1.12183,8.043901-2.843291,15.992707-5.15,23.78-.063513.320325-.374675.528513-.695.465s-.528513-.374675-.465-.695c1.09-7.33,3.07-14.52,4.16-21.85c1.190652-7.413431,1.619552-14.929245,1.28-22.43-.7-12.35-4.05-25.48-12.11-35.15-.18-.23.2-.55.38-.34C403.14,303,400.57,326,400.56,328.08c2.28-7.78,4.64-16.71,13.28-24.64.37-.34.66-.18.6.4-1.55,14.45-5.56,22-13.94,29.71-.23,2.29-.5,4.57-.89,6.81Z" fill="#263238"/><path d="M386.48,286.65c-2.9-1.29-6.9,2.4-9.77,2.66-1.53.13-2.65-.47-2.92-2-.71-4.15,4.16-6.47,8-7.22-2.44-.15-4.84.5-7.23-.14-.65681-.093953-1.241508-.465794-1.605121-1.020783s-.471029-1.239532-.294879-1.879217c1.07-4.66,7.24-4,10.89-2.31-1.16-2.07-4.57-7.81-1.11-8.15s7.08,7.27,8.25,9.76c1.71,3.66,3.41,8.71,1.8,12.35-1.83,4.24-4.24-.11-6.01-2.05Z" fill="#a285d5"/><path d="M386.48,286.65c-2.9-1.29-6.9,2.4-9.77,2.66-1.53.13-2.65-.47-2.92-2-.71-4.15,4.16-6.47,8-7.22-2.44-.15-4.84.5-7.23-.14-.65681-.093953-1.241508-.465794-1.605121-1.020783s-.471029-1.239532-.294879-1.879217c1.07-4.66,7.24-4,10.89-2.31-1.16-2.07-4.57-7.81-1.11-8.15s7.08,7.27,8.25,9.76c1.71,3.66,3.41,8.71,1.8,12.35-1.83,4.24-4.24-.11-6.01-2.05Z" opacity="0.1"/><path d="M387,287.75c-2.85-3.43-11-4.44-11-6.11.16-3.4,6.7-2.61,9.9-1.52-2.41-2.1-7.17-5.9-5.7-8.5c1.79-3.19,8.41,3.51,10.95,8.57c3.19,6.38,1.33,10.13.13,10.47-1.64.48-3.84-2.34-4.28-2.91Z" fill="#a285d5"/><path d="M410.22,344.71l7.12,54.36h-43.34c.89-4.81,8.95-54.42,8.95-54.42Z" fill="#a285d5"/></g><g><polygon points="45.75,399.07 96.82,398.83 147.88,398.74 250,398.58 352.12,398.74 403.19,398.83 454.25,399.07 403.19,399.32 352.12,399.41 250,399.57 147.88,399.41 96.82,399.32 45.75,399.07" fill="#263238"/></g><g><g id="eC5EwShU32j102_ts" transform="translate(340.879349,217.559349) scale(1,1)"><g transform="translate(-340.879348,-217.559349)"><circle r="37.54" transform="translate(340.89 217.52)" fill="#a285d5"/><circle r="37.54" transform="translate(340.89 217.52)" opacity="0.3" fill="#fff"/><path d="M340.89,262c-17.976122.004045-34.184259-10.821931-41.065292-27.428928s-3.07957-35.723858,9.631468-48.434896s31.827898-16.5125,48.434896-9.631468s27.432973,23.08917,27.428928,41.065292c-.027555,24.526589-19.903411,44.402445-44.43,44.43Zm0-87.87c-17.570749-.004045-33.413618,10.577206-40.140456,26.809301s-3.012764,34.918054,9.410202,47.34388s31.108069,16.144202,47.341712,9.421102s26.818542-22.563533,26.818542-40.134283c.000023-23.995452-19.434571-43.456895-43.43-43.49Z" fill="#a285d5"/><path d="M353.94,195.06c-1.391516-2.367926-3.959165-3.793408-6.704767-3.722288s-5.236008,1.627624-6.503065,4.064416-1.110875,5.369441.407832,7.657872c.190068.281777.400638.549167.63.8l.06.07l7.58,2.13v0h.07c.340945-.097701.675015-.217966,1-.36c1.931938-.872108,3.408289-2.516168,4.068305-4.530452s.442896-4.213238-.598305-6.059548Zm.06,5.57c-.622757,2.256538-2.353186,4.039746-4.59,4.73l-7.22-2c-2.031726-2.298713-2.301702-5.662806-.662571-8.256114s4.793644-3.792912,7.741768-2.944053s4.98171,3.542283,4.990803,6.610167c-.00009.62905-.087593,1.255037-.26,1.86Z" fill="#455a64"/><path d="M354.26,198.74c.002712.639097-.084818,1.275376-.26,1.89-.622757,2.256538-2.353186,4.039746-4.59,4.73l-7.22-2c-2.031726-2.298713-2.301702-5.662806-.662571-8.256114s4.793644-3.792912,7.741768-2.944053s4.98171,3.542283,4.990803,6.610167Z" fill="#455a64"/><path d="M350.47,205.65l-1.06-.29-7.22-2-1.05-.29-3-.85-.77,2.76l1.35.38.63.17l11.41,3.2.63.18l1.36.38.77-2.76Zm1.8,2.8l-.73-.2-12.67-3.55-.73-.21.42-1.5l3.27.92l7.6,2.12l3.26.92Z" fill="#455a64"/><path d="M349.94,237.1l-.86-.25-23-6.44v0l-.86-.25-2.9-.81-.77,2.76l1.11.31.63.18L351,240.35l1.12.31.77-2.75Zm1.68,2.76l-.49-.14-28.28-7.92-.49-.14.42-1.5l1.65.46l26,7.28l1.65.46Z" fill="#455a64"/><path d="M350.06,243.56l-.63-.18-27-7.57-.63-.18-1.11-.31-.77,2.75l30.51,8.56.77-2.76Zm-.11,2.26l-29.26-8.2.42-1.5.48.13v0l28.29,7.93.48.13Z" fill="#455a64"/><path d="M322.85,231.79v0l-.18.62-.9,3.21-.18.62v0l28.29,7.93.18-.63.89-3.21.18-.63Zm27.48,8.39l-.9,3.2-27-7.57.9-3.21Z" fill="#455a64"/><polygon points="350.33,240.18 349.43,243.38 322.4,235.81 323.3,232.6 350.33,240.18" fill="#455a64"/><path d="M350.76,211l-12.66-3.55.77-2.75l12.67,3.55Zm-11.86-4l11.41,3.2.42-1.5-11.41-3.2Z" fill="#455a64"/><path d="M350,237.21l-.06-.11c-.5-.93-3.84-7.48-3.19-13.83.52-5.11,1.74-11.32,2.05-12.82c0-.21.07-.33.07-.34l.06-.29-8.66-2.43-.1.29-.11.32c-.51,1.43-2.7,7.37-4.91,12-2.74,5.75-9,9.6-9.92,10.15l-.12.07-.68.39l26,7.28Zm-23.9-6.8c1.86-1.18,7.1-4.82,9.64-10.11c2.24-4.71,4.45-10.74,4.94-12.12l7.49,2.1c-.3,1.43-1.55,7.74-2.07,12.92-.6,5.85,2,11.7,3,13.65Z" fill="#455a64"/><path d="M349.08,236.85l-23-6.44c1.86-1.18,7.1-4.82,9.64-10.11c2.24-4.71,4.45-10.74,4.94-12.12l7.49,2.1c-.3,1.43-1.55,7.74-2.07,12.92-.58,5.85,2.02,11.7,3,13.65Z" fill="#455a64"/></g></g><g id="eC5EwShU32j116_ts" transform="translate(160.592652,85.439694) scale(1,1)"><g transform="translate(-160.592651,-85.439693)"><circle r="37.54" transform="matrix(.942057-.335452 0.335452 0.942057 160.592649 85.4397)" fill="#a285d5"/><circle r="37.54" transform="matrix(.942057-.335452 0.335452 0.942057 160.592649 85.4397)" opacity="0.3" fill="#fff"/><path d="M160.59,128.26c-23.654356,0-42.83-19.175644-42.83-42.83s19.175644-42.83,42.83-42.83s42.83,19.175644,42.83,42.83c-.022052,23.645216-19.184784,42.807948-42.83,42.83Zm0-84.66c-23.102071,0-41.83,18.727929-41.83,41.83s18.727929,41.83,41.83,41.83s41.83-18.727929,41.83-41.83c-.027551-23.090649-18.739351-41.802449-41.83-41.83Z" fill="#a285d5"/><path d="M167.74,67c-5.058386-2.31835-11.051698-.544773-14.033836,4.152978s-2.036695,10.87606,2.213836,14.467022c.778033.656144,1.638693,1.207504,2.56,1.64v0c1.453505.662284,3.032726,1.003368,4.63,1c.34,0,.68,0,1,0c5.069477-.411249,9.215254-4.20672,10.071287-9.220295s-1.795478-9.969637-6.441287-12.039705Zm5,14.55c-1.167674,2.566205-3.30871,4.562141-5.950419,5.547153s-5.566834.878093-8.129581-.297153c-.885191-.409269-1.712363-.933818-2.46-1.56-2.877747-2.443676-4.245084-6.229298-3.593097-9.947885s3.225653-6.813227,6.763097-8.132115c2.63665-.992415,5.560864-.887979,8.12.29c2.577552,1.172483,4.583326,3.321469,5.575545,5.973636s.889495,5.589976-.285545,8.166364Zm-5-14.55c-5.058386-2.31835-11.051698-.544773-14.033836,4.152978s-2.036695,10.87606,2.213836,14.467022c.778033.656144,1.638693,1.207504,2.56,1.64v0c1.453505.662284,3.032726,1.003368,4.63,1c.34,0,.68,0,1,0c5.069477-.411249,9.215254-4.20672,10.071287-9.220295s-1.795478-9.969637-6.441287-12.039705Zm5,14.55c-1.167674,2.566205-3.30871,4.562141-5.950419,5.547153s-5.566834.878093-8.129581-.297153c-.885191-.409269-1.712363-.933818-2.46-1.56-2.877747-2.443676-4.245084-6.229298-3.593097-9.947885s3.225653-6.813227,6.763097-8.132115c2.63665-.992415,5.560864-.887979,8.12.29c2.577552,1.172483,4.583326,3.321469,5.575545,5.973636s.889495,5.589976-.285545,8.166364Zm4.69-9.77c-.699498-1.887751-1.766794-3.617857-3.14-5.09-4.224051-4.534898-10.764234-6.078176-16.57-3.91-5.340605,1.990674-9.134625,6.781561-9.848544,12.43622s1.770296,11.238193,6.448544,14.49378l-2,4.33-.21.45l6.75,3.13.21-.45l2.23-4.82c5.302802.626205,10.549083-1.55379,13.8465-5.753657s4.170186-9.813611,2.3035-14.816343Zm-.88,11.51c-2.682348,5.926926-8.930993,9.396589-15.38,8.54h-.19L158.64,97l-5.84-2.71l2.2-4.71-.17-.12c-6.532677-4.399948-8.486279-13.13906-4.449006-19.901888s12.656889-9.18994,19.629753-5.527348s9.86627,12.137073,6.589253,19.299236Z" fill="#455a64"/><path d="M177,72c-2.24292-5.996838-8.083305-9.875274-14.480619-9.616173s-11.904919,4.597147-13.655526,10.755728.65165,12.745046,5.956145,16.330445l.17.12-2.19,4.71l5.84,2.7L161,91.85h.19c5.146946.664921,10.267018-1.409051,13.500272-5.468513s4.109235-9.513742,2.309728-14.381487Zm-3.77,9.81c-1.660952,3.618848-5.125669,6.07731-9.09,6.45-.34,0-.68,0-1,0-1.597274.003368-3.176495-.337716-4.63-1v0c-.921307-.432496-1.781967-.983856-2.56-1.64-4.392638-3.718362-5.226089-10.172296-1.922173-14.88458s9.655441-6.128626,14.648397-3.266482s6.980476,9.058729,4.583776,14.291062Z" fill="#455a64"/><path d="M159.09,97.21l-.45-.21-5.84-2.71-.46-.21-1.34-.61-7.26,15.65l9.31,4.23l7.24-15.58Zm-6.26,15.48l-8.41-3.81l6.84-14.75.87.4l6.75,3.13.76.35Z" fill="#455a64"/></g></g><g id="eC5EwShU32j123_ts" transform="translate(418.240006,162.090004) scale(1,1)"><g transform="translate(-418.240005,-162.090004)"><circle r="19.51" transform="matrix(.161087-.98694 0.98694 0.161087 418.216178 162.072725)" fill="#a285d5"/><circle r="19.51" transform="matrix(.161087-.98694 0.98694 0.161087 418.216178 162.072725)" opacity="0.3" fill="#fff"/><path d="M418.24,187.91c-14.259992,0-25.82-11.560008-25.82-25.82s11.560008-25.82,25.82-25.82s25.82,11.560008,25.82,25.82c-.022026,14.250859-11.569141,25.797974-25.82,25.82Zm0-50.64c-13.707707,0-24.82,11.112293-24.82,24.82s11.112293,24.82,24.82,24.82s24.82-11.112293,24.82-24.82c-.01653-13.700855-11.119145-24.80347-24.82-24.82Z" fill="#a285d5"/><path d="M426.78,157.34c-.43-4.26-3.37-8.51-8.54-8.51s-8.1,4.25-8.53,8.51c-.65,6.59,3.79,12.56,8.53,18c4.76-5.44,9.19-11.41,8.54-18Zm-8.54,4.74c-2.577861-.00552-4.663673-2.098788-4.659995-4.676652s2.095455-4.665172,4.673321-4.663336s4.666668,2.092121,4.666674,4.669988c.000003,1.240296-.493386,2.429646-1.371345,3.305729s-2.068362,1.366927-3.308655,1.364271Z" fill="#455a64"/></g></g><g id="eC5EwShU32j128_ts" transform="translate(160.589996,245.589997) scale(1,1)"><g transform="translate(-160.589996,-245.589996)"><circle r="19.51" transform="matrix(.707107-.707107 0.707107 0.707107 160.582632 245.594076)" fill="#a285d5"/><circle r="19.51" transform="matrix(.707107-.707107 0.707107 0.707107 160.582632 245.594076)" opacity="0.3" fill="#fff"/><path d="M160.59,270.68c-13.856824,0-25.09-11.233176-25.09-25.09s11.233176-25.09,25.09-25.09s25.09,11.233176,25.09,25.09c-.011029,13.852253-11.237747,25.078971-25.09,25.09Zm0-49.18c-13.30454,0-24.09,10.78546-24.09,24.09s10.78546,24.09,24.09,24.09s24.09-10.78546,24.09-24.09c-.016529-13.297687-10.792313-24.073471-24.09-24.09Z" fill="#a285d5"/><path d="M151.18,246c.362738-.219402.817262-.219402,1.18,0l.31.18.31.15c.393158.17966.649375.567868.66,1l.05,1.46l4.74-.15v-1.45c.001606-.415433.227146-.797704.59-1c.211113-.110026.414873-.233618.61-.37.347993-.2459.805375-.273033,1.18-.07l1.28.68l2.24-4.18-1.28-.69c-.367581-.197414-.594953-.582791-.59-1c.015126-.236425.015126-.473575,0-.71-.04454-.423862.157542-.835797.52-1.06l1.24-.77-2.5-4-1.25.77c-.361441.224003-.818559.224003-1.18,0l-.3-.18-.31-.16c-.395454-.17865-.655191-.566318-.67-1v-1.46l-4.75.15.05,1.45c-.001606.415433-.227146.797704-.59,1-.21.11-.41.24-.61.37-.346041.249101-.803504.280115-1.18.08l-1.28-.69-2.24,4.19l1.28.68c.362854.202296.588394.584567.59,1-.014991.236429-.014991.473571,0,.71.042099.423425-.159381.834134-.52,1.06l-1.24.77l2.5,4Zm1.19-7.49c1.01327-1.887277,3.36165-2.600222,5.253116-1.594794s2.614152,3.35083,1.616582,5.246452-3.339951,2.628036-5.239698,1.638342c-.914429-.480604-1.600139-1.305197-1.905917-2.29194s-.206508-2.05459.275917-2.96806Z" fill="#455a64"/><path d="M162.73,251.69c.253419.152932.40009.434694.38.73v.49c.02009.295306-.126581.577068-.38.73l-.89.51L163.5,257l.89-.51c.255029-.154746.574971-.154746.83,0c.137563.092884.281221.176406.43.25.259805.137946.424404.405898.43.7v1h3.33v-1c.005378-.296913.17478-.566416.44-.7.148779-.073594.292437-.157116.43-.25.255029-.154746.574971-.154746.83,0l.88.51l1.66-2.88-.89-.51c-.253419-.152932-.40009-.434694-.38-.73c0-.08,0-.16,0-.25s0-.16,0-.24c-.020462-.297927.130975-.581387.39-.73l.88-.51-1.65-2.86-.88.51c-.255029.154746-.574971.154746-.83,0-.137563-.092884-.281221-.176406-.43-.25-.268384-.135234-.438336-.409474-.44-.71v-1h-3.33v1c-.001963.297705-.16708.570339-.43.71-.150006.071287-.293834.154908-.43.25-.255029.154746-.574971.154746-.83,0l-.89-.51-1.66,2.89Zm5-1.75c1.10509.000007,2.101174.666238,2.523134,1.687597s.186553,2.196362-.596296,2.976343-1.958708,1.011074-2.978511.58537-1.682375-1.424227-1.678327-2.52931c-.000044-.726617.290641-1.423045.807247-1.934015s1.21618-.793999,1.942753-.785985Z" fill="#455a64"/></g></g><g id="eC5EwShU32j134_ts" transform="translate(250,65.930001) scale(1,1)"><g transform="translate(-250,-65.930001)"><circle r="19.51" transform="translate(250 65.93)" fill="#a285d5"/><circle r="19.51" transform="translate(250 65.93)" opacity="0.3" fill="#fff"/><path d="M250,91.53c-14.13849,0-25.6-11.46151-25.6-25.6s11.46151-25.6,25.6-25.6s25.6,11.46151,25.6,25.6c-.016531,14.131636-11.468364,25.583469-25.6,25.6Zm0-50.2c-13.586205,0-24.6,11.013795-24.6,24.6s11.013795,24.6,24.6,24.6s24.6-11.013795,24.6-24.6c-.01653-13.579352-11.020648-24.58347-24.6-24.6Z" fill="#a285d5"/><path d="M248.75,61c0,2.468713-2.001287,4.47-4.47,4.47s-4.47-2.001287-4.47-4.47s2.001287-4.47,4.47-4.47s4.47,2.001287,4.47,4.47Z" fill="#455a64"/><path d="M252,73.32v1.68h-15.45v-1.68c.149636-4.158287,3.564022-7.452016,7.725-7.452016s7.575364,3.293729,7.725,7.452016Z" fill="#455a64"/><path d="M260.2,58.31c0,2.468713-2.001287,4.47-4.47,4.47s-4.47-2.001287-4.47-4.47s2.001287-4.47,4.47-4.47s4.47,2.001287,4.47,4.47Z" fill="#455a64"/><path d="M263.45,70.63v1.63h-15.45v-1.63c.149636-4.158287,3.564022-7.452016,7.725-7.452016s7.575364,3.293729,7.725,7.452016Z" fill="#455a64"/></g></g><g id="eC5EwShU32j142_ts" transform="translate(106.869991,175.639999) scale(1,1)"><g transform="translate(-106.869991,-175.639999)"><circle r="46.08" transform="matrix(.156779-.987634 0.987634 0.156779 106.872705 175.651375)" fill="#a285d5"/><circle r="46.08" transform="matrix(.156779-.987634 0.987634 0.156779 106.872705 175.651375)" opacity="0.3" fill="#fff"/><path d="M106.87,227.64c-28.718807,0-52-23.281193-52-52s23.281193-52,52-52s52,23.281193,52,52-23.281193,52-52,52Zm0-103c-28.166522,0-51,22.833478-51,51s22.833478,51,51,51s51-22.833478,51-51c-.016562-28.154806-22.845189-50.970005-51-50.97Z" fill="#a285d5"/><path d="M97.87,144.2c-.859248-2.038081-2.400651-3.713826-4.36-4.74-1.672537-.690747-3.562561-.621421-5.18.19-1.675085.639228-2.981884,1.986293-3.57,3.68-.78,2.41.14,5,.74,6.34.065418.153742.138852.303948.22.45v0l.44-.19-.07-.15-.14-.3c-.57-1.24-1.45-3.75-.74-6c.550108-1.556708,1.756913-2.792769,3.3-3.38.852631-.396661,1.779694-.607977,2.72-.62.709183-.00232,1.410965.144169,2.06.43c1.841364.977185,3.289426,2.559458,4.1,4.48c0,.11.1.21.13.3.027439.04798.050852.098151.07.15l.43-.19v0Z" fill="#455a64"/><polygon points="98.04,144.66 97.61,144.85 86.18,149.92 85.74,150.11 85.67,149.96 86.11,149.77 97.54,144.7 97.97,144.51 98.04,144.66" fill="#455a64"/><polygon points="87.33,152.35 86.87,152.55 86.76,152.32 86.66,152.1 86.55,151.87 87.01,151.67 87.12,151.9 87.22,152.12 87.33,152.35" fill="#455a64"/><polygon points="111.91,205.63 111.69,205.74 111.46,205.84 87.89,154.77 87.68,154.32 88.14,154.11 88.35,154.57 111.8,205.38 111.91,205.63" fill="#455a64"/><polygon points="99.17,147.11 98.72,147.31 98.62,147.08 98.4,146.62 98.85,146.42 98.96,146.65 99.06,146.88 99.17,147.11" fill="#455a64"/><polygon points="123.76,200.39 123.53,200.49 123.3,200.6 123.18,200.33 99.74,149.52 99.53,149.07 99.98,148.87 100.19,149.32 123.76,200.39" fill="#455a64"/><path d="M97.54,144.7l-11.43,5.07.07.15l11.43-5.07c-.019148-.051849-.042561-.10202-.07-.15Zm0,0l-11.43,5.07.07.15l11.43-5.07c-.019148-.051849-.042561-.10202-.07-.15Zm0,0l-11.43,5.07.07.15l11.43-5.07c-.019148-.051849-.042561-.10202-.07-.15Zm2.42,1.51l-1.13-2.44-1,.43-.46.2L86,149.47l-.47.2-1,.43l1.13,2.44.1.22l1-.44.46-.2l11.4-5l.44-.2l1-.44Zm-14.75,4.14l.51-.23v0l.44-.19l11.43-5.07.43-.19v0l.51-.23.81,1.76-.54.24-.45.2-11.39,5-.46.2-.53.24Zm12.33-5.65l-11.43,5.07.07.15l11.43-5.07c-.019148-.051849-.042561-.10202-.07-.15Zm0,0l-11.43,5.07.07.15l11.43-5.07c-.019148-.051849-.042561-.10202-.07-.15Z" fill="#455a64"/><path d="M98.62,147.08l-.11-.23-11.39,5.05.1.22.11.23l11.39-5Zm0,0l-.11-.23-11.39,5.05.1.22.11.23l11.39-5Zm1.44-.64l-.1-.23-1,.44-.45.2-11.39,5.05-.46.2-1,.44.1.22l1.13,2.45l1-.44.46-.2l11.39-5l.45-.2l1-.44Zm-.08,2.43l-.45.2-11.39,5-.46.21-.53.23-.82-1.76.54-.24.46-.2l11.39-5l.45-.2.54-.24.81,1.76Zm-1.36-1.79l-.11-.23-11.39,5.05.1.22.11.23l11.39-5Zm0,0l-.11-.23-11.39,5.05.1.22.11.23l11.39-5Z" fill="#455a64"/><path d="M123.53,200.49l-.35-.16-1.72-.8-.08.28c0,0-.3,1.05-.44,1.56l-1.77-.83-.52,1.84-1.75-.83-.54,1.85-1.75-.84-.54,1.85-1.75-.83-.08.28-.44,1.52c0,.16-.08.27-.09.31v.05l-.08.13l7.56,4.85l2.75,1.78l1.75-11.94Zm-1.38,7l-.25,1.73-.36,2.45-3.54-2.32-5.72-3.68c.06-.2.18-.59.4-1.39l1.76.84.54-1.85l1.75.83.54-1.85l1.75.84.52-1.84l1.77.82.08-.28c0,0,.3-1,.44-1.56l1.34.62Z" fill="#455a64"/><path d="M122.15,207.48l-4.2,1.87-.38.17l4.12,2.66.72-4.81Zm-.37.72l-.47,3.14-2.7-1.74Z" fill="#455a64"/><path d="M99.74,149.52l-11.39,5l23.45,50.81.44-1.52.08-.28l1.75.83.54-1.85l1.75.84.54-1.85l1.75.83.52-1.84l1.77.83c.14-.51.43-1.54.44-1.56l.08-.28l1.72.8Zm7.84,40.08c-1.87-3.78-3.63-7.62-5.45-11.43s-3.5-7.69-5.16-11.56-3.32-7.77-4.82-11.73c2,3.71,3.92,7.49,5.79,11.28s3.63,7.62,5.45,11.43s3.49,7.68,5.15,11.56s3.32,7.77,4.83,11.72c-2.03-3.71-3.92-7.48-5.79-11.27Zm5.29-2.43c-1.87-3.79-3.63-7.62-5.45-11.43s-3.49-7.69-5.16-11.57-3.32-7.76-4.82-11.72c2,3.71,3.92,7.49,5.79,11.28s3.63,7.62,5.45,11.43s3.49,7.68,5.16,11.56s3.31,7.77,4.82,11.72c-2.03-3.71-3.92-7.44-5.79-11.27Z" fill="#455a64"/></g></g><g id="eC5EwShU32j157_ts" transform="translate(349.989227,98.83923) scale(1,1)"><g transform="translate(-349.989227,-98.839229)"><circle r="46.08" transform="translate(350.02 98.84)" fill="#a285d5"/><circle r="46.08" transform="translate(350.02 98.032572)" opacity="0.3" fill="#fff"/><path d="M350,151.77c-21.409096.004045-40.712364-12.889371-48.908073-32.667636s-3.669712-42.546041,11.467375-57.685989s37.904009-19.670247,57.683822-11.478275s32.676876,27.492803,32.676876,48.9019c-.038549,29.212546-23.707461,52.885931-52.92,52.93Zm0-104.85c-21.005544-.004045-39.944808,12.646811-47.98515,32.05263s-3.598067,41.744261,11.255096,56.597424s37.191606,19.295438,56.597424,11.255096s32.056675-26.979606,32.05263-47.98515c-.044053-28.656357-23.263643-51.875947-51.92-51.92Z" fill="#a285d5"/><path d="M357.36,74.65h-13.25v-7.94h13.25Zm-12.25-1h11.25v-5.94h-11.25Z" fill="#455a64"/><path d="M331.41,83.37l-6-6l4-4.05l6,6Zm-4.57-6L331.41,82L334,79.33l-4.57-4.56Z" fill="#455a64"/><path d="M370.06,83.37l-4.05-4l6-6l4,4.05Zm-2.63-4L370.06,82l4.56-4.56L372,74.77Z" fill="#455a64"/><polygon points="333.75,112.44 333.99,112.85 330.7,114.76 330.45,114.34 333.75,112.44" fill="#455a64"/><polygon points="330.7,91.08 333.99,92.97 333.75,93.39 330.45,91.49 330.7,91.08" fill="#455a64"/><polygon points="340.79,119.66 341.2,119.89 339.31,123.19 338.89,122.94 340.79,119.66" fill="#455a64"/><polygon points="339.31,82.64 341.2,85.93 340.79,86.18 338.89,82.89 339.31,82.64" fill="#455a64"/><polygon points="350.9,84.77 352.02,104.41 349.5,104.37 350.22,84.75 350.9,84.77" fill="#455a64"/><polygon points="360.68,119.66 362.58,122.94 362.16,123.19 360.26,119.89 360.68,119.66" fill="#455a64"/><polygon points="362.16,82.64 362.58,82.89 360.68,86.18 360.26,85.93 362.16,82.64" fill="#455a64"/><polygon points="367.71,112.44 371,114.34 370.77,114.76 367.47,112.85 367.71,112.44" fill="#455a64"/><polygon points="367.71,93.39 367.47,92.97 370.77,91.08 371,91.49 367.71,93.39" fill="#455a64"/><path d="M371.24,81.48c-1.139067-1.102893-2.370203-2.106536-3.68-3-10.142302-6.954646-23.517698-6.954646-33.66,0-1.302804.902794-2.533203,1.905837-3.68,3-8.839625,8.389114-11.675834,21.317541-7.159744,32.636602s15.473021,18.744287,27.659744,18.744287s23.143653-7.425226,27.659744-18.744287s1.679881-24.247488-7.159744-32.636602ZM350.73,128c-10.153821.004045-19.309893-6.109891-23.197461-15.490026s-1.740754-20.178516,5.439083-27.358352s17.978218-9.326651,27.358352-5.439083s15.494071,13.04364,15.490026,23.197461c0,13.856824-11.233176,25.09-25.09,25.09Z" fill="#455a64"/><polygon points="333.75,112.44 333.99,112.85 330.7,114.76 330.45,114.34 333.75,112.44" fill="#455a64"/><polygon points="330.7,91.08 333.99,92.97 333.75,93.39 330.45,91.49 330.7,91.08" fill="#455a64"/><polygon points="340.79,119.66 341.2,119.89 339.31,123.19 338.89,122.94 340.79,119.66" fill="#455a64"/><polygon points="339.31,82.64 341.2,85.93 340.79,86.18 338.89,82.89 339.31,82.64" fill="#455a64"/><polygon points="350.9,84.77 352.02,104.41 349.5,104.37 350.22,84.75 350.9,84.77" fill="#455a64"/><polygon points="360.68,119.66 362.58,122.94 362.16,123.19 360.26,119.89 360.68,119.66" fill="#455a64"/><polygon points="362.16,82.64 362.58,82.89 360.68,86.18 360.26,85.93 362.16,82.64" fill="#455a64"/><polygon points="367.71,112.44 371,114.34 370.77,114.76 367.47,112.85 367.71,112.44" fill="#455a64"/><polygon points="367.71,93.39 367.47,92.97 370.77,91.08 371,91.49 367.71,93.39" fill="#455a64"/><path d="M370.35,82.37c-1.116417-1.104155-2.327748-2.108019-3.62-3v0c-9.642904-6.814462-22.49348-6.961712-32.29-.37-1.305768.90302-2.539473,1.906033-3.69,3-8.372787,7.985479-11.068674,20.249675-6.816615,31.010318s14.60313,17.869344,26.172935,17.974524s22.048403-6.814161,26.495391-17.495721s1.974514-22.992742-6.251711-31.129121ZM350.73,128c-10.153821.004045-19.309893-6.109891-23.197461-15.490026s-1.740754-20.178516,5.439083-27.358352s17.978218-9.326651,27.358352-5.439083s15.494071,13.04364,15.490026,23.197461c0,13.856824-11.233176,25.09-25.09,25.09Z" fill="#455a64"/><polygon points="333.75,112.44 333.99,112.85 330.7,114.76 330.45,114.34 333.75,112.44" fill="#455a64"/><polygon points="330.7,91.08 333.99,92.97 333.75,93.39 330.45,91.49 330.7,91.08" fill="#455a64"/><polygon points="340.79,119.66 341.2,119.89 339.31,123.19 338.89,122.94 340.79,119.66" fill="#455a64"/><polygon points="339.31,82.64 341.2,85.93 340.79,86.18 338.89,82.89 339.31,82.64" fill="#455a64"/><polygon points="350.9,84.77 352.02,104.41 349.5,104.37 350.22,84.75 350.9,84.77" fill="#455a64"/><polygon points="360.68,119.66 362.58,122.94 362.16,123.19 360.26,119.89 360.68,119.66" fill="#455a64"/><polygon points="362.16,82.64 362.58,82.89 360.68,86.18 360.26,85.93 362.16,82.64" fill="#455a64"/><polygon points="367.71,112.44 371,114.34 370.77,114.76 367.47,112.85 367.71,112.44" fill="#455a64"/><polygon points="367.71,93.39 367.47,92.97 370.77,91.08 371,91.49 367.71,93.39" fill="#455a64"/><polygon points="341.2,85.93 340.79,86.18 338.89,82.89 339.31,82.64 341.2,85.93" fill="#455a64"/><polygon points="333.99,92.97 333.75,93.39 330.45,91.49 330.7,91.08 333.99,92.97" fill="#455a64"/><polygon points="333.99,112.85 330.7,114.76 330.45,114.34 333.75,112.44 333.99,112.85" fill="#455a64"/><polygon points="341.2,119.89 339.31,123.19 338.89,122.94 340.79,119.66 341.2,119.89" fill="#455a64"/><polygon points="362.58,122.94 362.16,123.19 360.26,119.89 360.68,119.66 362.58,122.94" fill="#455a64"/><polygon points="371,114.34 370.77,114.76 367.47,112.85 367.71,112.44 371,114.34" fill="#455a64"/><polygon points="371,91.49 367.71,93.39 367.47,92.97 370.77,91.08 371,91.49" fill="#455a64"/><polygon points="362.58,82.89 360.68,86.18 360.26,85.93 362.16,82.64 362.58,82.89" fill="#455a64"/><polygon points="352.02,104.41 349.5,104.37 350.22,84.75 350.9,84.77 352.02,104.41" fill="#455a64"/><path d="M351.59,102.91c0,.474965-.385035.86-.86.86s-.86-.385035-.86-.86.385035-.86.86-.86c.228086,0,.446831.090607.608112.251888s.251888.380026.251888.608112Z" fill="#455a64"/><rect width="7.5" height="4.87" rx="0" ry="0" transform="matrix(.707107-.707107 0.707107 0.707107 323.388169 76.608832)" fill="#455a64"/><rect width="7.5" height="4.87" rx="0" ry="0" transform="matrix(-.707107-.707107 0.707107-.707107 374.627276 80.060275)" fill="#455a64"/><rect width="15.71" height="4.54" rx="0" ry="0" transform="translate(342.88 64.87)" fill="#455a64"/></g></g><path d="M158.35,175.66c4.47-.13,8.94-.24,13.41-.3s9-.14,13.42-.14l-.24.07l11.83-7.74l11.9-7.63c4-2.56,8-5,12-7.56s8-5,12-7.44q-5.84,4-11.71,7.93c-3.93,2.6-7.83,5.24-11.79,7.81l-11.83,7.73L185.42,176l-.11.07h-.13c-4.47,0-8.94-.1-13.42-.15s-8.94-.14-13.41-.26Z" fill="#a285d5"/><path d="M173,223.76q5.16-6.4,10.4-12.75c3.5-4.23,7-8.46,10.52-12.65l10.6-12.59l10.68-12.51.13-.16h.19l14.19.16l7.1.12l7.1.15-7.1.16-7.1.12-14.19.15.33-.15-10.58,12.6-10.67,12.52c-3.55,4.19-7.15,8.32-10.74,12.47s-7.27,8.26-10.86,12.36Z" fill="#a285d5"/><path d="M191.71,114.58c2.77,2.51,5.48,5.07,8.16,7.66s5.33,5.21,8,7.82l-.34-.14c2.29,0,4.58,0,6.87,0l6.88.06c4.58.09,9.16.18,13.74.41-4.58.23-9.16.32-13.74.41l-6.88.06c-2.29,0-4.58,0-6.87,0h-.21l-.13-.14c-2.61-2.67-5.26-5.29-7.82-8s-5.15-5.37-7.66-8.14Z" fill="#a285d5"/><path d="M250,91c.21,2.76.3,5.52.38,8.28s.11,5.53.12,8.29s0,5.52-.12,8.29l-.13,4.14c-.09,1.38-.14,2.76-.25,4.14-.11-1.38-.16-2.76-.25-4.14l-.13-4.14c-.1-2.77-.11-5.53-.12-8.29s0-5.53.12-8.29.17-5.49.38-8.28Z" fill="#a285d5"/><path d="M263.45,164.67c10.79-.2,21.58-.3,32.37-.38l32.37-.12l32.37.12l16.18.14l16.18.24-16.18.25-16.18.14-32.37.11-32.37-.11c-10.82-.06-21.58-.18-32.37-.39Z" fill="#a285d5"/><path d="M299.9,201.69c-4.54.2-9.09.3-13.63.38h-.16l-.12-.13c-2.41-2.59-4.75-5.26-7.12-7.89s-4.7-5.3-7-8l-3.5-4-3.44-4c-2.31-2.69-4.57-5.42-6.81-8.17q3.69,3.82,7.28,7.75l3.61,3.9l3.55,4c2.36,2.64,4.74,5.26,7.06,7.94s4.69,5.32,7,8l-.28-.13c4.47.06,9.02.16,13.56.35Z" fill="#a285d5"/><path d="M298.19,106.75c-3,.15-6.09.26-9.13.32s-6.08.13-9.12.14l.32-.13c-1.67,1.61-3.31,3.25-5,4.82l-5.06,4.76c-3.4,3.14-6.82,6.27-10.33,9.3c3.17-3.38,6.45-6.65,9.74-9.92l5-4.84c1.65-1.62,3.36-3.19,5-4.79l.13-.12h.19c3,0,6.08,0,9.12.13s6.1.17,9.14.33Z" fill="#a285d5"/><rect width="3.81" height="0.49" rx="0" ry="0" transform="translate(327.46 102.67)" fill="#455a64"/><rect width="0.48" height="3.81" rx="0" ry="0" transform="translate(350.49 79.65)" fill="#455a64"/><rect width="0.48" height="3.81" rx="0" ry="0" transform="translate(350.49 122.38)" fill="#455a64"/><rect width="3.81" height="0.49" rx="0" ry="0" transform="translate(370.19 102.67)" fill="#455a64"/><rect width="3.81" height="0.49" rx="0" ry="0" transform="translate(327.46 102.67)" fill="#455a64"/><rect width="0.48" height="3.81" rx="0" ry="0" transform="translate(350.49 79.65)" fill="#455a64"/><rect width="0.48" height="3.81" rx="0" ry="0" transform="translate(350.49 122.38)" fill="#455a64"/><rect width="3.81" height="0.49" rx="0" ry="0" transform="translate(370.19 102.67)" fill="#455a64"/><rect width="3.81" height="0.49" rx="0" ry="0" transform="translate(327.46 102.67)" fill="#455a64"/><rect width="0.48" height="3.81" rx="0" ry="0" transform="translate(350.49 79.65)" fill="#455a64"/><rect width="0.48" height="3.81" rx="0" ry="0" transform="translate(350.49 122.38)" fill="#455a64"/><rect width="3.81" height="0.49" rx="0" ry="0" transform="translate(370.19 102.67)" fill="#455a64"/><rect width="0.48" height="3.81" rx="0" ry="0" transform="translate(350.49 79.65)" fill="#455a64"/><rect width="3.81" height="0.49" rx="0" ry="0" transform="translate(327.46 102.67)" fill="#455a64"/><rect width="0.48" height="3.81" rx="0" ry="0" transform="translate(350.49 122.38)" fill="#455a64"/><rect width="3.81" height="0.49" rx="0" ry="0" transform="translate(370.19 102.67)" fill="#455a64"/></g><g><path d="M272.89,147.6c-1.74,14.91-11.32,17.65-12.92,21.63-.812914,2.499347-1.480695,5.04359-2,7.62h-15.57c-.515522-2.580571-1.183357-5.12836-2-7.63-1.59-4-11.18-6.71-12.92-21.62-1.15-9.8,6.22-25.27,22.7-25.27s23.82,15.47,22.71,25.27Z" fill="#a285d5"/><rect width="1" height="25.21" rx="0" ry="0" transform="matrix(.983-.183608 0.183608 0.983 241.249521 153.163263)" fill="#fff"/><rect width="25.21" height="1" rx="0" ry="0" transform="matrix(.18378-.982967 0.982967 0.18378 253.542676 177.791394)" fill="#fff"/><path d="M250.19,161.38c-1.24,0-2.49-1-3.52-2.75c0-.06-.07-.12-.1-.19-.325931.409064-.808281.662933-1.33.7-2.37,0-3.32-4.85-3.36-5l.5-.1c.24,1.3,1.23,4.65,2.86,4.65.438781-.059914.831419-.303495,1.08-.67-1-2-1.55-4.65-.83-5.9.22222-.415342.659064-.67049,1.13-.66.548586-.017908,1.061454.271304,1.33.75.73,1.28.19,3.79-.73,5.39-.092831.163347-.196391.320358-.31.47l.2.36c.54.93,1.66,2.5,3.08,2.5v0c.95,0,1.9-.75,2.69-2.12l.18-.32c-.943502-1.186636-1.445449-2.664198-1.42-4.18c0-1.76.67-2.85,1.75-2.85.424666.007319.810053.250112,1,.63.69,1.2.32,4.06-.76,6.32.405815.382991.942002.597466,1.5.6c1.4,0,2.64-3.38,3-4.68l.49.13c-.15.52-1.46,5.05-3.49,5.05-.636765-.007476-1.250061-.24145-1.73-.66l-.12.21c-.89,1.55-2,2.37-3.12,2.37Zm3.2-9.47c-.92,0-1.25,1.27-1.25,2.35-.008176,1.322531.393573,2.615116,1.15,3.7.93-2.05,1.28-4.66.7-5.67-.110892-.230969-.343795-.378473-.6-.38Zm-6.77,0c-.291236-.013379-.562507.147811-.69.41-.54.93-.19,3.19.73,5.19l.12-.21c.84-1.45,1.35-3.82.73-4.89-.17244-.32727-.520794-.522974-.89-.5Z" fill="#fff"/><rect width="19.22" height="3.76" rx="0" ry="0" transform="translate(240.58 176.19)" fill="#263238"/><rect width="19.22" height="3.76" rx="0" ry="0" transform="translate(240.58 180.55)" fill="#263238"/><rect width="19.22" height="3.76" rx="0" ry="0" transform="translate(240.58 184.92)" fill="#263238"/><path d="M249.89,116.35c-.366934-.992212-.553207-2.042118-.55-3.1-.045036-1.054865.104106-2.109029.44-3.11.366176.988949.552444,2.035439.55,3.09.045812,1.058178-.103334,2.115761-.44,3.12Z" fill="#263238"/><path d="M235.71,120.3c-.803109-.675671-1.480229-1.488214-2-2.4-.56359-.89446-.960024-1.883852-1.17-2.92.80122.681432,1.47795,1.496892,2,2.41.563466.890908.959938,1.877002,1.17,2.91Z" fill="#263238"/><path d="M225.41,130.82c-1.055661-.175473-2.071567-.537812-3-1.07-.93519-.48995-1.772418-1.14753-2.47-1.94c1.055661.175473,2.071567.537812,3,1.07.93519.48995,1.772418,1.14753,2.47,1.94Z" fill="#263238"/><path d="M221.75,145.08c-.992212.366934-2.042118.553207-3.1.55-1.054865.045036-2.109029-.104106-3.11-.44c2.003322-.709002,4.182825-.747608,6.21-.11Z" fill="#263238"/><path d="M225.71,159.25c-1.387495,1.607754-3.250803,2.732044-5.32,3.21.670217-.808568,1.483828-1.486577,2.4-2c.894333-.57243,1.882908-.982079,2.92-1.21Z" fill="#263238"/><path d="M275,158.75c1.055017.172362,2.070888.531303,3,1.06.933125.493136,1.769812,1.150291,2.47,1.94-1.0561-.168115-2.072714-.527318-3-1.06-.929216-.499132-1.764912-1.155509-2.47-1.94Z" fill="#263238"/><path d="M278.62,144.49c.992974-.365266,2.041988-.554765,3.1-.56c1.05521-.03672,2.108477.115682,3.11.45-2.005854.694868-4.180795.733393-6.21.11Z" fill="#263238"/><path d="M274.67,130.31c.675671-.803109,1.488214-1.480229,2.4-2c.893642-.565192,1.883337-.961748,2.92-1.17-.681432.80122-1.496892,1.47795-2.41,2-.890908.563466-1.877002.959938-2.91,1.17Z" fill="#263238"/><path d="M264.15,120c.175473-1.055661.537812-2.071567,1.07-3c.48995-.93519,1.14753-1.772418,1.94-2.47-.399092,2.082258-1.449662,3.983789-3,5.43Z" fill="#263238"/></g><g><path d="M288.1,276.53c.085744.425863-.152097.850579-.56,1l-3.35.58c-4-8.12-8.11-14.47-6.94-11.95c1.790289,3.976543,3.015495,8.183981,3.64,12.5-1.47.24-4.91.77-6.63,1-4.41-14.56-9.1-25.21-8.48-21.83c2.49,13.59,2.26,18.07,1.94,22.86-16,2.45-37,5.41-52.3,7.2-2.75-8-5.36-16.73-5.56-16.08-1.52,4.84-1.28,11.62-.7,16.8-4.87.53-8.76.86-11.15.94c0,0-2-6.78-2.41-9-1.132008-5.748079-1.257201-11.649082-.37-17.44.93-5.91,3.11-11.27,5.14-16.75-.005609-.039803-.005609-.080197,0-.12s0,0,0,0c1.342954-3.585904,2.2723-7.313353,2.77-11.11.006838-.02961.006838-.06039,0-.09.324955-2.767417.415277-5.55736.27-8.34-.51-10.19,3.77-19.5,12.36-23.08c14.79-18.65,32.5-13.26,39.15-.8.64,1.21,1.29,2.61,1.94,4.15v0c2.43,5.67,4.89,13.1,7,18.83s0,0,0,.06v0c.80779,2.244415,1.749481,4.438355,2.82,6.57c5.69,10.19,16.12,15.19,21.42,44.1Z" fill="#263238"/><path d="M212.31,206.76c-5.45,3.86-8.46,9-8.48,16.46c0,4.37.23,8.6-.83,12.82s-3.21,8.06-5.39,11.77c-3.48,5.88-5.7,11.61-5.47,18.93s1.61,16.09,4.76,22.72c0,0,.08,0,.06,0-2.73-6.78-3.94-16.42-3.65-23.84.31-8.14,3.95-13.62,7.56-20.16c2.920915-5.188177,4.443988-11.046148,4.42-17c0-3.7-.51-7.49.45-11.07c1.15-4.28,4.11-7.23,7.08-9.88.4-.4-.09-1.04-.51-.75Z" fill="#263238"/><path d="M278,242.81c-4.82-5.32-9.7-9.77-13-16.64-3-6.26-5.06-13-8.08-19.24-.010718-.026795-.034917-.045836-.063481-.049952s-.057154.007321-.075.03-.022237.053157-.011519.079952c4.84,11.16,6.91,22.7,15,31.67c4.42,4.87,8.78,9.35,12,15.4c3.327308,6.371318,5.500823,13.2812,6.42,20.41c0,.26.34.21.33,0-.330279-11.695243-4.762029-22.90205-12.52-31.66Z" fill="#263238"/><path d="M266.34,284c31.61,33.13,70.91,102.37,63.14,116.14-8.66,15.34-54.24-31.82-52.81-34.08c1.22-1.91-14.53-43.6-26-74.09s7.86-16.21,15.67-7.97Z" fill="#f7a9a0"/><path d="M305.07,323.67l-45.38,8.18c0,0-11.33-32.16-13.58-50-1.26-10,4.62-10.42,12-5.1c25.89,18.59,46.96,46.92,46.96,46.92Z" fill="#a285d5"/><path d="M251.7,292.28c0,.469442-.380558.85-.85.85s-.85-.380558-.85-.85.380558-.85.85-.85c.225434,0,.441635.089553.601041.248959s.248959.375607.248959.601041Zm13.32-.85c-.469442,0-.85.380558-.85.85s.380558.85.85.85.85-.380558.85-.85c.000063-.228942-.09223-.44823-.255988-.608224s-.385133-.247163-.614012-.241776Zm-7.08-11c-.469442,0-.85.380558-.85.85s.380558.85.85.85.85-.380558.85-.85c-.021376-.453752-.395745-.810503-.85-.81Zm7.06,33.1c-.469442,0-.85.380558-.85.85s.380558.85.85.85.85-.380558.85-.85c0-.225434-.089553-.441635-.248959-.601041s-.375607-.248959-.601041-.248959Zm14.17,0c-.469442,0-.85.380558-.85.85s.380558.85.85.85.85-.380558.85-.85c.000128-.461741-.368387-.839136-.83-.85Zm14.17,0c-.469442,0-.85.380558-.85.85s.380558.85.85.85.85-.380558.85-.85c.000128-.461741-.368387-.839136-.83-.85Zm-35.42-11c-.469442,0-.85.380558-.85.85s.380558.85.85.85.85-.380558.85-.85c-.025611-.443994-.385513-.795224-.83-.81Zm14.16,0c-.469442,0-.85.380558-.85.85s.380558.85.85.85.85-.380558.85-.85c-.025611-.443994-.385513-.795224-.83-.81Zm14.17,0c-.469442,0-.85.380558-.85.85s.380558.85.85.85.85-.380558.85-.85c-.025611-.443994-.385513-.795224-.83-.81Zm-28.33,22.11c-.223595-.001041-.438804.085043-.6.24.16.51.33,1,.48,1.45h.12c.224525.000016.439712-.089855.597533-.249555s.24514-.375936.242467-.600445c-.015986-.442791-.376949-.79495-.82-.8Zm14.16,0c-.348719-.004055-.665362.202886-.80163.523904s-.065179.692547.179972.940583.615825.323466.938414.190961.53322-.446706.533244-.795448c-.015504-.451818-.378182-.814496-.83-.83Zm14.17,0c-.348719-.004055-.665362.202886-.80163.523904s-.065179.692547.179972.940583.615825.323466.938414.190961.53322-.446706.533244-.795448c-.015504-.451818-.378182-.814496-.83-.83Z" fill="#fff"/><path d="M260,324.41c6.88-1.83,25.68-6.27,38.28-7.56.08,0,.14.28.06.3-10.31,2.65-31.23,6.45-38.24,7.69-.1.02-.25-.39-.1-.43Z" fill="#263238"/><path d="M299,324.77l-39.31,7.07c0,0-11.32-32.16-13.57-50-.81-6.4,1.32-8.87,4.89-8.43Z" opacity="0.1"/><path d="M284.78,398.73h-115c0,0,10.47-80.24,47.52-122.44c10-11.38,28.13-8,36.7-.31c3.027132,2.936615,5.819043,6.106353,8.35,9.48c7.79,10,20.51,34.05,21.7,40.55c2,10.75-7.54,22.36-7.54,22.36Z" fill="#a285d5"/><path d="M237.53,270.18c0,.469442-.380558.85-.85.85s-.85-.380558-.85-.85.380558-.85.85-.85c.225434,0,.441635.089553.601041.248959s.248959.375607.248959.601041Zm-29.18,21.25c-.469442,0-.85.380558-.85.85s.380558.85.85.85.85-.380558.85-.85c0-.225434-.089553-.441635-.248959-.601041s-.375607-.248959-.601041-.248959Zm14.17,0c-.469442,0-.85.380558-.85.85s.380558.85.85.85.85-.380558.85-.85-.380558-.85-.85-.85Zm14.16,0c-.469442,0-.85.380558-.85.85s.380558.85.85.85.85-.380558.85-.85-.380558-.85-.85-.85Zm14.17,0c-.469442,0-.85.380558-.85.85s.380558.85.85.85.85-.380558.85-.85-.380558-.85-.85-.85Zm14.17,0c-.469442,0-.85.380558-.85.85s.380558.85.85.85.85-.380558.85-.85c.000063-.228942-.09223-.44823-.255988-.608224s-.385133-.247163-.614012-.241776Zm-49.59-11c-.469442,0-.85.380558-.85.85s.380558.85.85.85.85-.380558.85-.85c-.021376-.453752-.395745-.810503-.85-.81Zm14.17,0c-.469442,0-.85.380558-.85.85s.380558.85.85.85.85-.380558.85-.85c-.021376-.453752-.395745-.810503-.85-.81Zm14.17,0c-.469442,0-.85.380558-.85.85s.380558.85.85.85.85-.380558.85-.85c-.021376-.453752-.395745-.810503-.85-.81Zm15,.55l-.35-.43v0c-.331781-.19456-.752867-.142085-1.02675.127954s-.332307.69034-.142456,1.024839.58066.49983.952927.403135.633215-.43132.636279-.815928c-.015712-.105017-.056913-.204586-.12-.29Zm-64.54,32.51h-.12c-.19.44-.39.88-.58,1.31v0c.228439.333852.660512.460457,1.033004.302689s.58219-.556194.501347-.952559-.429826-.680843-.834351-.68013Zm14.17,0c-.469442,0-.85.380558-.85.85s.380558.85.85.85.85-.380558.85-.85c-.010302-.227352-.111346-.441077-.280509-.593324s-.392314-.230297-.619491-.216676Zm14.17,0c-.469442,0-.85.380558-.85.85s.380558.85.85.85.85-.380558.85-.85c-.010302-.227352-.111346-.441077-.280509-.593324s-.392314-.230297-.619491-.216676Zm14.16,0c-.469442,0-.85.380558-.85.85s.380558.85.85.85.85-.380558.85-.85c-.010302-.227352-.111346-.441077-.280509-.593324s-.392314-.230297-.619491-.216676Zm14.17,0c-.469442,0-.85.380558-.85.85s.380558.85.85.85.85-.380558.85-.85c-.010302-.227352-.111346-.441077-.280509-.593324s-.392314-.230297-.619491-.216676Zm14.17,0c-.469442,0-.85.380558-.85.85s.380558.85.85.85.85-.380558.85-.85c-.010081-.231082-.113898-.448076-.287502-.600923s-.402-.228345-.632498-.209077Zm14,0c-.375717.088352-.640948.424036-.64.81-.000032.471087.378945.854522.85.86.185602.000202.365643-.063342.51-.18-.32-.42-.56-.91-.79-1.41Zm-77.72-11c-.469442,0-.85.380558-.85.85s.380558.85.85.85.85-.380558.85-.85c-.047357-.471982-.467932-.816496-.94-.77Zm14.17,0c-.469442,0-.85.380558-.85.85s.380558.85.85.85.85-.380558.85-.85c-.047357-.471982-.467932-.816496-.94-.77Zm14.17,0c-.469442,0-.85.380558-.85.85s.380558.85.85.85.85-.380558.85-.85c-.047357-.471982-.467932-.816496-.94-.77Zm14.17,0c-.469442,0-.85.380558-.85.85s.380558.85.85.85.85-.380558.85-.85c-.047357-.471982-.467932-.816496-.94-.77Zm14.17,0c-.469442,0-.85.380558-.85.85s.380558.85.85.85.85-.380558.85-.85c-.047357-.471982-.467932-.816496-.94-.77Zm14.16,0c-.469442,0-.85.380558-.85.85s.380558.85.85.85.85-.380558.85-.85c-.047357-.471982-.467932-.816496-.94-.77Zm-77.92,33.06c-.469442,0-.85.380558-.85.85s.380558.85.85.85.85-.380558.85-.85c-.020138-.227758-.131185-.437798-.308064-.582688s-.404671-.21241-.631936-.187312Zm14.17,0c-.469442,0-.85.380558-.85.85s.380558.85.85.85.85-.380558.85-.85c-.020138-.227758-.131185-.437798-.308064-.582688s-.404671-.21241-.631936-.187312Zm14.17,0c-.469442,0-.85.380558-.85.85s.380558.85.85.85.85-.380558.85-.85c-.020138-.227758-.131185-.437798-.308064-.582688s-.404671-.21241-.631936-.187312Zm14.16,0c-.469442,0-.85.380558-.85.85s.380558.85.85.85.85-.380558.85-.85c-.020138-.227758-.131185-.437798-.308064-.582688s-.404671-.21241-.631936-.187312Zm14.17,0c-.469442,0-.85.380558-.85.85s.380558.85.85.85.85-.380558.85-.85c-.020138-.227758-.131185-.437798-.308064-.582688s-.404671-.21241-.631936-.187312Zm14.17,0c-.469442,0-.85.380558-.85.85s.380558.85.85.85.85-.380558.85-.85c-.019818-.231683-.133685-.445131-.315075-.590621s-.414464-.210317-.644925-.179379Zm14.17,0c-.469442,0-.85.380558-.85.85s.380558.85.85.85.85-.380558.85-.85c-.020138-.227758-.131185-.437798-.308064-.582688s-.404671-.21241-.631936-.187312Zm-77.93-11c-.348719-.004055-.665362.202886-.80163.523904s-.065179.692547.179972.940583.615825.323466.938414.190961.53322-.446706.533244-.795448c-.062334-.459896-.478324-.787377-.94-.74Zm14.17,0c-.348719-.004055-.665362.202886-.80163.523904s-.065179.692547.179972.940583.615825.323466.938414.190961.53322-.446706.533244-.795448c-.062334-.459896-.478324-.787377-.94-.74Zm14.17,0c-.348719-.004055-.665362.202886-.80163.523904s-.065179.692547.179972.940583.615825.323466.938414.190961.53322-.446706.533244-.795448c-.062334-.459896-.478324-.787377-.94-.74Zm14.17,0c-.348719-.004055-.665362.202886-.80163.523904s-.065179.692547.179972.940583.615825.323466.938414.190961.53322-.446706.533244-.795448c-.062334-.459896-.478324-.787377-.94-.74Zm14.17,0c-.348719-.004055-.665362.202886-.80163.523904s-.065179.692547.179972.940583.615825.323466.938414.190961.53322-.446706.533244-.795448c-.062334-.459896-.478324-.787377-.94-.74Zm14.16,0c-.348719-.004055-.665362.202886-.80163.523904s-.065179.692547.179972.940583.615825.323466.938414.190961.53322-.446706.533244-.795448c-.062334-.459896-.478324-.787377-.94-.74ZM180,357.73c-.469442,0-.85.380558-.85.85s.380558.85.85.85.85-.380558.85-.85c0-.225434-.089553-.441635-.248959-.601041s-.375607-.248959-.601041-.248959Zm14.17,0c-.469442,0-.85.380558-.85.85s.380558.85.85.85.85-.380558.85-.85c.000032-.465564-.374468-.844523-.84-.85Zm14.17,0c-.469442,0-.85.380558-.85.85s.380558.85.85.85.85-.380558.85-.85c.000032-.465564-.374468-.844523-.84-.85Zm14.17,0c-.469442,0-.85.380558-.85.85s.380558.85.85.85.85-.380558.85-.85c.000032-.465564-.374468-.844523-.84-.85Zm14.16,0c-.469442,0-.85.380558-.85.85s.380558.85.85.85.85-.380558.85-.85c.000032-.465564-.374468-.844523-.84-.85Zm14.17,0c-.469442,0-.85.380558-.85.85s.380558.85.85.85.85-.380558.85-.85c.000032-.465564-.374468-.844523-.84-.85Zm14.17,0c-.469442,0-.85.380558-.85.85s.380558.85.85.85.85-.380558.85-.85c.000016-.227177-.090909-.444908-.252484-.604604s-.380354-.248069-.607516-.245396Zm-77.92-11c-.469442,0-.85.380558-.85.85s.380558.85.85.85.85-.380558.85-.85c-.030941-.443789-.39523-.790732-.84-.8Zm14.16,0c-.469442,0-.85.380558-.85.85s.380558.85.85.85.85-.380558.85-.85c-.026257-.445977-.393273-.795516-.84-.8Zm14.17,0c-.469442,0-.85.380558-.85.85s.380558.85.85.85.85-.380558.85-.85c-.026257-.445977-.393273-.795516-.84-.8Zm14.17,0c-.469442,0-.85.380558-.85.85s.380558.85.85.85.85-.380558.85-.85c-.026257-.445977-.393273-.795516-.84-.8Zm14.17,0c-.469442,0-.85.380558-.85.85s.380558.85.85.85.85-.380558.85-.85c-.026257-.445977-.393273-.795516-.84-.8Zm14.17,0c-.469442,0-.85.380558-.85.85s.380558.85.85.85.85-.380558.85-.85c-.026257-.445977-.393273-.795516-.84-.8Zm14.16,0c-.469442,0-.85.380558-.85.85s.380558.85.85.85.85-.380558.85-.85c-.026257-.445977-.393273-.795516-.84-.8ZM180,379.83c-.469442,0-.85.380558-.85.85s.380558.85.85.85.85-.380558.85-.85c0-.225434-.089553-.441635-.248959-.601041s-.375607-.248959-.601041-.248959Zm14.17,0c-.469442,0-.85.380558-.85.85s.380558.85.85.85.85-.380558.85-.85c.000032-.465564-.374468-.844523-.84-.85Zm14.17,0c-.469442,0-.85.380558-.85.85s.380558.85.85.85.85-.380558.85-.85c.000032-.465564-.374468-.844523-.84-.85Zm14.17,0c-.469442,0-.85.380558-.85.85s.380558.85.85.85.85-.380558.85-.85c.000032-.465564-.374468-.844523-.84-.85Zm14.16,0c-.469442,0-.85.380558-.85.85s.380558.85.85.85.85-.380558.85-.85c.000032-.465564-.374468-.844523-.84-.85Zm14.17,0c-.469442,0-.85.380558-.85.85s.380558.85.85.85.85-.380558.85-.85c.000032-.465564-.374468-.844523-.84-.85Zm14.17,0c-.469442,0-.85.380558-.85.85s.380558.85.85.85.85-.380558.85-.85c.000016-.227177-.090909-.444908-.252484-.604604s-.380354-.248069-.607516-.245396Zm14.17,0c-.469442,0-.85.380558-.85.85s.380558.85.85.85.85-.380558.85-.85c.000032-.465564-.374468-.844523-.84-.85ZM187.1,368.88c-.469442,0-.85.380558-.85.85s.380558.85.85.85.85-.380558.85-.85c-.005402-.467186-.382814-.844598-.85-.85Zm14.16,0c-.469442,0-.85.380558-.85.85s.380558.85.85.85.85-.380558.85-.85c0-.225434-.089553-.441635-.248959-.601041s-.375607-.248959-.601041-.248959Zm14.17,0c-.469442,0-.85.380558-.85.85s.380558.85.85.85.85-.380558.85-.85-.380558-.85-.85-.85Zm14.17,0c-.469442,0-.85.380558-.85.85s.380558.85.85.85.85-.380558.85-.85-.380558-.85-.85-.85Zm14.17,0c-.469442,0-.85.380558-.85.85s.380558.85.85.85.85-.380558.85-.85-.380558-.85-.85-.85Zm14.17,0c-.469442,0-.85.380558-.85.85s.380558.85.85.85.85-.380558.85-.85-.380558-.85-.85-.85Zm14.16,0c-.469442,0-.85.380558-.85.85s.380558.85.85.85.85-.380558.85-.85-.380558-.85-.85-.85ZM172.93,391c-.469442,0-.85.380558-.85.85s.380558.85.85.85.85-.380558.85-.85c0-.225434-.089553-.441635-.248959-.601041s-.375607-.248959-.601041-.248959Zm14.17,0c-.469442,0-.85.380558-.85.85s.380558.85.85.85.85-.380558.85-.85c-.005402-.467186-.382814-.844598-.85-.85Zm14.16,0c-.469442,0-.85.380558-.85.85s.380558.85.85.85.85-.380558.85-.85c0-.225434-.089553-.441635-.248959-.601041s-.375607-.248959-.601041-.248959Zm14.17,0c-.469442,0-.85.380558-.85.85s.380558.85.85.85.85-.380558.85-.85-.380558-.85-.85-.85Zm14.17,0c-.469442,0-.85.380558-.85.85s.380558.85.85.85.85-.380558.85-.85-.380558-.85-.85-.85Zm14.17,0c-.469442,0-.85.380558-.85.85s.380558.85.85.85.85-.380558.85-.85-.380558-.85-.85-.85Zm14.17,0c-.469442,0-.85.380558-.85.85s.380558.85.85.85.85-.380558.85-.85-.380558-.85-.85-.85Zm14.16,0c-.469442,0-.85.380558-.85.85s.380558.85.85.85.85-.380558.85-.85-.380558-.85-.85-.85Z" fill="#fff"/><path d="M285.19,325.43C284.13,321,281.67,317,279.5,313c-2.29-4.18-4.69-8.3-7.15-12.38l-.27-.44c-.41-1.3-1-2.58-1.49-3.84-.64-1.62-1.32-3.22-1.95-4.85c0-.05-.11,0-.09,0c.51,1.69,1,3.38,1.64,5c.16.42.32.86.48,1.3-.83-1.37-1.67-2.72-2.53-4.07-1.46-2.29-3-4.52-4.47-6.81c0,0-.13,0-.09.06c2.35,4,4.6,8.08,6.95,12.09s4.63,8.06,6.82,12.16q1.63,3,3.16,6.15c1.008633,1.940897,1.890479,3.945094,2.64,6c1.364226,3.988415,1.395811,8.31208.09,12.32-1.42,4.53-3.94,8.65-6.34,12.71-.1.17.15.36.27.2c5.04-6.6,10.11-14.48,8.02-23.17Z" fill="#263238"/><path d="M329.48,400.09C322.07,410.32,302.34,412,253,420.77c-6.83,1.22-28.38-44.61-21.16-46.29c9.1-2.11,44.84-8.33,47.51-8.45c22.56-1.03,55.16,27.12,50.13,34.06Z" fill="#f7a9a0"/><path d="M241.75,372.4c0,0-20.87,2.8-31.38,7.67C196.3,386.58,186.83,398,183.15,403c-7.68,10.49-19,41.16-10.74,46c7.48,4.34,17.47-27.59,17.47-27.59s-15.55,30.88-5.58,34.45s19.45-34.15,19.45-34.15-15.27,32.09-4.41,34.15c8.21,1.56,18.73-32.13,18.73-32.13s-12.94,27.67-4.56,29.63c9.25,2.18,20.91-28.31,20.91-28.31c22.12,1.42,33.24-7,40.44-13.86c1.74-1.69-33.11-38.79-33.11-38.79Z" fill="#f7a9a0"/><path d="M194.57,410.37c-1.95,3.56-4,7.15-5.59,10.87s-3.15,7.51-4.43,11.36c-3.14,9.47-3.63,15.89-3.55,15.49c1.73-9.29,7.38-22.71,9-26.44s3.08-7.51,4.71-11.23c.05-.09-.09-.14-.14-.05Z" fill="#263238"/><path d="M208.12,416c-2.3,4.65-4.76,9.19-6.86,14s-3.65,9.41-5.41,14.27c-.13.38.11.33.26,0c1.95-4.8,4.13-9.08,6.13-13.84s3.83-9.62,6-14.3c.03-.13-.08-.13-.12-.13Z" fill="#263238"/><path d="M220.63,418.79c-3.89,6.94-6.49,14.58-8.86,22.14-.12.37.19.27.33-.11c2.81-7.41,5-13.24,8.77-21.89.06-.14-.16-.28-.24-.14Z" fill="#263238"/><path d="M301.14,371.55c-3.28-2.07-12.56-6.95-21.69-5.6-.044183,0-.08.035817-.08.08s.035817.08.08.08c7.52,0,18.26,3.82,21.61,5.57.09.05.16-.08.08-.13Z" fill="#263238"/><path d="M230.16,269.29c-3.75,1.93-3.84,7.11.47,12.88C237.53,291.43,257,299,257,299s1.09-18-4.87-26.29c-4-5.51-17.47-5.71-21.97-3.42Z" fill="#f7a9a0"/><path d="M231,273.3c.66,1.84,11.17,13.08,19.79,11.65c2.8-.47.92-15.9.92-15.9l.12-1.17l1.68-16.39-20.18-9.82-2.9-1.28c0,0-.16,4.52-.31,10.14c0,.26,0,.52,0,.8s0,.62,0,.92c0,.84-.06,1.7-.08,2.55c0,.65,0,1.28,0,2s0,1.35,0,2c-.012608,4.84962.308148,9.694372.96,14.5Z" fill="#f7a9a0"/><path d="M230.16,250.53c4.338574,8.690117,12.27712,15.034372,21.71,17.35l1.68-16.39-20.18-9.82-2.9-1.28c0,0-.16,4.52-.31,10.14Z" fill="#263238"/><path d="M272.73,223.91c7.54,27.92-8.33,35.58-14.35,37.2-5.47,1.47-24.27,5.78-34.65-21.21s.21-39.32,12.54-43.34s28.92-.56,36.46,27.35Z" fill="#f7a9a0"/><path d="M265.57,218.86c-.68.06-1.32,0-2,0-.690138.090075-1.39099-.043087-2-.38-.365775-.297451-.474113-.809972-.26-1.23.51536-.76811,1.408818-1.193749,2.33-1.11.930087-.068002,1.85155.217723,2.58.8.330897.293516.453802.75668.311966,1.17564s-.520818.712213-.961966.74436Z" fill="#263238"/><path d="M247.67,222.87c.65-.23,1.21-.54,1.82-.82.684807-.193273,1.284004-.612711,1.7-1.19.208674-.417509.100766-.923846-.26-1.22-.788118-.489729-1.78005-.512708-2.59-.06-.862424.338366-1.572973.97786-2,1.8-.170738.393498-.097166.850353.188474,1.170355s.731241.444778,1.141526.319645Z" fill="#263238"/><path d="M253,229.18c0-.07-.13.13-.11.21.52,1.9.8,4.16-.78,5.21-.05,0,0,.13,0,.11c2.06-.81,1.66-3.81.89-5.53Z" fill="#263238"/><path d="M250.79,227.6c-3.14.5-1.9,6.74,1,6.27s1.62-6.7-1-6.27Z" fill="#263238"/><path d="M249.63,228.17c-.48.46-.89,1.19-1.53,1.39s-1.45-.32-2.07-.84c-.06-.06-.11,0-.09.09.22,1.2.92,2.33,2.24,2.25s1.83-1.29,1.89-2.55c.01-.24-.25-.51-.44-.34Z" fill="#263238"/><path d="M263.67,226.19c0-.08.17.06.18.14.31,1.95,1,4.12,2.86,4.43.06,0,.07.11,0,.11-2.19.13-3.06-2.79-3.04-4.68Z" fill="#263238"/><path d="M265,223.84c3.06-.83,4.5,5.36,1.66,6.13s-4.22-5.43-1.66-6.13Z" fill="#263238"/><path d="M266.39,224c.57.21,1.19.69,1.78.6s1-.9,1.32-1.64c0-.08.09,0,.11,0c.31,1.18.21,2.5-.88,3s-2-.39-2.54-1.5c-.1-.23-.01-.6.21-.46Z" fill="#263238"/><path d="M255.21,244.8c.53.39,1.09.94,1.81.89.717152-.123058,1.399327-.39934,2-.81s.13,0,.1.09c-.445801.869013-1.33347,1.422365-2.31,1.44-.845347-.088772-1.554887-.676113-1.8-1.49-.01-.11.12-.17.2-.12Z" fill="#263238"/><path d="M262.6,235.63c0,0,1,2.81,1.3,4.17-2.472448,1.176331-5.38945.911846-7.61-.69-.13-.1,0-.29.16-.23c1.991372.818944,4.193888.97326,6.28.44c0-.4-1.89-4.75-1.68-4.81c1.080514-.132186,2.174063-.115362,3.25.05-1.94-5.91-4.81-11.46-6.66-17.37-.06-.21.24-.34.34-.16c3.42,5.6,5.8,12.35,8,18.4.24.75-2.79.32-3.38.2Z" fill="#263238"/><path d="M262,240.05c-.557692,1.103121-1.38708,2.046076-2.41,2.74-.570559.357193-1.237952.528409-1.91.49-1.47-.09-1.75-1.37-1.7-2.52.02744-.609861.128164-1.214205.3-1.8c1.741075.965586,3.745833,1.347612,5.72,1.09Z" fill="#263238"/><path d="M259.6,242.79c-.570559.357193-1.237952.528409-1.91.49-1.47-.09-1.75-1.37-1.7-2.52c1.52-.13,3.2.6,3.61,2.03Z" fill="#ff9abb"/><path d="M223.38,239.42c0,0-10.12-8.21-10-22.09s15.34-25.74,32.68-24c0,0-22.78,5.69-25.79,18.34s3.11,27.75,3.11,27.75Z" fill="#a285d5"/><path d="M228.76,241.47c5.25-1,2.78-13,2.78-13s20.29-10.64,16.41-28.73c0,0,7.32,10,20.21,11.33c0,0-7-18.94-23.42-17.7c0,0-21.1-.72-26.83,17.71s7.33,31.07,10.85,30.39Z" fill="#263238"/><path d="M247.6,198.44c1.13336,2.618043,1.695849,5.447535,1.65,8.3-.000372,2.887232-.59611,5.743371-1.75,8.39-.292995.660214-.62698,1.301465-1,1.92l-.5.95c-.2.3-.41.59-.62.88-.43.58-.84,1.17-1.29,1.73s-1,1-1.48,1.55c-.25.25-.49.52-.75.76l-.82.68-1.66,1.34c-1.18.78-2.39,1.5-3.61,2.2c1.06-.94,2.19-1.76,3.22-2.69l1.5-1.45.74-.72c.23-.25.44-.53.67-.79.43-.54.87-1.07,1.32-1.58s.76-1.14,1.15-1.7l.57-.85.47-.91c.339796-.589609.640445-1.200928.9-1.83c1.115658-2.505863,1.792179-5.184886,2-7.92.114969-1.374266.114969-2.755734,0-4.13-.117299-1.394543-.354849-2.776347-.71-4.13Z" fill="#263238"/><path d="M228.64,239.89c0,0-7.8-7.78-11.43-4.84s3.34,15,8.39,15.89c1.293739.334167,2.667913.123226,3.801857-.583598s1.928458-1.847701,2.198143-3.156402Z" fill="#f7a9a0"/><path d="M219.29,238.45c-.026585.010626-.044019.03637-.044019.065s.017434.054374.044019.065c3.56.75,5.86,3.52,7.65,6.49-1.21-1-2.67-1.48-4.1,0-.08.08,0,.2.12.17c1.12593-.595458,2.505124-.41504,3.44.45.749939.708464,1.420554,1.496436,2,2.35.21.27.72,0,.54-.3.003572-.026547.003572-.053453,0-.08-.68-4.26-5.03-9.6-9.65-9.21Z" fill="#263238"/><path d="M228.14,249.18c.080933.436971-.090504.882355-.443536,1.152284s-.827781.318622-1.228257.125975-.658753-.593957-.668207-1.038259c-.013078-.614567.44784-1.136228,1.059339-1.198946s1.168713.354519,1.280661.958946Z" fill="#fff"/><path d="M225.07,247.57c.025129.22196-.04027.444679-.181413.617815s-.346116.282073-.568587.302185c-.338097.034695-.663785-.137766-.825102-.436915s-.12647-.66603.088283-.929459.567085-.371491.892604-.273763.560071.381984.594215.720137Z" fill="#fff"/><path d="M217.46,238.33h-1.74c-.163498.005384-.322307-.055127-.440766-.167945s-.186641-.268489-.189234-.432055v0c-.00542-.165219.056447-.325563.171437-.444323s.273255-.185766.438563-.185677h1.74c.16444-.002674.323206.060097.441358.174499s.186011.27106.188642.435501v0c.000044.338549-.271495.61454-.61.62Z" fill="#a285d5"/><path d="M217.71,240.11l-1.7.4c-.330994.075056-.660817-.129969-.74-.46v0c-.038853-.159242-.011984-.327421.074552-.46663s.225455-.237735.385448-.27337l1.7-.4c.159242-.038853.327421-.011984.46663.074552s.237735.225455.27337.385448v0c.038853.159242.011984.327421-.074552.46663s-.225455.237735-.385448.27337Z" fill="#a285d5"/><path d="M282,255c0,0-3.62-10.08-10.3-7s-1.47,12.39-1.47,12.39Z" fill="#ff9abb"/><rect width="12.93" height="75.35" rx="0" ry="0" transform="matrix(-.910539 0.413422-.413422-.910539 312.948642 323.254447)" fill="#a285d5"/><rect width="15.09" height="3" rx="0" ry="0" transform="matrix(-.910539 0.413422-.413422-.910539 283.856994 256.562865)" fill="#37474f"/><rect width="15.09" height="3" rx="0" ry="0" transform="matrix(-.910539 0.413422-.413422-.910539 285.22102 259.569424)" fill="#37474f"/><path d="M301.18,328.58l8.27,6.46l2.72,2.14.21-3.47.58-10.48-2-1.17c0,0-.37,2.2-.39,2.24l-2-1.17c0,0-.38,2.2-.39,2.24l-1.94-1.18c0,0-.4,2.21-.42,2.25L304,325.26c0,0-.4,2.21-.42,2.25l-1.94-1.18c0,0-.45,2.21-.46,2.25Z" fill="#ebebeb"/><polygon points="309.45,335.04 312.17,337.18 312.38,333.71 309.45,335.04" fill="#37474f"/><path d="M205.58,290.5c-15,24.53-40.13,76.88-30.48,96.13c9.29,18.54,83.14-8.27,98.12-13.78c6.16-2.26-1.3-53.13-8.12-51.53-15,3.49-46.8,18.65-47.51,18.18s3.82-22.5,7.41-44.37c5.25-31.81-8.65-22.27-19.42-4.63Z" fill="#f7a9a0"/><path d="M310.09,297.1c4.07,4.67-.82,8.8-.82,8.8c2.679764.346396,5.155038,1.615858,7,3.59c3.09,3.64-1.27,10.08-1.27,10.08c2.718692.94342,5.088917,2.686232,6.8,5c2.6,3.78-.87,10.9-.87,10.9c2.015591,2.234907,3.158696,5.121071,3.22,8.13-.15,8-10.65,14.42-17.35,18.42-9.95,6-29.36,9.42-33.59,10.87l-26.54-42.51c0,0,24.89-26.28,33.16-30.47c8.46-4.32,26.26-7.41,30.26-2.81Z" fill="#f7a9a0"/><path d="M308.55,305.4c-8.41,1.48-15.93,5.35-23.66,8.8-.060415.040653-.082905.118826-.05333.185369s.10267.102233.17333.084631c7.65-3.52,15.89-5.47,23.66-8.68.083156-.049584.121637-.149592.093164-.242127s-.116518-.153613-.213164-.147873Z" fill="#263238"/><path d="M314.53,319.09c-1.87761.5254-3.679263,1.291775-5.36,2.28q-2.76,1.39-5.47,2.89c-3.62,2-7.2,4.06-10.71,6.23-.16.1-.05.36.12.27c3.61-2,7.25-3.9,10.95-5.72c1.84-.91,3.7-1.81,5.56-2.69c1.809222-.720801,3.53306-1.639735,5.14-2.74.094972-.086965.12385-.224838.071761-.342606s-.173526-.189155-.301761-.177394Z" fill="#263238"/><path d="M320.79,335.51c-1.66.27-3.28,1.47-4.72,2.3q-2.44,1.41-4.91,2.79c-3.28,1.85-6.56,3.69-9.91,5.42-.16.09,0,.35.12.27c3.41-1.74,6.84-3.44,10.23-5.21q2.5-1.29,5-2.63c1.41-.75,3.26-1.54,4.31-2.78.044183-.033137.053137-.095817.02-.14s-.095817-.053137-.14-.02Z" fill="#263238"/><path d="M217.61,339.19c-2.503987,1.994984-4.811184,4.225162-6.89,6.66-2.022935,2.318323-3.922238,4.741686-5.69,7.26c0,.06.11.11.16.06c2-2.37,4.26-4.62,6.39-6.93s4.53-4.47,6.5-6.83c.13-.16-.3-.35-.47-.22Z" fill="#263238"/><path d="M191.84,393.07c6.975421-.610577,13.903506-1.67618,20.74-3.19l5.13-1.13l5.1-1.21c1.7-.41,3.39-.87,5.09-1.3s3.38-.88,5.06-1.36c6.75-1.83,13.43-3.91,20.1-6.05L263,375.5l9.9-3.5h.06v0c3.77-.89,7.54-1.86,11.3-2.82s7.5-2,11.21-3.09c3.722826-1.026766,7.339208-2.406349,10.8-4.12c3.451441-1.773174,6.749469-3.830261,9.86-6.15-2.9467,2.562432-6.134956,4.83306-9.52,6.78-1.69408.987062-3.447406,1.868734-5.25,2.64-1.82.76-3.66,1.42-5.5,2.05-3.7,1.26-7.44,2.37-11.18,3.45s-7.5,2.08-11.27,3.06h.1l-9.9,3.63c-3.32,1.12-6.64,2.3-10,3.37-6.7,2.11-13.43,4.18-20.25,5.87s-13.68,3.28-20.62,4.43q-2.6.44-5.21.81c-1.75.21-3.49.46-5.24.63-3.469329.388826-6.959134.565821-10.45.53Z" fill="#263238"/><path d="M175.44,330.43L221.53,332c0,0,6.61-33.45,6.27-51.45-.18-10.08-6.06-9.65-12.62-3.32-22.97,22.15-39.74,53.2-39.74,53.2Z" fill="#a285d5"/><path d="M209.2,292.28c0,.469442-.380558.85-.85.85s-.85-.380558-.85-.85.380558-.85.85-.85c.225434,0,.441635.089553.601041.248959s.248959.375607.248959.601041Zm13.32-.85c-.469442,0-.85.380558-.85.85s.380558.85.85.85.85-.380558.85-.85-.380558-.85-.85-.85Zm-7.09-11c-.469442,0-.85.380558-.85.85s.380558.85.85.85.85-.380558.85-.85c-.021376-.453752-.395745-.810503-.85-.81Zm-21.25,33.06c-.469442,0-.85.380558-.85.85s.380558.85.85.85.85-.380558.85-.85c-.021376-.453752-.395745-.810503-.85-.81Zm14.17,0c-.469442,0-.85.380558-.85.85s.380558.85.85.85.85-.380558.85-.85c-.021376-.453752-.395745-.810503-.85-.81Zm14.17,0c-.469442,0-.85.380558-.85.85s.380558.85.85.85.85-.380558.85-.85c-.021376-.453752-.395745-.810503-.85-.81Zm-21.26-11c-.469442,0-.85.380558-.85.85s.380558.85.85.85.85-.380558.85-.85c-.045841-.435707-.411896-.76731-.85-.77Zm14.17,0c-.469442,0-.85.380558-.85.85s.380558.85.85.85.85-.380558.85-.85c-.045841-.435707-.411896-.76731-.85-.77Zm-28.33,22.1c-.348719-.004055-.665362.202886-.80163.523904s-.065179.692547.179972.940583.615825.323466.938414.190961.53322-.446706.533244-.795448c-.045432-.437482-.410234-.772242-.85-.78Zm14.16,0c-.348719-.004055-.665362.202886-.80163.523904s-.065179.692547.179972.940583.615825.323466.938414.190961.53322-.446706.533244-.795448c-.041065-.439663-.408435-.776779-.85-.78Zm14.17,0c-.348719-.004055-.665362.202886-.80163.523904s-.065179.692547.179972.940583.615825.323466.938414.190961.53322-.446706.533244-.795448c-.041065-.439663-.408435-.776779-.85-.78Z" fill="#fff"/><path d="M220.17,324.7c-7.07-.83-26.31-2.53-39-2-.08,0-.1.3,0,.3c10.59,1.15,31.84,1.92,39,2.13.1.01.13-.41,0-.43Z" fill="#263238"/><path d="M227.77,297.74c-.53,2-1,4-1.51,6l.09-.73c.28-2.8.56-5.6.76-8.41c0-.07-.11-.08-.12,0-1.37,9.79-5.24,34.54-5.46,37.25-.22,0-2.32.06-2.81,0-.11,0-.1.15,0,.16.25,0,3.41.41,3.43.34c1.37-4.77,3.46-22.81,3.9-26.8q1.08-3.87,1.77-7.81Z" fill="#263238"/></g></svg>
