<svg id="eKT9raIYh3m1" xmlns="http://www.w3.org/2000/svg" xmlns:xlink="http://www.w3.org/1999/xlink" viewBox="0 0 360.85 371.27" shape-rendering="geometricPrecision" text-rendering="geometricPrecision">
<style>
#eKT9raIYh3m4_to {animation: eKT9raIYh3m4_to__to 4000ms linear infinite normal forwards}@keyframes eKT9raIYh3m4_to__to { 0% {transform: translate(42.825001px,167.505714px)} 50% {transform: translate(47.207411px,167.505714px)} 100% {transform: translate(42.825001px,167.505714px)}} #eKT9raIYh3m4_tr {animation: eKT9raIYh3m4_tr__tr 4000ms linear infinite normal forwards}@keyframes eKT9raIYh3m4_tr__tr { 0% {transform: rotate(0deg)} 50% {transform: rotate(1.985041deg)} 100% {transform: rotate(0deg)}} #eKT9raIYh3m190_to {animation: eKT9raIYh3m190_to__to 4000ms linear infinite normal forwards}@keyframes eKT9raIYh3m190_to__to { 0% {transform: translate(240.784767px,25.832628px)} 25% {transform: translate(236.330921px,24.008958px)} 50% {transform: translate(240.784767px,25.832628px)} 75% {transform: translate(236.330921px,24.008958px)} 100% {transform: translate(240.784767px,25.832628px)}} #eKT9raIYh3m190_ts {animation: eKT9raIYh3m190_ts__ts 4000ms linear infinite normal forwards}@keyframes eKT9raIYh3m190_ts__ts { 0% {transform: scale(1,1)} 25% {transform: scale(1.197768,1.197765)} 50% {transform: scale(1,1)} 75% {transform: scale(1.197768,1.197765)} 100% {transform: scale(1,1)}} #eKT9raIYh3m196_to {animation: eKT9raIYh3m196_to__to 4000ms linear infinite normal forwards}@keyframes eKT9raIYh3m196_to__to { 0% {transform: translate(173.771873px,12.666587px)} 25% {transform: translate(170.264549px,14.582644px)} 50% {transform: translate(173.771873px,12.666587px)} 75% {transform: translate(170.264549px,14.582644px)} 100% {transform: translate(173.771873px,12.666587px)}} #eKT9raIYh3m196_ts {animation: eKT9raIYh3m196_ts__ts 4000ms linear infinite normal forwards}@keyframes eKT9raIYh3m196_ts__ts { 0% {transform: scale(1.193867,1.193868)} 25% {transform: scale(1,1)} 50% {transform: scale(1.193867,1.193868)} 75% {transform: scale(1,1)} 100% {transform: scale(1.193867,1.193868)}}
</style>
<g transform="matrix(.9086 0 0 0.9086 16.490845 16.966353)"><g><g id="eKT9raIYh3m4_to" transform="translate(42.825001,167.505714)"><g id="eKT9raIYh3m4_tr" transform="rotate(0)"><g transform="translate(-42.825001,-167.505714)"><path d="M40.21,151.3c0,0-21.71-3-16.63-29.24c0,0,24.25,5.44,16.63,29.24Z" fill="#a285d5"/><path style="isolation:isolate" d="M40.21,151.3c0,0-21.71-3-16.63-29.24c0,0,24.25,5.44,16.63,29.24Z" opacity="0.1"/><path d="M39.11,145.88c-.42-1.36-.91-2.69-1.48-4v-.49l-.09-1.09c-.06-.78-.11-1.56-.16-2.34-.09-1.57-.19-3.13-.21-4.7c0-.04-.03-.07-.07-.07s-.07.03-.07.07v4.71c0,.78.04,1.56.12,2.34v.52c-1.22-2.61-2.67-5.1-4.35-7.44-.75-1-1.53-2-2.37-3s-1.78-1.93-2.66-2.91c-.05-.06-.15,0-.09.1c1.56,1.72,2.96,3.58,4.18,5.56.66,1,1.28,2,1.88,3.06l-.2-.08-.78-.31-1.76-.64-3.48-1.29c-.07,0-.12.09,0,.12c1.16.46,2.3.95,3.44,1.44l1.68.72.85.35c.18.09.37.16.57.21.44.78.87,1.57,1.27,2.38c1.01,2.03,1.9,4.11,2.65,6.25.06.15.11.3.16.45-.57-.33-1.17-.62-1.78-.86l-2.24-1c-1.53-.7-3-1.41-4.5-2.24-.07,0-.14.08-.06.12c1.49.82,2.95,1.68,4.45,2.49.74.41,1.49.8,2.26,1.17.62.38,1.29.65,2,.82.73,1.99,1.2,4.06,1.42,6.16.24,3,.21,5.94.28,8.91m.08,0c.22-2.69.34-5.41.35-8.11-.03-2.51-.47-5-1.29-7.38l.94,15.49Z" fill="#263238"/><path d="M35.77,130.42c-.21,1.53-.28,3.08-.22,4.62h.07c.09-1.53.1-3.06.28-4.59.01-.08-.12-.12-.13-.03Z" fill="#263238"/><path d="M29.56,131.73c-.97-.37-1.9-.83-2.79-1.37-.07,0-.13.07-.06.12.87.58,1.82,1.04,2.82,1.34c0,0,.09-.07.03-.09Z" fill="#263238"/><path d="M40.9,192.88c0-2.4-.06-4.8-.09-7.19-.04-8-.12-15.97-.25-23.9-.12-6.32-.27-12.65-.44-19c0-.04-.03-.07-.06-.09v-5.18c0,0,0-.06-.1-.06s-.1,0-.1.07v5.19c0,0-.05,0-.05.07-.31,11.25-.6,22.51-.67,33.76v6.87c-.08,7.33-.11,14.67-.08,22v3.5c0,6.71.07,13.43.07,20.14c0,.36.4.54.83.56s1-.17,1-.59c0-7.4.05-14.8.05-22.21-.09-4.6-.07-9.26-.11-13.94Z" fill="#263238"/><path d="M31.84,185.6c0,0-10.44-7.72-20.35-2.5s-11.49,25.37-11.49,25.37s14.55,2.08,23.71-6.64c8.86-8.4,8.13-16.23,8.13-16.23Z" fill="#a285d5"/><path d="M34.68,186.08c-1.91-.75-3.97-1.02-6-.79-.42-.07-.85-.11-1.28-.12l-1.47-.11-3-.22c-2.06-.15-4.12-.28-6.18-.48-.07,0-.09.12,0,.13c2,.26,4.06.55,6.1.75c1,.11,2.1.22,3.15.29l.76.08c-.31.07-.62.14-.93.23-1.67.47-3.29,1.11-4.83,1.92-.82.15-1.64.38-2.44.57-1.29.3-2.58.63-3.86,1-2.54.66-5.05,1.41-7.56,2.14-.04.01-.05.06-.04.09c0,.02.02.03.04.04c2.51-.62,5-1.18,7.55-1.78l3.68-.88l1-.22c-2.79,1.73-5.28,3.9-7.37,6.42-2.04,2.49-3.77,5.22-5.16,8.13c0,.08.07.15.11.07c1.72-2.99,3.81-5.74,6.24-8.19c0,.14-.09.28-.14.42-.19.61-.38,1.23-.58,1.84-.38,1.23-.77,2.46-1.14,3.7c0,.08.1.11.13,0c.44-1.19.86-2.39,1.28-3.59.2-.59.41-1.18.62-1.76.1-.31.21-.61.31-.92l.1-.28c1.16-1.13,2.4-2.19,3.7-3.16c1.72-1.25,3.57-2.31,5.53-3.14c0,.18-.07.36-.1.53-.11.48-.21.95-.31,1.43-.2,1-.4,2-.59,3-.39,2-.64,4.07-1,6.09c0,.08.11.11.12,0c.47-2,1.08-4,1.53-6.07.23-1,.46-2,.67-3.06.1-.47.19-.95.29-1.43c0-.26.11-.53.14-.8l.57-.23c2.73-1.17,5.73-1.59,8.68-1.19c2.8.52,5.15,2.39,6.28,5c.09.23.45.09.4-.14-.73-2.46-2.58-4.44-5-5.31Z" fill="#263238"/><path d="M18.7,194.68c-.29,1.33-.59,2.65-.88,4-.33,1.27-.57,2.56-.73,3.86c0,.05.07.05.09,0c.38-1.28.67-2.58.88-3.89.26-1.3.52-2.61.77-3.91.02-.11-.11-.14-.13-.06Z" fill="#263238"/><path d="M8.61,198.05c-1.33.67-2.62,1.44-4,2-.03-.02-.08,0-.1.02-.02.03,0,.08.02.1.02.01.05.01.07,0c1.34-.67,2.72-1.26,4-2.06.06-.03.03-.08,0-.06Z" fill="#263238"/><path d="M34.19,171.4c0,0-12.76.81-18.7-7.6s-4.6-20.43-4.6-20.43s13.4,1.63,18.72,7.67s4.58,20.36,4.58,20.36Z" fill="#a285d5"/><path d="M40.17,183.99c-.44-1.37-1-2.71-1.5-4.05s-1-2.57-1.59-3.83c-1.14-2.57-2.42-5.08-3.82-7.51-.9-1.56-1.87-3.06-2.86-4.54c0-.23-.07-.46-.1-.68l-.18-1.19c-.13-.8-.27-1.61-.4-2.42-.3-1.76-.66-3.51-.94-5.27c0-.08-.14-.08-.13,0c.26,1.74.43,3.49.67,5.24.12.85.24,1.71.37,2.56c0,.31.09.62.14.93-1.95-2.85-4.06-5.58-6.31-8.19l-.93-1c0-.1-.08-.19-.12-.29l-.28-.73c-.18-.51-.37-1-.55-1.52-.36-1-.68-2-1-3c0-.08-.15,0-.13,0c.26,1,.53,2.09.84,3.13.15.5.31,1,.49,1.48l.09.25c-1.63-1.78-3.33-3.49-5-5.19-.06-.06-.15,0-.09.1c3.28,3.45,6.29,7.15,9,11.07-.31-.1-.63-.18-.95-.24-1-.19-2-.33-3-.45-2.08-.27-4.15-.53-6.23-.86-.08,0-.11.12,0,.13c2,.39,3.94.84,5.9,1.29.93.21,1.86.39,2.79.58.76.16,1.51.37,2.24.63.21.3.42.59.62.89.94,1.36,1.84,2.75,2.72,4.15l-1.3-.25c-1-.19-2-.37-3-.53-1.94-.33-3.89-.66-5.81-1.1-.09,0-.12.11,0,.13c2,.46,3.89,1,5.82,1.51.94.24,1.88.47,2.82.68l1.42.31c.19.05.38.08.58.1c1.86,3.02,3.6,6.11,5.23,9.27.71,1.39,1.39,2.79,2.06,4.2s1.27,2.93,1.9,4.4c.16.25.63.13.52-.19Z" fill="#263238"/><path d="M27.11,154.67c-.24-1.22-.5-2.43-.77-3.65c0-.08-.14,0-.12,0c.24,1.2.47,2.4.69,3.6.17,1.2.41,2.39.72,3.57v0c-.09-1.18-.26-2.36-.52-3.52Z" fill="#263238"/><path d="M19.67,154.31c-.59-.29-1.22-.53-1.83-.77l-1-.38-.49-.2c-.19-.05-.37-.13-.54-.23-.1-.07-.16.09-.06.11.19.05.37.12.54.22l.49.22.93.41c.61.29,1.24.54,1.88.75.04.02.08.01.11-.02.02-.04.01-.08-.02-.11Z" fill="#263238"/><path d="M47.25,161.37c0,0,7.72-14.43,19.46-16.66s18.94,9.85,18.94,9.85-8.57,10.95-19.35,12.86-19.05-6.05-19.05-6.05Z" fill="#a285d5"/><path d="M74.59,151.18c-3.06-.41-6.17-.38-9.22.1l.53-.28l2.6-1.34c1.79-.99,3.64-1.89,5.52-2.69.03.02.08,0,.1-.02.02-.03,0-.08-.02-.1-.02-.01-.05-.01-.07,0-1.84.85-3.75,1.57-5.59,2.42-.92.42-1.83.86-2.73,1.34-.58.31-1.22.6-1.79,1-2.58.52-5.09,1.36-7.46,2.49l1.47-1.6c1.09-1.2,2.17-2.46,3.37-3.55.06-.06,0-.15-.1-.09-1.23,1.11-2.52,2.15-3.72,3.31-.57.56-1.13,1.14-1.67,1.74-.27.3-.53.61-.79.93-8.16,4.38-13.94,12.18-15.75,21.27.01.04.06.05.09.04.02,0,.03-.02.04-.04c1.65-5.49,4.6-10.51,8.61-14.61c4.32-4.41,9.76-7.56,15.74-9.11c3.54-.91,7.21-1.24,10.86-1c.06-.03.07-.11.04-.17-.01-.02-.03-.03-.05-.04Z" fill="#263238"/><path style="isolation:isolate" d="M85.65,154.57c0,0-8.57,10.94-19.35,12.85-8.22,1.46-15-2.83-17.73-4.95l-.6-1c0,0,5.56-4.69,16.08-7.39s21.6.49,21.6.49Z" opacity="0.1"/><path d="M67.76,146.03c-.89.55-1.77,1.09-2.6,1.72-.82.62-1.58,1.32-2.27,2.08-.06.07,0,.15.1.09.78-.67,1.56-1.35,2.37-2c.79-.64,1.61-1.24,2.47-1.78.02-.03.02-.08-.02-.1-.02-.01-.04-.02-.05-.01Z" fill="#263238"/><path d="M74.21,148.47c-.43.19-.88.34-1.31.52l-1.31.55c-.1,0,0,.19,0,.15l1.32-.53l1.3-.56c.12-.03.08-.16,0-.13Z" fill="#263238"/><path d="M45.7,179.52c0,0,2.07,14.36,12.83,19.36s23.87,0,23.87,0-5.16-31-36.7-19.36Z" fill="#a285d5"/><path d="M75,189.53c-1-.12-2-.29-3-.47-.48-.08-1-.17-1.45-.27l-.75-.15c-.29-.27-.58-.55-.88-.81-2.04-1.79-4.24-3.39-6.58-4.77-1.27-.75-2.59-1.41-3.94-2h.2l3.54.15c2.37.11,4.73.16,7.09.31.08,0,.08-.12,0-.13-2.36-.16-4.72-.42-7.09-.62l-3.44-.31-1.77-.15-.45-.05c-.62-.23-1.24-.45-1.86-.64-2.93-1.01-6.09-1.18-9.11-.5-2.71.69-5.41,2.46-6.11,5.32c0,.09.13.16.17.06c1-2.38,3.65-3.58,6-4.08c1.61-.3,3.26-.34,4.88-.09.11.74.29,1.46.54,2.16.3,1,.59,2,.9,3c.61,2,1.28,4,1.87,6c.01.04.06.05.09.04.02,0,.03-.02.04-.04-.5-2-.92-4-1.41-6.05-.23-1-.48-2-.73-3-.14-.68-.32-1.35-.54-2c.94.16,1.87.38,2.79.65c1.66.49,3.29,1.09,4.88,1.79.16,1,.38,2,.62,3c.29,1.26.62,2.51,1,3.75c0,.03.03.06.06.06s.06-.03.06-.06c0-.08,0-.15,0-.23v0c-.24-1.17-.5-2.33-.75-3.5-.19-.95-.38-1.89-.58-2.83c1.33.6,2.65,1.25,3.92,2c0,.29.1.59.14.86.08.49.17,1,.26,1.47.2,1.1.42,2.2.68,3.29.49,2.11,1.1,4.19,1.85,6.22-.01.03-.01.06,0,.09l.06.07c0,0,.08.02.1-.02.01-.02.02-.04.01-.05-.49-2.12-1.06-4.22-1.53-6.35-.23-1.06-.47-2.12-.68-3.19-.11-.53-.2-1.07-.3-1.6c0-.15,0-.32-.08-.48c1.45.85,2.85,1.78,4.19,2.79c2.32,1.74,4.47,3.7,6.41,5.86.08.08.23,0,.16-.13-.8-1.09-1.65-2.13-2.56-3.13-.54-.58-1.11-1.14-1.68-1.69h.18c.5.09,1,.16,1.52.23c1,.13,2,.23,3,.34.06,0,.13-.11.06-.12Z" fill="#263238"/><path d="M67.43,194.38v0l-.06-.37c0-.16-.11-.31-.13-.47v0c-.22-.95-.41-1.92-.58-2.88c0-.07-.12,0-.12,0c.07,1.28.35,2.55.82,3.74c0,0,.09,0,.08,0v-.02Z" fill="#263238"/><path d="M58.42,194.15c0,0-.03-.06-.06-.06-.3-1.27-.59-2.54-.86-3.81-.13-.67-.27-1.34-.4-2-.07-.36-.14-.72-.2-1.08-.03-.32-.11-.63-.23-.93c0-.05-.12,0-.12,0-.01.65.08,1.3.27,1.92.13.69.26,1.39.42,2.09.31,1.41.66,2.81,1.06,4.2c0,.08.15.06.14,0l-.02-.33Z" fill="#263238"/><path d="M74,185.4c-2-.26-3.93-.55-5.9-.79-.08,0-.12.12,0,.13c2,.29,3.93.53,5.9.79.06.01.09-.11,0-.13Z" fill="#263238"/><path d="M40.19,145.96c0,0-6.58-28.88,24.45-40.57c0,0,8.6,38.02-24.45,40.57Z" fill="#a285d5"/><path d="M46.89,129.58l.33-.2l1.76-1l3.6-2c2.37-1.33,4.7-2.71,7.09-4c.07,0,0-.16-.07-.11-2.39,1.29-4.82,2.51-7.22,3.78l-3.56,1.88-1.45.77c1-2,2.14-3.89,3.35-5.74c1.62-2.48,3.4-4.83,5.25-7.14.03-.05.01-.12-.04-.15-.03-.02-.08-.02-.11,0-2.72,2.65-5.13,5.6-7.18,8.8v-.3c0-.72.06-1.44.07-2.16v-4.23c0-.08-.13-.08-.13,0-.06,1.39-.23,2.77-.3,4.16-.04.67-.07,1.36-.09,2.07v1.21c-.64,1-1.25,2-1.83,3.1-1.04,1.88-1.96,3.82-2.77,5.81c0-.71-.08-1.43-.12-2.15-.09-1.58-.29-3.16-.35-4.74c0-.04-.03-.07-.07-.07s-.07.03-.07.07v4.75c0,.79,0,1.58.1,2.37l.06.88c-.99,2.58-1.78,5.24-2.35,7.94-.54,2.88-.94,5.78-1.18,8.7v0c.33-2.64.88-5.24,1.65-7.78.38-1.36.79-2.72,1.22-4.06c1.3-.61,2.53-1.37,3.78-2.06s2.6-1.42,3.89-2.13c2.59-1.42,5.18-2.87,7.85-4.12.08,0,0-.15-.07-.11-2.71,1.22-5.43,2.39-8.09,3.72-1.32.67-2.62,1.38-3.91,2.1-1.08.61-2.19,1.22-3.22,1.92.3-.9.62-1.8,1-2.68.93-2.39,2-4.8,3.18-7.1Z" fill="#263238"/><path d="M44.27,122.98c0,0-.06-.05-.09-.04-.02,0-.03.02-.04.04.11,1.65.17,3.3.34,4.94c0,.09.15.09.15,0-.06-1.65-.23-3.29-.36-4.94Z" fill="#263238"/><path d="M59.15,128.5c-1.94.78-3.9,1.52-5.83,2.33m0,.09c2-.74,3.89-1.54,5.84-2.3.11-.03.07-.16-.01-.12l-5.83,2.42Z" fill="#263238"/><path d="M62.1,115.17c-1.9.88-3.74,1.89-5.52,3-.09.05,0,.19.09.14c1.8-1.06,3.63-2.07,5.5-3c.08-.06.01-.17-.07-.14Z" fill="#263238"/></g></g></g><g><rect width="44.75" height="47.17" rx="0" ry="0" transform="translate(16.88 208.42)" fill="#37474f"/><rect width="2.29" height="80.8" rx="0" ry="0" transform="translate(13.8 225.11)" fill="#263238"/><rect width="2.29" height="80.8" rx="0" ry="0" transform="translate(62.18 225.11)" fill="#263238"/><rect width="2.29" height="80.8" rx="0" ry="0" transform="translate(39.21 225.11)" fill="#263238"/><rect width="48.38" height="6.53" rx="0" ry="0" transform="translate(14.94 252.57)" fill="#263238"/></g></g><g><path d="M221.76,368.34c2.16.65,63.44-1.41,65.72-3c.88-.58,1.1-9.53,1.06-20.35v-.33c0-2.23,0-4.53-.06-6.85v-1c-.24-15.61-.82-31.8-.82-31.8l-40.47,1l1.36,31.73.07,1.25.38,6.52v.67c0,0-23.1,11.28-25.43,13.26s-3.98,8.26-1.81,8.9Z" fill="#f7a9a0"/><path d="M238.89,350.57c.14-.05.22-.09.23-.13l-.23.13Z" fill="#a285d5"/><path d="M288.53,350.41c0,8.27-.32,14.48-1,15-2.28,1.56-63.56,3.62-65.73,3s-.48-6.86,1.83-8.83c1-.86,5.91-3.46,11.13-6.13-5.76,4.55-4.67,9.16,53.77-3.04Z" fill="#a285d5"/><path d="M310.06,126.68c0,0-21.32,107.1-22.82,115-.25,1.27,5.62,101.37,5.62,101.37l-47.07,1.16c0,0-.66-92.35.8-104.4c1.91-15.8,26.06-113.14,26.06-113.14h37.41Z" fill="#263238"/><path d="M289.12,333c-6.74.09-4.81,0-11.55.14-3.3.08-25,.62-28.05,1.24-.07,0-.06.13,0,.14c3.1.4,24.77-.52,28.06-.67c6.74-.29,4.8-.28,11.54-.65.06,0,.1-.04.1-.1s-.04-.1-.1-.1Z" fill="#37474f"/><path d="M281.71,242.02c.47-5.9,1.82-11.75,2.93-17.55s2.26-11.9,3.39-17.85c2.24-11.78,4.43-23.57,6.69-35.34c2.56-13.32,6.2-26.33,8.89-39.61.06-.31.52-.17.46.14-4.17,23.62-9.72,46.89-14.19,70.47-1.12,5.95-2.25,11.9-3.38,17.85-1.1,5.8-2.33,11.59-3.28,17.42-.51,3.03-.72,6.09-.65,9.16.08,2.88,2.55,75.15,2.89,81.92c0,.09-.14.1-.15,0-1.59-11.89-4.07-80.75-3.6-86.61Z" fill="#37474f"/><path d="M277.11,126.68l13.32,98.77c6.34-32,19.63-98.77,19.63-98.77h-32.95Z" fill="#37474f"/><path d="M293,371c2.2.54,63.3-4.6,65.5-6.27.85-.62.62-9.57,0-20.37c0-.12-8.09-39.85-8.09-39.85l-40.88,3.31l9.56,39.74c0,0-22.5,12.43-24.73,14.52s-3.59,8.39-1.36,8.92Z" fill="#f7a9a0"/><path d="M358.45,364.73c-2.2,1.67-63.3,6.81-65.49,6.27s-.82-6.83,1.38-8.92c1.22-1.14,8.46-5.35,14.8-8.95-7.54,5.15-17.4,14.37,49.64-2.68.34,7.9.35,13.78-.33,14.28Z" fill="#a285d5"/><path d="M309.18,352.39c.14-.06.22-.1.23-.14l-.23.14Z" fill="#a285d5"/><path d="M315.85,345.88l45-5.32c0,0-23.12-89.19-24.18-93-1.61-5.81-5.19-52.61-8.68-81.54c0,0,6.61-15.66-5.76-39.32h-49.62c0,0,3.33,22.51,9,36.79c0,0-1.06-.81,5.64,2.88c0,0,4.1,73.5,7.11,87.42c2.5,11.43,21.49,92.09,21.49,92.09Z" fill="#263238"/><path d="M356.46,331.52c-6.72.62-4.8.35-11.51,1.05-3.28.34-24.85,2.6-27.86,3.46-.06,0,0,.13,0,.13c3.12.16,24.65-2.48,27.92-2.88c6.7-.83,4.77-.66,11.45-1.57.15,0,.12-.2,0-.19Z" fill="#37474f"/><path d="M279.74,162.46c4.47,1.62,8.8,3.63,12.92,6c.07.05.09.14.04.21-.04.05-.1.08-.16.06-4.35-1.87-8.79-3.66-13-5.76-.13-.09-.16-.26-.08-.39.06-.09.17-.14.28-.12Z" fill="#37474f"/><path d="M278.36,132.6c0-.15.28-.18.28,0c0,4.86.24,9.71.73,14.54.2,2.24,2,14.63,5.89,13.72.65-.15,1-.79,1.08-1.77-.02-1.28-.19-2.56-.51-3.8-.44-2.59-.78-5.19-1-7.81-.46-4.88-.41-9.78.15-14.65.02-.07.09-.11.16-.09.04.01.08.05.09.09-.11,6.76.29,13.53,1.19,20.23.48,3.22,2.11,8.07-1.26,8.56s-5.65-7.61-6.07-9.84c-1.07-6.33-1.32-12.78-.73-19.18Z" fill="#37474f"/><path d="M285.15,161.18c.35.83.64,1.69.88,2.56.25.68.37,1.39.36,2.11c0,.14-.2.15-.27.06-.4-.63-.7-1.33-.9-2.05-.3-.8-.61-1.58-.88-2.39-.08-.22.04-.47.26-.55s.47.04.55.26Z" fill="#37474f"/><path d="M319,129.05c2.77,4.62,4.61,9.73,5.44,15.05.78,5.36.6,10.8-.51,16.1-.67,3.1-.91,6.27-.73,9.43.23,3.23.67,6.45,1,9.67l2.1,18.92c1.39,12.57,3.89,32.1,5.54,44.63.81,6.15,18,83.69,18.47,85.21.01.06-.02.11-.08.12s-.11-.02-.12-.08v0c-4.07-11.9-17.52-74.86-19.44-87-1-6.19-1.64-12.43-2.34-18.66s-1.44-12.61-2.15-18.92-1.42-12.49-2.11-18.73l-1.05-9.47c-.43-3.01-.64-6.04-.65-9.08.25-3,.68-5.98,1.31-8.93.44-2.73.6-5.5.48-8.26-.24-5.53-1.55-10.96-3.85-16-.57-1.24-.88-2.53-1.56-3.71-.15-.47.06-.63.25-.3Z" fill="#37474f"/><path d="M304.36,131.16c.79,2.1,1.71,4.16,2.67,6.19.77,1.86,1.89,3.56,3.31,5c1.45,1.22,3.16,2.09,5,2.55c1.06.3,2.15.54,3.24.71c1.12.12,2.22.33,3.31.61.12.04.18.16.14.28-.02.07-.08.12-.14.14-1.18.18-2.37.21-3.56.09-1.14-.06-2.28-.21-3.4-.46-2.04-.45-3.93-1.41-5.49-2.8-1.52-1.56-2.67-3.43-3.37-5.49-.89-2.18-1.56-4.45-2-6.76-.02-.08.03-.16.11-.17s.16.03.17.11Z" fill="#37474f"/><path d="M287.27,166.32c.03-.08.12-.12.19-.09.04.02.07.05.09.09.38,1.71,1.05,8.78,1.21,10.56.34,3.59.59,7.19.86,10.78.53,7.09,1.53,32.91,1.57,34.94c0,.12-.19.11-.2,0-.21-1.77-1.39-19.24-1.66-22.79-.55-7.14-1.08-14.28-1.55-21.42-.13-2.02-.64-10.06-.51-12.07Z" fill="#37474f"/><path d="M281.61,163.43c0,0-.08-.07,0-.07c0,.02,0,.05,0,.07Zm-2.1-.45c4.24,2.1,8.68,3.89,13,5.76.08.02.16-.03.18-.11.02-.06,0-.13-.06-.16-4.12-2.37-8.45-4.38-12.92-6-.15-.03-.3.08-.32.23-.02.11.03.22.12.28v0Zm-.42-11.21c.42,2.23,2.63,10.35,6.07,9.84s1.74-5.34,1.26-8.56c-.9-6.7-1.3-13.47-1.19-20.23-.02-.07-.09-.11-.16-.09-.04.01-.08.05-.09.09-.56,4.87-.61,9.77-.15,14.65.22,2.62.56,5.22,1,7.81.32,1.24.49,2.52.51,3.8-.1,1-.43,1.62-1.08,1.77-3.89.91-5.69-11.48-5.89-13.72-.49-4.83-.73-9.68-.73-14.54c0-.16-.27-.13-.28,0-.59,6.4-.34,12.85.73,19.18v0Zm5.25,9.7c.27.81.58,1.59.88,2.39.2.72.5,1.42.9,2.05.07.09.26.08.27-.06c0-.72-.11-1.43-.36-2.11-.24-.87-.53-1.73-.88-2.56-.08-.22-.33-.34-.55-.26s-.34.33-.26.55v0Zm19.74-30.24c.44,2.31,1.11,4.58,2,6.76.7,2.06,1.85,3.93,3.37,5.49c1.56,1.39,3.45,2.35,5.49,2.8c1.12.25,2.26.4,3.4.46c1.19.12,2.38.09,3.56-.09.12-.04.18-.16.14-.28-.02-.07-.08-.12-.14-.14-1.09-.28-2.19-.49-3.31-.61-1.09-.17-2.18-.41-3.24-.71-1.84-.46-3.55-1.33-5-2.55-1.42-1.44-2.54-3.14-3.31-5-1-2-1.88-4.09-2.67-6.19-.02-.08-.09-.13-.17-.11s-.13.09-.11.17v0Zm-16.3,47.12c.47,7.14,1,14.28,1.55,21.42.27,3.55,1.45,21,1.66,22.79c0,.12.21.13.2,0c0-2-1-27.85-1.57-34.94-.27-3.59-.52-7.19-.86-10.78-.16-1.78-.83-8.85-1.21-10.56-.03-.08-.12-.12-.19-.09-.04.02-.07.05-.09.09-.13,2.05.38,10.09.51,12.07v0Z" fill="#37474f"/><path d="M267.49,64.64c-1,11.61-1.86,23.56-1.09,35.19.6,9.06,4.16,16.63,13.48,19.15c8.64,2.33,21.05,2.57,28.6-3c3.52-2.58,4.84-6.34,4.75-10.6-.13-5.93-3.78-38.49-4.85-48.64-.65-6.19-1.27-12.46-3-18.47-3.65-12.61-9.83-12.7-10.68-13-.72-.5-5.4-2.77-12.21-.83-3.6,1.01-6.6,3.51-8.24,6.87-5.18,9.92-5.8,22.47-6.76,33.33Z" fill="#263238"/><path d="M296.56,27.11c7.32,3.71,8.83,11.88,10.39,19.2c2.18,10.2,4.18,20.44,5.69,30.76.73,5,1.34,9.95,1.8,14.94.45,4.78,1.21,9.89.74,14.69-.79,7.93-8.18,11.32-15.27,12.22-.15,0-.27-.11-.28-.26c0-.12.08-.23.2-.27c4-.67,8.17-1.65,11.26-4.53c4-3.7,3.67-8.7,3.38-13.68-.5-8.47-1.49-16.91-2.77-25.3s-2.87-16.76-4.58-25.08c-1.63-7.92-2.67-18.31-10.61-22.57-.07-.04-.03-.16.05-.12Z" fill="#263238"/><path d="M270.58,38.21c1.61-6,5-11.86,11.41-13.42v0c-8.35,2.37-10.66,11.35-12,18.86-1.42,7.91-2.54,15.86-3.36,23.85-.8,7.69-1.44,15.44-1.54,23.17-.11,8.34,1.15,16.2,5.85,23.23.1.14-.1.31-.21.17-4.67-5.71-6-13.42-6.19-20.6-.04-9.5.54-19,1.75-28.43.99-8.9,1.98-18.16,4.29-26.83Z" fill="#263238"/><path d="M288.72,76.41c-1.49,7.39-10.9,41.75-19.21,48.34-5.72,4.54-29.6,15.3-43.31,19.39-3.62,1.07-10-26.83-5-28.43c6.33-2,31-11.44,35-13.61c3.85-2.07,14.3-19.82,24.45-31.49c5.21-6,9.64-1.97,8.07,5.8Z" fill="#f7a9a0"/><path d="M228.61,143.26c-3.21,1.28-21,7.15-25.52,7.47s-17.59.3-18.19-3.13s3.23-3.74,3.23-3.74-5.52-.88-5.8-4.4s5.67-3.78,5.67-3.78-5.6-1.32-5.63-4.84s6-2.8,6-2.8-5.18-1-4-3.88c1.43-3.51,10.78-.64,15.74-1.37c1.13-.17,22.6-5,22.6-5l5.9,25.47Z" fill="#f7a9a0"/><path d="M187.87,127.99c6.88,2.09,10.25,1.82,17.07-.06.13,0,.22.16.08.21-6.51,2.44-10.69,3.39-17.27.18-.32-.16-.21-.44.12-.33Z" fill="#263238"/><path d="M187.47,135.51c7.33,1.54,11,1.28,18.28-.16.1,0,.15.15,0,.18-7,2-11.22,2.86-18.34.36-.28-.12-.28-.46.06-.38Z" fill="#263238"/><path d="M188.5,143.78c7.21,1,11.23.86,18.13-1.44.07-.03.15,0,.18.07s0,.15-.07.18v0c-6.81,3-11.83,3.22-18.24,1.41-.43-.12-.44-.29,0-.22Z" fill="#263238"/><path d="M228.35,118.04c0,0-7.83-4.45-11.7-5.65s-19.93-.35-19.95,3.13c0,4.5,9.36,5.83,14,5.89c0,0-.05,10.39,6.47,12.8s11.18-16.17,11.18-16.17Z" fill="#f7a9a0"/><path d="M197.1,116.76c2.94,4.11,9.08,3.78,13.61,4.18.23,0,.41.19.4.42c0,.05-.01.1-.03.15.27,4.36,1.92,10.43,5.86,12.82.05.04.05.11.01.16-.03.03-.07.05-.11.03-4.57-2-6.67-7.82-6.66-12.61-4.66-.33-10.83-.28-13.12-5.13l.04-.02Z" fill="#263238"/><path d="M223.06,114.28l7,30.88c0,0,29-10.18,40.29-20c8.54-7.39,16.51-34.86,18.59-46.78s-3.24-14.63-10.06-6.54-22.23,28.86-22.88,29.53-32.94,12.91-32.94,12.91Z" fill="#a285d5"/><path style="isolation:isolate" d="M223.06,114.28l7,30.88c0,0,29-10.18,40.29-20c8.54-7.39,16.51-34.86,18.59-46.78s-3.24-14.63-10.06-6.54-22.23,28.86-22.88,29.53-32.94,12.91-32.94,12.91Z" opacity="0.1"/><path d="M236.21,139.6c-1-3.31-1.82-6.71-2.64-10.08s-1.54-6.72-2.22-10.09c-.39-2-.73-3.92-1.14-5.87c0-.06.1-.08.11,0c.78,3.38,1.69,6.74,2.5,10.11s1.56,6.71,2.3,10.07c.43,1.94.89,3.88,1.24,5.84.01.07-.13.1-.15.02Z" fill="#263238"/><path style="isolation:isolate" d="M288.93,78.42c-2.08,11.92-10.06,39.39-18.6,46.78-7.68,6.64-23.52,13.47-32.88,17.16l46.79-74.82c3.9-1.43,6.17,2.39,4.69,10.88Z" opacity="0.1"/><path d="M273.09,110.88l-.7,15.73h49.89c0,0-7-41.51-20.72-55.8-6.86-7.15-14.73-6.45-19.65-1.26-1.24,1.32-13.26,18.32-14.7,26-1.21,6.85,5.88,15.33,5.88,15.33Z" fill="#ebebeb"/><path d="M286,72.28l-2.47,10.14c-.81,3.38-1.58,6.77-2.28,10.17s-1.48,6.82-.59,10.12c.81,3.32,2.29,6.44,4.34,9.17l.1.12v.14c.05,2.33,0,4.65,0,7s0,4.66-.1,7c-.18-2.33-.34-4.67-.47-7-.1-2.33-.26-4.65-.33-7l.09.26c-2.19-2.81-3.78-6.03-4.67-9.48-.42-1.75-.51-3.57-.25-5.35.24-1.75.57-3.47.94-5.17.72-3.42,1.65-6.78,2.58-10.14s2.02-6.67,3.11-9.98Z" fill="#263238"/><path d="M279.49,85.88c-.03.46.3.86.75.92.44.01.8-.33.81-.77c0-.01,0-.02,0-.03.04-.46-.29-.86-.75-.92-.44-.01-.8.33-.81.77c0,.01,0,.02,0,.03Z" fill="#263238"/><path d="M277.14,95.76c-.03.45.3.85.75.91.44.01.8-.33.81-.77c0-.01,0-.02,0-.03.03-.45-.3-.85-.75-.91-.43-.02-.79.32-.81.75c0,.02,0,.03,0,.05Z" fill="#263238"/><path d="M277.84,105.46c-.03.45.3.85.75.91.44.01.8-.33.81-.77c0-.01,0-.02,0-.03.03-.45-.3-.85-.75-.91-.43-.02-.79.32-.81.75c0,.02,0,.03,0,.05Z" fill="#263238"/><path d="M281.47,113.12c-.04.46.29.86.75.92.44.01.8-.33.81-.77c0-.01,0-.02,0-.03.03-.46-.3-.86-.75-.92-.44-.01-.8.33-.81.77c0,.01,0,.02,0,.03Z" fill="#263238"/><path d="M281.46,121.97c-.03.45.3.85.75.91.44.01.8-.33.81-.77c0-.01,0-.02,0-.03.03-.45-.3-.85-.75-.91-.43-.02-.79.32-.81.75c0,.02,0,.03,0,.05Z" fill="#263238"/><path d="M294,65.93c0,0-2.29,30.52-2.29,34.94s5.73,45.84,5.73,45.84l33.86-1.2c0,0-17.41-54.43-23.1-65.49C301.9,67.73,294,65.93,294,65.93Z" fill="#a285d5"/><path style="isolation:isolate" d="M294,65.93c0,0-2.29,30.52-2.29,34.94s5.73,45.84,5.73,45.84l33.86-1.2c0,0-17.41-54.43-23.1-65.49C301.9,67.73,294,65.93,294,65.93Z" opacity="0.1"/><path d="M282.66,68.46c.28-.23-7,21-7.26,30.36s0,47.26,0,47.26l-9.23-2.65l6.4-32.32c0,0-6.55-7.77-5.82-15s14.09-26.15,15.91-27.65Z" fill="#a285d5"/><path style="isolation:isolate" d="M282.66,68.46c.28-.23-7,21-7.26,30.36s0,47.26,0,47.26l-9.23-2.65l6.4-32.32c0,0-6.55-7.77-5.82-15s14.09-26.15,15.91-27.65Z" opacity="0.1"/><path d="M270.69,108.49c-1.58-2.34-2.68-4.97-3.24-7.74-.38-1.64-.45-3.33-.22-5c.32-1.52.8-3,1.44-4.41c1.31-3.23,2.84-6.36,4.43-9.47m-.07,0c-1.22,1.98-2.33,4.02-3.34,6.11.32-1.13.7-2.23,1.12-3.33c0,0,0-.05-.06,0-.61,1.33-1.08,2.7-1.43,4.12-.23.48-.46,1-.67,1.44-1.25,2.74-2.49,5.52-2.21,8.6.28,2.86,1.12,5.65,2.46,8.19.97,1.48,2.02,2.89,3.16,4.24-.16.8-1.86,10.79-2.46,14.5c0,.1.13.14.15,0c.73-3.18,1.48-6.35,2.11-9.55.4-1.73.68-3.48.85-5.24c0-.13-1.6-1.84-2.02-2.46l2.34-26.62Z" fill="#263238"/><path d="M291.5,173.3c3,2,8-6.89,9.7-8.8s2.43-1.85,2.34-.39l3.87-15.4c-2,1.56-6.27,4.92-8.54,7.12-3.04,2.95-10.35,15.45-7.37,17.47Z" fill="#f7a9a0"/><path d="M305.63,71.61c12.63,10.18,37,31.79,39.95,43.45c2.17,8.73-10.06,40-13.81,47.22-1.63,3.15-24.92-9.81-24.36-13.57.39-2.6,12.6-26.57,12.75-29.41s-17.86-29.75-22.33-38.3c-6.7-12.8-2.93-18.05,7.8-9.39Z" fill="#f7a9a0"/><path d="M293.62,182.14c2,2.17,6-.46,6-.46s-3.58,4.43-.78,6.15s6.64-2.06,6.64-2.06-3.08,4.25-.16,5.76s6.7-1.79,6.7-1.79-.21,1.64,2.34,1.77c3.65.22,8.85-5.71,10.85-9.44s6.51-18.89,7.16-21.22l-23.87-13-1.11.84-3.87,15.4c-.07,1-2.8,6.87-3.79,8.57-2.22,3.85-8.34,7.05-6.11,9.48Z" fill="#f7a9a0"/><path d="M299.77,181.46c5.35-4.05,7-6.75,9.31-12.94.05-.12.24-.08.2.05-1.72,6.27-3.29,9.95-9.33,13.16-.29.15-.44-.07-.18-.27Z" fill="#263238"/><path d="M305.23,185.88c5.19-4.7,7-7.61,9.91-13.91c0-.09.19,0,.16.06-2.34,6.42-4,10.06-9.79,14.08-.26.19-.51,0-.28-.23Z" fill="#263238"/><path d="M312.05,189.65c4.7-4.91,6.82-8,8.86-14.5.02-.07.08-.11.15-.09s.11.08.09.15c-1.44,6.81-4,10.71-8.93,14.56-.34.27-.46.19-.17-.12Z" fill="#263238"/><path d="M306.1,146.88l29.5,13.19c0,0,14.23-35.83,10.37-46.84-3.65-10.42-26.92-31.23-39-40.89-13.89-11.14-16.48-2.11-9.05,9.83c7.22,11.6,20.64,36.17,21,37.58.5,1.81-12.82,27.13-12.82,27.13Z" fill="#a285d5"/><path style="isolation:isolate" d="M306.1,146.88l29.5,13.19c0,0,14.23-35.83,10.37-46.84-3.65-10.42-26.92-31.23-39-40.89-13.89-11.14-16.48-2.11-9.05,9.83c7.22,11.6,20.64,36.17,21,37.58.5,1.81-12.82,27.13-12.82,27.13Z" opacity="0.1"/><path d="M302,90.53c3.49,5.41,6.84,10.93,10.12,16.47c1.65,2.79,3.29,5.6,4.92,8.4.41.7,2.29,3.7,2.37,4.39.13,1.26-11.29,24-13.21,27c.12,0,1.29.69,1.49.77s.05.18,0,.14c-.68-.18-1.35-.42-2-.71c0,0,13-26.5,13-26.86-.06-.73-1.66-3.32-2.06-4-3.22-5.38-6.4-10.78-9.55-16.2l-.79-1.4c-.63-.63-1.22-1.32-1.78-2-.73-.89-1.4-1.84-2-2.82-.02-.03-.01-.07.02-.09s.07-.01.08.01c.75.86,1.47,1.75,2.19,2.64l.75.91c-1.24-2.18-2.46-4.37-3.66-6.58-.06-.08.11-.17.11-.08Z" fill="#263238"/><path d="M311.48,141.88c3.34,1.14,6.6,2.54,9.86,3.89s6.44,2.77,9.62,4.24c1.84.84,3.65,1.74,5.5,2.58.06,0,0,.13,0,.11-3.24-1.39-6.54-2.66-9.8-4s-6.5-2.82-9.66-4.22c-1.86-.81-3.73-1.6-5.54-2.5-.02-.03,0-.08.02-.1Z" fill="#263238"/><path d="M293.45,66.93c-.3,1-5.47,7-10,6.48-1.46-.18-.84-8.2-.84-8.2l-.09-.6-1.25-8.44l10.21-5.54l1.52-.75c0,0,.19,2.33.4,5.24v.88c0,.44.07.88.09,1.32s.05.67.06,1s0,.7,0,1.05c.15,2.52.11,5.05-.1,7.56Z" fill="#f7a9a0"/><path d="M293.39,55.14c-2.05,4.59-6.01,8.05-10.83,9.47l-1.25-8.44l10.21-5.54l1.48-.75c0,0,.18,2.35.39,5.26Z" fill="#263238"/><path d="M269.73,43.49c-1.85,14.85,6.84,17.64,10,18c2.91.36,12.85,1.22,16.23-13.37s-2.95-20.13-9.55-21.3-14.83,1.82-16.68,16.67Z" fill="#f7a9a0"/><path d="M295.47,47.6c-3.6-.38-2.92-6-2.92-6s-4-.85-3.58-7.47c-1.92,2.5-4.9,3.95-8.05,3.92-1.19,0,3.09-2.55,3.09-2.55s-5.2,3.72-13.75,1.09c-.61-.19,1.2-10.22,8.42-12.57s13.76,1.12,17.5,5.93c0,0,5.08,4,5.1,8.84s-4.41,8.96-5.81,8.81Z" fill="#263238"/><path d="M292.18,48.03c0,0,3.44-4.55,5.52-3.31s-.64,7.92-3.16,8.75c-1.28.53-2.75-.07-3.28-1.35-.02-.04-.03-.08-.05-.13l.97-3.96Z" fill="#f7a9a0"/><path d="M296.87,46.62c0,0,.05,0,0,.06-1.64.75-2.9,2.16-3.45,3.88.41-.65,1.27-.85,1.92-.44.06.04.13.09.18.14.05,0,0,.1,0,.09-.62-.23-1.32-.03-1.73.48-.34.42-.63.87-.87,1.35-.09.15-.37.06-.3-.12v0c.01-2.26,1.86-5.31,4.25-5.44Z" fill="#263238"/><path d="M272.12,40.88c.35,0,.7-.03,1.05-.08.35.02.71-.08,1-.28.18-.17.21-.44.09-.65-.3-.38-.78-.57-1.26-.49-.49,0-.96.2-1.32.53-.22.24-.2.6.04.82.11.1.25.15.4.15Z" fill="#263238"/><path d="M282.2,41.88c-.35-.09-.66-.23-1-.35-.37-.08-.7-.27-.94-.55-.12-.21-.08-.48.09-.65.39-.28.91-.33,1.35-.13.46.14.86.44,1.12.85.15.28.05.62-.23.77-.12.07-.26.09-.39.06Z" fill="#263238"/><path d="M279.6,44.46c0,0,.08.06.07.1-.19,1-.24,2.21.63,2.69c0,0,0,.07,0,.06-1.12-.34-1.04-1.92-.7-2.85Z" fill="#263238"/><path d="M280.68,43.54c1.66.13,1.27,3.43-.26,3.31s-1.13-3.42.26-3.31Z" fill="#263238"/><path d="M281.31,43.79c.26.22.51.58.85.66s.74-.23,1-.53h.05c-.07.63-.39,1.25-1.08,1.27s-1-.6-1.09-1.26c.04-.05.16-.23.27-.14Z" fill="#263238"/><path d="M274,43.31c0,0-.09,0-.09.09-.08,1-.34,2.19-1.31,2.43v0c1.13.05,1.47-1.53,1.4-2.52Z" fill="#263238"/><path d="M273.18,42.14c-1.63-.3-2.12,3-.61,3.27s1.98-3.01.61-3.27Z" fill="#263238"/><path d="M272.46,42.26c-.29.13-.59.41-.9.39s-.58-.43-.76-.8h-.06c-.11.62,0,1.31.59,1.52s1-.29,1.26-.89c.05-.09-.01-.28-.13-.22Z" fill="#263238"/><path d="M278.63,53.11c-.26.22-.53.53-.91.54-.38-.04-.75-.15-1.08-.34c0,0-.07,0-.05,0c.27.43.75.68,1.26.65.44-.08.79-.41.88-.85.02,0-.06-.04-.1,0Z" fill="#263238"/><path d="M274.83,48.88c0,0-.4,1.5-.5,2.21c0,.07.17.13.41.17v0c1.23.39,2.57.06,3.48-.85.02-.04.01-.09-.02-.11-.02-.01-.04-.02-.07,0-1,.51-2.13.69-3.24.5c0-.21.78-2.55.67-2.57-.56-.02-1.13.03-1.68.16.75-3.15,2-6.15,2.72-9.29.02-.05,0-.11-.06-.13-.05-.02-.11,0-.13.06-1.44,3.18-2.56,6.48-3.35,9.88-.06.4,1.47.05,1.77-.02Z" fill="#263238"/><path d="M274.85,51c.32.64.8,1.18,1.4,1.58.33.21.71.3,1.1.28.86-.06,1-.8,1-1.46-.02-.36-.08-.71-.18-1.05-1.01.57-2.17.8-3.32.65Z" fill="#263238"/><path d="M276.25,52.58c.33.21.71.3,1.1.28.86-.06,1-.8,1-1.46-.89-.15-1.76.34-2.1,1.18Z" fill="#ff9bbc"/><path d="M282.54,66.4l3.08,6.69l8.05-9.05l2.54,2.65c0,0-7.62,14.13-7.7,13.51l-3.1-5.74-3.86,4.29-.18-10.29l1.17-2.06Z" fill="#ebebeb"/><path d="M281.17,73.67c0-1.7,0-3.41.12-5.11c0-.06.09-.09.11,0c.42,1.62.28,8.12.37,9.67v0c.16-.18,3.59-3.79,3.63-3.73.65.9,2.93,5.08,3.09,5.46c1.2-2.24,5.84-10.41,7.29-12.55.02-.02.06-.02.08,0s.02.04.02.06c-1,2.36-7.17,13.35-7.27,13.33-1.19-1.97-2.27-4-3.25-6.08-1.23,1.61-2.57,3.14-4,4.57-.16-1.87-.23-3.74-.19-5.62Z" fill="#263238"/></g><g><path d="M161.45,162.88c-1.34-1.08-1.16-.05-.41,2.91.86,3.41,9,11.29,5.39,13.62-5.09,3.26-14.91-12.79-16.49-17.65-1.59-5.07-2.04-10.42-1.31-15.68c3.21,3.1,12.82,16.8,12.82,16.8Z" fill="#ad6359"/><rect width="71.92" height="43.57" rx="0" ry="0" transform="matrix(.996793-.080025 0.080025 0.996793 134.679561 192.095163)" fill="#a285d5"/><rect style="isolation:isolate" width="71.92" height="20.52" rx="0" ry="0" transform="matrix(.996793-.080025 0.080025 0.996793 134.685712 192.098658)" opacity="0.1"/><rect width="75.33" height="20.34" rx="0" ry="0" transform="matrix(.996793-.080025 0.080025 0.996793 132.480672 185.836839)" fill="#a285d5"/><polygon points="184.9,169.99 185.83,181.56 180.39,181.99 179.86,175.41 159.12,177.08 159.65,183.66 154.21,184.09 153.28,172.53 184.9,169.99" fill="#263238"/><rect width="4.91" height="9.71" rx="0" ry="0" transform="matrix(.996793-.080025 0.080025 0.996793 144.03026 200.441426)" fill="#263238"/><rect width="4.91" height="9.71" rx="0" ry="0" transform="matrix(.996793-.080025 0.080025 0.996793 193.603583 196.467319)" fill="#263238"/><path d="M171.76,135.1c5.4,8.14,12.61,17.94,13.2,28.93.1,1.22-.22,2.44-.9,3.46.36,4.93-1.86,6.57-1.86,6.57-1.08,4.69-3.58,6.06-3.58,6.06s.07,4-3,4-3.68-4.8-6.33-9.46c-6.06-10.66-18.57-25.7-20.62-28.6l23.09-10.96Z" fill="#ad6359"/><path d="M170.74,159.02c1.81,3.1,3.41,6.32,4.78,9.64c1.28,3.72,2.29,7.54,3,11.41.02.05.07.08.13.06.03,0,.05-.03.06-.06-.62-7.61-3.32-14.91-7.8-21.1-.13-.17-.25-.09-.17.05Z" fill="#263238"/><path d="M176.65,154.43c1.5,3.18,4.11,8.79,5.42,19.67h.07c.09-6.95-1.76-13.78-5.34-19.74-.11-.19-.25-.14-.15.07Z" fill="#263238"/><path d="M179.87,152.02c2.35,5.51,3.14,9.28,4.16,15.47c0,0,.07,0,.06,0-.42-7.17-1.38-9.72-4-15.58-.09-.2-.31-.11-.22.11Z" fill="#263238"/><path d="M172.45,136.14c-1.68-3.23-12.62-24.12-16.54-30.23-1.31-2-7.72-23.29-12.79-36.79-3.08-8.2-10.05-10.12-11,2.22-.63,8.49,1.74,35.76,4.11,45c1.88,7.25,10.42,26.11,12.36,29.74c1.88,3.42,25.53-6.74,23.86-9.94Z" fill="#ad6359"/><path d="M146,146.03l26.54-10.93c0,0-14.08-25.74-16.65-30.92s-7.37-21.79-12.32-34.35-11-7.08-11.59.17c-.59,7.85,1.28,36.7,3.27,46s10.75,30.03,10.75,30.03Z" fill="#a285d5"/><path d="M172.54,135.1l-6.38,2.63-20.16,8.3c0,0-8.77-20.7-10.75-30s-3.86-38.17-3.27-46c.38-5.07,3.47-9.27,7-7.05c1.51,1,3.11,3.1,4.6,6.88c5,12.56,9.75,29.18,12.32,34.35s16.64,30.89,16.64,30.89Z" fill="#a285d5"/><path style="isolation:isolate" d="M166.16,137.73L146,146.03c0,0-8.77-20.7-10.75-30s-3.86-38.17-3.27-46c.38-5.07,3.47-9.27,7-7.05l27.18,74.75Z" opacity="0.1"/><path d="M144.41,139.76c3-1.57,6.12-2.92,9.21-4.3s6.18-2.65,9.3-3.9c1.8-.72,3.62-1.39,5.42-2.12.06,0,.1.08,0,.1-3.11,1.34-6.18,2.8-9.27,4.17s-6.17,2.68-9.26,4c-1.79.75-3.58,1.53-5.39,2.21-.04,0-.08-.03-.09-.08c0-.04.03-.08.07-.09Z" fill="#263238"/><path d="M119.26,306.71v40.73c0,7.78.06,14.6.44,18.13c0,.02,0,.04,0,.06c0,.83.19,1.65.56,2.4l.05.05c2.31,1.58,64.49,3.71,66.68,3.05s.5-6.95-1.85-9-25.8-13.47-25.8-13.47L159,308.02l-39.74-1.31Z" fill="#ad6359"/><path d="M119.27,339.08v8.36c0,7.78.06,14.6.44,18.13c0,.02,0,.04,0,.06.09.82.28,1.62.56,2.4l.05.05c2.31,1.58,64.49,3.71,66.68,3.05s.5-6.95-1.85-9-25.8-13.47-25.8-13.47l.12-8.48-40.2-1.1Z" fill="#fff"/><path d="M187,371.14c-2.2.65-64.38-1.47-66.69-3.06-.89-.59-1.11-9.67-1.06-20.64v-.35l40.13.93v.68c0,0,23.43,11.46,25.79,13.47s4.04,8.32,1.83,8.97Z" fill="#a6a6a6"/><path d="M186.39,368.7c-10.47-.62-52.77-2.11-63.17-1.92-.08,0-.08.05,0,.06c10.37.84,52.68,2,63.17,2c.22.04.23-.13,0-.14Z" fill="#263238"/><path d="M162.73,348.93c-4.1-.91-9.16-.45-12.41,2.39-.13.11,0,.28.16.24c3.99-1.13,8.08-1.84,12.22-2.1.15-.02.25-.15.23-.3-.01-.11-.1-.2-.2-.23Z" fill="#263238"/><path d="M165.65,350.88c-4.1-.91-9.17-.45-12.42,2.38-.13.11,0,.29.17.25c3.98-1.14,8.08-1.84,12.21-2.11.14.01.27-.1.28-.24s-.1-.27-.24-.28v0Z" fill="#263238"/><path d="M168.56,352.73c-4.09-.91-9.16-.45-12.41,2.38-.13.11,0,.28.16.25c3.99-1.14,8.08-1.85,12.22-2.11.14,0,.27-.1.28-.24c0-.14-.1-.27-.25-.28Z" fill="#263238"/><polygon points="117.25,277.45 117.26,277.91 118.16,349.15 161.69,348.28 152.75,131.08 115.99,131.08 117.25,277.45" fill="#37474f"/><path d="M159.87,341.02c-6.8-.06-4.85-.14-11.64-.12-3.33,0-25.18.08-28.28.64-.04.01-.05.06-.04.09c0,.02.02.03.04.04c3.11.48,25,0,28.28-.05c6.8-.14,4.85-.18,11.64-.4.13,0,.13-.2,0-.2Z" fill="#263238"/><path d="M125.54,316.88c-.08-6.51-.18-13.01-.31-19.52-.25-13.02-.49-26.04-.72-39.06-.48-25.9-.9-51.8-1.26-77.7-.22-14.61-.21-29.23-.59-43.84h-.06c-.24,13-.09,26-.07,39.07s.08,26,.2,39.06c.26,25.91.62,51.81,1.23,77.71.17,7.31.35,14.61.6,21.92s.42,14.61.93,21.9c0,.05.04.09.09.09s.09-.04.09-.09c.12-6.54-.04-13.05-.13-19.54Z" fill="#263238"/><polygon points="115.98,131.52 116.95,242.43 146.42,131.09 115.99,131.09 115.98,131.52" fill="#263238"/><path d="M51.46,286.36c0,0-21,34.12-21,34.15-3.41,7-6.28,13.19-7.46,16.53v0c-.37.75-.55,1.58-.53,2.42c0,.02,0,.04,0,.06c1.4,2.43,56.51,31.31,58.77,31.67s3.47-6.06,2.22-8.88-17.46-23.28-17.46-23.28l20.64-34.28-35.18-18.39Z" fill="#ad6359"/><path d="M22.44,339.51c0,0,0,.04,0,.06c1.4,2.43,56.51,31.31,58.77,31.67s3.46-6.06,2.23-8.88-17.44-23.33-17.44-23.33l3.68-6.12c-9-4.8-25.38-13.23-35.55-18.46l-3.72,6.06c-3.41,7-6.28,13.18-7.46,16.53c0,.02,0,.04,0,.06-.36.75-.53,1.58-.51,2.41Z" fill="#fff"/><path d="M81.22,371.24C79,370.88,23.85,342,22.45,339.57c-.54-.92,3.2-9.19,8-19.06c0-.1.1-.21.16-.31l35.76,18.24-.33.59c0,0,16.14,20.49,17.4,23.33s.04,9.25-2.22,8.88Z" fill="#a6a6a6"/><path d="M81.72,368.78c-9.17-5.1-46.64-24.79-56.09-29.13-.08,0-.1,0,0,.06c9,5.25,46.6,24.63,56,29.22.21.1.28-.05.09-.15Z" fill="#263238"/><path d="M69,340.71c-3.3-2.6-8.07-4.38-12.22-3.24-.17,0-.1.27,0,.29c4.08.71,8.08,1.85,11.92,3.4.12.08.29.05.38-.08s.05-.29-.08-.38v0Z" fill="#263238"/><path d="M70.77,343.68c-3.3-2.6-8.06-4.38-12.22-3.24-.16,0-.09.27,0,.3c4.09.7,8.09,1.84,11.93,3.39.12.08.29.04.37-.08s.04-.29-.08-.37v0Z" fill="#263238"/><path d="M72.58,346.65c-3.3-2.6-8.07-4.38-12.22-3.24-.17.05-.1.28,0,.3c4.08.7,8.08,1.84,11.92,3.4.13.08.3.05.38-.08s.05-.3-.08-.38Z" fill="#263238"/><path d="M147.78,131.05v0c-.16.75-2.73,12.68-5.39,22.92-1.94,7.49-3.93,14.06-5.08,14.74s-7.61,3.57-9.72,4.44c0,0-14.2,70.88-21.69,92.85-6.92,20.28-35.54,74.49-35.54,74.49l-41.52-21c0,0,32.43-55,35.83-64.89c5.29-15.3,25.09-90,25.09-90s-.15-23.39,7.73-33.6l50.29.05Z" fill="#37474f"/><path d="M69.74,332.43c-5.93-3.31-4.18-2.45-10.15-5.7-2.93-1.58-22.13-12-25.12-13-.06,0-.12.08-.06.13c2.5,1.91,21.89,12,24.84,13.53c6,3.14,4.33,2.17,10.4,5.24.06.02.12,0,.14-.05s0-.12-.05-.14v0Z" fill="#263238"/><path d="M100.41,158.14c1.13-.29,2.35-.38,3.51-.56.94-.15,1.87-.32,2.79-.52c1.78-.32,3.47-1.03,4.94-2.08c1.61-1.25,2.42-3.15,3.2-5c.46-1.08.94-2.16,1.42-3.23.23-.52.47-1,.71-1.56.33-.6.62-1.22.87-1.86c0-.1.18,0,.15,0-.16.44-.29.89-.4,1.34-.16.52-.31,1-.47,1.57-.29.93-.57,1.86-.87,2.79-.47,1.7-1.14,3.34-2,4.88-1.72,2.73-4.78,3.83-7.84,4.22-.88.11-1.77.17-2.65.22-1.11.1-2.24.1-3.35,0-.06-.06-.06-.15,0-.21Z" fill="#263238"/><path d="M140.66,167.08c-4.5,1.64-8.85,3.67-13,6.06-.07.05-.09.14-.04.21.04.05.1.08.16.06c4.38-1.88,8.85-3.69,13.13-5.81.14-.08.18-.26.1-.4-.07-.12-.22-.17-.35-.12Z" fill="#263238"/><path d="M142,137.05c0-.15-.28-.18-.28,0c0,4.89-.23,9.77-.72,14.63-.2,2.26-2,14.74-5.94,13.83-.65-.16-1-.8-1.09-1.79.02-1.29.19-2.58.52-3.83.44-2.61.77-5.23,1-7.87.46-4.91.4-9.86-.16-14.76-.02-.07-.09-.11-.16-.09-.04.01-.08.05-.09.09.11,6.81-.29,13.63-1.2,20.38-.49,3.25-2.12,8.13,1.27,8.63s5.7-7.67,6.12-9.91c1.08-6.38,1.32-12.87.73-19.31Z" fill="#263238"/><path d="M135.14,165.88c-.35.84-.65,1.71-.88,2.59-.26.68-.38,1.4-.37,2.13.04.07.13.11.2.07.03-.01.05-.04.07-.07.41-.64.72-1.34.91-2.07.3-.8.61-1.59.89-2.4.02-.24-.17-.45-.41-.47-.17-.01-.33.07-.41.22Z" fill="#263238"/><path d="M40,312.66c5.91-11.13,12-22.15,18.12-33.17c3-5.43,6.16-10.8,9-16.3c2.71-5.45,4.91-11.14,6.57-17c3.66-11.88,7.12-23.82,10.39-35.82s6.34-24.05,9.21-36.14c.72-3,1.51-6.05,2.09-9.11.53-3.08.53-6.24,0-9.32-.44-2.87-.47-5.79-.07-8.67.45-2.87,1.12-5.71,2-8.48.46-1.46,1-2.91,1.46-4.36.04-.07.13-.09.19-.05.04.03.07.08.07.13-1.79,5.85-3.63,11.78-3.24,18c.18,3,1,5.91.92,8.91-.19,2.98-.69,5.93-1.5,8.81-2.83,12.16-5.87,24.28-9.1,36.35s-6.66,24.07-10.28,36c-1.76,5.82-3.41,11.72-5.91,17.27s-5.68,10.81-8.66,16.12c-6.17,11-12.39,21.92-18.75,32.78-.8,1.38-1.62,2.75-2.43,4.12.04.15-.08.02-.08-.07Z" fill="#263238"/><path d="M152.68,134.18c-.92,1-59.7,2.11-60,1.74-.87-1,14.18-61.7,27.72-72.92c2.91-2.41,13.46-1.92,14.91-1.12c3.37,1.86,6.44,5.63,8.8,12.45c4.72,13.66,9.37,58.93,8.57,59.85Z" fill="#a285d5"/><path d="M151.4,113.73c-.73-6.2-1.61-12.38-2.63-18.55.02-.02.02-.05,0-.07-.09-1.79-.22-3.58-.44-5.36c0-.05-.09-.05-.08,0c0,1.37.14,2.73.26,4.09-.62-3.62-1.29-7.23-2-10.84-1.07-5.41,0,0,0,0c1,6.57,1.92,13.15,2.78,19.74.44,3.34.84,6.69,1.24,10s.65,6.54,1,9.81c.4,3.69.69,7.41,1.29,11.08c0,.17.29.12.29-.05.04-6.61-.95-13.26-1.71-19.85Z" fill="#263238"/><path d="M136.65,71.03c-3.3,1-9.41-3.72-12-7.72-.17-.27.25-11.74.09-14c0-.46,14.56,2.52,14.56,2.52-.63,2.91-.9,5.88-.8,8.85.07.31,1.34,9.37-1.85,10.35Z" fill="#ad6359"/><path d="M138.54,60.66c0,0,0,.2.05.45-8.26-.49-12.09-4.95-13.8-8.25v-3.56c0-.47,14.55,2.51,14.55,2.51-.62,2.91-.89,5.88-.8,8.85Z" fill="#263238"/><path d="M138.65,61.41l-3.12,8.63-11-10.4-2.87,3.56c0,0,10.94,16.75,11,16l3.25-7.46l5.24,4.93-.86-12.8-1.64-2.46Z" fill="#ebebeb"/><path d="M141.11,70.29c-.22-2.11-.37-4.24-.68-6.33c0-.08-.13-.11-.15,0-.35,2.06.51,10.11.57,12.05v0c-.22-.21-4.85-4.33-4.89-4.26-.72,1.19-3.1,6.63-3.26,7.12-1.74-2.66-8.35-12.32-10.38-14.82-.06-.07-.17,0-.12.08c1.51,2.75,10.28,15.75,10.4,15.75c1.27-2.57,2.41-5.2,3.4-7.88.79.9,5.48,5.56,5.49,5.25c0-2.33-.13-4.65-.38-6.96Z" fill="#263238"/><path d="M140.06,24.27c0,0,4.7,2,5.57,6.71s-.22,9.77-.63,10-4.94-16.71-4.94-16.71Z" fill="#263238"/><path d="M121.68,30.33c-1.65,5.06.75,19.79,4.3,23.13c5.16,4.84,13.74,5.46,17.9-.76c4-6,.56-25.17-3.42-28.22-5.87-4.49-16.34-1.6-18.78,5.85Z" fill="#ad6359"/><path d="M123.23,44.4c1.82.23,2.9-5.31,3.11-7.4.19-1.85-.21-7.52-.2-7.92s8.39,3.62,12.52,1.59s6.36-6.44,6.1-8.28-6.47-5.51-11.19-4.93-10,7.62-10,7.62c.62-1,1.15-2.05,1.6-3.14-1.6.67-2.76,2.09-3.1,3.79c0,0,.12-2.81-.11-2.82s-2.18,2.72-1.35,4.38c0,0-2.3,2.82-2.1,5.45s2.58,11.4,4.72,11.66Z" fill="#263238"/><path d="M141.59,29.22c-1.17.92-2.46,1.66-3.85,2.19-1.58.42-3.23.45-4.82.07-1.6-.32-3.13-.9-4.54-1.72-1.25-.7-2.4-1.62-3.7-2.21-.33-.15-.59.33-.37.56c2.42,2.39,5.54,3.95,8.91,4.44c3.19.46,6.38-.79,8.4-3.3c0,0,0-.04-.03-.03Z" fill="#263238"/><path d="M124.8,43.08c0,0-3.32-4.75-5.48-3.56s.35,8.06,2.88,9c1.3.59,2.83,0,3.41-1.29.01-.03.03-.06.04-.09l-.85-4.06Z" fill="#ad6359"/><path d="M120.09,41.47q-.05,0,0,.07c1.78.71,2.71,2.36,3.37,4.06-.4-.68-1.28-.9-1.96-.5-.06.04-.12.07-.17.12c0,0,0,.1.05.09.64-.21,1.34.01,1.74.55.33.44.61.91.84,1.41.08.16.37.07.31-.11v0c.01-2.28-1.75-5.46-4.18-5.69Z" fill="#263238"/><path d="M135.38,39.05c0,0-.08.06-.07.11.18,1,.21,2.24-.68,2.72v0c1.14-.27,1.08-1.88.75-2.83Z" fill="#263238"/><path d="M134.3,38.1c-1.69.11-1.35,3.47.22,3.37s1.19-3.46-.22-3.37Z" fill="#263238"/><path d="M141.11,38.39c0,0,.09,0,.09.09.07,1,.33,2.23,1.31,2.48v.06c-1.17-.05-1.51-1.63-1.4-2.63Z" fill="#263238"/><path d="M141.93,37.21c1.66-.3,2.14,3,.6,3.33s-1.99-3.08-.6-3.33Z" fill="#263238"/><path d="M132.82,36.7c.44-.17.83-.39,1.25-.59.47-.15.88-.45,1.17-.85.13-.3.05-.64-.2-.85-.56-.33-1.24-.33-1.8,0-.6.24-1.09.69-1.38,1.27-.16.39.03.84.42,1c.17.07.36.08.54.02Z" fill="#263238"/><path d="M143.06,35.39c-.46-.05-.92-.12-1.37-.22-.49,0-.97-.17-1.36-.48-.2-.26-.2-.61,0-.87.44-.47,1.1-.66,1.72-.51.64.06,1.24.36,1.68.83.27.32.24.8-.08,1.07-.16.14-.38.2-.59.18Z" fill="#263238"/><path d="M135,48.76c.27.22.56.53.94.52.38-.06.74-.19,1.06-.4m0,.05c-.26.45-.75.71-1.27.7-.44-.07-.8-.4-.91-.84.02-.03.1-.06.18-.03l2,.17Z" fill="#263238"/><path d="M135.74,45.53c.62.78,1.53,1.27,2.52,1.34.43.04.87.01,1.29-.07h.24l.22-.06c.11-.04.19-.14.19-.26v0-.11v0-.09c-.06-.8-.26-2-.26-2c.31.11,1.87.63,1.81.22-.46-3.61-1.29-7.16-2.46-10.6-.02-.05-.07-.08-.13-.06-.03,0-.05.03-.06.06.4,3.33,1.39,6.57,1.85,9.92-.55-.2-1.13-.31-1.72-.34-.11,0,.43,2.33.43,2.7v0c-1.31.26-2.67-.02-3.78-.77-.14-.03-.21.04-.14.12Z" fill="#263238"/><path d="M139,46.5c-.41.6-.96,1.08-1.61,1.41-.36.16-.76.21-1.15.13-.85-.17-.92-.93-.8-1.6.07-.35.17-.68.32-1c.94.69,2.07,1.06,3.24,1.06Z" fill="#263238"/><path d="M137.43,47.88c-.36.16-.76.21-1.15.13-.85-.17-.92-.93-.8-1.6.91,0,1.71.59,1.95,1.47Z" fill="#ff9bbc"/><path d="M115,81.81c4.33,20,9.56,44.53,15.13,48.51c8.7,6.21,33.24,10.78,42.21,11c3.73.08,8.37-28.94,4.38-29-8.52-.08-26.85.32-28.89-1s-12.36-19.44-20.53-33.5c-9.82-16.94-14.84-7.57-12.3,3.99Z" fill="#ad6359"/><path d="M171.88,112.3c0,0,11.5-.19,18.9.54c4.13.42,11.2,2.29,14.09,4c4.33,2.53,20.83,15.87,17.69,19.94-2.86,3.66-15.56-9.6-15.56-9.6s14,12.25,9.78,16-16.63-13.09-16.63-13.09s14.12,12.91,9.12,16.14c-3.78,2.45-15.85-12.23-15.85-12.23s12.06,11.18,8.28,13.86c-4.18,3-16.17-9.88-16.17-9.88-10.75,5.19-17.68,4.64-22.67,2.66-.02.05,5.65-19.94,9.02-28.34Z" fill="#ad6359"/><path d="M202.41,122.64c1.7,1.37,3.42,2.76,5,4.28s3.09,3.11,4.52,4.77c1.9,2.14,3.55,4.49,4.91,7-2.75-4.29-8.29-9.83-9.86-11.36s-3.06-3.12-4.62-4.65c-.05-.03,0-.08.05-.04Z" fill="#263238"/><path d="M196.8,128.21c2.71,1.39,9,7.33,11.84,11.59.12.17,0,.18-.14,0-1.94-2-9.72-9.69-11.75-11.58-.03,0,0-.03.05,0Z" fill="#263238"/><path d="M191.12,132.12c3.53,2.48,6.56,5.62,8.91,9.24.12.18,0,.18-.19,0-2.9-3.13-5.16-5.6-8.81-9.14-.03-.04.02-.15.09-.1Z" fill="#263238"/><path d="M170.33,111.46c0,0-8.48,31.57-9,31.08s-26.71-6-32.73-11.87-13.28-41.44-14.57-52.11s4.86-14.74,12.39-3s21,33.87,22,34.45s21.91,1.45,21.91,1.45Z" fill="#a285d5"/><path d="M155.13,138.33c.73-3.3,1.73-6.56,2.67-9.81s2-6.42,3-9.6c.62-1.85,1.28-3.67,1.89-5.52c0-.06.12,0,.1,0-1,3.23-1.85,6.51-2.81,9.76s-1.94,6.43-3,9.64c-.58,1.85-1.14,3.72-1.8,5.54.06.12-.07.08-.05,0Z" fill="#263238"/><path d="M136.73,135.02c-2.82-1.03-5.41-2.6-7.65-4.6-2.51-2.45-3.34-6.08-4.41-9.32-2.34-7.08-4.3-14.26-6.12-21.48-1-4.11-1.92-8.26-2.83-12.4c0,0-.08,0-.07,0c.45,3.19,1,6.37,1.65,9.53-.54-1.72-1.07-3.43-1.64-5.14c0-.06-.12,0-.1,0c.55,2.21,1.21,4.39,2,6.53.83,3.91,1.77,7.8,2.82,11.66c1,3.71,2.09,7.4,3.28,11.05.58,1.79,1.16,3.59,1.83,5.35.52,1.51,1.33,2.9,2.38,4.09c2.38,2.57,5.64,3.59,8.78,4.83.1.08.16-.07.08-.1Z" fill="#263238"/><path d="M157.9,110.76c-2.51-.22-8.48-.43-9-.84-.48-.47-.89-1.01-1.22-1.6l-2.07-3.27c-2.62-4.15-5.27-8.28-7.95-12.4-.7-1.61-1.38-3.22-2.17-4.79c0-.06-.13,0-.1.05.51,1.29,1.09,2.55,1.67,3.81-1.56-2.37-3.18-4.71-4.79-7m-.07,0c2.75,4.71,5.59,9.38,8.5,14l4.34,6.85l2.22,3.47c.4.86,1.18,1.48,2.11,1.69c1.3.2,7,.25,8.51.21.12-.06.12-.17.02-.18L132.2,84.72Z" fill="#263238"/></g><g><g id="eKT9raIYh3m190_to" transform="translate(240.784767,25.832628)"><g id="eKT9raIYh3m190_ts" transform="scale(1,1)"><g transform="translate(-240.784767,-25.832628)"><path d="M257.88,32.04c1.23-1.83,1.89-3.98,1.91-6.18c0-7.83-8.6-14.18-19.2-14.18s-19.19,6.35-19.19,14.2s8.59,14.18,19.19,14.18c4.71.08,9.33-1.29,13.24-3.93l6.62,1.69-2.57-5.78Z" fill="#fffefd"/><path d="M257.88,32.04c1.11-1.75,1.73-3.77,1.78-5.85.02-2.06-.55-4.08-1.63-5.83-2.28-3.44-5.71-5.95-9.68-7.09-3.92-1.22-8.07-1.49-12.11-.77-4.04.63-7.79,2.48-10.75,5.3-1.43,1.39-2.5,3.1-3.12,5-.61,1.9-.63,3.94-.08,5.85.57,1.92,1.6,3.67,3,5.1c1.43,1.44,3.09,2.63,4.91,3.52c1.83.89,3.78,1.52,5.79,1.88c2.01.39,4.06.54,6.11.44c4.12-.15,8.12-1.43,11.56-3.7l.09-.06h.1l6.59,1.79-.14.17-2.42-5.75Zm0,0l2.68,5.71.1.22-.24-.06-6.64-1.57h.18c-3.48,2.4-7.56,3.78-11.78,4-4.23.32-8.47-.45-12.32-2.25-1.93-.92-3.68-2.16-5.19-3.67-1.53-1.53-2.67-3.41-3.31-5.47-.62-2.1-.6-4.33.06-6.42.68-2.05,1.84-3.91,3.39-5.42c3.11-2.94,7.05-4.85,11.28-5.48c2.08-.35,4.2-.46,6.31-.31c2.1.17,4.17.6,6.17,1.27c2.01.67,3.9,1.64,5.6,2.89c1.73,1.23,3.17,2.82,4.24,4.65c2.17,3.73,1.96,8.38-.53,11.9v0Z" fill="#263238"/><path d="M233.68,25.88c0,1.1-.9,2-2,2s-2-.9-2-2s.9-2,2-2s2,.9,2,2Z" fill="#263238"/><circle r="1.99" transform="translate(240.59 25.86)" fill="#263238"/><path d="M251.48,25.88c0,1.1-.9,2-2,2s-2-.9-2-2s.9-2,2-2s2,.9,2,2Z" fill="#263238"/></g></g></g><g id="eKT9raIYh3m196_to" transform="translate(173.771873,12.666587)"><g id="eKT9raIYh3m196_ts" transform="scale(1.193867,1.193868)"><g transform="translate(-170.264549,-14.582644)"><path d="M153.17,20.77c-1.23-1.83-1.89-3.98-1.91-6.18c0-7.83,8.6-14.18,19.2-14.18s19.19,6.35,19.19,14.18-8.59,14.18-19.19,14.18c-4.71.09-9.33-1.27-13.25-3.89l-6.61,1.68l2.57-5.79Z" fill="#a285d5"/><path d="M153.17,20.77c-2.49-3.52-2.7-8.17-.53-11.9c1.07-1.83,2.51-3.41,4.23-4.65c1.7-1.25,3.59-2.22,5.6-2.89c2-.67,4.08-1.1,6.18-1.27c2.11-.15,4.23-.04,6.31.31c4.23.64,8.17,2.56,11.27,5.51c1.56,1.5,2.72,3.36,3.4,5.42.66,2.09.68,4.32.05,6.42-.64,2.07-1.77,3.94-3.3,5.47-1.51,1.51-3.26,2.75-5.19,3.67-3.85,1.79-8.09,2.56-12.32,2.24-4.22-.22-8.31-1.6-11.79-4h.19l-6.64,1.57-.24.06.1-.23l2.68-5.73Zm0,0l-2.46,5.8-.14-.16l6.59-1.79h.1l.09.07c3.44,2.27,7.44,3.55,11.56,3.7c2.04.07,4.09-.1,6.09-.51c2.01-.35,3.96-.99,5.79-1.89c1.83-.88,3.49-2.07,4.91-3.51c1.4-1.43,2.43-3.18,3-5.1.55-1.91.53-3.95-.08-5.85-.63-1.89-1.7-3.6-3.12-5-2.96-2.82-6.71-4.66-10.75-5.29-4.04-.72-8.2-.45-12.12.77-3.95,1.14-7.36,3.65-9.63,7.08-1.07,1.74-1.63,3.75-1.62,5.79.05,2.09.67,4.13,1.79,5.89Z" fill="#263238"/><circle r="1.99" transform="translate(179.35 14.59)" fill="#263238"/><path d="M168.47,14.59c0,1.1.9,2,2,2s2-.9,2-2-.9-2-2-2-2,.9-2,2Z" fill="#263238"/><path d="M159.57,14.59c0,1.1.9,2,2,2s2-.9,2-2-.9-2-2-2-2,.9-2,2Z" fill="#263238"/></g></g></g></g></g></svg>
