<svg id="eyxJ3LtSjhs1" xmlns="http://www.w3.org/2000/svg" xmlns:xlink="http://www.w3.org/1999/xlink" viewBox="0 0 500 500" shape-rendering="geometricPrecision" text-rendering="geometricPrecision">
<g><polygon points="359.11,314.62 356.81,328.4 341.25,412.46 338.74,412.46 350.06,328.4 351.73,314.62 359.11,314.62" fill="#D4C3F3"/><polygon points="351.73,314.62 359.11,314.62 356.81,328.4 350.06,328.4 351.73,314.62" fill="#a6a6a6"/><polygon points="407.99,412.46 405.48,412.46 389.92,328.4 387.62,314.62 395,314.62 396.67,328.4 407.99,412.46" fill="#D4C3F3"/><polygon points="395,314.62 396.67,328.4 389.92,328.4 387.62,314.62 395,314.62" fill="#a6a6a6"/><polygon points="454.68,412.46 452.17,412.46 436.6,328.4 434.31,314.62 441.69,314.62 443.36,328.4 454.68,412.46" fill="#D4C3F3"/><polygon points="443.36,328.4 436.6,328.4 434.31,314.62 441.69,314.62 443.36,328.4" fill="#A285D5"/><polygon points="450.7,321.09 336.64,321.09 336.64,309.07 379.34,309.07 393.69,225.59 446.35,225.59 450.7,321.09" fill="#D4C3F3"/><polygon points="450.7,321.09 444.48,321.09 440.43,225.59 446.35,225.59 450.7,321.09" fill="#A285D5"/><polygon points="41.17,388.84 216.91,388.84 220.56,316.73 37.52,316.73 41.17,388.84" fill="#D4C3F3"/><path d="M208.58,349.74h-73.47l-1.38-25h76.46ZM136,348.85h71.8l1.49-23.26h-74.62Z" fill="#A285D5"/><path d="M207.22,378.54h-69.22l-1.13-22.6h71.78Zm-68.39-.89h67.56l1.3-20.82h-69.89Z" fill="#A285D5"/><path d="M178.92,339.94h-12.35l-.77-6h13.9Zm-11.57-.89h10.79l.55-4.26h-11.89Z" fill="#A285D5"/><path d="M178.92,370.26h-12.35l-.77-6h13.9Zm-11.57-.89h10.79l.55-4.26h-11.89Z" fill="#A285D5"/><path d="M122.16,349.74h-73.47l-1.38-25h76.46Zm-72.63-.89h71.8l1.49-23.26h-74.57Z" fill="#A285D5"/><path d="M120.81,378.54h-69.24l-1.13-22.6h71.78Zm-68.4-.89h67.59l1.3-20.82h-69.92Z" fill="#A285D5"/><path d="M92.5,339.94h-12.34l-.78-6h13.9Zm-11.56-.89h10.78l.55-4.26h-11.88Z" fill="#A285D5"/><path d="M92.5,370.26h-12.34l-.78-6h13.9Zm-11.56-.89h10.78l.55-4.26h-11.88Z" fill="#A285D5"/><polygon points="56.94,388.84 55.83,396.69 53.61,412.48 49.27,412.48 49.27,388.84 56.94,388.84" fill="#D4C3F3"/><polygon points="56.94,388.84 55.83,396.69 49.27,396.69 49.27,388.84 56.94,388.84" fill="#A285D5"/><polygon points="201.15,388.84 202.25,396.69 204.47,412.48 208.81,412.48 208.81,388.84 201.15,388.84" fill="#D4C3F3"/><polygon points="201.15,388.84 202.25,396.69 208.81,396.69 208.81,388.84 201.15,388.84" fill="#A285D5"/></g><g><ellipse rx="203" ry="23.07" transform="translate(250 447.18)" fill="#D4C3F3"/></g><g><polygon points="36.47,412.48 89.85,412.24 143.23,412.15 250,411.98 356.77,412.15 410.15,412.23 463.53,412.48 410.15,412.72 356.77,412.81 250,412.98 143.23,412.81 89.85,412.72 36.47,412.48" fill="#263238"/></g><g><rect width="314.01" height="198.71" rx="0" ry="0" transform="translate(93 50.21)" fill="#D4C3F3"/><rect width="298.75" height="183.45" rx="0" ry="0" transform="translate(100.62 57.84)" fill="#fff"/><rect width="3.49" height="183.45" rx="0" ry="0" transform="translate(172.93 57.84)" fill="#D4C3F3"/><rect width="3.49" height="183.45" rx="0" ry="0" transform="translate(248.25 57.84)" fill="#D4C3F3"/><rect width="3.49" height="298.75" rx="0" ry="0" transform="matrix(0 1-1 0 399.38 78.28)" fill="#D4C3F3"/><rect width="3.49" height="183.45" rx="0" ry="0" transform="translate(323.58 57.84)" fill="#D4C3F3"/><path d="M193,226h16c.213208-1.323119.330181-2.659959.35-4v-16.18h-20.17v16.37c0,1.63,3.82,3.81,3.82,3.81Z" fill="#455a64"/><path d="M189.18,222.18c0,1.59,3.56,3.67,3.78,3.8-.59-.4-.49-3.56-.49-3.56-1.088061-.171559-2.188561-.251839-3.29-.24Z" fill="#37474f"/><path d="M192.15,210.58c2.37-.19,4.75-.24,7.12-.25s4.75.06,7.12.25c-2.37.2-4.75.24-7.12.25s-4.75-.05-7.12-.25Z" fill="#fff"/><path d="M192.15,213.24c1.87-.19,3.74-.24,5.6-.25s3.74.06,5.6.25c-1.860861.183305-3.730208.266758-5.6.25-1.869691.011304-3.738754-.072136-5.6-.25Z" fill="#fff"/><path d="M192.15,215.9c1.87-.19,3.74-.24,5.6-.25s3.74.06,5.6.25c-1.860861.183305-3.730208.266758-5.6.25-1.869691.011304-3.738754-.072136-5.6-.25Z" fill="#fff"/><rect width="20.18" height="20.18" rx="0" ry="0" transform="translate(338.37 89.53)" fill="#37474f"/><path d="M341.34,94c2.37-.19,4.74-.24,7.12-.25s4.74.06,7.12.25c-2.38.2-4.75.24-7.12.25s-4.75-.1-7.12-.25Z" fill="#fff"/><path d="M341.34,96.61c2.361627-.333362,4.758373-.333362,7.12,0-2.361627.333362-4.758373.333362-7.12,0Z" fill="#fff"/><path d="M341.34,99.27c1.87-.19,3.73-.24,5.6-.25s3.73.06,5.6.25c-3.725894.333307-7.474106.333307-11.2,0Z" fill="#fff"/><path d="M341.34,101.93c2.37-.19,4.74-.24,7.12-.25s4.74.06,7.12.25c-2.38.2-4.75.24-7.12.25s-4.75-.05-7.12-.25Z" fill="#fff"/><path d="M341.34,104.59c1.82-.19,3.65-.24,5.47-.25s3.65.06,5.48.25c-3.658952.33637-7.341048.33637-11,0Z" fill="#fff"/><rect width="20.18" height="20.18" rx="0" ry="0" transform="matrix(.984411-.175882 0.175882 0.984411 208.69825 148.426494)" fill="#455a64"/><path d="M212.4,152.26c2.3-.61,4.63-1.08,7-1.5s4.68-.78,7-1c-2.3.61-4.63,1.07-7,1.5s-4.63.74-7,1Z" fill="#fff"/><path d="M212.86,154.87c1.129815-.376593,2.28643-.667419,3.46-.87c1.171907-.217042,2.358705-.34408,3.55-.38-2.263727.740653-4.619837,1.161387-7,1.25Z" fill="#fff"/><path d="M213.33,157.49c1.81-.52,3.64-.89,5.47-1.23s3.69-.6,5.56-.74c-1.800805.504442-3.626598.914995-5.47,1.23-1.839423.341815-3.695207.588808-5.56.74Z" fill="#fff"/><path d="M213.8,160.11c2.3-.61,4.63-1.07,7-1.5s4.69-.78,7.06-1c-2.31.61-4.63,1.07-7,1.5s-4.69.78-7.06,1Z" fill="#fff"/><path d="M214.27,162.73c1.76-.51,3.55-.88,5.34-1.21s3.61-.59,5.44-.72c-1.760848.494367-3.546693.89493-5.35,1.2-1.8.32-3.6.6-5.43.73Z" fill="#fff"/><rect width="20.18" height="20.18" rx="0" ry="0" transform="translate(136.68 134.76)" fill="#455a64"/><path d="M139.65,139.18c2.38-.2,4.75-.24,7.12-.25s4.75,0,7.12.25c-2.37.19-4.75.24-7.12.25s-4.77-.06-7.12-.25Z" fill="#fff"/><path d="M139.65,141.84c2.361627-.333362,4.758373-.333362,7.12,0-2.361627.333362-4.758373.333362-7.12,0Z" fill="#fff"/><path d="M139.65,144.5c3.725894-.333307,7.474106-.333307,11.2,0-1.86.19-3.73.24-5.6.25s-3.73-.06-5.6-.25Z" fill="#fff"/><path d="M139.65,147.16c2.38-.2,4.75-.24,7.12-.25s4.75.05,7.12.25c-2.37.19-4.75.24-7.12.25s-4.77-.06-7.12-.25Z" fill="#fff"/><path d="M139.65,149.82c3.642391-.333312,7.307609-.333312,10.95,0-1.82.19-3.65.24-5.47.25s-3.65-.07-5.48-.25Z" fill="#fff"/><rect width="20.18" height="20.18" rx="0" ry="0" transform="translate(138.2 201.79)" fill="#37474f"/><path d="M141.17,206.21c2.37-.2,4.75-.24,7.12-.25s4.74,0,7.12.25c-2.38.19-4.75.24-7.12.25s-4.75-.06-7.12-.25Z" fill="#fff"/><path d="M141.17,208.87c2.361627-.333362,4.758373-.333362,7.12,0-2.361627.333362-4.758373.333362-7.12,0Z" fill="#fff"/><path d="M141.17,211.53c3.725892-.33336,7.474108-.33336,11.2,0-1.87.19-3.73.24-5.6.25s-3.77-.06-5.6-.25Z" fill="#fff"/><path d="M141.17,214.19c2.37-.2,4.75-.24,7.12-.25s4.74.05,7.12.25c-2.38.19-4.75.24-7.12.25s-4.75-.06-7.12-.25Z" fill="#fff"/><path d="M141.17,216.85c3.658952-.33637,7.341048-.33637,11,0-1.82.19-3.65.24-5.47.25s-3.7-.1-5.53-.25Z" fill="#fff"/><rect width="20.18" height="20.18" rx="0" ry="0" transform="translate(265.66 141.42)" fill="#37474f"/><path d="M268.63,145.84c2.38-.2,4.75-.24,7.12-.25s4.75,0,7.12.25c-2.37.19-4.74.24-7.12.25s-4.75-.09-7.12-.25Z" fill="#fff"/><path d="M268.63,148.5c2.361627-.333362,4.758373-.333362,7.12,0-1.178106.178093-2.368567.261693-3.56.25-1.191255.005992-2.381274-.077577-3.56-.25Z" fill="#fff"/><path d="M268.63,151.16c3.725892-.33336,7.474108-.33336,11.2,0-1.861215.17831-3.7303.261752-5.6.25-1.86-.01-3.73-.06-5.6-.25Z" fill="#fff"/><path d="M268.63,153.82c2.38-.19,4.75-.24,7.12-.25s4.75.05,7.12.25c-2.37.2-4.74.24-7.12.25s-4.75-.07-7.12-.25Z" fill="#fff"/><path d="M268.63,156.48c1.83-.19,3.65-.24,5.48-.25c1.829758-.011319,3.658874.072126,5.48.25-1.821126.177874-3.650242.261319-5.48.25-1.83-.01-3.65-.06-5.48-.25Z" fill="#fff"/><rect width="20.18" height="20.18" rx="0" ry="0" transform="matrix(.98899 0.147982-.147982 0.98899 282.725338 101.656127)" fill="#a285d5"/><path d="M285,106.48c2.38.16,4.73.47,7.08.81s4.69.75,7,1.3c-2.37-.16-4.73-.47-7.07-.81s-4.68-.78-7.01-1.3Z" fill="#fff"/><path d="M284.62,109.11c1.191842.007943,2.381572.101517,3.56.28c1.178027.17178,2.341353.432525,3.48.78-1.191842-.007943-2.381572-.101517-3.56-.28-1.178224-.170712-2.341631-.431476-3.48-.78Z" fill="#fff"/><path d="M284.23,111.74c1.87.09,3.72.32,5.57.58s3.69.61,5.5,1.08c-1.865385-.097682-3.724509-.291271-5.57-.58-1.85-.29-3.73-.61-5.5-1.08Z" fill="#fff"/><path d="M283.83,114.37c2.38.16,4.73.47,7.08.81s4.68.76,7,1.3c-2.37-.16-4.73-.46-7.08-.81s-4.68-.75-7-1.3Z" fill="#fff"/><path d="M283.44,117c3.652116.206007,7.277461.748302,10.83,1.62-3.650759-.219101-7.274927-.761221-10.83-1.62Z" fill="#fff"/><rect width="20.18" height="20.18" rx="0" ry="0" transform="translate(221.51 163.09)" fill="#a285d5"/><path d="M224.48,167.51c2.38-.19,4.75-.24,7.12-.25s4.75.06,7.12.25c-2.37.2-4.74.24-7.12.25s-4.74-.05-7.12-.25Z" fill="#fff"/><path d="M224.48,170.17c2.361627-.333362,4.758373-.333362,7.12,0-2.361627.333362-4.758373.333362-7.12,0Z" fill="#fff"/><path d="M224.48,172.83c1.87-.19,3.74-.24,5.6-.25s3.74.06,5.61.25c-1.864221.183071-3.736884.266523-5.61.25-1.869691.011304-3.738754-.072136-5.6-.25Z" fill="#fff"/><path d="M224.48,175.49c2.38-.19,4.75-.24,7.12-.25s4.75.06,7.12.25c-2.37.2-4.74.25-7.12.25s-4.74-.05-7.12-.25Z" fill="#fff"/><path d="M224.48,178.15c1.83-.19,3.65-.23,5.48-.24c1.829589-.014876,3.658717.065232,5.48.24-1.820751.183072-3.650144.26653-5.48.25-1.829762.011535-3.658889-.071911-5.48-.25Z" fill="#fff"/><rect width="20.18" height="20.18" rx="0" ry="0" transform="translate(131.83 106.31)" fill="#a285d5"/><path d="M134.8,110.73c2.37-.19,4.75-.24,7.12-.25s4.74.06,7.12.25c-2.38.2-4.75.24-7.12.25s-4.75-.05-7.12-.25Z" fill="#fff"/><path d="M134.8,113.39c2.361627-.333362,4.758373-.333362,7.12,0-2.361627.333362-4.758373.333362-7.12,0Z" fill="#fff"/><path d="M134.8,116.05c1.87-.19,3.73-.24,5.6-.25s3.73.06,5.6.25c-3.725892.33336-7.474108.33336-11.2,0Z" fill="#fff"/><path d="M134.8,118.71c2.37-.19,4.75-.24,7.12-.25s4.74.06,7.12.25c-2.38.2-4.75.24-7.12.25s-4.75-.05-7.12-.25Z" fill="#fff"/><path d="M134.8,121.37c1.82-.19,3.65-.24,5.48-.25s3.65.06,5.47.25c-3.642391.333312-7.307609.333312-10.95,0Z" fill="#fff"/><rect width="20.18" height="20.18" rx="0" ry="0" transform="translate(300.42 178.67)" fill="#a285d5"/><path d="M303.39,183.09c2.37-.19,4.74-.24,7.12-.25s4.74,0,7.11.25c-2.37.2-4.74.24-7.11.25s-4.75-.06-7.12-.25Z" fill="#fff"/><path d="M303.39,185.75c1.178652-.173104,2.368723-.256676,3.56-.25c1.191412-.010972,2.381815.072624,3.56.25-1.161688.174756-2.33527.258344-3.51.25-1.207959.00922-2.414843-.074359-3.61-.25Z" fill="#fff"/><path d="M303.39,188.41c1.86-.19,3.73-.24,5.6-.25c1.869691-.011304,3.738754.072136,5.6.25-3.725892.33336-7.474108.33336-11.2,0Z" fill="#fff"/><path d="M303.39,191.07c2.37-.19,4.74-.24,7.12-.25s4.74.06,7.11.25c-2.37.2-4.74.24-7.11.25s-4.75-.05-7.12-.25Z" fill="#fff"/><path d="M303.39,193.73c1.82-.19,3.65-.24,5.47-.25s3.65.06,5.48.25c-3.642391.333312-7.307609.333312-10.95,0Z" fill="#fff"/><path d="M383.41,136.58h-20.18c-.587826-1.25649-.927381-2.614708-1-4v-16.18h20.18v16.37c.109331,1.318473.447732,2.607783,1,3.81Z" fill="#a285d5"/><path d="M365.7,121.17c2.37-.2,4.74-.24,7.12-.25s4.74,0,7.11.25c-2.37.19-4.74.24-7.11.25s-4.75-.06-7.12-.25Z" fill="#fff"/><path d="M365.7,123.83c2.13-.2,4.27-.24,6.4-.25s4.27,0,6.4.25c-2.13.2-4.27.24-6.4.25s-4.27-.08-6.4-.25Z" fill="#fff"/><path d="M365.7,126.49c1.86-.19,3.73-.24,5.6-.25c1.869691-.011304,3.738754.072136,5.6.25-1.861246.177864-3.730309.261304-5.6.25-1.87-.01-3.74-.06-5.6-.25Z" fill="#fff"/><path d="M365.7,129.15c2.37-.19,4.74-.24,7.12-.25s4.74,0,7.11.25c-2.37.2-4.74.24-7.11.25s-4.75-.06-7.12-.25Z" fill="#fff"/><path d="M118.86,170.51h20.14c.588064-1.256406.92763-2.614671,1-4v-16.18h-20.14v16.38c-.110475,1.315068-.448852,2.600899-1,3.8Z" fill="#a285d5"/><path d="M122.33,155.1c2.38-.19,4.75-.24,7.12-.25s4.75.06,7.12.25c-2.37.2-4.75.24-7.12.25s-4.74-.05-7.12-.25Z" fill="#fff"/><path d="M122.33,157.76c2.14-.19,4.27-.24,6.41-.25s4.26.06,6.4.25c-2.14.2-4.27.24-6.4.25s-4.27-.01-6.41-.25Z" fill="#fff"/><path d="M122.33,160.42c1.87-.19,3.74-.24,5.6-.25s3.74.06,5.6.25c-3.725892.33336-7.474108.33336-11.2,0Z" fill="#fff"/><path d="M122.33,163.08c2.38-.19,4.75-.24,7.12-.25s4.75.06,7.12.25c-2.37.2-4.75.25-7.12.25s-4.74-.05-7.12-.25Z" fill="#fff"/><path d="M212.61,220.42h-20.18c-.588064-1.256406-.92763-2.614671-1-4v-16.18h20.18v16.38c.110475,1.315068.448852,2.600899,1,3.8Z" fill="#a285d5"/><path d="M194.9,205c2.38-.19,4.75-.24,7.12-.25s4.75.06,7.12.25c-2.37.2-4.75.24-7.12.25s-4.74-.04-7.12-.25Z" fill="#fff"/><path d="M194.9,207.67c2.14-.19,4.27-.24,6.41-.25s4.26.06,6.4.25c-2.14.2-4.27.24-6.4.25s-4.31-.05-6.41-.25Z" fill="#fff"/><path d="M194.9,210.33c1.87-.19,3.74-.24,5.6-.25s3.74.06,5.6.25c-1.860861.183305-3.730208.266758-5.6.25-1.869691.011304-3.738754-.072136-5.6-.25Z" fill="#fff"/><path d="M194.9,213c2.38-.19,4.75-.24,7.12-.25s4.75.06,7.12.25c-2.37.2-4.75.25-7.12.25s-4.74-.06-7.12-.25Z" fill="#fff"/><path d="M286.84,109.71h-20.18c-.587826-1.25649-.927381-2.614708-1-4v-16.18h20.18v16.37c.109331,1.318473.447732,2.607783,1,3.81Z" fill="#455a64"/><path d="M269.13,94.3c2.38-.19,4.75-.24,7.12-.25s4.75,0,7.12.25c-2.37.2-4.74.24-7.12.25s-4.74-.06-7.12-.25Z" fill="#fff"/><path d="M269.13,97c2.14-.19,4.27-.24,6.41-.25s4.26.05,6.4.25c-2.14.2-4.27.24-6.4.25s-4.27-.09-6.41-.25Z" fill="#fff"/><path d="M269.13,99.62c1.87-.19,3.74-.24,5.6-.25c1.8697-.011752,3.738785.07169,5.6.25-3.725892.33336-7.474108.33336-11.2,0Z" fill="#fff"/><path d="M269.13,102.28c2.38-.19,4.75-.24,7.12-.25s4.75.06,7.12.25c-2.37.2-4.74.24-7.12.25s-4.74-.05-7.12-.25Z" fill="#fff"/><path d="M217.69,119.45h-20.17c-.587826-1.25649-.927381-2.614708-1-4v-16.18h20.17v16.37c.109331,1.318473.447732,2.607783,1,3.81Z" fill="#37474f"/><path d="M200,104c2.37-.19,4.74-.24,7.12-.25s4.74,0,7.11.25c-2.37.2-4.74.24-7.11.25s-4.76-.01-7.12-.25Z" fill="#fff"/><path d="M200,106.7c2.13-.19,4.27-.24,6.4-.25s4.27.06,6.4.25c-2.13.2-4.27.24-6.4.25s-4.28-.05-6.4-.25Z" fill="#fff"/><path d="M200,109.36c1.86-.19,3.73-.24,5.6-.25s3.73.06,5.6.25c-3.725892.33336-7.474108.33336-11.2,0Z" fill="#fff"/><path d="M200,112c2.37-.19,4.74-.24,7.12-.25s4.74.06,7.11.25c-2.37.2-4.74.24-7.11.25s-4.76-.03-7.12-.25Z" fill="#fff"/><path d="M315.41,215.9h-20.18c-.588064-1.256406-.92763-2.614671-1-4v-16.17h20.18v16.37c.110475,1.315068.448852,2.600899,1,3.8Z" fill="#37474f"/><path d="M297.7,200.49c2.37-.19,4.75-.24,7.12-.25s4.74.06,7.12.25c-2.38.2-4.75.25-7.12.25s-4.75-.05-7.12-.25Z" fill="#fff"/><path d="M297.7,203.16c2.13-.2,4.27-.24,6.4-.25s4.27.05,6.41.25c-2.14.19-4.27.24-6.41.24s-4.27-.05-6.4-.24Z" fill="#fff"/><path d="M297.7,205.82c1.86123-.178087,3.730305-.261527,5.6-.25c1.869788-.016528,3.739123.066924,5.6.25-1.87.19-3.73.24-5.6.25s-3.73-.07-5.6-.25Z" fill="#fff"/><path d="M297.7,208.48c2.37-.2,4.75-.24,7.12-.25s4.74.05,7.12.25c-2.38.19-4.75.24-7.12.25s-4.75-.06-7.12-.25Z" fill="#fff"/><path d="M355,166.42h-16c-.207181-1.323688-.320796-2.660334-.34-4v-16.17h20.18v16.37c-.05,1.63-3.84,3.8-3.84,3.8Z" fill="#455a64"/><path d="M358.78,162.61c0,1.59-3.56,3.67-3.78,3.8.59-.4.49-3.56.49-3.56c1.088061-.171559,2.188561-.251839,3.29-.24Z" fill="#37474f"/><path d="M341.58,151c2.37-.19,4.74-.24,7.12-.25s4.74.06,7.11.25c-2.37.2-4.74.24-7.11.25s-4.7-.04-7.12-.25Z" fill="#fff"/><path d="M341.58,153.67c1.86-.19,3.73-.24,5.6-.25s3.73.06,5.6.25c-3.725894.333307-7.474106.333307-11.2,0Z" fill="#fff"/><path d="M341.58,156.33c1.86-.19,3.73-.24,5.6-.25s3.73.06,5.6.25c-1.860894.182848-3.730216.2663-5.6.25-1.8697.011752-3.738785-.07169-5.6-.25Z" fill="#fff"/><path d="M279.54,180.6h16c.207181-1.323688.320796-2.660334.34-4v-16.18h-20.13v16.38c0,1.63,3.79,3.8,3.79,3.8Z" fill="#455a64"/><path d="M275.75,176.79c0,1.59,3.56,3.67,3.78,3.8-.59-.4-.49-3.56-.49-3.56-1.088061-.171559-2.188561-.251839-3.29-.24Z" fill="#37474f"/><path d="M278.72,165.19c2.38-.19,4.75-.24,7.12-.25s4.75.06,7.12.25c-2.37.2-4.75.24-7.12.25s-4.74-.05-7.12-.25Z" fill="#fff"/><path d="M278.72,167.85c1.87-.19,3.74-.24,5.6-.25s3.74.06,5.6.25c-3.725894.333307-7.474106.333307-11.2,0Z" fill="#fff"/><path d="M278.72,170.51c1.87-.19,3.74-.24,5.6-.25s3.74.06,5.6.25c-3.725894.333307-7.474106.333307-11.2,0Z" fill="#fff"/><path d="M133,113.88h-16c-.213069-1.323137-.330041-2.659966-.35-4v-16.18h20.18v16.37c-.06,1.64-3.83,3.81-3.83,3.81Z" fill="#455a64"/><path d="M136.77,110.07c0,1.59-3.56,3.67-3.78,3.8.59-.4.49-3.56.49-3.56c1.088061-.171559,2.188561-.251839,3.29-.24Z" fill="#37474f"/><path d="M119.57,98.47c2.37-.19,4.74-.24,7.11-.25s4.75,0,7.12.25c-2.37.2-4.74.24-7.12.25s-4.74-.06-7.11-.25Z" fill="#fff"/><path d="M119.57,101.13c1.86-.19,3.73-.24,5.6-.25c1.869691-.011304,3.738754.072136,5.6.25-3.725892.33336-7.474108.33336-11.2,0Z" fill="#fff"/><path d="M119.57,103.79c1.86-.19,3.73-.24,5.6-.25c1.869691-.011304,3.738754.072136,5.6.25-3.725894.333307-7.474106.333307-11.2,0Z" fill="#fff"/><path d="M229.18,131.71h-16c-.213208-1.323119-.330181-2.659959-.35-4v-16.18h20.17v16.37c0,1.64-3.82,3.81-3.82,3.81Z" fill="#a285d5"/><path d="M233,127.9c0,1.59-3.56,3.67-3.78,3.8.59-.4.49-3.56.49-3.56c1.088061-.171559,2.188561-.251839,3.29-.24Z" opacity="0.2"/><path d="M215.76,116.3c2.38-.19,4.75-.24,7.12-.25s4.75.06,7.12.25c-2.37.2-4.75.24-7.12.25s-4.74-.05-7.12-.25Z" fill="#fff"/><path d="M215.76,119c1.87-.19,3.74-.24,5.6-.25s3.74.06,5.6.25c-3.725892.33336-7.474108.33336-11.2,0Z" fill="#fff"/><path d="M215.76,121.62c1.87-.19,3.74-.24,5.6-.25s3.74.06,5.6.25c-3.725892.33336-7.474108.33336-11.2,0Z" fill="#fff"/><path d="M128.76,67.33h-1.12v3.74c.002785.101611-.036355.199892-.108232.271768s-.170157.111017-.271768.108232c-.211545.00007-.384576-.168524-.39-.38v-3.74h-1.1c-.216999-.005427-.390068-.182933-.39-.4-.000036-.102539.04137-.20074.114811-.272299s.172685-.110399.275189-.107701h3c.209868,0,.38.170132.38.38.000068.217067-.173001.394573-.39.4Z" fill="#D4C3F3"/><path d="M133.78,67.16c.93224.995875.93224,2.544125,0,3.54-.430537.473854-1.03978.745837-1.68.75-.649887.000541-1.270206-.271529-1.71-.75-.93224-.995875-.93224-2.544125,0-3.54.439794-.478471,1.060113-.750541,1.71-.75.64022.004163,1.249463.276146,1.68.75Zm-.09,1.77c.000584-.455813-.170832-.895065-.48-1.23-.287355-.308351-.688535-.485449-1.11-.49-.428933-.003427-.839346.174539-1.13.49-.312656.332743-.484634.773436-.48,1.23-.007339.454088.165211.89265.48,1.22.289619.318123.699789.499614,1.13.5.422707-.008306.823677-.188923,1.11-.5.310262-.330235.482058-.766885.48-1.22Z" fill="#D4C3F3"/><path d="M138,71.07v-4.14c-.000036-.102539.04137-.20074.114811-.272299s.172685-.110399.275189-.107701h.82c1.353098,0,2.45,1.096902,2.45,2.45s-1.096902,2.45-2.45,2.45h-.82c-.102504.002698-.201747-.036143-.275189-.107701s-.114847-.16976-.114811-.272299Zm.78-.4h.43c.922316,0,1.67-.747684,1.67-1.67s-.747684-1.67-1.67-1.67h-.43Z" fill="#D4C3F3"/><path d="M146.75,67.16c.947315.989872.947315,2.550128,0,3.54-.425204.475398-1.032193.747998-1.67.75-.652349-.001534-1.274966-.273024-1.72-.75-.917721-1.001565-.917721-2.538435,0-3.54.445034-.476976,1.067651-.748466,1.72-.75.637807.002002,1.244796.274602,1.67.75Zm-.09,1.77c-.000518-.453766-.167789-.891515-.47-1.23-.287355-.308351-.688535-.485449-1.11-.49-.428933-.003427-.839346.174539-1.13.49-.312656.332743-.484634.773436-.48,1.23-.007339.454088.165211.89265.48,1.22.289619.318123.699789.499614,1.13.5.422707-.008306.823677-.188923,1.11-.5.303197-.333905.470807-.768979.47-1.22Z" fill="#D4C3F3"/><path d="M189.15,66.93c0-.209868.170132-.38.38-.38.213333-.000267.389333.166933.4.38v4.14c-.010667.213067-.186667.380267-.4.38-.209868,0-.38-.170132-.38-.38Z" fill="#D4C3F3"/><path d="M192,71.07c-.005259.207651-.172349.374741-.38.38-.102504.002698-.201747-.036143-.275189-.107701s-.114847-.16976-.114811-.272299v-4.07v0c-.007196-.127495.053687-.24926.16-.32.168588-.123693.405433-.087943.53.08l2.26,3.13v-2.89c0-.209868.170132-.38.38-.38s.38.170132.38.38v4.07c0,.209868-.170132.38-.38.38-.11297.000053-.219775-.051508-.29-.14s0,0,0,0L192,68.16Z" fill="#D4C3F3"/><path d="M200.37,69.55h-.86v1.52c0,.215391-.174609.39-.39.39s-.39-.174609-.39-.39v-4.14c.005424-.211476.178455-.38007.39-.38h1.25c.828427,0,1.5.671573,1.5,1.5s-.671573,1.5-1.5,1.5Zm-.86-.78h.86c.257231,0,.494923-.137231.623538-.36s.128616-.497231,0-.72-.366307-.36-.623538-.36h-.86Z" fill="#D4C3F3"/><path d="M206.06,70.87c.065665.204297-.046052.423261-.25.49h-.15v0c-.096334.003631-.191194-.024475-.27-.08-.095887-.059067-.175065-.141687-.23-.24-.114772-.264486-.166138-.552137-.15-.84.005161-.105884-.022802-.210745-.08-.3-.054174-.084214-.125786-.155826-.21-.21-.121382-.072307-.25281-.126226-.39-.16h-.83v1.52c0,.215391-.174609.39-.39.39s-.39-.174609-.39-.39v-4.12c-.000036-.102539.04137-.20074.114811-.272299s.172685-.110399.275189-.107701h1.25c.637676-.015943,1.215688.373148,1.440894.969946s.048343,1.270747-.440894,1.680054c.092408.074331.173287.16195.24.26.151688.224279.231876.489248.23.76-.01071.136457-.01071.273543,0,.41.10641.044965.189602.131774.23.24Zm-1-2.82c-.00547-.399257-.330705-.720037-.73-.72h-.86v1.44h.86c.195327.005371.384653-.06779.525613-.203111s.221784-.321506.224387-.516889Z" fill="#D4C3F3"/><path d="M210.93,67.16c.947315.989872.947315,2.550128,0,3.54-.425204.475398-1.032193.747998-1.67.75-.652349-.001534-1.274966-.273024-1.72-.75-.917721-1.001565-.917721-2.538435,0-3.54.445034-.476976,1.067651-.748466,1.72-.75.637807.002002,1.244796.274602,1.67.75Zm-.09,1.77c-.000518-.453766-.167789-.891515-.47-1.23-.287355-.308351-.688535-.485449-1.11-.49-.428933-.003427-.839346.174539-1.13.49-.312656.332743-.484634.773436-.48,1.23-.007339.454088.165211.89265.48,1.22.289619.318123.699789.499614,1.13.5.422707-.008306.823677-.188923,1.11-.5.303197-.333905.470807-.768979.47-1.22Z" fill="#D4C3F3"/><path d="M212.8,68.94c.033095-.977757.614298-1.853431,1.502447-2.263672s1.931664-.285031,2.697553.323672c.084869.063652.140977.158411.15598.263431s-.012328.2117-.07598.296569c-.139201.174723-.392659.20585-.57.07-.312578-.248448-.700719-.382533-1.1-.38-.472209-.010212-.927839.17421-1.26.51-.336797.312243-.528216.750731-.528216,1.21s.191419.897757.528216,1.21c.332161.33579.787791.520212,1.26.51.350708.005326.696299-.084528,1-.26v-1h-1c-.218693-.005272-.394728-.181307-.4-.4-.000035-.105191.042424-.205935.117741-.279368s.177103-.113329.282259-.110632h1.4c.105156-.002697.206943.037198.282259.110632s.117776.174177.117741.279368v1.55c.004817.039855.004817.080145,0,.12v0c-.023905.069183-.069497.128804-.13.17-.456754.348906-1.015232.538578-1.59.54-.687245.040886-1.36165-.198953-1.86876-.66459s-.803482-1.117179-.82124-1.80541Z" fill="#D4C3F3"/><path d="M222,70.87c.034417.098069.027164.205956-.02007.298536s-.130328.161772-.22993.191464h-.15v0c-.096241.002905-.190876-.025135-.27-.08-.095107-.05691-.17156-.140312-.22-.24-.114772-.264486-.166138-.552137-.15-.84-.002424-.106282-.03352-.209935-.09-.3-.051296-.086492-.123508-.158704-.21-.21-.119731-.075559-.251701-.1297-.39-.16h-.82v1.52c-.002618.103446-.046241.20161-.121263.272881s-.175293.109805-.278737.107119c-.209868,0-.38-.170132-.38-.38v-4.12c0-.209868.170132-.38.38-.38h1.26c.828427,0,1.5.671573,1.5,1.5.001058.44702-.201348.870233-.55,1.15.09556.074019.179784.161612.25.26.151688.224279.231876.489248.23.76-.014045.136306-.014045.273694,0,.41.120898.032309.218138.122069.26.24Zm-1-2.82c0-.397645-.322355-.72-.72-.72h-.86v1.44h.86c.190956,0,.374091-.075857.509117-.210883s.210883-.318161.210883-.509117Z" fill="#D4C3F3"/><path d="M223.09,71.07v-4.14c-.000036-.102539.04137-.20074.114811-.272299s.172685-.110399.275189-.107701h2.29c.207651.005259.374741.172349.38.38.000267.213333-.166933.389333-.38.4h-1.9v1.28h1.63c.215391,0,.39.174609.39.39s-.174609.39-.39.39h-1.63v1.28h1.9c.213067.010667.380267.186667.38.4-.005259.207651-.172349.374741-.38.38h-2.27c0,0,0,0,0,0v0c-.105871.008385-.21042-.027917-.288312-.10011s-.12202-.173688-.121688-.27989Z" fill="#D4C3F3"/><path d="M227.09,70.23c.142851-.135873.367149-.135873.51,0c.373965.32437.845619.514439,1.34.54.310357.008712.615315-.082425.87-.26.177024-.10631.289503-.293775.3-.5.00177-.077602-.019078-.154042-.06-.22-.050949-.086761-.123239-.159051-.21-.21-.306621-.178648-.647274-.291064-1-.33v0c-.313399-.056771-.618896-.15077-.91-.28-.262499-.116324-.487529-.303272-.65-.54-.103859-.175709-.159083-.375894-.16-.58.021725-.402071.228538-.771381.56-1c.354829-.246602.777935-.375982,1.21-.37.554858.027836,1.088274.223073,1.53.56.10718.071453.168098.194658.159808.323205s-.08453.242906-.2.3-.252628.048248-.359808-.023205c-.320815-.263675-.71575-.420951-1.13-.45-.278629-.003044-.551277.080847-.78.24-.155065.09517-.255381.258648-.27.44-.017385.065533-.017385.134467,0,.2.053415.069671.117546.130426.19.18.26955.161358.568831.266786.88.31v0c.343937.055414.679778.152808,1,.29.280607.127888.522185.328053.7.58.108553.181523.1672.388513.17.6-.017853.439827-.244461.844749-.61,1.09-.378317.262362-.829696.398826-1.29.39-.660757-.028542-1.293563-.274634-1.8-.7-.087383-.071697-.1372-.179403-.135251-.292418s.055449-.21894.145251-.287582Z" fill="#D4C3F3"/><path d="M231.69,70.23c.142851-.135873.367149-.135873.51,0c.373965.32437.845619.514439,1.34.54.310357.008712.615315-.082425.87-.26.177024-.10631.289503-.293775.3-.5.00177-.077602-.019078-.154042-.06-.22-.053927-.084413-.125587-.156073-.21-.21-.306621-.178648-.647274-.291064-1-.33v0c-.313399-.056771-.618896-.15077-.91-.28-.262499-.116324-.487529-.303272-.65-.54-.103859-.175709-.159083-.375894-.16-.58.021725-.402071.228538-.771381.56-1c.354829-.246602.777935-.375982,1.21-.37.554482.029677,1.087372.224722,1.53.56.10718.071453.168098.194658.159808.323205s-.08453.242906-.2.3-.252628.048248-.359808-.023205c-.320815-.263675-.71575-.420951-1.13-.45-.278629-.003044-.551277.080847-.78.24-.155065.09517-.255381.258648-.27.44-.001574.069945.015696.139025.05.2.053415.069671.117546.130426.19.18.26955.161358.568831.266786.88.31v0c.343937.055414.679778.152808,1,.29.280607.127888.522185.328053.7.58.105495.182315.160708.389364.16.6-.013963.438437-.23703.843676-.6,1.09-.378317.262362-.829696.398826-1.29.39-.660757-.028542-1.293563-.274634-1.8-.7-.093706-.06386-.152953-.167164-.160755-.280293s.036703-.223587.120755-.299707Z" fill="#D4C3F3"/><path d="M276,67.33h-1.11v3.74c0,.209868-.170132.38-.38.38-.211545.00007-.384576-.168524-.39-.38v-3.74h-1.12c-.213067-.010667-.380267-.186667-.38-.4c0-.209868.170132-.38.38-.38h3c.211545-.00007.384576.168524.39.38-.004992.214975-.17522.389569-.39.4Z" fill="#D4C3F3"/><path d="M277.51,71.07v-4.14c-.000036-.102539.04137-.20074.114811-.272299s.172685-.110399.275189-.107701h2.29c.207651.005259.374741.172349.38.38.000267.213333-.166933.389333-.38.4h-1.9v1.28h1.63c.215391,0,.39.174609.39.39s-.174609.39-.39.39h-1.63v1.28h1.9c.213067.010667.380267.186667.38.4-.005259.207651-.172349.374741-.38.38h-2.27v0c-.105871.008385-.21042-.027917-.288312-.10011s-.12202-.173688-.121688-.27989Z" fill="#D4C3F3"/><path d="M281.51,70.23c.142851-.135873.367149-.135873.51,0c.373965.32437.845619.514439,1.34.54.310357.008712.615315-.082425.87-.26.178351-.106484.293931-.292902.31-.5-.001779-.078524-.026075-.154886-.07-.22-.050949-.086761-.123239-.159051-.21-.21-.305737-.180603-.646821-.29316-1-.33v0c-.310458-.055622-.612783-.149678-.9-.28-.26702-.113335-.496034-.30071-.66-.54-.103859-.175709-.159083-.375894-.16-.58.021725-.402071.228538-.771381.56-1c.354829-.246602.777935-.375982,1.21-.37.554858.027836,1.088274.223073,1.53.56.161186.113429.205161.333301.1.5-.052946.079684-.135431.135017-.229244.153779s-.191235-.000588-.270756-.053779c-.320815-.263675-.71575-.420951-1.13-.45-.278629-.003044-.551277.080847-.78.24-.155065.09517-.255381.258648-.27.44-.017385.065533-.017385.134467,0,.2.053415.069671.117546.130426.19.18.26955.161358.568831.266786.88.31v0c.343937.055414.679778.152808,1,.29.282477.124884.524789.325657.7.58.108553.181523.1672.388513.17.6-.018689.437128-.240664.840384-.6,1.09-.381994.262524-.836579.398899-1.3.39-.658401-.02543-1.289013-.272038-1.79-.7-.092231-.06784-.146693-.175506-.146693-.29s.054462-.22216.146693-.29Z" fill="#D4C3F3"/><path d="M289.23,67.33h-1.12v3.74c0,.209868-.170132.38-.38.38-.211545.00007-.384576-.168524-.39-.38v-3.74h-1.1c-.216999-.005427-.390068-.182933-.39-.4-.000036-.102539.04137-.20074.114811-.272299s.172685-.110399.275189-.107701h3c.209868,0,.38.170132.38.38.000068.217067-.173001.394573-.39.4Z" fill="#D4C3F3"/><path d="M290.81,66.93c-.000036-.102539.04137-.20074.114811-.272299s.172685-.110399.275189-.107701c.211545-.00007.384576.168524.39.38v4.14c-.005424.211476-.178455.38007-.39.38-.102504.002698-.201747-.036143-.275189-.107701s-.114847-.16976-.114811-.272299Z" fill="#D4C3F3"/><path d="M293.67,71.07c-.005259.207651-.172349.374741-.38.38-.101611.002785-.199892-.036355-.271768-.108232s-.111017-.170157-.108232-.271768v-4.07v0c-.002946-.163602.099167-.310719.253467-.365177s.326135-.00403.426533.125177l2.26,3.13v-2.89c0-.209868.170132-.38.38-.38.211545-.00007.384576.168524.39.38v4.07c-.005424.211476-.178455.38007-.39.38-.110165,0-.213901-.051868-.28-.14s0,0,0,0l-2.24-3.11Z" fill="#D4C3F3"/><path d="M297.73,68.94c.016751-.981158.586564-1.868589,1.471757-2.292127s1.933731-.310436,2.708243.292127c.176731.132548.212548.383269.08.56-.139201.174723-.392659.20585-.57.07-.712113-.553001-1.722644-.497571-2.37.13-.331401.315242-.519.752612-.519,1.21s.187599.894758.519,1.21c.334756.331874.78865.515593,1.26.51.350708.005326.696299-.084528,1-.26v-1h-1c-.220914,0-.4-.179086-.4-.4-.000035-.105191.042424-.205935.117741-.279368s.177103-.113329.282259-.110632h1.4c.105156-.002697.206943.037198.282259.110632s.117776.174177.117741.279368v1.55c.004817.039855.004817.080145,0,.12v0c-.031502.067618-.079677.126117-.14.17-.455323.351582-1.014738.541572-1.59.54-1.395837.062271-2.579877-1.014535-2.65-2.41Z" fill="#D4C3F3"/><path d="M353.92,71.07v-4.14c-.000036-.102539.04137-.20074.114811-.272299s.172685-.110399.275189-.107701h.82c1.353098,0,2.45,1.096902,2.45,2.45s-1.096902,2.45-2.45,2.45h-.82c-.102504.002698-.201747-.036143-.275189-.107701s-.114847-.16976-.114811-.272299Zm.78-.4h.43c.922316,0,1.67-.747684,1.67-1.67s-.747684-1.67-1.67-1.67h-.43Z" fill="#D4C3F3"/><path d="M362.72,67.16c.93224.995875.93224,2.544125,0,3.54-.430537.473854-1.03978.745837-1.68.75-.649887.000541-1.270206-.271529-1.71-.75-.93224-.995875-.93224-2.544125,0-3.54.439794-.478471,1.060113-.750541,1.71-.75.64022.004163,1.249463.276146,1.68.75Zm-.09,1.77c.000584-.455813-.170832-.895065-.48-1.23-.287355-.308351-.688535-.485449-1.11-.49-.428933-.003427-.839346.174539-1.13.49-.312656.332743-.484634.773436-.48,1.23-.007339.454088.165211.89265.48,1.22.289619.318123.699789.499614,1.13.5.422707-.008306.823677-.188923,1.11-.5.310262-.330235.482058-.766885.48-1.22Z" fill="#D4C3F3"/><path d="M365.39,71.07c-.005259.207651-.172349.374741-.38.38-.101611.002785-.199892-.036355-.271768-.108232s-.111017-.170157-.108232-.271768v-4.07v0c-.011479-.125932.045864-.248263.15-.32.168588-.123693.405433-.087943.53.08l2.26,3.13v-2.89c0-.209868.170132-.38.38-.38.211545-.00007.384576.168524.39.38v4.07c-.005424.211476-.178455.38007-.39.38-.11297.000053-.219775-.051508-.29-.14v0l-2.24-3.11Z" fill="#D4C3F3"/><path d="M369.56,71.07v-4.14c-.000036-.102539.04137-.20074.114811-.272299s.172685-.110399.275189-.107701h2.29c.207651.005259.374741.172349.38.38.000267.213333-.166933.389333-.38.4h-1.9v1.28h1.66c.207651.005259.374741.172349.38.38.002686.103444-.035848.203715-.107119.278737s-.169435.118645-.272881.121263h-1.63v1.28h1.9c.213067.010667.380267.186667.38.4-.005259.207651-.172349.374741-.38.38h-2.27c0,0,0,0,0,0v0c-.110696.017709-.223563-.014363-.308406-.087636s-.133002-.180269-.131594-.292364Z" fill="#D4C3F3"/><path d="M211.19,91.29c-6.982266.837468-13.577064,3.662818-19,8.14-2.681185,2.213604-4.871157,4.962138-6.43,8.07-.754795,1.54902-1.293164,3.194409-1.6,4.89-.287992,1.695537-.321695,3.424527-.1,5.13.382609,3.426591,1.883267,6.631744,4.27,9.12c2.465874,2.410466,5.499186,4.160983,8.82,5.09c3.33191.964345,6.772728,1.501973,10.24,1.6c3.472319.135381,6.949906-.00506,10.4-.42c3.434041-.424251,6.782858-1.371902,9.93-2.81c3.142081-1.441453,5.974469-3.479142,8.34-6c2.355713-2.511562,4.070881-5.55427,5-8.87.993093-3.29571.794849-6.835775-.56-10-1.559695-3.079988-3.995074-5.630178-7-7.33-3.009923-1.751889-6.28672-2.998424-9.7-3.69-6.871264-1.470454-14.009174-1.097861-20.69,1.08c6.673237-2.336286,13.845368-2.867555,20.79-1.54c3.482056.645717,6.831595,1.869262,9.91,3.62c3.154558,1.732067,5.72589,4.35907,7.39,7.55.780926,1.630477,1.219932,3.403515,1.29,5.21.088294,1.796116-.107448,3.594914-.58,5.33-.958668,3.462689-2.739101,6.642768-5.19,9.27-2.438146,2.614333-5.358293,4.733138-8.6,6.24-3.230313,1.503448-6.674817,2.495303-10.21,2.94-3.510673.411456-7.048855.538536-10.58.38-3.544186-.117896-7.059016-.685779-10.46-1.69-3.457353-.985178-6.610972-2.825076-9.17-5.35-2.500591-2.628793-4.04951-6.018814-4.4-9.63-.213542-1.778362-.156224-3.578822.17-5.34.343662-1.737029.922313-3.419156,1.72-5c1.627611-3.162618,3.903789-5.946506,6.68-8.17c5.554433-4.409577,12.262199-7.124625,19.32-7.82Z" fill="#263238"/><path d="M144.13,105c1.632376-2.737137,3.89522-5.044552,6.6-6.73c1.374075-.836573,2.878034-1.438157,4.45-1.78c1.576941-.313141,3.19321-.377251,4.79-.19c3.29066.29076,6.294989,1.98981,8.24,4.66.469368.687411.830251,1.442905,1.07,2.24.262355.821737.300332,1.698658.11,2.54-.212887.92535-.8682,1.686305-1.751727,2.034119s-1.881716.237785-2.668273-.294119c-.688707-.593985-1.145561-1.412074-1.29-2.31-.154275-.827578-.184607-1.673498-.09-2.51.194937-1.638254.711486-3.221883,1.52-4.66c1.621354-2.889364,4.204559-5.118706,7.3-6.3c3.044937-1.251095,6.433359-1.389182,9.57-.39c3.047389,1.10029,5.699461,3.080642,7.62,5.69l-.15.12c-2.055765-2.345664-4.720901-4.076271-7.7-5-1.466304-.426169-2.997905-.58204-4.52-.46-1.522828.133543-3.014763.508215-4.42,1.11-2.834215,1.147017-5.205675,3.205332-6.74,5.85-.751496,1.31139-1.246951,2.753638-1.46,4.25-.11022.729192-.11022,1.470808,0,2.2.087672.673761.401458,1.297807.89,1.77.521421.384367,1.209821.457031,1.8.19.626769-.224904,1.09225-.758505,1.23-1.41.241308-1.461634-.11943-2.958698-1-4.15-1.791328-2.529162-4.587067-4.162136-7.67-4.48-1.536159-.195276-3.092612-.164955-4.62.09-1.531196.290794-3.00417.831335-4.36,1.6-2.714504,1.591707-5.008449,3.810216-6.69,6.47Z" fill="#263238"/><polygon points="184.4,96.35 189.21,96.8 189.31,91.97 190.17,97.87 184.4,96.35" fill="#263238"/><path d="M269,165.08c-1.195304,4.367839-1.770931,8.88197-1.71,13.41-.032216,4.507599.792411,8.980264,2.43,13.18.828988,2.072588,1.917688,4.031575,3.24,5.83c2.6525,3.587496,6.067897,6.541814,10,8.65c1,.6,2,1,3,1.53s2.09.85,3.13,1.29l-.07.25c-4.478956-1.088728-8.668556-3.135764-12.28-6-3.565504-2.979671-6.277581-6.851109-7.86-11.22-1.565098-4.320227-2.301299-8.896891-2.17-13.49.08819-4.557423.808392-9.080562,2.14-13.44Z" fill="#263238"/><polygon points="283.79,211.12 288.67,208.92 286.12,204.21 290.18,209.43 283.79,211.12" fill="#263238"/><path d="M334.85,119.58c2-.15,3.95-.22,5.92-.28s4-.08,5.93-.09s3.95,0,5.92.08s3.95.14,5.93.29c-2,.16-3.95.23-5.93.29s-3.95.08-5.92.09-3.95,0-5.93-.09-3.95-.13-5.92-.29Z" fill="#263238"/><path d="M334.85,122.41c4.259095-.493329,8.560905-.493329,12.82,0-4.258313.506698-8.561687.506698-12.82,0Z" fill="#263238"/><path d="M334.85,125.24c1.75-.15,3.49-.22,5.24-.28s3.49-.08,5.24-.09s3.5,0,5.24.09s3.5.13,5.24.28c-1.74.16-3.49.23-5.24.29s-3.49.08-5.24.09-3.49,0-5.24-.09-3.49-.13-5.24-.29Z" fill="#263238"/><path d="M334.85,128.08c1.42-.16,2.84-.23,4.26-.29s2.85-.08,4.27-.09s2.84,0,4.26.09s2.85.13,4.27.29c-1.42.15-2.84.22-4.27.28s-2.84.08-4.26.09-2.84,0-4.27-.09-2.84-.13-4.26-.28Z" fill="#263238"/><path d="M215.12,189.07c2-.15,3.95-.22,5.92-.29s4-.07,5.92-.08s3.95,0,5.93.08s4,.14,5.92.29c-2,.16-3.95.23-5.92.29s-3.95.08-5.93.09-4,0-5.92-.09-3.95-.13-5.92-.29Z" fill="#263238"/><path d="M215.12,191.9c1.52-.15,3-.22,4.57-.28s3.05-.08,4.57-.09s3.05,0,4.58.08s3,.14,4.57.29c-1.52.16-3,.23-4.57.29s-3.05.08-4.58.09-3,0-4.57-.09-3.05-.13-4.57-.29Z" fill="#263238"/><path d="M215.12,194.73c1.74-.15,3.49-.22,5.24-.28s3.49-.08,5.24-.09s3.49,0,5.24.09s3.49.13,5.24.28c-1.75.16-3.49.23-5.24.29s-3.49.08-5.24.09-3.5,0-5.24-.09-3.5-.13-5.24-.29Z" fill="#263238"/></g><g><g id="eyxJ3LtSjhs182_to" transform="translate(196.64029,323.47168)"><g id="eyxJ3LtSjhs182_tr" transform="rotate(0)"><g transform="translate(-196.640289,-323.471679)"><path d="M211.65,340.64c-.9341,3.422573-1.55005,6.924115-1.84,10.46.09.18.07.83,0,.65c0,.57-.9.47-.9-.1c0-.37,0-.74,0-1.1-2-2.53-5-4.14-7.41-6.35-1.933548-1.728984-3.340669-3.967901-4.06-6.46-2-6.86-.13-14.12-2.52-21-2.06-5.9-5.76-11-8.9-16.37-3.3-5.65-5.74-11.58-6-18.2-.2-5.07.41-11.82,4.27-15.62c4.09-4,9.16-1,12.29,2.59c9.08,10.42,13.29,23.59,15,37.06.93,7.45,1.91,14.95,1.68,22.48-.13699,4.030339-.676335,8.036906-1.61,11.96Z" fill="#a285d5"/><path d="M209.84,353.84c.500192-7.034643.41992-14.09854-.24-21.12.005521-.023007.005521-.046993,0-.07.12-5.71.57-11.4.34-17.11-.274466-6.180489-1.114644-12.322831-2.51-18.35c0-.07-.12-.06-.11,0c1.115771,5.924726,1.784323,11.924985,2,17.95.11,3.22.09,6.45-.08,9.68-.06,1-.15,2.1-.22,3.16v0c-2.374885-16.045326-8.172624-31.392282-17-45-.12-.18-.45,0-.33.21c6.297244,10.327596,10.95903,21.567155,13.82,33.32-4.36-8.09-11-14.74-15.85-22.52c0,0-.1,0-.08,0c4.4,8.65,11.66,15.48,16.29,24c.8,3.47,1.46,7,1.95,10.51.65287,4.843627,1.006873,9.72286,1.06,14.61-2.783391-4.869325-5.319933-9.875658-7.6-15-.06-.14-.26,0-.21.09c1.85,5.47,4.34,11.35,7.82,16q0,5.19-.29,10.37c-.54,9.22-2.12,18.32-2.84,27.51c0,.27.36.31.42,0c1.856982-9.319773,3.079787-18.754753,3.66-28.24Z" fill="#263238"/><path d="M200.05,282.74c0-.07-.12,0-.1,0c1.519918,4.649087,2.804877,9.371728,3.85,14.15.028093.081637.110193.13183.19566.11962s.150229-.083383.15434-.16962c-.669866-4.875194-2.051237-9.625762-4.1-14.1Z" fill="#263238"/></g></g></g><g id="eyxJ3LtSjhs186_to" transform="translate(224.738755,343.807785)"><g id="eyxJ3LtSjhs186_tr" transform="rotate(0)"><g transform="translate(-224.738754,-343.807785)"><path d="M242.82,302.26c-1.123198,2.729706-2.419155,5.385083-3.88,7.95-3,5.51-6.19,10.55-6.76,17-.098865,2.865755-.507918,5.712364-1.22,8.49-.799073,2.37348-1.941173,4.617251-3.39,6.66-3.29,4.78-7.39,8.91-10.44,13.88-3.168929,5.178428-5.510426,10.819615-6.94,16.72-.07.33-.58.24-.5-.08.004115-.023152.004115-.046848,0-.07v-.07c-.48-13.75.62-27.61,4.81-40.78c1.853889-5.804758,4.081888-11.483316,6.67-17c2.109709-4.868877,5.1694-9.268033,9-12.94c2.55-2.3,8.1-6.67,11.75-4.36c1.72,1.12,1.59,2.88.9,4.6Z" fill="#a285d5"/><path d="M229,333.42c-2.424851,3.99282-5.096719,7.83029-8,11.49-1.33,1.74-2.68,3.46-4,5.2-.63.82-1.33,1.64-1.91,2.52.36-1.44.72-2.89,1.09-4.33c1.77-6.95,3.48-14,6.12-20.64c2.707621-6.450407,5.896618-12.688004,9.54-18.66.1-.16-.16-.28-.25-.12-2.91,4.78-5.86,9.55-8.3,14.58-1.345149,2.813814-2.520587,5.705656-3.52,8.66c1.118187-6.267768,2.685561-12.447031,4.69-18.49-2.6187,6.115378-4.25876,12.604749-4.86,19.23s0,0,0,0c-.6,1.78-1.14,3.58-1.66,5.4-2.16,7.69-4.06,15.46-5.83,23.26-.026657-5.126675.418554-10.244926,1.33-15.29c0-.11-.15-.14-.18,0-1.344783,5.260627-1.794399,10.710104-1.33,16.12q-1,4.46-1.95,8.91c-1.35,6.33-3,12.78-3.8,19.22c0,.071797.058203.13.13.13s.13-.058203.13-.13c.94-3.47,1.51-7.06,2.28-10.57s1.57-7,2.39-10.56q1.78-7.67,3.72-15.31c.85-1.87,2.5-3.53,3.73-5.09c1.35-1.72,2.71-3.44,4-5.19c2.474644-3.232437,4.688289-6.656565,6.62-10.24-.02-.12-.18-.17-.18-.1Z" fill="#263238"/><path d="M229.59,327.54c-3.029007,3.872806-5.649599,8.048326-7.82,12.46s.06.11.09.06c2.63-4.13,5.22-8.28,7.85-12.41.04-.1-.07-.17-.12-.11Z" fill="#263238"/></g></g></g><g id="eyxJ3LtSjhs190_to" transform="translate(186.644837,349.650116)"><g id="eyxJ3LtSjhs190_tr" transform="rotate(0)"><g transform="translate(-186.644836,-349.650116)"><path d="M171.06,315.29c1.78,3.07,3.81,6.75,3.05,10.44-.49,2.33-2.19,4.23-2.5,6.6-.69,5.26,4.54,8.73,8.33,11.21c9.44,6.19,22.39,11.71,24.1,24.36.07.45.84.34.79-.1.004476-.026479.004476-.053521,0-.08s0,0,0-.08c1.244007-6.385824,1.186186-12.957055-.17-19.32-1.41-6.52-4.26-12.38-7.61-18.1-5.69-9.7-11.7-19.62-20.29-27.05-2.38-2.05-7.25-5.74-9.15-1.11s1.27,9.49,3.45,13.23Z" fill="#a285d5"/><path d="M179.7,335.84c6.26,6.78,16.21,10.58,21.6,18.17-3.007691-11.552833-8.694617-22.234662-16.6-31.18-.09665-.093888-.098888-.24835-.005-.345s.24835-.098888.345-.005c5.76199,5.601959,10.371961,12.277414,13.57,19.65-1.491081-5.146285-3.445752-10.14676-5.84-14.94-.09-.19.17-.34.27-.16c2.975976,5.227686,5.102483,10.894995,6.3,16.79c7.1,17.18,7.76,37.34,6.27,55.46c0,.25-.42.26-.41,0c.41-14.28.18-28.8-3.24-42.75l-.23-.86c-5.86-8.17-15.77-12-22.14-19.72-.06-.08.04-.18.11-.11Z" fill="#263238"/><path d="M178.25,330c3.28,3,6.52,6.1,9.81,9.11c0,0,0,.09-.05.06-3.739315-2.515668-7.105706-5.54542-10-9-.046944-.066274-.031274-.158056.035-.205s.158056-.031274.205.035Z" fill="#263238"/><path d="M177.73,317c2.903112,4.766778,6.190709,9.288477,9.83,13.52.05.06,0,.14-.08.09-4.08029-3.882963-7.442018-8.456673-9.93-13.51-.027614-.049706-.009706-.112386.04-.14s.112386-.009706.14.04Z" fill="#263238"/></g></g></g><polygon points="192.52,412.05 221.3,412.05 217.43,373.33 196.96,373.33 192.52,412.05" fill="#455a64"/><polygon points="196.23,379.62 218.06,379.62 217.43,373.33 196.95,373.33 196.23,379.62" fill="#263238"/><rect width="26.98" height="6.18" rx="0" ry="0" transform="matrix(-1 0 0-1 220.41 375.22)" fill="#455a64"/></g><g transform="translate(0-.194414)"><path d="M319.53,445.19c2,.64,58.32-.09,60.45-1.48.81-.52,1.18-8.73,1.35-18.67c0-.11.93-36.73.93-36.73l-36.06.38-1.2,36.72c0,0-21.45,9.92-23.63,11.7s-3.82,7.45-1.84,8.08Z" fill="#f7a9a0"/><path d="M336.46,429.26c.14,0,.22-.09.23-.13-.079575.037973-.156426.08141-.23.13Z" fill="#a285d5"/><path d="M319.53,445.19c2,.64,58.32-.09,60.45-1.48.72-.46,1.1-7,1.29-15.43-10.33,2.15-50.34,10.25-51.43,6.82-.43-1.34,3-3.67,5.15-5-5.91,2.82-12.46,6.05-13.62,7-2.15,1.78-3.82,7.46-1.84,8.09Z" fill="#263238"/><path d="M392.83,226c0,0-5.46,95.21-6.84,102.48-.32,1.66-4.59,93.57-4.59,93.57l-36.28-.59c0,0,1.56-78.87,3.32-93.38s10-102.08,10-102.08Z" fill="#f7a9a0"/><path d="M399.25,449.6c2.07.16,56.7-13.69,58.44-15.54.68-.69-.88-8.77-3-18.47l-.07-.31c-.44-2-11.95-35.62-11.95-35.62l-35.44,9.12l12.05,35.05.17.59c0,0-18.54,14.66-20.24,16.89s-2.03,8.14.04,8.29Z" fill="#f7a9a0"/><path d="M399.26,449.6c2.07.17,56.69-13.69,58.43-15.54.58-.59-.47-6.57-2.13-14.35-8.22,3.62-47.85,20.89-49.68,17.68-.38-.68.31-1.9,1.33-3.14-2.797937,2.200266-5.468889,4.557381-8,7.06-1.73,2.23-2.02,8.14.05,8.29Z" fill="#263238"/><path d="M418,420.22l35.38-8.52c0,0-26.58-79.19-28.23-84.29-1.2-3.7-13.45-45.58-16.85-65.3c0,0,5.08-14.4-6.29-36.14h-43.57c0,0,1,20.69,6.25,33.81c3.514225,1.230624,6.908393,2.780426,10.14,4.63s12.85,65.93,14.91,72.37c4.44,13.93,28.26,83.44,28.26,83.44Z" fill="#f7a9a0"/><path d="M357.71,226c0,0-11.11,103.64-11,107.14c7.487122,3.801873,15.634633,6.130704,24,6.86c24.14,2.29,54.86-14.17,54.86-14.17L409.23,261.9c0,0,4.18-18.52-7.18-35.9Z" fill="#263238"/><path d="M365.64,231.61c-.038121.288443-.284049.504007-.575.504007s-.536879-.215564-.575-.504007c.038121-.288443.284049-.504007.575-.504007s.536879.215564.575.504007Zm8.51-.57c-.312562.005344-.564656.257438-.57.57.038121.288443.284049.504007.575.504007s.536879-.215564.575-.504007c.008233-.158954-.04922-.314307-.158896-.429656s-.261937-.180557-.421104-.180344Zm9.09,0c-.312562.005344-.564656.257438-.57.57.038121.288443.284049.504007.575.504007s.536879-.215564.575-.504007c.008233-.158954-.04922-.314307-.158896-.429656s-.261937-.180557-.421104-.180344Zm9.09,0c-.312562.005344-.564656.257438-.57.57c0,.314802.255198.57.57.57.151997.002739.298575-.056434.406071-.163929s.166668-.254074.163929-.406071c.011114-.157976-.043996-.313455-.15212-.429166s-.259514-.181224-.41788-.180834Zm9.09,0c-.312562.005344-.564656.257438-.57.57c0,.314802.255198.57.57.57.151997.002739.298575-.056434.406071-.163929s.166668-.254074.163929-.406071c.011114-.157976-.043996-.313455-.15212-.429166s-.259514-.181224-.41788-.180834ZM356,243.65h-.16c0,.34-.07.69-.11,1.05.081538.048473.175182.072751.27.07.312562-.005344.564656-.257438.57-.57-.010777-.306965-.262846-.550189-.57-.55Zm9.09,0c-.152899-.002683-.300463.056184-.409531.163372s-.170493.253706-.170469.406628c.038121.288443.284049.504007.575.504007s.536879-.215564.575-.504007c.000095-.154703-.062696-.3028-.173957-.41029s-.261435-.165138-.416043-.15971Zm9.08,0c-.314802,0-.57.255198-.57.57-.004041.236359.135768.451521.353387.543849s.469494.043344.63665-.123812.216139-.419032.123812-.63665-.30749-.357428-.543849-.353387Zm9.09,0c-.314802,0-.57.255198-.57.57-.004041.236359.135768.451521.353387.543849s.469494.043344.63665-.123812.216139-.419032.123812-.63665-.30749-.357428-.543849-.353387Zm9.09,0c-.314802,0-.57.255198-.57.57.005344.312562.257438.564656.57.57.314802,0,.57-.255198.57-.57.003004-.155597-.058876-.305426-.170801-.413557s-.263798-.164809-.419199-.156443Zm9.09,0c-.314802,0-.57.255198-.57.57.005344.312562.257438.564656.57.57.314802,0,.57-.255198.57-.57.003004-.155597-.058876-.305426-.170801-.413557s-.263798-.164809-.419199-.156443Zm-40.9-6.27c-.312562.005344-.564656.257438-.57.57c0,.314802.255198.57.57.57.151997.002739.298575-.056434.406071-.163929s.166668-.254074.163929-.406071c.000095-.154703-.062696-.3028-.173957-.41029s-.261435-.165138-.416043-.15971Zm9.09,0c-.314802,0-.57.255198-.57.57s.255198.57.57.57.57-.255198.57-.57c.000095-.154703-.062696-.3028-.173957-.41029s-.261435-.165138-.416043-.15971Zm9.09,0c-.314802,0-.57.255198-.57.57-.002739.151997.056434.298575.163929.406071s.254074.166668.406071.163929c.314802,0,.57-.255198.57-.57-.002629-.153833-.066273-.300318-.176924-.407219s-.259244-.165456-.413076-.162781Zm9.09,0c-.314802,0-.57.255198-.57.57-.002739.151997.056434.298575.163929.406071s.254074.166668.406071.163929c.314802,0,.57-.255198.57-.57-.002629-.153833-.066273-.300318-.176924-.407219s-.259244-.165456-.413076-.162781Zm9.09,0c-.314802,0-.57.255198-.57.57-.002739.151997.056434.298575.163929.406071s.254074.166668.406071.163929c.314802,0,.57-.255198.57-.57-.002629-.153833-.066273-.300318-.176924-.407219s-.259244-.165456-.413076-.162781Zm9.09,0c-.314802,0-.57.255198-.57.57-.002739.151997.056434.298575.163929.406071s.254074.166668.406071.163929c.314802,0,.57-.255198.57-.57-.005143-.30879-.251349-.559393-.56-.57Zm-50,18.88c-.152899-.002683-.300463.056184-.409531.163372s-.170493.253706-.170469.406628c.038121.288443.284049.504007.575.504007s.536879-.215564.575-.504007c.000048-.310938-.24911-.564545-.56-.57Zm9.09,0c-.152899-.002683-.300463.056184-.409531.163372s-.170493.253706-.170469.406628c.038121.288443.284049.504007.575.504007s.536879-.215564.575-.504007c.000024-.152922-.061401-.29944-.170469-.406628s-.256632-.166055-.409531-.163372Zm9.08,0c-.314802,0-.57.255198-.57.57-.004041.236359.135768.451521.353387.543849s.469494.043344.63665-.123812.216139-.419032.123812-.63665-.30749-.357428-.543849-.353387Zm9.09,0c-.314802,0-.57.255198-.57.57-.004041.236359.135768.451521.353387.543849s.469494.043344.63665-.123812.216139-.419032.123812-.63665-.30749-.357428-.543849-.353387Zm9.09,0c-.314802,0-.57.255198-.57.57.005344.312562.257438.564656.57.57.314802,0,.57-.255198.57-.57.002846-.15378-.057683-.301961-.167382-.409769s-.258911-.16575-.412618-.160231Zm9.09,0c-.314802,0-.57.255198-.57.57.005344.312562.257438.564656.57.57.314802,0,.57-.255198.57-.57.002846-.15378-.057683-.301961-.167382-.409769s-.258911-.16575-.412618-.160231ZM360.52,250c-.314802,0-.57.255198-.57.57.005344.312562.257438.564656.57.57.314802,0,.57-.255198.57-.57.002739-.151997-.056434-.298575-.163929-.406071s-.254074-.166668-.406071-.163929Zm9.09,0c-.151997-.002739-.298575.056434-.406071.163929s-.166668.254074-.163929.406071c0,.203641.108641.391814.285.493635s.393641.10182.57,0s.285-.289994.285-.493635c.002739-.151997-.056434-.298575-.163929-.406071s-.254074-.166668-.406071-.163929Zm9.09,0c-.151997-.002739-.298575.056434-.406071.163929s-.166668.254074-.163929.406071c0,.314802.255198.57.57.57.312562-.005344.564656-.257438.57-.57c0-.314802-.255198-.57-.57-.57Zm9.09,0c-.151997-.002739-.298575.056434-.406071.163929s-.166668.254074-.163929.406071c0,.314802.255198.57.57.57.312562-.005344.564656-.257438.57-.57c0-.314802-.255198-.57-.57-.57Zm9.09,0c-.151997-.002739-.298575.056434-.406071.163929s-.166668.254074-.163929.406071c0,.314802.255198.57.57.57.312562-.005344.564656-.257438.57-.57c0-.314802-.255198-.57-.57-.57Zm9.09,0c-.151997-.002739-.298575.056434-.406071.163929s-.166668.254074-.163929.406071c0,.314802.255198.57.57.57.312562-.005344.564656-.257438.57-.57.000421-.303449-.236971-.554029-.54-.57Zm-50,18.87c-.31646-.000047-.574544.253587-.58.57-.00406.235456.134649.449994.351027.542927s.467468.045808.635427-.119254.219442-.415296.130286-.633258-.301249-.36038-.53674-.360415Zm9.09,0c-.31646-.000047-.574544.253587-.58.57-.00406.235456.134649.449994.351027.542927s.467468.045808.635427-.119254.219442-.415296.130286-.633258-.301249-.36038-.53674-.360415Zm9.08,0c-.312562.005344-.564656.257438-.57.57.038121.288443.284049.504007.575.504007s.536879-.215564.575-.504007c.000047-.31646-.253587-.574544-.57-.58Zm9.09,0c-.312562.005344-.564656.257438-.57.57.038121.288443.284049.504007.575.504007s.536879-.215564.575-.504007c.000047-.31646-.253587-.574544-.57-.58Zm9.09,0c-.312562.005344-.564656.257438-.57.57c0,.314802.255198.57.57.57.151997.002739.298575-.056434.406071-.163929s.166668-.254074.163929-.406071c.002676-.15118-.054827-.297229-.159852-.406005s-.248967-.171366-.400148-.173995Zm9.09,0c-.312562.005344-.564656.257438-.57.57c0,.314802.255198.57.57.57.151997.002739.298575-.056434.406071-.163929s.166668-.254074.163929-.406071c.002676-.15118-.054827-.297229-.159852-.406005s-.248967-.171366-.400148-.173995Zm9.09,0c-.312562.005344-.564656.257438-.57.57c0,.314802.255198.57.57.57.151997.002739.298575-.056434.406071-.163929s.166668-.254074.163929-.406071c.002676-.15118-.054827-.297229-.159852-.406005s-.248967-.171366-.400148-.173995Zm-50-6.26c-.314802,0-.57.255198-.57.57.005344.312562.257438.564656.57.57.314802,0,.57-.255198.57-.57.005391-.150235-.049848-.29633-.15329-.405414s-.2464-.171998-.39671-.174586Zm9.09,0c-.151997-.002739-.298575.056434-.406071.163929s-.166668.254074-.163929.406071c0,.203641.108641.391814.285.493635s.393641.10182.57,0s.285-.289994.285-.493635c.005391-.150235-.049848-.29633-.15329-.405414s-.2464-.171998-.39671-.174586Zm9.09,0c-.151997-.002739-.298575.056434-.406071.163929s-.166668.254074-.163929.406071c0,.314802.255198.57.57.57.312562-.005344.564656-.257438.57-.57.005647-.311023-.239115-.569136-.55-.58Zm9.09,0c-.151997-.002739-.298575.056434-.406071.163929s-.166668.254074-.163929.406071c0,.314802.255198.57.57.57.312562-.005344.564656-.257438.57-.57.005647-.311023-.239115-.569136-.55-.58Zm9.09,0c-.151997-.002739-.298575.056434-.406071.163929s-.166668.254074-.163929.406071c0,.314802.255198.57.57.57.312562-.005344.564656-.257438.57-.57.005647-.311023-.239115-.569136-.55-.58Zm9.09,0c-.151997-.002739-.298575.056434-.406071.163929s-.166668.254074-.163929.406071c0,.314802.255198.57.57.57.312562-.005344.564656-.257438.57-.57.006417-.300092-.220991-.553739-.52-.58Zm-50,18.87c-.31646-.000047-.574544.253587-.58.57-.00406.235456.134649.449994.351027.542927s.467468.045808.635427-.119254.219442-.415296.130286-.633258-.301249-.36038-.53674-.360415Zm9.09,0c-.31646-.000047-.574544.253587-.58.57-.00406.235456.134649.449994.351027.542927s.467468.045808.635427-.119254.219442-.415296.130286-.633258-.301249-.36038-.53674-.360415Zm9.08,0c-.312562.005344-.564656.257438-.57.57.038121.288443.284049.504007.575.504007s.536879-.215564.575-.504007c.000414-.308966-.241447-.564019-.55-.58Zm9.09,0c-.312562.005344-.564656.257438-.57.57.038121.288443.284049.504007.575.504007s.536879-.215564.575-.504007c.000414-.308966-.241447-.564019-.55-.58Zm9.09,0c-.312562.005344-.564656.257438-.57.57c0,.314802.255198.57.57.57.151997.002739.298575-.056434.406071-.163929s.166668-.254074.163929-.406071c.005815-.307304-.233064-.563878-.54-.58Zm9.09,0c-.312562.005344-.564656.257438-.57.57c0,.314802.255198.57.57.57.168005.016126.334322-.044381.452692-.164691s.176163-.287588.157308-.455309c-.021253-.302977-.27634-.536073-.58-.53Zm9.09,0c-.312562.005344-.564656.257438-.57.57c0,.314802.255198.57.57.57.151997.002739.298575-.056434.406071-.163929s.166668-.254074.163929-.406071c.005815-.307304-.233064-.563878-.54-.58Zm-50-6.27c-.236359-.004041-.451521.135768-.543849.353387s-.043344.469494.123812.63665.419032.216139.63665.123812.357428-.30749.353387-.543849c.006073-.30366-.227023-.558747-.53-.58Zm9.09,0c-.236359-.004041-.451521.135768-.543849.353387s-.043344.469494.123812.63665.419032.216139.63665.123812.357428-.30749.353387-.543849c.006073-.30366-.227023-.558747-.53-.58Zm9.09,0c-.288443.038121-.504007.284049-.504007.575s.215564.536879.504007.575c.288443-.038121.504007-.284049.504007-.575s-.215564-.536879-.504007-.575Zm9.09,0c-.288443.038121-.504007.284049-.504007.575s.215564.536879.504007.575c.288443-.038121.504007-.284049.504007-.575s-.215564-.536879-.504007-.575Zm9.09,0c-.288443.038121-.504007.284049-.504007.575s.215564.536879.504007.575c.288443-.038121.504007-.284049.504007-.575s-.215564-.536879-.504007-.575Zm9.09,0c-.288443.038121-.504007.284049-.504007.575s.215564.536879.504007.575c.288443-.038121.504007-.284049.504007-.575s-.215564-.536879-.504007-.575Zm-50,18.88c-.152899-.002683-.300463.056184-.409531.163372s-.170493.253706-.170469.406628c.038121.288443.284049.504007.575.504007s.536879-.215564.575-.504007c.007353-.293171-.208946-.544077-.5-.58Zm9.09,0c-.152899-.002683-.300463.056184-.409531.163372s-.170493.253706-.170469.406628c.038121.288443.284049.504007.575.504007s.536879-.215564.575-.504007c.006417-.300092-.220991-.553739-.52-.58Zm9.08,0c-.314802,0-.57.255198-.57.57-.004041.236359.135768.451521.353387.543849s.469494.043344.63665-.123812.216139-.419032.123812-.63665-.30749-.357428-.543849-.353387Zm9.09,0c-.314802,0-.57.255198-.57.57-.004041.236359.135768.451521.353387.543849s.469494.043344.63665-.123812.216139-.419032.123812-.63665-.30749-.357428-.543849-.353387Zm9.09,0c-.314802,0-.57.255198-.57.57.005344.312562.257438.564656.57.57.314802,0,.57-.255198.57-.57.011549-.301968-.218567-.558636-.52-.58Zm9.09,0c-.314802,0-.57.255198-.57.57.005344.312562.257438.564656.57.57.314802,0,.57-.255198.57-.57.011549-.301968-.218567-.558636-.52-.58Zm9.09,0c-.314802,0-.57.255198-.57.57.005344.312562.257438.564656.57.57.314802,0,.57-.255198.57-.57.011549-.301968-.218567-.558636-.52-.58Zm-59.08-6.27c-.095806.000248-.189523.028016-.27.08c0,.31-.07.61-.1.92.101701.090942.233571.140839.37.14.151997.002739.298575-.056434.406071-.163929s.166668-.254074.163929-.406071c.006417-.300092-.220991-.553739-.52-.58Zm9.09,0c-.312562.005344-.564656.257438-.57.57c0,.314802.255198.57.57.57.151997.002739.298575-.056434.406071-.163929s.166668-.254074.163929-.406071c.006417-.300092-.220991-.553739-.52-.58Zm9.09,0c-.314802,0-.57.255198-.57.57s.255198.57.57.57.57-.255198.57-.57c.006417-.300092-.220991-.553739-.52-.58Zm9.09,0c-.314802,0-.57.255198-.57.57-.002739.151997.056434.298575.163929.406071s.254074.166668.406071.163929c.314802,0,.57-.255198.57-.57.0016-.298285-.22331-.549147-.52-.58Zm9.09,0c-.314802,0-.57.255198-.57.57-.002739.151997.056434.298575.163929.406071s.254074.166668.406071.163929c.314802,0,.57-.255198.57-.57.0016-.298285-.22331-.549147-.52-.58Zm9.09,0c-.314802,0-.57.255198-.57.57-.002739.151997.056434.298575.163929.406071s.254074.166668.406071.163929c.314802,0,.57-.255198.57-.57.0016-.298285-.22331-.549147-.52-.58Zm9.09,0c-.314802,0-.57.255198-.57.57-.002739.151997.056434.298575.163929.406071s.254074.166668.406071.163929c.314802,0,.57-.255198.57-.57.003488-.288235-.205232-.535292-.49-.58Zm9.09,0c-.314802,0-.57.255198-.57.57-.002739.151997.056434.298575.163929.406071s.254074.166668.406071.163929c.314802,0,.57-.255198.57-.57.0016-.298285-.22331-.549147-.52-.58ZM356,306.68c-.235456-.00406-.449994.134649-.542927.351027s-.045808.467468.119254.635427.415296.219442.633258.130286.36038-.301249.360415-.53674c.000047-.31646-.253587-.574544-.57-.58Zm9.09,0c-.235456-.00406-.449994.134649-.542927.351027s-.045808.467468.119254.635427.415296.219442.633258.130286.36038-.301249.360415-.53674c.000023-.155574-.062455-.304635-.173398-.413698s-.261051-.168984-.416602-.166302Zm9.08,0c-.234588,0-.446077.141312-.53585.358044s-.040151.466199.125728.632078.415347.215501.632078.125728.358044-.301262.358044-.53585c.000094-.157354-.063751-.307993-.176887-.417358s-.265852-.168068-.423113-.162642Zm9.09,0c-.234588,0-.446077.141312-.53585.358044s-.040151.466199.125728.632078.415347.215501.632078.125728.358044-.301262.358044-.53585c.000094-.157354-.063751-.307993-.176887-.417358s-.265852-.168068-.423113-.162642Zm9.09,0c-.288443.038121-.504007.284049-.504007.575s.215564.536879.504007.575c.288443-.038121.504007-.284049.504007-.575s-.215564-.536879-.504007-.575Zm9.09,0c-.288443.038121-.504007.284049-.504007.575s.215564.536879.504007.575c.288443-.038121.504007-.284049.504007-.575s-.215564-.536879-.504007-.575Zm9.09,0c-.288443.038121-.504007.284049-.504007.575s.215564.536879.504007.575c.288443-.038121.504007-.284049.504007-.575s-.215564-.536879-.504007-.575Zm9.09,0c-.288443.038121-.504007.284049-.504007.575s.215564.536879.504007.575c.288443-.038121.504007-.284049.504007-.575s-.215564-.536879-.504007-.575Zm-68.17-6.26c-.314802,0-.57.255198-.57.57.005344.312562.257438.564656.57.57.303129-.010599.544864-.25673.55-.56.005519-.153707-.052424-.302918-.160231-.412618s-.255989-.170228-.409769-.167382Zm9.09,0c-.314802,0-.57.255198-.57.57.005344.312562.257438.564656.57.57.314802,0,.57-.255198.57-.57.003004-.155597-.058876-.305426-.170801-.413557s-.263798-.164809-.419199-.156443Zm9.09,0c-.151997-.002739-.298575.056434-.406071.163929s-.166668.254074-.163929.406071c0,.314802.255198.57.57.57s.57-.255198.57-.57c.003004-.155597-.058876-.305426-.170801-.413557s-.263798-.164809-.419199-.156443Zm9.09,0c-.151997-.002739-.298575.056434-.406071.163929s-.166668.254074-.163929.406071c0,.314802.255198.57.57.57.312562-.005344.564656-.257438.57-.57.000095-.154703-.062696-.3028-.173957-.41029s-.261435-.165138-.416043-.15971Zm9.09,0c-.151997-.002739-.298575.056434-.406071.163929s-.166668.254074-.163929.406071c0,.314802.255198.57.57.57.312562-.005344.564656-.257438.57-.57.000095-.154703-.062696-.3028-.173957-.41029s-.261435-.165138-.416043-.15971Zm9.09,0c-.151997-.002739-.298575.056434-.406071.163929s-.166668.254074-.163929.406071c0,.314802.255198.57.57.57.312562-.005344.564656-.257438.57-.57.000095-.154703-.062696-.3028-.173957-.41029s-.261435-.165138-.416043-.15971Zm9.09,0c-.151997-.002739-.298575.056434-.406071.163929s-.166668.254074-.163929.406071c0,.314802.255198.57.57.57.312562-.005344.564656-.257438.57-.57.000048-.310938-.24911-.564545-.56-.57Zm9.09,0c-.151997-.002739-.298575.056434-.406071.163929s-.166668.254074-.163929.406071c0,.314802.255198.57.57.57.312562-.005344.564656-.257438.57-.57.000095-.154703-.062696-.3028-.173957-.41029s-.261435-.165138-.416043-.15971ZM356,319.29c-.31646-.000047-.574544.253587-.58.57-.00406.235456.134649.449994.351027.542927s.467468.045808.635427-.119254.219442-.415296.130286-.633258-.301249-.36038-.53674-.360415Zm9.09,0c-.31646-.000047-.574544.253587-.58.57-.00406.235456.134649.449994.351027.542927s.467468.045808.635427-.119254.219442-.415296.130286-.633258-.301249-.36038-.53674-.360415Zm9.08,0c-.312562.005344-.564656.257438-.57.57.038121.288443.284049.504007.575.504007s.536879-.215564.575-.504007c-.00259-.155612-.067611-.303655-.180445-.410847s-.264015-.164541-.419555-.159153Zm9.09,0c-.312562.005344-.564656.257438-.57.57.038121.288443.284049.504007.575.504007s.536879-.215564.575-.504007c-.00259-.155612-.067611-.303655-.180445-.410847s-.264015-.164541-.419555-.159153Zm9.09,0c-.312562.005344-.564656.257438-.57.57c0,.314802.255198.57.57.57.151997.002739.298575-.056434.406071-.163929s.166668-.254074.163929-.406071c.000095-.154703-.062696-.3028-.173957-.41029s-.261435-.165138-.416043-.15971Zm9.09,0c-.312562.005344-.564656.257438-.57.57c0,.314802.255198.57.57.57.151997.002739.298575-.056434.406071-.163929s.166668-.254074.163929-.406071c.000095-.154703-.062696-.3028-.173957-.41029s-.261435-.165138-.416043-.15971Zm9.09,0c-.312562.005344-.564656.257438-.57.57c0,.314802.255198.57.57.57.151997.002739.298575-.056434.406071-.163929s.166668-.254074.163929-.406071c.000095-.154703-.062696-.3028-.173957-.41029s-.261435-.165138-.416043-.15971Zm9.09,0c-.312562.005344-.564656.257438-.57.57c0,.314802.255198.57.57.57.151997.002739.298575-.056434.406071-.163929s.166668-.254074.163929-.406071c.000095-.154703-.062696-.3028-.173957-.41029s-.261435-.165138-.416043-.15971ZM351.43,313c-.314802,0-.57.255198-.57.57.005344.312562.257438.564656.57.57.314802,0,.57-.255198.57-.57.002739-.151997-.056434-.298575-.163929-.406071s-.254074-.166668-.406071-.163929Zm9.09,0c-.314802,0-.57.255198-.57.57.005344.312562.257438.564656.57.57.314802,0,.57-.255198.57-.57.002739-.151997-.056434-.298575-.163929-.406071s-.254074-.166668-.406071-.163929Zm9.09,0c-.151997-.002739-.298575.056434-.406071.163929s-.166668.254074-.163929.406071c0,.314802.255198.57.57.57s.57-.255198.57-.57c.002739-.151997-.056434-.298575-.163929-.406071s-.254074-.166668-.406071-.163929Zm9.09,0c-.151997-.002739-.298575.056434-.406071.163929s-.166668.254074-.163929.406071c0,.314802.255198.57.57.57.312562-.005344.564656-.257438.57-.57c0-.314802-.255198-.57-.57-.57Zm9.09,0c-.151997-.002739-.298575.056434-.406071.163929s-.166668.254074-.163929.406071c0,.314802.255198.57.57.57.312562-.005344.564656-.257438.57-.57c0-.314802-.255198-.57-.57-.57Zm9.09,0c-.151997-.002739-.298575.056434-.406071.163929s-.166668.254074-.163929.406071c0,.314802.255198.57.57.57.312562-.005344.564656-.257438.57-.57c0-.314802-.255198-.57-.57-.57Zm9.09,0c-.151997-.002739-.298575.056434-.406071.163929s-.166668.254074-.163929.406071c0,.314802.255198.57.57.57.312562-.005344.564656-.257438.57-.57.000421-.303449-.236971-.554029-.54-.57Zm9.09,0c-.151997-.002739-.298575.056434-.406071.163929s-.166668.254074-.163929.406071c0,.314802.255198.57.57.57.312562-.005344.564656-.257438.57-.57c0-.314802-.255198-.57-.57-.57Zm-68.17,18.9h-.12c0,.52-.06.89-.06,1.1.059544.010464.120456.010464.18,0c.314802,0,.57-.255198.57-.57-.025659-.296851-.272069-.52597-.57-.53Zm9.09,0c-.31646-.000047-.574544.253587-.58.57-.00406.235456.134649.449994.351027.542927s.467468.045808.635427-.119254.219442-.415296.130286-.633258-.301249-.36038-.53674-.360415Zm9.09,0c-.31646-.000047-.574544.253587-.58.57-.00406.235456.134649.449994.351027.542927s.467468.045808.635427-.119254.219442-.415296.130286-.633258-.301249-.36038-.53674-.360415Zm9.08,0c-.312562.005344-.564656.257438-.57.57.038121.288443.284049.504007.575.504007s.536879-.215564.575-.504007c-.005456-.316413-.26354-.570047-.58-.57Zm9.09,0c-.312562.005344-.564656.257438-.57.57.038121.288443.284049.504007.575.504007s.536879-.215564.575-.504007c-.005456-.316413-.26354-.570047-.58-.57Zm9.09,0c-.312562.005344-.564656.257438-.57.57c0,.314802.255198.57.57.57.151997.002739.298575-.056434.406071-.163929s.166668-.254074.163929-.406071c0-.314802-.255198-.57-.57-.57Zm9.09,0c-.312562.005344-.564656.257438-.57.57c0,.314802.255198.57.57.57.151997.002739.298575-.056434.406071-.163929s.166668-.254074.163929-.406071c0-.314802-.255198-.57-.57-.57Zm9.09,0c-.312562.005344-.564656.257438-.57.57.00105.079247.018055.15747.05.23l1.06-.41c-.077411-.232592-.294864-.389642-.54-.39Zm-59.08-6.27c-.312562.005344-.564656.257438-.57.57c0,.314802.255198.57.57.57.151997.002739.298575-.056434.406071-.163929s.166668-.254074.163929-.406071c0-.314802-.255198-.57-.57-.57Zm9.09,0c-.312562.005344-.564656.257438-.57.57c0,.314802.255198.57.57.57.151997.002739.298575-.056434.406071-.163929s.166668-.254074.163929-.406071c0-.314802-.255198-.57-.57-.57Zm9.09,0c-.314802,0-.57.255198-.57.57c0,.203641.108641.391814.285.493635s.393641.10182.57,0s.285-.289994.285-.493635c0-.314802-.255198-.57-.57-.57Zm9.09,0c-.314802,0-.57.255198-.57.57-.002739.151997.056434.298575.163929.406071s.254074.166668.406071.163929c.314802,0,.57-.255198.57-.57-.005344-.312562-.257438-.564656-.57-.57Zm9.09,0c-.314802,0-.57.255198-.57.57-.002739.151997.056434.298575.163929.406071s.254074.166668.406071.163929c.314802,0,.57-.255198.57-.57-.005344-.312562-.257438-.564656-.57-.57Zm9.09,0c-.314802,0-.57.255198-.57.57-.002739.151997.056434.298575.163929.406071s.254074.166668.406071.163929c.314802,0,.57-.255198.57-.57-.005344-.312562-.257438-.564656-.57-.57Zm9.09,0c-.314802,0-.57.255198-.57.57-.002739.151997.056434.298575.163929.406071s.254074.166668.406071.163929c.314802,0,.57-.255198.57-.57-.004483-.301476-.239206-.54924-.54-.57Zm9.09,0c-.314802,0-.57.255198-.57.57-.002739.151997.056434.298575.163929.406071s.254074.166668.406071.163929c.314802,0,.57-.255198.57-.57-.005344-.312562-.257438-.564656-.57-.57Zm9.09,0c-.314802,0-.57.255198-.57.57-.001222.188792.092768.365492.25.47l.89-.44v0c.005388-.15554-.05196-.306721-.159153-.419555s-.255235-.177855-.410847-.180445Zm-54.54,12.61c-.314802,0-.57.255198-.57.57c0,.203641.108641.391814.285.493635s.393641.10182.57,0s.285-.289994.285-.493635c0-.314802-.255198-.57-.57-.57Zm9.09,0c-.314802,0-.57.255198-.57.57-.002739.151997.056434.298575.163929.406071s.254074.166668.406071.163929c.314802,0,.57-.255198.57-.57-.005344-.312562-.257438-.564656-.57-.57Zm9.09,0c-.314802,0-.57.255198-.57.57-.00221.106965.029276.211915.09.3l1-.19c.004941-.0365.004941-.0735,0-.11-.003499-.294457-.2271-.539558-.52-.57Z" fill="#fff"/><path d="M373.73,186c-6.47,8.9-30.91,28.86-41.86,27.52-8.82-1.08-30.65-14.62-36.36-18.32-4.82-3.11,7.32-23.71,11.63-21.87c5.38,2.29,21.5,18.1,26.82,18c2.1,0,16.27-5.51,33.33-12.26c6.61-2.63,10.3,1.6,6.44,6.93Z" fill="#f7a9a0"/><path d="M303.88,169c-3.53-1.25-7.49-3-11.42-2.89s-7.19,5.26-7.19,6.74s1.48,10.75,5.41,10.75s1.56-7.11,1.71-7.93.29-1.86,1-1.78s13.72,6.23,13.72,6.23Z" fill="#f7a9a0"/><path d="M303.63,169.58c-.22,0-10.75-4.15-14.68-4.08s-7.19,5.26-7.19,6.75s1.48,10.75,5.41,10.75s1.56-7.12,1.71-7.93.29-1.86,1-1.78s13.72,6.23,13.72,6.23Z" fill="#f7a9a0"/><path d="M288.5,182.5c.421113-.701438.648841-1.501937.66-2.32.078446-.838973.03126-1.684955-.14-2.51-.224779-.70406-.385433-1.427004-.48-2.16.000998-.729148.19046-1.445658.55-2.08.3-.55.88-.36,1.37-.18.733758.287755,1.448526.621759,2.14,1c.75.37,1.49.76,2.24,1.15.786069.367245,1.547648.784777,2.28,1.25.030376.013807.043807.049624.03.08s-.049624.043807-.08.03c-.68-.24-1.33-.59-2-.9l-2.25-1c-.7-.31-1.39-.66-2.1-1-.25-.11-.75-.38-1-.31s-.45.8-.52,1c-.164198.708287-.115493,1.449298.14,2.13.208162.700704.342229,1.421316.4,2.15.065768.670879.01159,1.348109-.16,2-.246081.598195-.561576,1.165415-.94,1.69-.06.14-.19.05-.14-.02Z" fill="#263238"/><path d="M316.1,179.9c0,0-10.89-9.9-13.16-11.9-4.55-4-23.7-11.78-26.37-12.06s-3.64,5.19,9.36,10.87c6.86,3,8.08,6.92,7.95,9.1s-2.21,6.23-5.87,6.13-6-5.44-9.39-6-1.14,5.56,1.23,9.12c2.484861,3.44179,5.897741,6.105501,9.84,7.68c3.17,1.19,13,5.41,13,5.41Z" fill="#f7a9a0"/><path d="M283.47,179.47c1.38,1.06,2.94,2.44,4.75,2.51s3.09-1.14,4-2.67c.973928-1.494378,1.332249-3.307485,1-5.06-.421411-1.578774-1.289473-3.002395-2.5-4.1-1.497134-1.337538-3.181574-2.449269-5-3.3-.08,0,0-.16.08-.12c1.68.75,6.91,2.9,8,7.52.337988,1.784591-.019818,3.630868-1,5.16-.81,1.45-2,2.86-3.76,3-2.16.18-4-1.58-5.58-2.89-.16-.06-.06-.11.01-.05Z" fill="#263238"/><path d="M313.91,176.79l-7.23,32.38c0,0,17.7,5.52,26.6,5.46s30.6-15.76,38.08-23.75s8.08-17-6.23-12-30.7,11.47-31.15,11.55-20.07-13.64-20.07-13.64Z" fill="#a285d5"/><path d="M316.54,195.25c.51-2.35,2.43-11.73,2.68-14.08c0-.06-.09-.07-.11,0-.76,2.27-2.9,11.66-3.41,14-1,4.7-2.09,9.41-2.73,14.18c0,.044183.035817.08.08.08s.08-.035817.08-.08c1.4-4.6,2.38-9.35,3.41-14.1Z" fill="#263238"/><path d="M371.36,190.88c-7.48,8-29.18,23.68-38.08,23.75-3.459193-.096305-6.901373-.521555-10.28-1.27l53.31-33.59c.93,2.6-1.1,7-4.95,11.11Z" opacity="0.1"/><path d="M361.08,189.36c-1.106217,1.492362-2.134265,3.041111-3.08,4.64.39-.89.75-1.79,1.06-2.72c0,0,0-.06-.06,0-.33.65-.66,1.3-.94,2s-.49,1.22-.71,1.84v0c-1.200894,1.814558-2.15273,3.782133-2.83,5.85-.45574,1.891659-.414401,3.869041.12,5.74.270666.963307.642748,1.895186,1.11,2.78.374194.801403.870052,1.54013,1.47,2.19-.34,2-.57,4-.83,5.94-.31958,1.925804-.519961,3.869501-.6,5.82.014343.045934.056879.077213.105.077213s.090657-.031279.105-.077213l.12-.41c.015021-.020916.015021-.049084,0-.07.43-1.78.61-3.65.86-5.45s.73-5.81.73-5.83-.9-1.64-1.25-2.39c-.416904-.911688-.751566-1.858782-1-2.83-.540987-1.836241-.578976-3.784062-.11-5.64.657339-1.984449,1.546838-3.884284,2.65-5.66c1.06-1.9,2.15-3.79,3.25-5.67c0-.11-.12-.2-.17-.13Z" fill="#263238"/><g transform="translate(0 0.000001)"><g id="eyxJ3LtSjhs219_tr" transform="translate(366.179825,182.438668) rotate(0)"><g transform="translate(-366.179825,-182.438667)"><path d="M362.38,144.42c-8.33,7.14-6,17.56-9.49,23.21-2.13,3.45-9.06,7.1-10.44,11.08-2.26,6.54,3.28,8.89,2,12.45-1.75,5-8.5,4.64-9.71,12.88s7.85,17,29.36,19.38s33.34-5.51,34.11-12.5-6.38-9.31-6.87-14.53c-.31-3.34,4.11-5.66,4.33-11.8s-5.76-8.14-6.62-13.35s1.91-17.89-5.76-24.35-16.8-5.99-20.91-2.47Z" fill="#263238"/><path d="M363.34,144.61c-2.328062,1.652682-4.224686,3.84083-5.53,6.38-1.351485,2.689881-2.381897,5.529388-3.07,8.46-.367648,1.744555-.931222,3.441987-1.68,5.06-.740815,1.351294-1.715992,2.560106-2.88,3.57-2.33,2.1-5.11,3.7-7.2,6.07s-3.52,5.23-2.73,8.29c.43,1.66,1.53,3,2.21,4.56s.9,3.29-.36,4.51c-1.08,1.05-2.64,1.52-3.86,2.38-1.199189.827091-2.259111,1.839755-3.14,3-1.801923,2.355685-2.527974,5.361538-2,8.28c1.27,6.69,7.55,10.5,13.35,12.89.8.34,1.62.66,2.43,1c.12,0,.23-.13.1-.19-5.82-2.61-12.57-5.66-14.8-12.17-1.029626-2.875333-.659872-6.066313,1-8.63.8227-1.253826,1.86229-2.350983,3.07-3.24c1.17-.86,2.53-1.39,3.72-2.21c1.196212-.770523,1.893049-2.118503,1.83-3.54-.19349-1.53321-.745018-2.999383-1.61-4.28-.897305-1.328815-1.37461-2.896602-1.37-4.5.173316-1.562656.767811-3.048894,1.72-4.3c1.81-2.57,4.49-4.25,6.9-6.19c2.462172-1.802447,4.29248-4.336182,5.23-7.24.45-1.54.73-3.12,1.11-4.67.355472-1.438226.786063-2.856837,1.29-4.25.951903-2.799483,2.501004-5.358571,4.54-7.5.547006-.540555,1.142882-1.029307,1.78-1.46.09-.01.02-.13-.05-.08Z" fill="#263238"/><path d="M378.46,178.49c-.21.92-4.53,6.94-8.73,6.79-1.37-.05-1.42-7.54-1.42-7.54l-.14-.55-1.81-7.73l9-5.93l1.3-.79c0,0,.36,2.14.78,4.82l.06.38c.033071.144951.056456.291943.07.44.07.4.14.8.2,1.21s.09.61.13.94l.12,1c.306306,2.307145.45332,4.632649.44,6.96Z" fill="#f7a9a0"/><path d="M377.47,167.56c-1.531687,4.422246-4.933828,7.945108-9.3,9.63l-1.81-7.73l9-5.93l1.3-.79c0,0,.39,2.14.81,4.82Z" fill="#263238"/><path d="M354.89,155.16c-4,13.35,3.57,17.24,6.45,18.09c2.62.77,11.61,3.08,16.94-9.79s.38-18.93-5.5-21-13.92-.65-17.89,12.7Z" fill="#f7a9a0"/><path d="M357.46,153.42c.32.05.63,0,1,.06.338632.065589.689393.01999,1-.13.172806-.142997.236885-.37929.16-.59-.233732-.380335-.653862-.605677-1.1-.59-.444153-.060913-.894811.049963-1.26.31-.157076.127911-.229354.332972-.187198.531106s.191655.356009.387198.408894Z" fill="#263238"/><path d="M399.21,205.8c-.261932-1.139694-.770538-2.208108-1.49-3.13-.75-.95-1.65-1.75-2.48-2.63-.848208-.781514-1.458315-1.786804-1.76-2.9-.153923-1.363709.17901-2.737945.94-3.88.731978-1.202353,1.376959-2.455554,1.93-3.75c1.475099-3.98816.974348-8.439278-1.35-12-.73-1.2-1.55-2.35-2.3-3.54-.815823-1.302951-1.454757-2.708604-1.9-4.18-1-3.24-1.18-6.66-2-9.94-.83763-3.362105-2.010158-6.631782-3.5-9.76c0-.08-.15,0-.11.07c1.303128,2.828021,2.308539,5.783929,3,8.82.69,2.88,1,5.81,1.46,8.72.222749,1.42951.587899,2.833161,1.09,4.19.510818,1.255176,1.136826,2.460326,1.87,3.6c1.45,2.37,2.95,4.71,3.35,7.52.407495,2.761806-.0759,5.58161-1.38,8.05-1.13,2.14-2.72,4.5-1.73,7c.84,2.12,2.86,3.4,4.2,5.15c1.430597,1.956327,1.961462,4.428849,1.46,6.8-1.16,6-7.2,9-12.85,9.31-.07732,0-.14.06268-.14.14s.06268.14.14.14c4.91-.06,10.26-2.22,12.56-6.82c1.133387-2.140185,1.483556-4.609059.99-6.98Z" fill="#263238"/><path d="M366.68,155.91c-.294603-.130607-.581713-.277501-.86-.44-.324111-.114602-.601648-.332416-.79-.62-.078533-.207553-.01384-.442067.16-.58.38619-.225374.86381-.225374,1.25,0c.410649.181231.738769.509351.92.92.095501.197984.058881.434369-.092048.594177s-.384839.209864-.587952.125823Z" fill="#263238"/><path d="M364.74,157.92c1.49.32.73,3.29-.65,3s-.6-3.28.65-3Z" fill="#263238"/><path d="M365.28,158.22c.22.24.39.6.7.71s.7-.11,1-.35c0,0,.05,0,0,0-.14.57-.51,1.1-1.14,1s-.84-.67-.84-1.28c.06-.04.19-.17.28-.08Z" fill="#263238"/><path d="M358,156c-1.46-.48-2.31,2.46-1,2.91s2.22-2.55,1-2.91Z" fill="#263238"/><path d="M357.34,156c-.28.09-.59.3-.87.24s-.48-.46-.59-.82c0,0-.05,0-.06,0-.256471.506727-.108343,1.124633.35,1.46.46.24,1-.14,1.26-.66.05-.11.02-.29-.09-.22Z" fill="#263238"/><path d="M361.81,166.19c-.243489.22625-.558186.360615-.89.38-.344875-.075897-.669065-.226048-.95-.44.194306.425508.603733.71249,1.07.75.408833-.018139.765355-.28355.9-.67-.02-.01-.09-.04-.13-.02Z" fill="#263238"/><path d="M358.67,163.74c.215734.628713.591379,1.190457,1.09,1.63.279613.240769.631474.381514,1,.4.79.06,1-.6,1.09-1.21.04021-.332121.04021-.667879,0-1-1.012038.405042-2.128719.46825-3.18.18Z" fill="#263238"/><path d="M359.76,165.37c.279613.240769.631474.381514,1,.4.79.06,1-.6,1.09-1.21-.800539-.257615-1.672149.080186-2.09.81Z" fill="#ff97b8"/><path d="M358.88,161.85c0,0-.56,1.32-.73,2c0,.06.13.13.34.2c0,0,0,0,0,0c1.073968.510772,2.343184.379607,3.29-.34.06-.05,0-.14-.08-.12-.96768.343985-2.021395.361547-3,.05c0-.19,1-2.22.93-2.26-.515272-.086843-1.039579-.107009-1.56-.06c1.08-2.78,2.6-5.36,3.64-8.14.015816-.043021-.003226-.091056-.044223-.111554s-.09085-.006911-.115777.031554c-1.710551,2.714418-3.147588,5.591843-4.29,8.59-.13.31,1.33.2,1.62.16Z" fill="#263238"/><path d="M377.45,163.14c-3.2-.66-2.1-5.69-2.1-5.69s-3.55-1.11-2.57-7c-1.933845,2.08026-4.736198,3.125582-7.56,2.82-1.07-.07,3-2,3-2s-5,2.89-12.43-.21c-.53-.22,2.39-8.14,9.07-9.63s11.82,1.27,14.76,5.91c0,0,4,3,3.62,7.34s-4.55,8.71-5.79,8.46Z" fill="#263238"/><path d="M376.84,168.39c-.219041.02905-.440959.02905-.66,0-.221033-.003033-.440277-.040136-.65-.11-.273123-.080303-.523303-.224242-.73-.42-.167895-.146714-.315823-.314814-.44-.5-.167571-.26795-.289242-.56199-.36-.87l1.51-3.49c0,0,3.85-3.65,5.56-2.19s-1.78,7.19-4.23,7.58Z" fill="#f7a9a0"/><path d="M380,162.45c-1.620275.425096-2.985741,1.514564-3.76,3c.252417-.29463.624034-.460008,1.011883-.450312s.750738.193437.988117.500312s0,.09-.06.07c-.535822-.296582-1.200203-.224541-1.66.18-.37391.331323-.709354.703665-1,1.11-.1.12-.34,0-.25-.16v0c.38-1.98,2.54-4.49,4.73-4.25Z" fill="#263238"/><path d="M376.77,167.78c-.066138.156617-.191873.280484-.349462.34427s-.334083.06225-.490538-.00427c-.245031-.09978-.405136-.338117-.404857-.602685s.160884-.502568.406124-.601831.526175-.039983.710399.149905.234975.472488.128334.714611Z" fill="#fff"/><path d="M378.27,167.09c-.072372.172001-.241484.283238-.428083.28158s-.353709-.115882-.423013-.289142-.027069-.371222.106911-.501111.333156-.165968.504185-.091327c.230667.100669.337608.368021.24.6Z" fill="#fff"/></g></g></g><path d="M354.82,232.65c0,0,18,4.27,52.17,1.32c0,0-13.35-42.62-24.11-54.11-4.89-5.23-9.67-4.43-13.73-1.07-1,.84-13.55,16.76-14.61,22.3-.94,4.9,3,10.35,3,10.35Z" fill="#a285d5"/><path d="M328.5,247.29c.8,1.41,5.2,2.05,5.47,2.09-.76-.15-2.25-3-2.25-3-1.096306.215213-2.173215.519557-3.22.91Z" fill="#37474f"/><path d="M385.73,182.77c8.92,12.06,25.94,40.62,20.23,46.91C396.56,240,374,249,367,250.64c-3.06.74-13.28-21.34-10.39-23.07c3.46-2.08,27.66-9.48,27.59-11.54c0-1.17-2.55-11-4.63-23.53-2.4-14.58,1.91-15.5,6.16-9.73Z" fill="#f7a9a0"/><g id="eyxJ3LtSjhs244_to" transform="translate(341.100388,239.060052)"><g id="eyxJ3LtSjhs244_tr" transform="rotate(0)"><g transform="translate(-341.100387,-239.134849)"><polygon points="325.37,258.13 344.38,251.37 334.27,233.55 315.26,240.31 325.37,258.13" fill="#37474f"/><path d="M333.69,238.45c-2.34.62-4.6,1.38-6.84,2.16s-4.44,1.64-6.58,2.61c2.34-.62,4.59-1.38,6.83-2.16s4.45-1.64,6.59-2.61Z" fill="#fff"/><path d="M337.69,245.5c-2.34.62-4.6,1.38-6.84,2.16s-4.44,1.64-6.58,2.61c2.33-.62,4.59-1.38,6.83-2.17s4.45-1.63,6.59-2.6Z" fill="#fff"/><path d="M339,247.85c-1.82.44-3.56,1-5.29,1.61-1.701606.598594-3.370575,1.286209-5,2.06c3.531477-.917616,6.974889-2.145733,10.29-3.67Z" fill="#fff"/><polygon points="324.58,249.64 343.6,242.88 333.48,225.06 314.47,231.82 324.58,249.64" fill="#a285d5"/><path d="M332.9,230c-2.33.62-4.59,1.38-6.83,2.17s-4.45,1.63-6.59,2.6c2.34-.62,4.6-1.38,6.84-2.16s4.44-1.68,6.58-2.61Z" fill="#fff"/><path d="M336.9,237c-2.33.62-4.59,1.38-6.83,2.16s-4.45,1.64-6.59,2.61c2.34-.62,4.6-1.38,6.84-2.17s4.44-1.6,6.58-2.6Z" fill="#fff"/><path d="M335.57,234.66c-1.829911.462684-3.635505,1.016711-5.41,1.66-1.751504.607537-3.470461,1.305133-5.15,2.09c1.86-.45,3.64-1,5.4-1.65s3.49-1.3,5.16-2.1Z" fill="#fff"/><path d="M334.23,232.31c-1.182808.248129-2.345904.582352-3.48,1-1.110252.384755-2.187175.859672-3.22,1.42c1.17985-.246879,2.339714-.581133,3.47-1c1.114287-.382673,2.194702-.857654,3.23-1.42Z" fill="#fff"/><path d="M336.35,243.15c-1.826627.462683-3.628892,1.016712-5.4,1.66-1.751504.607537-3.470461,1.305133-5.15,2.09c1.86-.45,3.64-1,5.4-1.65s3.49-1.25,5.15-2.1Z" fill="#fff"/><path d="M335,240.8c-1.183462.245488-2.346752.579767-3.48,1-1.11158.385583-2.191501.857004-3.23,1.41c1.184616-.240797,2.348265-.575179,3.48-1c1.113244-.381315,2.193499-.852882,3.23-1.41Z" fill="#fff"/><path d="M334,249.39L349.1,244c-.475174-1.262036-1.039946-2.488494-1.69-3.67l-8.1-14.27-19,6.76l8.2,14.46c.81,1.46,5.49,2.11,5.49,2.11Z" fill="#455a64"/><path d="M338.23,239.36c-1.82.44-3.56,1-5.28,1.61-1.702154.597159-3.371197,1.284805-5,2.06c3.543093-.911391,6.997013-2.139674,10.32-3.67Z" fill="#fff"/><path d="M340.24,233.64c-1.829749.459336-3.635344,1.010026-5.41,1.65-1.751655.610924-3.470609,1.311856-5.15,2.1c1.827023-.46127,3.629359-1.015322,5.4-1.66c1.76-.63,3.49-1.3,5.16-2.09Z" fill="#fff"/><path d="M341.57,236c-1.86.46-3.64,1-5.4,1.66-1.752328.609142-3.471374,1.310112-5.15,2.1c1.85-.46,3.63-1,5.4-1.66c1.751655-.610924,3.470609-1.311856,5.15-2.1Z" fill="#fff"/><path d="M338.9,231.29c-2.33.62-4.59,1.37-6.83,2.16s-4.44,1.64-6.58,2.6c2.33-.62,4.59-1.37,6.83-2.16s4.44-1.64,6.58-2.6Z" fill="#fff"/><path d="M367.63,226.31c0,0-9.11-2.92-15.17-4.55-3.37-.91-9.3-2-12.09-1.49-4.16.7-21.15,6.28-19.88,10.42c1.14,3.76,15.12-2.89,15.12-2.89s-14.7,5.46-12.49,9.73s17-5.35,17-5.35-15,5.95-12,10c2.25,3.05,16.14-4.9,16.14-4.9s-12.83,5.2-10.66,8.44c2.41,3.58,15.69-3,15.69-3c6.92,7.3,13.16,8.25,17.72,7.88c1.09-.05.62-24.29.62-24.29Z" fill="#f7a9a0"/><path d="M343.33,231.65c-4.469505,1.350682-8.762876,3.227144-12.79,5.59-.16.09-.06.14.1.07c2.13-1,10.82-4.6,12.72-5.61.03-.02.01-.06-.03-.05Z" fill="#263238"/><path d="M346.63,236.43c-3.265845,1.017543-6.387913,2.449191-9.29,4.26-.15.09,0,.14.14.07c3-1.42,5.15-2.26,9.19-4.21.06-.03.04-.14-.04-.12Z" fill="#263238"/><path d="M340.58,225.59c-1.75.58-3.53,1.15-5.22,1.88s-3.36,1.53-5,2.41c-2.14746,1.117517-4.160466,2.476296-6,4.05c3.523521-2.345698,7.259998-4.354557,11.16-6c1.69-.73,3.34-1.55,5-2.28Z" fill="#263238"/></g></g></g><path d="M364.71,223.88l13,29.14c0,0,25-15.68,29.56-24.22c4.07-7.66-15.47-38.9-20-45s-9-7.13-8.54,3.05s4.72,28.66,4.72,29-18.74,8.03-18.74,8.03Z" fill="#a285d5"/><path d="M376.88,235.24c-.95-2.21-4.85-11-6-13c0-.06-.12,0-.1.05.7,2.29,4.42,11.17,5.38,13.38c1.91,4.41,3.77,8.87,6,13.12.05.08.18,0,.14-.06-1.53-4.6-3.51-9.05-5.42-13.49Z" fill="#263238"/><path d="M381.45,204.5c-.74-3.87-1.39-7.76-2.05-11.65c0-.07-.14,0-.13,0c.18,2.2.44,4.39.75,6.57-.36-1.13-.68-2.26-1-3.4c0-.09-.14,0-.12,0c.268371,1.502664.690593,2.973738,1.26,4.39.2,1.33.42,2.65.65,4c.35,1.92,2.07,10.4,2.33,11.34-3.26,1.12-6.14,2.5-9.33,3.81-1.56.64-3.12,1.29-4.66,2-1.623736.589473-3.210013,1.277416-4.75,2.06-.09,0,.2.46.3.66s.2.07.17,0c-.032849-.091455-.059575-.184995-.08-.28.77-.21,3.86-1.51,4.66-1.84c1.56-.63,3.12-1.28,4.67-1.92c3.17-1.3,9.74-4,9.73-4.05-.07-.93-2.03-9.72-2.4-11.69Z" fill="#263238"/></g><g><path d="M83.84,173.45C71,183.52,49,211.57,51.86,218c5.82,13,25.62,29.19,30.69,32.19c3,1.74,21.44-18.47,18.57-20.74-3.36-2.66-23.81-16.73-24.1-18.37-.22-1.26,8-16.25,13.86-28.84c6.79-14.58-.88-13.58-7.04-8.79Z" fill="#ad6359"/><path d="M98.07,228.08c0,0,9.51,4.28,15.6,7.38c3.4,1.72,9,5.2,10.87,7.61c2.86,3.61,12.54,20.51,8.49,22.94-3.66,2.21-10.13-13.37-10.13-13.37s7.92,15.14,3,17-9.87-16.73-9.87-16.73s7.79,15.74,2.43,16.84c-4,.84-9.49-15.73-9.49-15.73s6.6,13.57,2.47,14.61c-4.55,1.14-10.54-13.84-10.54-13.84-10.93.87-18-2.47-20.84-7.7-.55-1.09,18.01-19.01,18.01-19.01Z" fill="#ad6359"/><path d="M120.5,247.23c1,1.74,2,3.5,2.85,5.33s1.6,3.68,2.27,5.58c.913829,2.463219,1.541286,5.023378,1.87,7.63-.93-4.58-3.82-11.17-4.65-13s-1.58-3.69-2.41-5.51c-.03-.05.04-.07.07-.03Z" fill="#263238"/><path d="M113.84,250.13c1.18,2.28,2.43,4.5,3.5,6.84s1.88,4.62,2.78,7c.07.19-.05.16-.13,0-1-2.35-2.1-4.45-3.13-6.79s-2-4.73-3.07-7Z" fill="#263238"/><path d="M107.69,251.59c1.881286,3.458443,3.402592,7.100866,4.54,10.87.06.18-.09.14-.17,0-1.44-3.64-2.54-6.51-4.49-10.75-.03-.12.07-.19.12-.12Z" fill="#263238"/><path d="M96.14,225.4L78.38,250.15c0,0-27.88-24.47-27.77-33.67s20.09-33.83,31.68-42.73s13.74-1.88,9.53,8.42-14.04,28.83-13.72,29.28s18.04,13.95,18.04,13.95Z" fill="#a285d5"/><path d="M82.87,234.09c1.29-1.63,2.55-3.3,3.8-5c.6-.8,1.21-1.59,1.79-2.41s1.33-1.73,1.88-2.65c.022091-.024853.019853-.062909-.005-.085s-.062909-.019853-.085.005c-.76.76-1.43,1.65-2.14,2.45s-1.29,1.53-1.92,2.3c-1.32,1.61-2.65,3.22-3.93,4.86-2.58,3.28-5.05,6.63-7.49,10-.027614.035899-.020899.087386.015.115s.087386.020899.115-.015c2.71-3.11,5.38-6.3,7.97-9.57Z" fill="#263238"/><path d="M57.43,384.86c0,0,.33,38.09.33,38.12c0,7.29.17,13.67.56,17c.004693.782711.193081,1.553389.55,2.25-.004234.016398-.004234.033602,0,.05c2.17,1.46,60.4,3,62.45,2.34s.41-6.52-1.8-8.38-24.22-12.39-24.22-12.39l-.68-38.08Z" fill="#ad6359"/><path d="M57.69,415.16c0,0,.07,7.79.07,7.82c0,7.29.17,13.67.56,17c.093279.76919.277915,1.524518.55,2.25-.004234.016398-.004234.033602,0,.05c2.17,1.46,60.4,3,62.45,2.34s.41-6.52-1.8-8.38-24.22-12.39-24.22-12.39v-7.94Z" fill="#fff"/><path d="M98.87,423.87c-3.88-.64-8.59.05-11.48,2.87-.12.11,0,.27.16.22c3.667244-1.264899,7.458536-2.13646,11.31-2.6.117092-.021174.203033-.121943.205461-.240909s-.079331-.223157-.195461-.249091Z" fill="#263238"/><path d="M101.69,425.49c-3.88-.64-8.59.06-11.48,2.87-.11.11,0,.27.17.22c3.66693-1.265992,7.45834-2.137581,11.31-2.6.116516-.02366.200251-.126106.200251-.245s-.083735-.22134-.200251-.245Z" fill="#263238"/><path d="M104.51,427.11c-3.87-.64-8.58.06-11.48,2.87-.11.11,0,.27.17.23c3.665555-1.272859,7.457349-2.147889,11.31-2.61.116516-.02366.200251-.126106.200251-.245s-.083735-.22134-.200251-.245Z" fill="#263238"/><path d="M121.36,444.64c-2,.63-60.27-.88-62.45-2.34-.84-.55-1.11-9-1.15-19.32v-.32l37.57.55v.64c0,0,22,10.55,24.26,12.41s3.82,7.74,1.77,8.38Z" fill="#37474f"/><path d="M57.76,422.65v.35c0,10.27.31,18.76,1.15,19.31s13.6,1.34,27.24,1.83c16.32.57,34.09.86,35.21.52c2-.64.4-6.53-1.81-8.39s-24.25-12.42-24.25-12.42v-.63L82.81,423Z" fill="#a285d5"/><path d="M120.76,442.37c-9.81-.5-49.42-1.57-59.15-1.32-.08,0-.08.06,0,.06c9.71.71,49.32,1.46,59.14,1.42.25,0,.25-.15.01-.16Z" fill="#263238"/><path d="M82.81,423c.91,6.29,2.31,15.57,3.34,21.1c16.32.57,34.09.86,35.21.52c2-.64.4-6.53-1.81-8.39s-24.25-12.38-24.25-12.38v-.63Z" opacity="0.1"/><path d="M54.37,423.2l42.13.4c0,0,11.72-155.31,1.3-196h-31.5c0,0-8.45,17.27-3.62,36.71l-1.51,69.93Z" fill="#37474f"/><path d="M57.49,415.82c1.114374-.149942,2.235982-.240072,3.36-.27c1.24-.09,2.48-.18,3.73-.23q3.6-.15,7.19-.16c4.84,0,9.68,0,14.52.17c2.75.09,5.5.2,8.25.36.1,0,.1.17,0,.17-4.79.17-9.59.25-14.39.34s-9.59.19-14.38.1c-1.38,0-2.75,0-4.13-.12s-2.78,0-4.12-.2c-.09.02-.12-.14-.03-.16Z" fill="#263238"/><path d="M93.47,378c.49-11.34.85-22.69,1.16-34q.93-34.05.49-68.12c-.16-12.74-.5-25.47-.88-38.21c0-.14.22-.14.23,0c1.2,22.79,1.66,45.64,1.69,68.46s-.45,45.43-1.57,68.11c-.63,12.73-1.41,25.47-2.6,38.16c0,.049706-.040294.09-.09.09s-.09-.040294-.09-.09c.52-11.54,1.19-22.99,1.66-34.4Z" fill="#263238"/><path d="M103.83,389.8c0,0,.32,38.1.32,38.12c0,7.29.17,13.67.56,17v.05c.010458.781989.198529,1.55137.55,2.25s0,0,0,.05c2.17,1.46,60.4,3,62.45,2.34s.41-6.52-1.8-8.38-24.26-12.41-24.26-12.41l-.65-38.1Z" fill="#ad6359"/><path d="M104.08,420.1c0,0,.07,7.8.07,7.82c0,7.29.17,13.67.56,17v.05c.091755.769467.276435,1.524976.55,2.25s0,0,0,.05c2.17,1.46,60.4,3,62.45,2.34s.41-6.52-1.8-8.38-24.26-12.41-24.26-12.41v-7.94Z" fill="#fff"/><path d="M145.26,428.81c-3.88-.64-8.59.06-11.48,2.87-.12.11,0,.27.17.23c3.661834-1.273879,7.450426-2.148943,11.3-2.61.117092-.021174.203033-.121943.205461-.240909s-.079331-.223157-.195461-.249091Z" fill="#263238"/><path d="M148.08,430.43c-3.88-.64-8.59.06-11.48,2.87-.11.11.05.27.17.23c3.666595-1.269247,7.457997-2.144186,11.31-2.61.116516-.02366.200251-.126106.200251-.245s-.083735-.22134-.200251-.245Z" fill="#263238"/><path d="M150.91,432.05c-3.88-.63-8.59.06-11.49,2.87-.11.11.05.27.17.23c3.666909-1.268154,7.458194-2.143066,11.31-2.61.117092-.021174.203033-.121943.205461-.240909s-.079331-.223157-.195461-.249091Z" fill="#263238"/><path d="M167.75,449.58c-2.05.64-60.27-.88-62.45-2.34-.84-.54-1.11-9-1.15-19.32v-.32l37.57.56v.63c0,0,22,10.55,24.26,12.42s3.82,7.79,1.77,8.37Z" fill="#a285d5"/><path d="M167.15,447.31c-9.81-.5-49.42-1.57-59.15-1.32-.08,0-.08.06,0,.07c9.71.7,49.32,1.45,59.14,1.41.21,0,.22-.15.01-.16Z" fill="#263238"/><path d="M84.58,267.93c0,0,12.94,56.17,12.59,64.49-.35,8.53,4.18,96.13,4.18,96.13l43.75.26c0,0-3.69-89.33-4.38-98.22-1.27-16.64-15.85-62.3-26.27-103h-47.17c0,0,.41,21.3,10.1,36.71c0,.02,4.39,2.05,7.2,3.63Z" fill="#37474f"/><path d="M69.58,260.41c3.58,2,7.3,3.76,11,5.52q2.79,1.32,5.6,2.58c.94.42,1.86.9,2.82,1.28s1.79.69,2.66,1.12c.024594.021647.033502.056103.022482.086958s-.039739.051872-.072482.053042c-.988024-.134952-1.964227-.345571-2.92-.63-.9-.26-1.82-.45-2.72-.72.94,3.44,1.55,7,2.26,10.46.79,3.81,1.55,7.63,2.32,11.45q2.31,11.44,4.6,22.9c.75,3.72,1.54,7.44,2.09,11.19.521572,3.77862.808787,7.585897.86,11.4.2,7.75.29,15.5.4,23.25.13,8.72.21,17.45.09,26.17c0,.13-.2.12-.2,0-.88-15.46-1.24-30.95-1.59-46.43-.09-3.83-.15-7.67-.58-11.47s-1.16-7.45-1.91-11.14q-2.31-11.4-4.68-22.76Q88.34,288.33,87,282c-.44-2.15-.86-4.29-1.29-6.44s-.84-4.15-1.1-6.25c-1.603796-.543516-3.179134-1.167644-4.72-1.87-3.771514-1.781496-7.316644-4.007274-10.56-6.63-.18-.2.01-.54.25-.4Z" fill="#263238"/><path d="M102.1,420.49c5.26-.15,10.71-.3,16-.17s10.45.2,15.66.5c3,.17,5.9.26,8.85.54.031355.011639.052161.041554.052161.075s-.020806.063361-.052161.075c-5.26.3-10.54.24-15.8.19s-10.44-.1-15.66-.33c-3-.13-5.9-.27-8.85-.47-.3-.02-.52-.41-.2-.41Z" fill="#263238"/><path d="M111,263.16c1.46,4.88,2.69,9.84,4,14.76s2.64,9.92,4,14.89c2.53,9.61,5,19.23,6.93,29c1.941421,9.787867,3.038785,19.724366,3.28,29.7.22,10.17,0,20.35-.06,30.52s-.16,20.45-.33,30.67c0,1.27,0,2.54-.1,3.81-.013488.041037-.051803.068775-.095.068775s-.081512-.027738-.095-.068775c-.27-10.17-.13-20.36-.09-30.53s.16-20.35.08-30.52c-.038662-10.098077-.911632-20.175694-2.61-30.13-1.72-9.79-4.13-19.43-6.64-29.05-1.42-5.48-2.87-11-4.29-16.44s-3-11-4.23-16.59c.012961-.051722.050837-.093589.101006-.11165s.10604-.009943.148994.02165Z" fill="#263238"/><path d="M102,179.31c-3.15.53-8.81-5-10.66-9-.12-.27.46-3,1-6.39.32-2,.64-4.34.78-6.44l13,4.08c-.927196,2.582912-1.535041,5.26952-1.81,8-.025278.289449-.025278.580551,0,.87s0,.09,0,.14c.27,1.7.77,8.23-2.31,8.74Z" fill="#ad6359"/><path d="M104.41,170.47c0,0,0,.09,0,.15-.452852.02953-.907148.02953-1.36,0-7.77-.83-9.23-9.67-9.5-13l12.63,4c-.925759,2.58333-1.533564,5.26976-1.81,8-.006276.283917.007089.567927.04.85Z" fill="#263238"/><path d="M89.37,143.65c-.8,4.85,3.46,18,7.17,20.53c5.38,3.7,13.3,3.07,16.22-3.19c2.83-6.08-3-23.08-7.08-25.31-5.98-3.29-15.13.81-16.31,7.97Z" fill="#ad6359"/><path d="M104.08,150c0,0,0,.06,0,.1.3.88.49,1.94-.22,2.48c0,0,0,.06,0,.05.92-.49.65-1.89.22-2.63Z" fill="#263238"/><path d="M103,149.26c-1.47.33-.7,3.23.65,2.93s.58-3.19-.65-2.93Z" fill="#263238"/><path d="M109.13,148.61c0,0,.08,0,.09.07.21.9.6,1.91,1.49,2c0,0,0,.05,0,.05-1.03.11-1.53-1.22-1.58-2.12Z" fill="#263238"/><path d="M109.69,147.47c1.41-.49,2.29,2.38,1,2.83s-2.19-2.42-1-2.83Z" fill="#263238"/><path d="M101.51,148.24c.37-.21.68-.45,1-.69s.72-.45.9-.9c.080218-.278123-.039406-.575121-.29-.72-.531531-.209719-1.134719-.118095-1.58.24-.485012.296706-.841666.763922-1,1.31-.069206.259226.022909.53474.234109.700217s.500751.188999.735891.059783Z" fill="#263238"/><path d="M110.42,145.71c-.409619.024989-.820381.024989-1.23,0-.430695.067467-.871528-.013647-1.25-.23-.221715-.186423-.287733-.500009-.16-.76.316457-.476515.870961-.738365,1.44-.68.569097-.037311,1.13188.137223,1.58.49.20771.175292.288942.458698.205629.717406s-.314661.441452-.585629.462594Z" fill="#263238"/><path d="M105.27,158.37c.27.15.56.39.9.33.329583-.096978.635856-.260324.9-.48s.07,0,.06,0c-.163988.42624-.547379.729118-1,.79-.397638-.004311-.754935-.243817-.91-.61-.05-.02.01-.05.05-.03Z" fill="#263238"/><path d="M105.51,155.43c.650024.597952,1.51945.898629,2.4.83.3731-.038864.739529-.126269,1.09-.26l.2-.08.19-.08c.092841-.046447.145296-.147321.13-.25v0c.003765-.029882.003765-.060118,0-.09v0-.08c-.16-.7-.51-1.73-.51-1.73.29.06,1.73.3,1.62-.06-.905048-3.096635-2.117758-6.094912-3.62-8.95-.025231-.032711-.069491-.044045-.107338-.027487s-.059562.056756-.052662.097487c.82,2.86,2.13,5.57,3,8.44-.51459-.093267-1.039766-.113466-1.56-.06-.09.05.7,2,.75,2.31v0c-1.11369.412557-2.346706.358477-3.42-.15-.12,0-.18.08-.11.14Z" fill="#263238"/><path d="M108.53,155.77c-.251867.593847-.651134,1.113583-1.16,1.51-.289259.21337-.640606.325801-1,.32-.77,0-1-.65-1-1.25-.0086-.319143.021621-.638149.09-.95.95576.454279,2.033676.58419,3.07.37Z" fill="#263238"/><path d="M107.37,157.28c-.289259.21337-.640606.325801-1,.32-.77,0-1-.65-1-1.25.802713-.202006,1.637172.186017,2,.93Z" fill="#ff97b8"/><path d="M92,154.2c3.33-.76,2.62-7,2.62-7s5.52-2.22,5.38-6.72c0,0,6.22,2.25,10.15-.26s2-7.15,1.24-8.08-2.64,1.53-2.64,1.53-.89-2.68-1.68-2.79-1.22,1.72-1.22,1.72c-3.642075-.329493-7.312978-.110385-10.89.65-5,1.26-6.31,6.86-6.31,6.86s-2.55,1.17-3,3.23s4.23,11.34,6.35,10.86Z" fill="#263238"/><path d="M99.76,139.69c.164698.885742.164698,1.794258,0,2.68-.158802.861665-.549471,1.663746-1.13,2.32-.620714.627101-1.353331,1.132471-2.16,1.49-.41.18-.84.32-1.26.48s-.88.23-1.32.37c.46,0,.91-.11,1.37-.16s.9-.22,1.34-.37c.904173-.309907,1.725221-.823062,2.4-1.5.640268-.716878,1.042107-1.6149,1.15-2.57.094616-.931456-.039248-1.871936-.39-2.74Z" fill="#263238"/><path d="M88.78,140.83c-.004004-1.474326.382424-2.923428,1.12-4.2.735998-1.249975,1.85942-2.225947,3.2-2.78.323439-.154068.657654-.284411,1-.39l1.06-.26c.71-.14,1.45-.17,2.18-.25s1.47,0,2.21,0s1.47.14,2.21.19c-.72-.15-1.46-.27-2.19-.41s-1.49-.1-2.24-.16c-1.513439-.015095-3.015136.266898-4.42.83-1.411252.604175-2.582354,1.659222-3.33,3-.70972,1.361378-.988727,2.906375-.8,4.43Z" fill="#263238"/><path d="M102.86,155.42c-2.227794.3172-4.328518-1.120962-4.83874-3.312618s.739313-4.409767,2.87814-5.109125s4.457432.352033,5.3406,2.421743v0c.525292,1.241294.445495,2.655974-.216055,3.830322s-1.830111,1.975691-3.163945,2.169678Zm-1.18-8c-1.591841.225695-2.864046,1.438534-3.165496,3.017782s.434568,3.175421,1.831355,3.971589s3.145236.616142,4.350485-.44794s1.600578-2.776742.983656-4.261431c-.659266-1.583475-2.299827-2.526798-4-2.3Z" fill="#a285d5"/><path d="M112.47,152.79c-1.64.24-3.38-1.23-4-3.42-.300284-1.040962-.265298-2.150034.1-3.17.264121-.911067.985378-1.61772,1.901656-1.863151s1.894188.006087,2.578344.663151c.822472.705657,1.405925,1.648964,1.67,2.7.62,2.31-.28,4.57-2,5-.080292.037858-.164002.067994-.25.09Zm-1.6-7.93h-.22c-.717048.230933-1.279067.792952-1.51,1.51-.313357.906454-.341278,1.887187-.08,2.81.54,2,2.12,3.33,3.54,2.95s2.12-2.32,1.59-4.32c-.233047-.933896-.750161-1.772459-1.48-2.4-.510643-.430341-1.176955-.629511-1.84-.55Z" fill="#a285d5"/><path d="M106.23,150l-.48-.34c.5-.7,1.77-1.81,3.09-1l-.31.49c-1.17-.75-2.26.76-2.3.85Z" fill="#a285d5"/><path d="M88.69,156l-.56-.12c.06-.27.6-2.6,1.79-3.14s8-1.75,8.29-1.8l.1.57c-2.746963.436356-5.467763,1.023916-8.15,1.76-.79.35-1.33,2.09-1.47,2.73Z" fill="#a285d5"/><path d="M93.71,154.23c0,0-3.7-3.87-5.5-2.49s1.44,7.32,3.89,7.83c.63056.187981,1.310807.106528,1.87916-.225011s.974092-.883578,1.12084-1.524989Z" fill="#ad6359"/><path d="M89.18,153.42c1.618969.518732,2.941887,1.699909,3.64,3.25-.239965-.301785-.600689-.482535-.986077-.494096s-.756299.147238-1.013923.434096c.556285-.270955,1.222417-.167246,1.67.26.377043.350414.712576.742988,1,1.17.1.13.35,0,.27-.14v0c-.28-1.97-2.33-4.61-4.58-4.48Z" fill="#263238"/><path d="M60.07,244.48c.13.16,60.87,3.43,61.45,2.83.82-.84-5-61.27-16.26-73.24-2.77-2.95-12.3-6.27-15.32-4.26C82.09,175,77.55,186.4,74.61,193c-2.887276,7.152385-5.351528,14.468342-7.38,21.91-4.12,14.2-7.63,28.97-7.16,29.57Z" fill="#a285d5"/><path d="M75.65,190c-2.39,5.49-4.65,11-6.55,16.69s-3.55,11.37-5,17.15c-.81,3.33-1.52,6.66-2.07,10c.011639.031355.041554.052161.075.052161s.063361-.020806.075-.052161c1.59-5.74,3.1-11.5,4.78-17.22s3.57-11.43,5.48-17.12c1.06-3.18,2.17-6.36,3.35-9.51.07-.06-.1-.13-.14.01Z" fill="#263238"/><g id="eyxJ3LtSjhs323_to" transform="translate(146.974873,188.913948)"><g id="eyxJ3LtSjhs323_tr" transform="rotate(0)"><g transform="translate(-146.974872,-188.913948)"><path d="M185.09,193.23l20.14,1.14c.668797-1.239582,1.08676-2.59881,1.23-4c.23-4,.91-16.13.91-16.13l-20.14-1.14c0,0-.7,12.26-.93,16.34-.177045,1.324721-.58667,2.607761-1.21,3.79Z" fill="#37474f"/><path d="M189.13,183.2c1.88,0,3.74.05,5.6.18s3.72.35,5.57.69c-3.741596.036779-7.479221-.254334-11.17-.87Z" fill="#fff"/><path d="M189.34,180.55c2.14,0,4.27.09,6.4.24s4.25.39,6.36.75c-2.14,0-4.27-.09-6.4-.25s-4.25-.38-6.36-.74Z" fill="#fff"/><path d="M189.54,177.9c2.38,0,4.75.12,7.12.3s4.73.42,7.08.8c-2.38,0-4.75-.13-7.12-.3s-4.73-.43-7.08-.8Z" fill="#fff"/><path d="M188.93,185.85c2.38,0,4.75.13,7.11.3s4.73.43,7.08.8c-2.38,0-4.75-.12-7.12-.3s-4.72-.42-7.07-.8Z" fill="#fff"/><path d="M164.06,173.59c1.3-1.55,4.56-8.43,6.51-10.3s10.25-8,13.15-6.9c3.65,1.35-1.94,7.13-4.59,9.43s-3.51,7.1-3.51,7.1Z" fill="#ad6359"/><path d="M97,184.35c9.63,12.72,29.72,35.4,41.07,35.52c12,.12,36.36-15,42.9-19.4c2.77-1.89-12.62-21.51-16-20.26s-24.35,14-27,14.45-21.18-13.1-33.21-20.18c-14.07-8.32-15.54-.48-7.76,9.87Z" fill="#ad6359"/><path d="M155.89,184.87l17.4,22.94c0,0-27.16,16.2-39,12.73s-32.59-26.96-39.29-37.94-1.92-15.7,9.3-9s32.18,19.71,33,20s18.59-8.73,18.59-8.73Z" fill="#a285d5"/><path d="M166.6,170.8c3.28-3.11,11-8.28,17.5-9.08c4.42-.54,13.24,10.84,12.18,13.39s-4.52,1.92-8-.33c-1.11-.73-4.48-4.61-6-3.48-2.17,1.62-7.47,5.68-7.47,5.68Z" fill="#ad6359"/><path d="M183,161.89c-.912671.727737-1.787168,1.502101-2.62,2.32-.842858.721209-1.631644,1.50331-2.36,2.34-.85033,1.393757-1.522254,2.888789-2,4.45-.44,2.46-1,7.71-2.2,12.64-.456946,1.860899-1.135108,3.660379-2.02,5.36-.23.42-.25.8.15.2c3.76-5.61,4.44-16.37,4.83-18.08.406225-1.501132,1.040262-2.931086,1.88-4.24c1.36-1.74,3.08-3.17,4.46-4.9.06-.06-.05-.14-.12-.09Z" fill="#263238"/><path d="M159.07,199c-1.21-1.7-2.46-3.37-3.71-5-.59-.8-1.19-1.6-1.81-2.38s-1.3-1.76-2-2.55c-.05-.06-.13,0-.09.07.51.94,1.18,1.82,1.75,2.73s1.11,1.66,1.68,2.49c1.18,1.72,2.35,3.44,3.57,5.13c2.43,3.38,5,6.69,7.53,10c.06.07.18,0,.13-.09-2.31-3.56-4.63-7.01-7.05-10.4Z" fill="#263238"/><path d="M144.64,220c-2.975467,1.042244-6.183556,1.229324-9.26.54-3.324312-.819661-6.408025-2.412913-9-4.65-5.976337-4.688718-11.573682-9.841352-16.74-15.41-2.93-3.16-5.79-6.42-8.46-9.82-.012504-.017863-.033589-.027699-.055311-.025801s-.040782.015239-.05.035-.007193.042938.005311.060801q2.63,3.77,5.52,7.31l-.48-.42c-1-.89-1.94-1.75-2.91-2.63-.14-.13-.3.09-.18.22.88558.96722,1.820139,1.888428,2.8,2.76.74.64,1.49,1.33,2.3,1.91c2.594282,3.059642,5.351616,5.977209,8.26,8.74c2.87,2.73,5.85,5.34,9,7.78c2.77,2.17,5.65,4.13,9.15,4.86c3.438025.652675,6.992552.266238,10.21-1.11.03-.01-.02-.15-.11-.15Z" fill="#263238"/><path d="M166.6,170.8c3.28-3.11,11-8.28,17.5-9.08c4.42-.54,16.61,9.67,15.55,12.22s-3.44,2-6.85.68c-1.24-.47-7.4-4.58-8.9-3.45-2.17,1.63-6,8.07-6,8.07Z" fill="#ad6359"/><path d="M156.16,185.36c1.31-1.47,7.6-12.19,10.44-14.56s15.33-6.66,18.5-6.94s14.42,2.92,16.46,4.89c1.64,1.59-1.14,5.41-7.55,4.91-6-.46-7.4-.86-9.12-.58s-6.84,4.47-6.37,7c.28,1.49,3.78,4,6.47,3.54s4.31-3.15,7.64-4.72s7.22-.89,7.54.46c.54,2.24-1.26,2.45-4.87,6.31-2.33,2.47-4,7.37-8.85,11.41-2.45,2-10.37,6.58-10.37,6.58Z" fill="#ad6359"/><path d="M191.3,176.28c-1.492969-.659606-2.834144-1.619534-3.94-2.82-.881604-1.041242-1.97172-1.886081-3.2-2.48-.555705-.215945-1.166824-.244043-1.74-.08-.579423.235798-1.111343.5746-1.57,1-.57.44-1.1.91-1.63,1.38s-.72.66-1.24,1.15c-.22.2-.06.33.19.11.891052-.784116,1.855498-1.48066,2.88-2.08.497631-.373626,1.046637-.673389,1.63-.89.623233-.133688,1.274047-.015031,1.81.33c1.14.68,2,1.75,3.09,2.52c1.074671.920192,2.332369,1.601871,3.69,2c.07-.02.08-.12.03-.14Z" fill="#263238"/><path d="M199.56,172.82c-1-3.27-4.4-5.72-7.85-7.85-.05,0-.11.05-.05.08.87.55,6.29,4.88,7.85,7.81.02.03.06-.01.05-.04Z" fill="#263238"/><path d="M196.35,172.23c-.615765-1.51745-1.507497-2.907603-2.63-4.1-1.093622-1.270302-2.287457-2.45076-3.57-3.53-.66-.56-1.33-1.1-2-1.63-.61695-.565127-1.327554-1.01856-2.1-1.34-2.18-.66-4.68.53-5.65.84-.06,0,0,.12,0,.1.8-.25,3.38-1.08,4.74-.73.820822.263084,1.577175.695772,2.22,1.27.58.47,1.16.94,1.73,1.42c2.445342,1.907686,4.525489,4.241922,6.14,6.89.83,1.49,1.24,3.27.15,4.73c0,0,0,.1.08.07c1.093697-1.017715,1.447522-2.603968.89-3.99Z" fill="#263238"/></g></g></g></g></svg>
