<?xml version="1.0" encoding="utf-8"?>
<!-- Generator: Adobe Illustrator 27.2.0, SVG Export Plug-In . SVG Version: 6.00 Build 0)  -->
<svg className="feature" version="1.1" id="Layer_1" xmlns="http://www.w3.org/2000/svg" xmlns:xlink="http://www.w3.org/1999/xlink" x="0px" y="0px"
	 viewBox="0 0 500 500" style="enable-background:new 0 0 500 500;" xml:space="preserve">
<style type="text/css">
	.st0{fill:#A285D5;}
	.st1{opacity:0.1;}
	.st2{fill:#020100;}
	.st3{fill:#EBEBEB;}
	.st4{fill:#DBDBDB;}
	.st5{fill:#FFFFFF;}
	.st6{fill:#C7C7C7;}
	.st7{fill:#263238;}
	.st8{fill:#A6A6A6;}
</style>
<g id="freepik--Clipboard--inject-14">
	<rect x="96.2" y="48.3" class="st0" width="324.7" height="431.1"/>
	<g class="st1">
		<rect x="96.2" y="48.3" class="st2" width="324.7" height="431.1"/>
	</g>
	<rect x="87.3" y="48.3" class="st0" width="324.7" height="431.1"/>
	
		<rect x="109.3" y="67.3" transform="matrix(0.9999 -1.274080e-02 1.274080e-02 0.9999 -3.3119 3.2391)" class="st3" width="286.6" height="388.4"/>
	
		<rect x="54" y="118.2" transform="matrix(2.163962e-02 -0.9998 0.9998 2.163962e-02 -18.6144 504.0467)" class="st4" width="388.4" height="286.6"/>
	<rect x="105" y="67.3" class="st5" width="286.6" height="388.4"/>
	<path class="st6" d="M168.5,185c-7.7,0.1-22.4,0.4-30.1,0.6c-0.1-8.9-0.1-21.3-0.1-30.1v-0.7h0.7c9,0.1,21.3,0,30.1,0.1
		C169.1,162.6,168.8,177.3,168.5,185L168.5,185z M168.5,185c-0.1-7.4-0.4-22.1-0.6-29.5l0.6,0.6c-8.6,0.1-21,0.1-29.5,0.1l0.7-0.7
		c0,8.7,0,21-0.1,29.5l-0.6-0.6C146.3,184.6,161.3,184.9,168.5,185z"/>
	<path class="st6" d="M184.3,160.5c21.7-1,43.6-1,65.3,0C227.8,161.5,206,161.5,184.3,160.5z"/>
	<path class="st6" d="M184.3,167.6c55.7-1,117.5-0.9,173.2,0C301.8,168.6,240,168.6,184.3,167.6z"/>
	<path class="st7" d="M141.2,168.8c1,0.9,2.1,1.9,3.1,2.8c1,0.9,2.1,1.9,3,3c2.1,1.9,3.8,4,5.8,6.1l-3.4,0.1
		c2.7-5.6,5.8-11.1,9.2-16.2c1.8-2.5,3.5-5.2,5.5-7.5c1.9-2.5,4-4.9,6.3-7.1c-0.9,3-2.1,6.1-3.2,8.9c-1.3,2.8-2.7,5.6-4.1,8.4
		c-3,5.5-6.3,10.6-10,15.6l-1.9,2.5l-1.5-2.2c-1.6-2.4-3.1-4.6-4.6-7.1c-0.7-1.2-1.5-2.4-2.2-3.5C142.2,171.3,141.8,170,141.2,168.8
		z"/>
	<path class="st6" d="M168.5,240.5c-7.7,0.1-22.4,0.4-30.1,0.6c-0.1-8.9-0.1-21.3-0.1-30.1v-0.7h0.7c9,0.1,21.3,0,30.1,0.1
		C169.1,218.1,168.8,232.8,168.5,240.5L168.5,240.5z M168.5,240.5c-0.1-7.4-0.4-22.1-0.6-29.5l0.6,0.6c-8.6,0.1-21,0.1-29.5,0.1
		l0.7-0.7c0,8.7,0,21-0.1,29.5l-0.6-0.6C146.3,240.1,161.3,240.4,168.5,240.5z"/>
	<path class="st6" d="M184.3,216c21.7-1,43.6-1,65.3,0C227.8,216.9,206,216.9,184.3,216z"/>
	<path class="st6" d="M184.3,223.1c55.7-1,117.5-0.9,173.2,0C301.8,224,240,224,184.3,223.1z"/>
	<path class="st7" d="M141.2,224.1c1,0.9,2.1,1.9,3.1,2.8c1,0.9,2.1,1.9,3,3c2.1,1.9,3.8,4,5.8,6.1l-3.4,0.1
		c2.7-5.6,5.8-10.9,9.2-16.1c1.8-2.5,3.5-5.2,5.5-7.5c1.9-2.5,4-4.9,6.3-7.1c-0.9,3-2.1,6.1-3.2,8.9c-1.3,2.8-2.7,5.6-4.1,8.4
		c-3,5.5-6.3,10.6-10,15.6l-1.9,2.5l-1.5-2.2c-1.6-2.4-3.1-4.6-4.6-7.1c-0.7-1.2-1.5-2.4-2.2-3.5
		C142.2,226.8,141.8,225.5,141.2,224.1z"/>
	<path class="st6" d="M168.5,295.9c-7.7,0.1-22.4,0.4-30.1,0.6c-0.1-8.9-0.1-21.3-0.1-30.1v-0.7h0.7c9,0.1,21.3,0,30.1,0.1
		C169.1,273.4,168.8,288.2,168.5,295.9L168.5,295.9z M168.5,295.9c-0.1-7.4-0.4-22.1-0.6-29.5l0.6,0.6c-8.6,0.1-21,0.1-29.5,0.1
		l0.7-0.7c0,8.7,0,21-0.1,29.5l-0.6-0.6C146.3,295.4,161.3,295.7,168.5,295.9z"/>
	<path class="st6" d="M184.3,271.4c21.7-1,43.6-1,65.3,0C227.8,272.4,206,272.4,184.3,271.4z"/>
	<path class="st6" d="M184.3,278.5c55.7-1,117.5-0.9,173.2,0C301.8,279.5,240,279.5,184.3,278.5z"/>
	<path class="st6" d="M168.5,351.3c-7.7,0.1-22.4,0.4-30.1,0.6c-0.1-8.9-0.1-21.3-0.1-30.1V321h0.7c9,0.1,21.3,0,30.1,0.1
		C169.1,328.8,168.8,343.7,168.5,351.3L168.5,351.3z M168.5,351.3c-0.1-7.4-0.4-22.1-0.6-29.5l0.6,0.6c-8.6,0.1-21,0.1-29.5,0.1
		l0.7-0.7c0,8.7,0,21-0.1,29.5l-0.6-0.6C146.3,350.8,161.3,351.1,168.5,351.3z"/>
	<path class="st6" d="M184.3,326.9c21.7-1,43.6-1,65.3,0C227.8,327.8,206,327.8,184.3,326.9z"/>
	<path class="st6" d="M184.3,334c55.7-1,117.5-0.9,173.2,0C301.8,334.9,240,334.9,184.3,334z"/>
	<path class="st6" d="M168.5,406.8c-7.7,0.1-22.4,0.4-30.1,0.6c-0.1-8.9-0.1-21.3-0.1-30.1v-0.7h0.7c9,0.1,21.3,0,30.1,0.1
		C169.1,384.3,168.8,399.1,168.5,406.8L168.5,406.8z M168.5,406.8c-0.1-7.4-0.4-22.1-0.6-29.5l0.6,0.6c-8.6,0.1-21,0.1-29.5,0.1
		l0.7-0.7c0,8.7,0,21-0.1,29.5l-0.6-0.6C146.3,406.3,161.3,406.6,168.5,406.8z"/>
	<path class="st6" d="M184.3,382.3c21.7-1,43.6-1,65.3,0C227.8,383.3,206,383.3,184.3,382.3z"/>
	<path class="st6" d="M184.3,389.3c55.7-1,117.5-0.9,173.2,0C301.8,390.4,240,390.4,184.3,389.3z"/>
	<path class="st0" d="M221.3,108.7h-4V122c0,0.7-0.6,1.3-1.3,1.3s-1.3-0.6-1.3-1.3v-13.3h-4c-0.7,0-1.3-0.6-1.3-1.3
		c0-0.7,0.6-1.3,1.3-1.3l0,0h10.6c0.7,0,1.3,0.6,1.3,1.3l0,0C222.7,107.9,222.1,108.5,221.3,108.7z"/>
	<path class="st0" d="M233.3,119.3h-6.1l-1.2,3.2c-0.1,0.6-0.7,0.9-1.3,0.9c-0.1,0-0.3,0-0.4-0.1c-0.7-0.3-1-1-0.9-1.8l5.5-14.8
		c0.3-0.6,0.7-0.9,1.3-0.9s1,0.3,1.3,0.9l5.5,14.8c0.3,0.7-0.1,1.5-0.9,1.8c-0.1,0-0.3,0-0.4,0.1c-0.6,0-1-0.3-1.3-0.9L233.3,119.3z
		 M232.3,116.5l-2.1-5.3l-2.1,5.3H232.3z"/>
	<path class="st0" d="M239.5,119c0.4-0.6,1.3-0.6,1.8-0.1l0,0c1.3,1.2,3,1.8,4.7,1.9c1.2,0,2.2-0.3,3.1-0.9c0.6-0.4,1-1,1-1.8
		c0-0.3,0-0.6-0.1-0.9c-0.1-0.3-0.4-0.6-0.7-0.7c-1-0.6-2.2-1-3.4-1.2l0,0c-1.2-0.1-2.2-0.4-3.2-1c-0.9-0.4-1.8-1-2.4-1.9
		c-0.4-0.6-0.6-1.3-0.6-2.1c0-1.5,0.7-2.8,2.1-3.7c1.3-0.9,2.8-1.3,4.3-1.3c1.9,0.1,3.8,0.7,5.5,1.9c0.6,0.4,0.7,1.2,0.3,1.8
		c-0.3,0.6-1.2,0.7-1.8,0.4l0,0c-1.2-0.9-2.5-1.5-4-1.6c-1,0-1.9,0.3-2.8,0.9c-0.6,0.3-0.9,0.9-0.9,1.6c0,0.3,0,0.4,0.1,0.7
		c0.1,0.3,0.4,0.4,0.7,0.6c1,0.6,2.1,0.9,3.1,1l0,0c1.2,0.1,2.4,0.6,3.4,1c1,0.4,1.9,1.2,2.5,2.1c0.4,0.6,0.6,1.3,0.6,2.1
		c0,1.6-0.9,3-2.2,3.8c-1.3,1-3,1.5-4.6,1.5c-2.4-0.1-4.6-1-6.3-2.5C239.2,120.5,239.1,119.6,239.5,119L239.5,119z"/>
	<path class="st0" d="M256.8,122v-14.6c0-0.7,0.6-1.3,1.3-1.3s1.3,0.6,1.3,1.3v7.2l8.1-8.1c0.6-0.6,1.3-0.6,1.9,0l0,0
		c0.6,0.6,0.6,1.5,0,1.9l-5.5,5.5l5.6,7.2c0.4,0.6,0.4,1.3-0.1,1.9l0,0c-0.3,0.1-0.6,0.3-0.9,0.3c-0.4,0-0.7-0.1-1-0.4l-5.5-7.1
		l-2.7,2.7v3.5c0,0.7-0.6,1.3-1.3,1.3C257.4,123.4,256.8,122.7,256.8,122L256.8,122z"/>
	<path class="st0" d="M273.9,119c0.4-0.6,1.2-0.6,1.8-0.1l0,0c1.3,1.2,3,1.8,4.7,1.9c1.2,0,2.2-0.3,3.1-0.9c0.6-0.4,1-1,1-1.8
		c0-0.3-0.1-0.6-0.3-0.9c-0.1-0.3-0.4-0.6-0.7-0.7c-1-0.6-2.2-1-3.4-1.2l0,0c-1.2-0.1-2.2-0.4-3.2-1c-0.9-0.4-1.8-1-2.4-1.9
		c-0.4-0.6-0.6-1.3-0.6-2.1c0-1.5,0.7-2.8,2.1-3.7c1.3-0.9,2.8-1.3,4.3-1.3c1.9,0.1,3.8,0.7,5.5,1.9c0.6,0.4,0.7,1.2,0.3,1.8
		c-0.4,0.6-1.2,0.7-1.8,0.3l0,0c-1.2-0.9-2.5-1.5-4-1.6c-1,0-1.9,0.3-2.8,0.9c-0.6,0.3-0.9,0.9-0.9,1.6c0,0.3,0,0.4,0.1,0.7
		s0.4,0.4,0.7,0.6c1,0.6,2.1,0.9,3.1,1l0,0c1.2,0.1,2.4,0.6,3.4,1c1,0.4,1.9,1.2,2.5,2.1c0.4,0.6,0.6,1.3,0.6,2.1
		c0,1.6-0.9,3-2.2,3.8c-1.3,1-3,1.5-4.6,1.5c-2.4-0.1-4.6-1-6.3-2.5C273.5,120.5,273.3,119.6,273.9,119
		C273.8,119,273.8,119,273.9,119z"/>
	<rect x="176" y="40.5" class="st6" width="140.7" height="43"/>
	<path class="st6" d="M289.4,17H202l-3.8,23.5h96.4L289.4,17z M246.4,33.8c-2.8,0-5.2-2.4-5.2-5.2s2.4-5.2,5.2-5.2s5.2,2.4,5.2,5.2
		l0,0C251.6,31.5,249.3,33.8,246.4,33.8L246.4,33.8z"/>
	<polygon class="st8" points="294.6,40.5 198.3,40.5 199.2,35.2 293.5,35.2 	"/>
</g>
</svg>
