<?xml version="1.0" encoding="UTF-8"?>
<svg id="Layer_2" data-name="Layer 2" xmlns="http://www.w3.org/2000/svg" viewBox="0 0 294.4 279.3" className="feature">
  <defs>
    <style>
      .org-1 {
        fill: #fff;
      }

      .org-2 {
        fill: #dbdbdb;
      }

      .org-3 {
        fill: #37474f;
      }

      .org-4 {
        fill: #455a64;
      }

      .org-5 {
        fill: #a285d5;
      }

      .org-6 {
        opacity: .2;
      }

      .org-6, .org-7 {
        isolation: isolate;
      }

      .org-8 {
        fill: #ebebeb;
      }

      .org-9, .org-7 {
        opacity: .1;
      }

      .org-10 {
        fill: #263238;
      }
      
      svg.feature{
        -webkit-animation: rotation 4s infinite linear;
      }
            @-webkit-keyframes rotation {
        0% {
          -webkit-transform: rotate(0deg);
        }
        25% {
          -webkit-transform: rotate(3deg);
        }
        50% {
          -webkit-transform: rotate(0deg);
        }
        75% {
          -webkit-transform: rotate(-3deg);
        }
        100% {
          -webkit-transform: rotate(0deg);
        }
      }
    </style>
  </defs>
  <g id="Layer_1-2" data-name="Layer 1">
    <g id="freepik--Folder--inject-41">
      <polygon class="org-5" points="25.2 279.3 255.7 279.3 230.4 120 0 120 25.2 279.3"/>
      <polygon class="org-5" points="146.4 103.5 227.9 103.5 230.4 120 144.4 120 146.4 103.5"/>
      <g class="org-9">
        <polygon points="25.2 279.3 255.7 279.3 230.4 120 0 120 25.2 279.3"/>
        <polygon points="146.4 103.5 227.9 103.5 230.4 120 144.4 120 146.4 103.5"/>
      </g>
      <path class="org-10" d="m32,8.2c-.3-1.3-.5-2.7-.5-4.1,0-1.3.2-2.7.5-4.1.4,1.3.5,2.6.5,4.1,0,1.4-.2,2.8-.5,4.1Z"/>
      <path class="org-10" d="m23.6,10.6c-1.9-2-3.4-4.5-4.1-7.1,1.9,2,3.3,4.4,4.1,7.1Z"/>
      <path class="org-10" d="m17.6,16.9c-1.3-.4-2.6-.9-3.9-1.6-1.2-.7-2.3-1.5-3.3-2.5,1.3.4,2.6.9,3.9,1.6,1.1.6,2.2,1.4,3.3,2.5Z"/>
      <path class="org-10" d="m15.4,25.3c-2.6.7-5.5.7-8.1,0,1.3-.3,2.7-.5,4.1-.5s2.7.2,4,.5Z"/>
      <path class="org-10" d="m17.9,33.6c-2,1.9-4.5,3.4-7.1,4.1,1-1,2.1-1.8,3.4-2.4,1-.8,2.3-1.3,3.7-1.7Z"/>
      <path class="org-10" d="m24.2,39.7c-.3,1.3-.9,2.6-1.6,3.9-.7,1.2-1.5,2.3-2.4,3.3.4-1.3.9-2.6,1.6-3.8.5-1.2,1.3-2.4,2.4-3.4Z"/>
      <path class="org-10" d="m32.6,41.8c.3,1.3.5,2.7.5,4.1s-.1,2.7-.5,4.1c-.4-1.3-.5-2.6-.5-4.1,0-1.4.1-2.7.5-4.1Z"/>
      <path class="org-10" d="m40.9,39.4c1,1,1.8,2.1,2.4,3.3.7,1.2,1.2,2.4,1.6,3.9-1-1-1.8-2.1-2.4-3.3-.7-1.2-1.2-2.6-1.6-3.9Z"/>
      <path class="org-10" d="m47,33.1c2.6.7,5.1,2.1,7.1,4.1-2.7-.7-5.1-2.1-7.1-4.1Z"/>
      <path class="org-10" d="m49.1,24.7c1.3-.3,2.7-.5,4.1-.5s2.7.1,4.1.5c-2.8.7-5.6.7-8.2,0h0Z"/>
      <path class="org-10" d="m46.6,16.4c1-1,2.1-1.8,3.3-2.4,1.2-.7,2.4-1.2,3.9-1.6-1,1-2.1,1.8-3.3,2.4s-2.5,1.1-3.9,1.6Z"/>
      <path class="org-10" d="m40.4,10.3c.4-1.3.9-2.6,1.6-3.9.7-1.2,1.5-2.3,2.5-3.3-.7,2.7-2.2,5.2-4.1,7.2Z"/>
      <polygon class="org-8" points="47.8 132.2 209.3 109.1 193.8 1.1 32.3 24.2 47.8 132.2"/>
      <polygon class="org-5" points="53.5 124.5 201.7 103.4 188 8.8 39.9 30 53.5 124.5"/>
      <path class="org-7" d="m57.9,53.6c1.1,8.1,8.7,13.8,17,12.7,8.1-1.1,13.8-8.7,12.7-17-1.1-8.1-8.7-13.8-17-12.7h0c-8.2,1.2-13.9,8.8-12.7,17q0-.1,0,0Z"/>
      <polygon class="org-6" points="99.5 118.1 201.6 103.5 140.7 41.7 99.5 118.1"/>
      <polygon class="org-5" points="59.5 123.9 143.7 111.9 95.3 72.8 59.5 123.9"/>
      <polygon class="org-7" points="59.5 123.9 143.7 111.9 95.3 72.8 59.5 123.9"/>
      <polygon class="org-8" points="94.7 132.7 255.2 172 281.3 64.7 120.9 25.3 94.7 132.7"/>
      <polygon class="org-1" points="103 127.6 250.1 163.7 273.1 69.7 126 33.6 103 127.6"/>
      <path class="org-2" d="m132.2,66.2c-2.1,8.8,3.3,17.8,12.1,19.9,8.8,2.1,17.8-3.3,19.9-12.1s-3.3-17.8-12.1-19.9h0c-8.9-2.2-17.8,3.3-19.9,12.1h0Z"/>
      <polygon class="org-2" points="148.6 139 250 163.8 216.2 82.7 148.6 139"/>
      <polygon class="org-8" points="108.9 129.2 192.6 149.8 161.7 94.8 108.9 129.2"/>
      <polygon class="org-8" points="17.4 186.1 166 185.8 165.7 86.5 17 86.8 17.4 186.1"/>
      <polygon class="org-4" points="23.4 179.9 159.8 179.6 159.5 92.7 23.1 93 23.4 179.9"/>
      <path class="org-3" d="m35.6,120c0,8.2,6.7,14.8,14.8,14.8s14.8-6.7,14.8-14.8-6.7-14.8-14.8-14.8c-8.2,0-14.8,6.7-14.8,14.8Z"/>
      <polygon class="org-10" points="65.8 180 159.7 179.8 112.7 116.2 65.8 180"/>
      <polygon class="org-3" points="29 180.1 106.5 179.9 67.6 138.6 29 180.1"/>
      <polygon class="org-8" points="140.2 241.1 285.2 255.1 294.4 158.2 149.4 144.2 140.2 241.1"/>
      <polygon class="org-1" points="146.8 235.6 279.7 248.5 287.8 163.6 154.8 150.8 146.8 235.6"/>
      <path class="org-2" d="m164.4,178.4c-.8,8,5.1,15,13.1,15.8s15-5.1,15.8-13.1-5.1-15-13.1-15.8c-7.9-.7-15,5.1-15.8,13.1Z"/>
      <polygon class="org-2" points="188 239.8 279.6 248.6 239.9 182.2 188 239.8"/>
      <polygon class="org-8" points="152.1 236.3 227.8 243.6 193.8 199.5 152.1 236.3"/>
      <polygon class="org-5" points="25.1 279.3 255.6 279.3 273.4 133.2 42.9 133.2 25.1 279.3"/>
      <polygon class="org-5" points="193.7 118.1 275.2 118.1 273.4 133.2 187.2 133.2 193.7 118.1"/>
    </g>
  </g>
</svg>