<?xml version="1.0" encoding="UTF-8"?>
<svg className="feature" id="Layer_2" data-name="Layer 2" xmlns="http://www.w3.org/2000/svg" viewBox="0 0 493.5 370.5">
  <defs>
    <style>
      .pl-1, .pl-2 {
        fill: #fff;
      }

      .pl-2 {
        opacity: .8;
      }

      .pl-2, .pl-3, .pl-4 {
        isolation: isolate;
      }

      .pl-5 {
        fill: #dbdbdb;
      }

      .pl-6 {
        fill: #37474f;
      }

      .pl-7 {
        fill: #455a64;
      }

      .pl-8 {
        fill: #a6a6a6;
      }

      .pl-9 {
        fill: #c7c7c7;
      }

      .pl-10 {
        fill: #a285d5;
      }

      .pl-3 {
        opacity: .2;
      }

      .pl-11 {
        fill: #3e494e;
      }

      .pl-12 {
        fill: #ebebeb;
      }

      .pl-4 {
        opacity: .1;
      }

      .pl-13 {
        fill: #263238;
      }
    </style>
  </defs>
  <g id="Layer_1-2" data-name="Layer 1">
    <g id="freepik--Calendar--inject-5">
      <rect class="pl-12" x="24.7" y="17.6" width="468.8" height="352.9"/>
      <rect class="pl-5" y="17.6" width="24.7" height="352.9"/>
      <rect class="pl-10" x="24.7" y="17.6" width="468.8" height="38.1"/>
      <rect class="pl-10" x="74.7" y="93.5" width="46.4" height="46.4"/>
      <rect class="pl-2" x="74.7" y="93.5" width="46.4" height="46.4"/>
      <rect class="pl-1" x="128.4" y="93.5" width="46.4" height="46.4"/>
      <rect class="pl-1" x="182.2" y="93.5" width="46.4" height="46.4"/>
      <rect class="pl-1" x="235.9" y="93.5" width="46.4" height="46.4"/>
      <rect class="pl-1" x="289.6" y="93.5" width="46.4" height="46.4"/>
      <rect class="pl-1" x="343.3" y="93.5" width="46.4" height="46.4"/>
      <rect class="pl-1" x="397.1" y="93.5" width="46.4" height="46.4"/>
      <rect class="pl-10" x="74.7" y="146.1" width="46.4" height="46.4"/>
      <rect class="pl-2" x="74.7" y="146.1" width="46.4" height="46.4"/>
      <rect class="pl-1" x="128.4" y="146.1" width="46.4" height="46.4"/>
      <rect class="pl-1" x="182.1" y="146.1" width="46.4" height="46.4"/>
      <rect class="pl-1" x="235.9" y="146.1" width="46.4" height="46.4"/>
      <rect class="pl-1" x="289.6" y="146.1" width="46.4" height="46.4"/>
      <rect class="pl-1" x="343.3" y="146.1" width="46.4" height="46.4"/>
      <rect class="pl-1" x="397.1" y="146.1" width="46.4" height="46.4"/>
      <rect class="pl-10" x="74.7" y="198.6" width="46.4" height="46.4"/>
      <rect class="pl-2" x="74.7" y="198.6" width="46.4" height="46.4"/>
      <rect class="pl-1" x="128.4" y="198.6" width="46.4" height="46.4"/>
      <rect class="pl-1" x="182.2" y="198.6" width="46.4" height="46.4"/>
      <rect class="pl-1" x="235.9" y="198.6" width="46.4" height="46.4"/>
      <rect class="pl-1" x="289.6" y="198.6" width="46.4" height="46.4"/>
      <rect class="pl-1" x="343.3" y="198.6" width="46.4" height="46.4"/>
      <rect class="pl-1" x="397.1" y="198.6" width="46.4" height="46.4"/>
      <rect class="pl-10" x="74.7" y="251.1" width="46.4" height="46.4"/>
      <rect class="pl-2" x="74.7" y="251.1" width="46.4" height="46.4"/>
      <rect class="pl-1" x="128.4" y="251.1" width="46.4" height="46.4"/>
      <rect class="pl-1" x="182.1" y="251.1" width="46.4" height="46.4"/>
      <rect class="pl-1" x="235.9" y="251.1" width="46.4" height="46.4"/>
      <rect class="pl-1" x="289.6" y="251.1" width="46.4" height="46.4"/>
      <rect class="pl-1" x="343.3" y="251.1" width="46.4" height="46.4"/>
      <rect class="pl-1" x="397.1" y="251.1" width="46.4" height="46.4"/>
      <rect class="pl-10" x="74.7" y="303.6" width="46.4" height="46.4"/>
      <rect class="pl-2" x="74.7" y="303.6" width="46.4" height="46.4"/>
      <rect class="pl-1" x="128.4" y="303.6" width="46.4" height="46.4"/>
      <rect class="pl-1" x="182.1" y="303.6" width="46.4" height="46.4"/>
      <rect class="pl-1" x="235.9" y="303.6" width="46.4" height="46.4"/>
      <rect class="pl-1" x="289.6" y="303.6" width="46.4" height="46.4"/>
      <rect class="pl-1" x="343.3" y="303.6" width="46.4" height="46.4"/>
      <rect class="pl-1" x="397.1" y="303.6" width="46.4" height="46.4"/>
      <path class="pl-6" d="m92.4,82c-.2-.2-.5-.4-.8-.5-.4-.1-.7-.2-1.1-.2-.5,0-.9.1-1.3.4-.3.2-.4.6-.4.9,0,.2,0,.4.1.5s.2.3.4.4c.2.1.4.2.6.2l.9.2c.3.1.7.2,1,.3s.5.2.8.4c.2.1.4.3.5.5s.2.5.2.8-.1.6-.2.8c-.1.2-.3.4-.5.6-.2.2-.5.3-.8.4-.3.1-.7.1-1,.1-1,0-2-.3-2.8-1l.3-.6.4.4c.4.3.8.4,1.3.5.3.1.5.1.8.1.4,0,.9-.1,1.3-.3.3-.2.5-.5.5-.9,0-.2,0-.4-.1-.5-.1-.2-.2-.3-.4-.4-.2-.1-.4-.2-.7-.3s-.6-.2-.9-.2-.7-.2-1-.3c-.2-.1-.5-.2-.7-.3s-.3-.3-.4-.5c-.1-.2-.1-.5-.1-.7,0-.3.1-.6.2-.9.1-.2.3-.5.5-.6.2-.2.5-.3.8-.4.7-.2,1.5-.2,2.2.1.4.1.7.3,1,.6l-.6.4Z"/>
      <path class="pl-6" d="m97.1,87.1c.4,0,.8-.1,1.1-.2.3-.2.5-.4.7-.7s.3-.6.4-.9c.1-.3.1-.7.1-1.1v-3.5h.7v3.5c0,.4,0,.9-.1,1.3-.1.4-.3.8-.5,1.1s-.5.6-.9.8c-.9.4-1.9.4-2.8,0-.4-.2-.7-.4-.9-.8-.2-.3-.4-.7-.5-1.1-.1-.4-.2-.9-.1-1.3v-3.5h.7v3.5c0,.4,0,.7.1,1.1.1.3.2.6.4.9.2.3.4.5.7.6.2.2.5.3.9.3Z"/>
      <path class="pl-6" d="m102.4,82v5.7h-.7v-6.9h.5l4.6,5.8v-5.8h.7v6.9h-.6l-4.5-5.7Z"/>
      <path class="pl-6" d="m146.9,87.6v-5.7l-2.5,4.4h-.4l-2.5-4.4v5.7h-.7v-6.9h.7l2.7,4.8,2.7-4.8h.7v6.9h-.7Z"/>
      <path class="pl-6" d="m152.2,87.7c-.5,0-.9-.1-1.3-.3s-.7-.5-1-.8-.5-.7-.7-1.1c-.2-.4-.2-.9-.2-1.3,0-.5.1-.9.2-1.3.2-.4.4-.8.7-1.1.3-.3.6-.6,1-.8s.8-.3,1.3-.3.9.1,1.3.3.7.5,1,.8.5.7.7,1.1c.2.4.2.8.2,1.3,0,.9-.3,1.8-.9,2.4-.3.3-.6.6-1,.8-.5.2-.9.3-1.3.3Zm-2.6-3.5c0,.4.1.7.2,1.1.1.3.3.7.5.9.2.3.5.5.8.6.3.2.7.2,1,.2.4,0,.7-.1,1.1-.3.3-.2.6-.4.8-.7.4-.6.7-1.3.7-2,0-.4-.1-.7-.2-1.1-.1-.3-.3-.7-.5-.9-.2-.3-.5-.5-.8-.6-.7-.3-1.4-.3-2.1,0-.3.2-.6.4-.8.7-.2.3-.4.6-.5.9-.2.4-.2.8-.2,1.2Z"/>
      <path class="pl-6" d="m157.4,82v5.7h-.7v-6.9h.5l4.6,5.8v-5.8h.7v6.9h-.6l-4.5-5.7Z"/>
      <path class="pl-6" d="m201.5,81.3h-2.5v6.3h-.7v-6.3h-2.5v-.6h5.6v.6h.1Z"/>
      <path class="pl-6" d="m205.4,87.1c.4,0,.8-.1,1.1-.2.3-.2.5-.4.7-.7s.3-.6.4-.9c.1-.3.1-.7.1-1.1v-3.5h.7v3.5c0,.4,0,.9-.2,1.3-.1.4-.3.8-.5,1.1s-.5.6-.9.8-.9.3-1.4.3-1-.1-1.4-.3-.7-.4-.9-.8c-.2-.3-.4-.7-.5-1.1-.1-.4-.1-.9-.1-1.3v-3.5h.6v3.5c0,.4,0,.7.1,1.1.1.3.2.6.4.9.2.3.4.5.7.6.3.2.7.3,1.1.3Z"/>
      <path class="pl-6" d="m214.6,87v.6h-4.7v-6.9h4.6v.6h-3.9v2.5h3.4v.6h-3.4v2.7l4-.1Z"/>
      <path class="pl-6" d="m251,80.7h.6l1,2.5,1-2.5h.6l-1.2,3,1.3,3.1,2.5-6.2h.7l-2.9,6.9h-.5l-1.5-3.4-1.5,3.4h-.6l-2.9-6.9h.7l2.5,6.2,1.3-3.1-1.1-3Z"/>
      <path class="pl-6" d="m263.3,87v.6h-4.7v-6.9h4.6v.6h-3.9v2.5h3.4v.6h-3.4v2.7l4-.1Z"/>
      <path class="pl-6" d="m264.6,87.6v-6.9h2.4c.5,0,1,.1,1.5.3.4.2.7.4,1,.7s.5.7.6,1.1c.1.4.2.9.2,1.4s-.1,1-.2,1.4-.4.8-.7,1.1c-.3.3-.7.5-1,.7-.4.2-.9.3-1.4.2h-2.4Zm5-3.5c0-.4-.1-.8-.2-1.1s-.3-.6-.5-.9c-.2-.3-.5-.5-.8-.6-.4-.1-.7-.2-1.1-.2h-1.7v5.7h1.7c.4,0,.8-.1,1.1-.2.3-.1.6-.3.8-.6.2-.3.4-.6.5-.9.1-.4.2-.8.2-1.2Z"/>
      <path class="pl-6" d="m308.3,81.3h-2.5v6.3h-.7v-6.3h-2.5v-.6h5.6l.1.6Z"/>
      <path class="pl-6" d="m314.9,80.7v6.9h-.7v-3.2h-4.1v3.2h-.7v-6.9h.7v3.1h4.1v-3.1h.7Z"/>
      <path class="pl-6" d="m319.4,87.1c.4,0,.8-.1,1.1-.2.3-.2.5-.4.7-.7s.3-.6.4-.9c.1-.3.1-.7.1-1.1v-3.5h.7v3.5c0,.4,0,.9-.2,1.3-.1.4-.3.8-.5,1.1s-.6.6-.9.8c-.4.2-.9.3-1.4.3s-1-.1-1.4-.3-.7-.4-.9-.8c-.2-.3-.4-.7-.5-1.1-.1-.4-.2-.9-.1-1.3v-3.5h.7v3.5c0,.4,0,.7.1,1.1.1.3.2.6.4.9.3.6,1,.9,1.7.9h0Z"/>
      <path class="pl-6" d="m360.1,87.6v-6.9h4.6v.6h-3.9v2.6h3.3v.6h-3.3v3.2l-.7-.1Z"/>
      <path class="pl-6" d="m365.9,87.6v-6.9h2.9c.3,0,.6.1.8.2s.5.3.6.5c.4.4.6.9.6,1.5,0,.2,0,.5-.1.7s-.2.4-.3.6c-.1.2-.3.3-.5.5l-.6.3,1.7,2.7h-.8l-1.6-2.6h-2.1v2.6l-.6-.1Zm.7-3.1h2.3c.2,0,.4,0,.6-.1s.3-.2.4-.4.2-.3.3-.5c.1-.2.1-.4.1-.6s0-.4-.1-.6c-.1-.4-.4-.7-.8-.8-.2-.1-.4-.1-.5-.1h-2.2v3.1h-.1Z"/>
      <path class="pl-6" d="m372.3,87.6v-6.9h.7v6.9h-.7Z"/>
      <path class="pl-6" d="m416.5,82c-.2-.2-.5-.4-.8-.5-.4-.1-.7-.2-1.1-.2-.5,0-1,.1-1.3.4-.3.2-.4.6-.4.9,0,.4.2.7.5.9.2.1.4.2.6.2l.9.2c.3.1.7.2,1,.3s.5.2.8.4c.2.1.4.3.5.5s.2.5.2.8-.1.6-.2.8c-.1.2-.3.4-.5.6-.2.2-.5.3-.8.4-.3.1-.7.1-1,.1-1,0-2-.3-2.8-1l.3-.6c.1.1.3.3.4.4.4.3.8.4,1.3.5.2.1.5.1.8.1.5,0,.9-.1,1.3-.3.3-.2.5-.5.5-.9,0-.2,0-.4-.1-.5-.1-.2-.2-.3-.4-.4-.2-.1-.4-.2-.7-.3s-.6-.2-.9-.2-.7-.2-1-.3c-.2-.1-.5-.2-.7-.3s-.3-.3-.4-.5c-.1-.2-.1-.5-.1-.7,0-.3.1-.6.2-.9.1-.2.3-.5.5-.6.2-.2.5-.3.8-.4.3-.1.7-.1,1-.1.4,0,.8.1,1.2.2.4.1.7.3,1,.6l-.6.4Z"/>
      <path class="pl-6" d="m420.4,80.7h.6l2.9,6.9h-.8l-.9-2.2h-3.1l-.9,2.2h-.7l2.9-6.9Zm1.7,4.2l-1.4-3.4-1.4,3.4h2.8Z"/>
      <path class="pl-6" d="m429.1,81.3h-2.5v6.3h-.7v-6.3h-2.5v-.6h5.6v.6h.1Z"/>
      <rect class="pl-9" x="136.7" y="102.7" width="29.9" height="2.3"/>
      <rect class="pl-9" x="136.7" y="107.8" width="16.9" height="2.3"/>
      <rect class="pl-9" x="190" y="312.7" width="29.9" height="2.3"/>
      <rect class="pl-9" x="190" y="317.8" width="16.9" height="2.3"/>
      <rect class="pl-9" x="297.2" y="259.3" width="29.9" height="2.3"/>
      <rect class="pl-9" x="297.2" y="269.4" width="15.6" height="2.3"/>
      <rect class="pl-9" x="297.2" y="264.4" width="21.5" height="2.3"/>
      <rect class="pl-9" x="189.2" y="217.4" width="15.6" height="2.3"/>
      <rect class="pl-9" x="189.2" y="212.4" width="21.5" height="2.3"/>
      <path class="pl-11" d="m226.9,210l-.1-.2c.2.4.1.1.1.2Z"/>
      <polygon class="pl-11" points="228.8 215.4 228.8 215.3 229 216.1 228.8 215.4"/>
      <path class="pl-11" d="m229.4,220.7c0-1,0-1.9-.1-2.9v-.2c0-.1,0-.3-.1-.4.1,1.2.2,2.4.2,3.5Z"/>
      <path class="pl-11" d="m229,223.5c0-.2-.1.6.1-.6v.1c-.1.1-.1.3-.1.5Z"/>
      <path class="pl-11" d="m228.5,225.5c.1-.2.1-.5.2-.7,0,.2-.1.4-.2.5-.2.8-.2.6,0,.2Z"/>
      <path class="pl-11" d="m228.3,226.2l.1-.4c0,.2-.1.3-.1.4Z"/>
      <path class="pl-11" d="m228.6,225.1l-.2.8c.1-.1.1-.2.1-.4,0,.1.1-.1.1-.4Z"/>
      <path class="pl-11" d="m228.8,224.6c.1-.4.2-.9.1-.2.1-.3.2-.7.2-1-.1.1-.2.5-.3,1.2Z"/>
      <path class="pl-11" d="m226.5,229.7l.2-.2.3-.5c-.2.2-.5.7-.5.7Z"/>
      <path class="pl-11" d="m226.7,229.4c-.1.2-.3.5-.4.7.4-.6.4-.7.4-.7Z"/>
      <path class="pl-11" d="m228.3,226.4l.4-1.3c-.2.5-.3,1-.5,1.5l.1-.2Z"/>
      <polygon class="pl-11" points="224.6 232.1 224.9 231.7 224.3 232.4 224.6 232.1"/>
      <path class="pl-11" d="m223.1,233.5c.2-.2-.4.3-.1,0l-1.1.9c.3-.2.7-.5,1.2-.9Z"/>
      <path class="pl-11" d="m221.2,234.9c.2-.1.4-.3.6-.4-.2.1-.4.2-.6.4Z"/>
      <path class="pl-11" d="m225.4,231.2c-.2.1-.3.3-.5.5l.2-.2.3-.3Z"/>
      <path class="pl-11" d="m225.2,231.5h0c-.1.2-.3.4-.5.5.2-.2.4-.3.5-.5Z"/>
      <path class="pl-11" d="m227.4,228.3c-.2.5-.7,1.3-.2.5.2-.3-.1.2.2-.5Z"/>
      <path class="pl-11" d="m225.8,230.9c.2-.2.3-.5.5-.7,0,0-.1.1,0-.1-.2.3-.3.6-.5.8Z"/>
      <polygon class="pl-11" points="225.5 231.2 225.8 230.9 225.6 231.1 225.5 231.2"/>
      <path class="pl-11" d="m222.5,234.1c-.3.2-.6.5-1,.8.4-.3.8-.6,1.2-.9,0-.1.2-.3-.2.1Z"/>
      <path class="pl-11" d="m222.8,233.9c.2-.2.4-.3.6-.5-.2.2-.5.4-.6.5-.1,0-.1.1,0,0Z"/>
      <path class="pl-11" d="m220.2,235.6c.2-.1.4-.2.6-.3l-.6.3Z"/>
      <path class="pl-11" d="m223.7,233l-.4.4.5-.4h-.1Z"/>
      <path class="pl-11" d="m216.3,237.9c.6-.3,1.1-.6,1.7-.8.8-.4.2-.3-.5-.1l-.8.4c.3,0,1.8-.7,1.1-.4-.4.2-.9.4-1.4.5.2-.1-.1.1-.5.3s-.8.3-.6.3c.5,0,.8-.1,1-.2.1-.1-.2.1,0,0Z"/>
      <path class="pl-11" d="m219,236.3l.3-.2c-.4.2-.7.4-1.1.5-.2.1-.4.2-.6.4.5-.2,1.1-.5,1.6-.7h-.2Z"/>
      <path class="pl-11" d="m220.7,235.3c-.2.2-.9.6-.4.4.4-.2.8-.5,1.1-.8-1.4,1,.4-.2-.7.4l.8-.5-.8.5h0c-.4.3-.1,0,0,0h0c-.4.3-1,.5-1.4.8.3-.2.8-.3,1.4-.8Z"/>
      <path class="pl-11" d="m226.9,229.6h0q-.1.2,0,0Z"/>
      <path class="pl-11" d="m226.5,230.2c.1-.1.1-.2.3-.5s0,0,0,0c.1-.2.4-.7,0-.1l-.1.1c-.3.4-.6.8-.9,1.1.3-.2.5-.4.7-.6Z"/>
      <path class="pl-11" d="m223.8,233.1c-.4.3-.7.6-1,.9.2-.1.4-.3.6-.4h0c.5-.5.4-.4.4-.5Z"/>
      <polygon class="pl-11" points="217.3 237 217.5 236.9 216.8 237.3 217.3 237"/>
      <polygon class="pl-11" points="215.6 237.7 215.7 237.6 215.2 237.8 215.6 237.7"/>
      <path class="pl-11" d="m225.5,209.9l.3.3-.3-.3Z"/>
      <path class="pl-11" d="m223.5,207.5h0s.1.1,0,0Z"/>
      <path class="pl-11" d="m180.9,223.1c.1-.6.2-1.2.1-1.2l-.1.2c.1.3.1.7,0,1Z"/>
      <path class="pl-11" d="m200,202.7h-.2l-.4.2.6-.2Z"/>
      <path class="pl-11" d="m200.4,202.2l.8-.1-.8.1Z"/>
      <path class="pl-11" d="m227.9,226l-.1.5c.3-.7.2-.4.1-.5Z"/>
      <path class="pl-11" d="m197.3,239.8c-.5-.1-.9-.2-1.2-.3.3.2.8.2,1.2.3Z"/>
      <path class="pl-11" d="m223.8,209.6c.2.2.3.2.3.2-.2-.1-.3-.2-.3-.2Z"/>
      <path class="pl-11" d="m194.6,239.2l.3.1c.4.1.7.1,1.2.2l-1.5-.3Z"/>
      <path class="pl-11" d="m191.5,207.5l-.6.4.6-.4Z"/>
      <path class="pl-11" d="m210.4,239.4q-.1,0-.1.1c0-.1.1-.1.1-.1Z"/>
      <path class="pl-11" d="m209.1,239.3l-.5.1.5-.1Z"/>
      <path class="pl-11" d="m209,239.3h.3c.1,0,.1-.1-.3,0Z"/>
      <path class="pl-11" d="m208,239.5l.6-.1h-.1l-.5.1Z"/>
      <path class="pl-11" d="m183.2,211.9c-.2.4-.4.9-.7,1.2l.5-.2c.1-.3.1-.6.2-1Z"/>
      <path class="pl-11" d="m228.5,216.6l-.1-1c.5,1.1.5,2.1.5,1.1-.3-.6-.6-1.3-.7-2-.3-1-.8-1.9-.9-1.9-.1-.2-.1-.4-.2-.6l.2.4c-.4-1.2-.6-.8-1.5-2.2-.3-.5-.5-.9-.2-.5-.3-.4-.5-.7-.9-1-.2-.3-.1-.3.1,0l-.6-.8-.7-.7h0c-.2-.2-.8-.5-1-.7-.3-.4.2.1.1,0-.3-.2-.6-.5-.9-.6-.3-.4.5.1,1,.7-.5-.9-.7-.6-2.4-2,.3.2.6.3.9.5-.2-.3-.5-.6-.9-.8-.4-.3-.8-.5-1.3-.9.2.2,1.9,1.5.8.9-.4-.3-.8-.5-1.2-.7.1-.1-.5-.4-1.2-.7l.1-.1c-.4-.2-.8-.3-1.3-.3-.5-.1-.9-.4-1.2-.7-1.5-.4,1,.5-.8,0-.5-.2-1.1-.3-1.7-.4s-1.3-.2-1.9-.2c-.9-.2.2-.1-.1-.2h-.8c-.2,0-.1,0-.1-.1-.6,0-.1.2-1.1.2-.3.1-2.1-.3-3.4,0-.3,0,.1-.1,0-.2-1,.1-1.9.3-2.9.6-.4,0-.8,0-1.2.1.9,0-.2.3-1.1.6h.8l-1.5.4c-.2,0,0-.1.2-.2l-.3.1c-.5.1-.3-.1.1-.3h.6c.4-.2.7-.4.6-.4s-.3.1-.5.1c.1,0,.1-.1.1-.1-.2,0-.3.1-.5.2l-.4-.1-.1.1-2,.4c-1.4.6-2.5,1.2-4.6,2.3.5-.4,0-.2,0-.4.4-.1.8-.3,1.2-.5.5-.3,1.1-.5,1.6-.7-.6.2-.5.1-.4,0-.7.3-1.4.6-2,1,0-.1-.5.1-1,.3.5.1-1.4.9-2.1,1.4-.1,0,0-.3,1-.8-1.2.4-1.2,1.1-2.2,1.5.2-.2.4-.2.4-.3-.5.4-1.7,1.3-1.5,1l.2-.2c-.4.3-.9.6-1.2,1-.5.4-.9.8-1.3,1.2-.6.5-1,1.1-1.3,1.8v-.5c-.5,1-.8,2-1.1,3,0-.3-.9.4-.3-.9-.4.5-.6,1-.9,1.6.1-.2.6-.5.4-.2-.4.6-.8,1.2-1.1,1.8.2-.4.2.1.1.8,0-.1-.3,0-.2-.3-.1.6-.2,1.1-.2,1.7,0-.4-.2-.1-.4.2.1-.2-.3,1.4-.3,1.9l.1-.7c-.2,1.9.2,1.9.2,3.8-.1-.2-.4-.5-.3.4.1.2.3.7.6,1.3s.6,1.3.9,2.1v.3l.5,1.1c-.8-1.2-1.5-2.5-1.9-3.8,0,.4,0,.9.1,1.3,0,.4-.2-.5-.3-.9.1.8.3,1.7.6,2.5.1-.2.8,1.8.9,1.6-.4-.8-.8-1.7-1.1-2.5.1-.1.3.3.5.9s.6,1.3,1,2.1c.1.4-.4-.2-.4-.1s.3.5.5.8.4.7.5.8c-.1-.2-.3-.4-.5-.6.5.9,1,1.3,1.6,2.3.2.3.6,1.1.8,1-.3-.6,0-1,.4-.8l.7.9c.4.4.8.9.9,1,.4.5-1-.4-.6,0,.2.1.3.2.5.3.3.3-.2,0,.5.5.2,0,1.5,1.1.4.2.8.5.8.6,1.7,1.1-.1-.1.1-.1.5.1s.9.3,1.3.5c-.1,0,.1.1.2.2.8.4,1.5.6,2.1.9s1.3.4,2.1.6c.1.1,1,.2.6.2.3,0,.7.1,1,.1,1,.3-1.2-.2-.4.1.1,0,1.4.1,2.1.1-.8-.1-1.6-.2-2.5-.3,0-.1.4-.1.9-.1s1.3,0,2.2.1c1.4,0,.6.1.9.1.8.1,1.6,0,2.4-.1.7-.1,1.4-.1,2-.1.9,0,0,.2.2.2-1.1.1-1.8,0-2.5.1h1c-.5.1-1,.1-1.6.1,2.2,0,4.4-.1,6.5-.4.4-.1,1-.2.7-.2l-.6.1c-.6,0,1.2-.3.4-.2.8-.2,1.8-.4,3-.6h.2c-.4,0-.8.1-1.1.2.8-.1,1.6-.3,2.4-.5-.3,0-.6.1-.9.1l2.9-.9c-.5.1-.2.1-1,.2.7,0-2.7.7-1.6.6-.8,0-1.3.3-2.4.3,0,0,.4,0-.5.1l-.2.1h.5c-.8.2-1.6.3-2.3.5-.5,0,.2-.1-.1-.1l-.7.1c-.1-.1-1.4,0-.2-.1-.4,0-.8.1-1.1.1-.7,0-1.6.1-2.2.1s-1.4.1-.9.1c-.6,0-1.2.1-1.8,0h-1c-.5,0-.9-.1-1.4-.1-1-.1-1.9-.3-2.8-.5-.7-.2-1.4-.4-2.1-.6l-.2-.1c-.4-.1-.9-.3-1.3-.5-.3-.2-.7-.4-1-.5-.3-.2-1.1-.7-1.9-1.2l-1.2-.9c-.3-.2-.6-.5-.9-.8h-.1c-.4-.3-.7-.6-1-1-.4-.4-.7-.7-1-1.1v.1c-.8-1.1-1.5-2.2-2-3.5.1.2.3.4.3.7-.6-1.7-1.5-3.5-1.6-5.2-.1-.3-.1-.7-.1-1v.1-.8.5c0-.3,0-.8-.1-1.3l.1-.2v-.1c0-.5,0-.4-.1-.1v-.6c.2-.4,0-1.2.4-1.7-.1-.4.5-2.3.4-2.6,0,0,.1-.1,0,.1.2-.5.4-.9.6-1.4l.2-.1.4-1.1c.4-.6.6-.8.4-.1.4-.8.9-1.7,1.4-2.5v.1c.3-.5.6-.9,1-1.3.2-.2.6-.5,1.1-1,.6-.5,1.1-1,1.7-1.4,1.3-1,2.8-1.9,4.3-2.5-.6,0,1.3-.4,1.3-.7.2,0,.6-.1.2.1.6-.3,1.1-.5,1.7-.6.5-.1.9-.3,1.4-.5.2,0-.3.2-.1.2.2-.1.4-.1.6-.2.2,0-.2.1-.4.2,1.5-.4,1.6-.7,1.6-.9.6,0,1.2-.2,1.7-.4.3,0,.7,0-.2.2.5-.1,3.3-.5,3.3-.6.3,0,.6,0,.9-.1,1.2-.1,1.3-.1,2.5-.1h-.3c.5-.2,1-.1,2,0h0c1.1.1,1.3.2,1.6.2.5,0,1,.1,1.5.3l-.1-.1c.1-.1.6,0,1.2.2s1.3.4,1.9.6c-.1-.1-.3-.1-.4-.2.8.3,1.6.7,2.3,1.3.1.1-.2-.1-.4-.1,1.6.9.3-.1,1.5.5.2.2-.4,0,.4.5,1.2.5,2.2,1.2,3.2,2-.2-.2-.3-.5.2-.1.8.6,1.7,2,2.4,2.5q.1.1.1.2c.2.3.6.7.9,1.2.2.4.5.7.8,1,.2.8.6,1.6,1,2.3.4,1,.7,1.9.5,1.9.1.4.2.7.2,1.1.1.4.1.7.2,1.1v-.1c.1.7.1,1.2.1,1.6s.1.6.1.9-.1.1-.1.1c0,.4-.1.8-.1,1.2,0,.3-.1.6-.1.9-.1.5-.1,1-.3,1.9l-.2.1c-.2.6-.5,1.2-.8,1.8-.3.4-.5.9-.8,1.3-.3.5-.6.9-.9,1.3,0,0,0-.1.1-.2-1.3,1.9-4.2,3.5-4.7,4.2l-.6.5-.7.4c1.8-.9-.2.3.6,0-.7.4-1.9.8-1,.4l.1-.1c.1-.2-.5.1-1,.4-.4.2-.8.4-1.2.5-3.6,1.4-7.4,2.2-11.3,2.5l.4.1-1.3.1c-.3,0-.5-.1.5-.1-.5,0-1,.1-1.6.2-1.8,0,.7-.2.1-.2h-.8.2c-.6.1-1.2.1-1.8.1-.7-.1-.4-.1-.6-.1h-.4c-.5,0-1.1,0-1.6-.1.2.1.4.1.6.2-.7,0-1.5-.2-.8,0-.5-.2-2-.4-3.4-.7-.7-.1-1.3-.3-1.9-.6l-1.1-.4c-1-.4-2-.9-2.8-1.5.2.2.3.4-.5-.2.1,0,.1-.1-.1-.2-.2-.2-.4-.3-.6-.5-.5-.4-.9-.9-1.2-1.4.4.7-1.8-2.4-1.2-1.3-.4-.8,0-.1-.3-.7-1.3-2.1-2-4.4-2.2-6.8,0,0,0,.4-.1-.1v-.9l.1-.7v-1.4c0,.1,0,.3,0,0,.3-2.6,1.2-5.1,2.5-7.3l1.1-1.6,1.4-1.4c.4-.5.9-.9,1.5-1.3.5-.4,1-.8,1.6-1.2-.6.4-.2.1.2-.2-.3.2,0,0-.1,0l1.9-1.1c.3-.2,2.1-1,2.3-1.1l-.6.3c.8-.4-1.2.5-1.1.4-.6.3-1.2.6-1.7.9-.7.4-1.4.8-2.1,1.3-.3.2.2-.2.1-.1-.3.3-.7.6-1.5,1.2l.1-.1c-1.7,1.5-3.2,3.4-4.2,5.4l.1-.1-.5,1c-.3.7.9-1.6.6-1-.6.7-1.7,4.3-1.8,4.9-.2,1,.1-.3-.1.7,0,.1-.1.2-.1.3v.2c0,.3,0,.7-.1,1v-.6c0,.4-.1,1-.1,1.6s.1,1,.1,1.1l-.1-1c.1.7.1,1.4.2,2.2s.3,1.5.5,2.2.5,1.4.8,2.1.7,1.3,1.1,1.8c0-.1-.1-.1-.1-.2.7,1.1,1.6,2.1,2.5,3h-.1c.2.1.4.3.6.5l.7.5c-.5-.3.8.7.2.3.4.3.9.6,1.4.7.2.1.3.1,1,.3l.3.2c.5.1,1.1.3,1.6.5-.9-.2.6.3-.4,0,.8.4,1.7.6,2.6.8.7.2,1.2.2,1.8.4.5,0,0-.1-.5-.2-.3,0-.6-.1-.9-.2-.2-.1,0-.1.4,0s.9.1,1.3.2c1,.3,2,.5,3.1.6h-.4c.7.1,1.4,0,2.2.1.5-.1,1.1,0,1.3-.1h-1.7c1-.1,1.9-.2,3.5-.2-.1,0-.6.1-.9.2.5,0,.9-.1,1.4-.1-1,.2-2.1.3-3.1.3.5.1,2-.1,1.5,0,.7-.3,1.9-.1,3.1-.4l-.1.1c.2,0,.6-.1,1-.2l-.6.2c1-.3,2-.1,3-.5-2,.4-.5,0-1.4.1.7-.2,1.3-.3,2-.3.8,0,1.5-.2,2.3-.4-.4.1-1.4.4-.9.1s1.2-.3,1.6-.4c1.8-.6-.3,0,.4-.3.7,0,.9-.4,1.6-.7v.1c2-.8.5-.4,2.2-1.2l-.7.5.9-.5-.1.2c1-.6,1.3-.7,2.2-1.3-.3.1,0-.2.8-.8.6-.3-.2.3.9-.5-.2.4-.6.6-1,.8,0,.1-.2.2-.2.3.3-.2.7-.4,1-.6l.8-.7c-.1.1-.3.2-.4.3.5-.5,1-.9,1.4-1.4.2-.2.1,0-.1.2.3-.3.4-.5.8-1,0,.2.1.2-.5.9l1.2-1.5c.1,0,.7-.7.6-.5.4-.5.7-1.1,1-1.6.3-.6.6-1.3.9-2,0-.2.1-.3.1-.5.5-1.3.8-2.6.8-4l.2-.9c0-1.2-.2,1.2-.3-.9-.1-1.4.1-.5.1-1.1-.1-.7-.5-1.9-.7-3.2.5.6.6.9.7,1.3Zm-8.6-12c.3.1.6.3.9.6-.3-.1-.7-.3-.9-.6h0Zm-22-1.6c.3-.1.6-.2.9-.2-.3.1-.6.1-.9.2h0Zm6.4,36.9h0c-.6,0-.4,0,0,0Zm1.3-.1q.2,0,0,0c-.2,0-.4.1-.6.1.2,0,.4,0,.6-.1h0Zm-5.5-1.8h.3c-.6,0-.4,0-.3,0h0Z"/>
      <path class="pl-11" d="m200.3,202.3h.1c.2,0,.2-.1-.1,0Z"/>
      <path class="pl-11" d="m186.1,236l-.4-.4s.1.1.4.4Z"/>
      <path class="pl-11" d="m212.4,238.6c-.3.1-.5.1-.8.2.4-.1.6-.1.8-.2-.1.1-.2.1,0,0Z"/>
      <path class="pl-11" d="m219.4,236.5l.3-.2h0c-.5.2-.8.4-.3.2Z"/>
      <path class="pl-11" d="m213.3,238.6c.4,0,.8-.1,1.1-.3h-.1c.1,0-.4.1-1,.3Z"/>
      <path class="pl-11" d="m214.5,238.3l.5-.2c.1,0-.2.1-.5.2Z"/>
      <path class="pl-11" d="m207.3,239.6c.3,0,.2-.1.3-.1s-1.8.3-.3.1Z"/>
      <polygon class="pl-11" points="213.8 238.7 213.6 238.7 213.2 238.8 213.8 238.7"/>
      <path class="pl-11" d="m209.2,239.7l.9-.1s.1,0,.2-.1c-.5.1-1.1.2-1.1.2Z"/>
      <path class="pl-11" d="m210.4,239.5c.3-.1.6-.1.7-.2l-.7.2Z"/>
      <path class="pl-11" d="m212.5,239.1h-.3l-.6.1.9-.1Z"/>
      <path class="pl-11" d="m199.1,240.3c-.4,0-.7,0-1-.1-.1,0,.2.1.5.1s.7,0,.5,0Z"/>
      <path class="pl-11" d="m202.2,240.6c-.2,0-.3,0-.5-.1v.1h.5Z"/>
      <path class="pl-11" d="m199.2,240.6c-.1.1-1.5,0-.2.1.1-.1,1.2-.1.2-.1Z"/>
      <polygon class="pl-11" points="185.2 234.6 185.3 234.8 185.5 234.6 185.2 234.6"/>
      <path class="pl-11" d="m179.7,222.1c0,1.3.1.3.1,1.4,0,.1,0-.1,0-.3s0-.5,0-.3c0-.7,0-1.1-.1-.8Z"/>
      <polygon class="pl-11" points="194 206.1 194.7 205.8 194.3 206 194 206.1"/>
      <path class="pl-11" d="m195.4,205.5l.2-.1.4-.2-.6.3Z"/>
      <path class="pl-11" d="m218,203.3h0c.1.1.3.3.5.4-.1-.2-.3-.3-.5-.4Z"/>
      <polygon class="pl-11" points="226.2 210.6 226.1 210.4 226.2 210.8 226.2 210.6"/>
      <path class="pl-11" d="m229.2,219.4c0-.4-.1-.8-.1-1.2.1.8-.1,1.3.1,1.2Z"/>
      <rect class="pl-10" y="17.6" width="24.7" height="38.1"/>
      <rect class="pl-4" y="17.6" width="24.7" height="38.1"/>
      <rect class="pl-9" x="1.6" y="55.7" width=".5" height="314.8"/>
      <rect class="pl-9" x="4.6" y="55.7" width=".5" height="314.8"/>
      <rect class="pl-9" x="7.6" y="55.7" width=".5" height="314.8"/>
      <rect class="pl-9" x="10.6" y="55.7" width=".5" height="314.8"/>
      <rect class="pl-9" x="13.6" y="55.7" width=".5" height="314.8"/>
      <rect class="pl-9" x="16.6" y="55.7" width=".5" height="314.8"/>
      <rect class="pl-9" x="19.6" y="55.7" width=".5" height="314.8"/>
      <rect class="pl-9" x="22.6" y="55.7" width=".5" height="314.8"/>
      <path class="pl-4" d="m69.7,33.8c0,3.6-2.9,6.5-6.5,6.5s-6.5-2.9-6.5-6.5,2.9-6.5,6.5-6.5h0c3.6,0,6.5,2.9,6.5,6.5h0Z"/>
      <path class="pl-13" d="m67.1,33.8c0,2.2-1.8,3.9-3.9,3.9s-3.9-1.8-3.9-3.9,1.8-3.9,3.9-3.9,3.9,1.7,3.9,3.9h0Z"/>
      <circle class="pl-4" cx="97.2" cy="33.8" r="6.5"/>
      <path class="pl-13" d="m101.1,33.8c0,2.2-1.8,3.9-3.9,3.9s-3.9-1.8-3.9-3.9,1.8-3.9,3.9-3.9,3.9,1.7,3.9,3.9h0Z"/>
      <path class="pl-4" d="m137.6,33.8c0,3.6-2.9,6.5-6.5,6.5s-6.5-2.9-6.5-6.5,2.9-6.5,6.5-6.5h0c3.6,0,6.5,2.9,6.5,6.5Z"/>
      <path class="pl-13" d="m135.1,33.8c0,2.2-1.8,3.9-3.9,3.9s-3.9-1.8-3.9-3.9,1.7-3.9,3.9-3.9,3.9,1.7,3.9,3.9h0Z"/>
      <path class="pl-4" d="m171.7,33.8c0,3.6-2.9,6.5-6.5,6.5s-6.5-2.9-6.5-6.5,2.9-6.5,6.5-6.5,6.5,2.9,6.5,6.5h0Z"/>
      <path class="pl-13" d="m169.1,33.8c0,2.2-1.8,3.9-3.9,3.9s-3.9-1.8-3.9-3.9,1.8-3.9,3.9-3.9,3.9,1.7,3.9,3.9h0Z"/>
      <circle class="pl-4" cx="199.3" cy="33.8" r="6.5"/>
      <path class="pl-13" d="m203.2,33.8c0,2.2-1.8,3.9-3.9,3.9s-3.9-1.8-3.9-3.9,1.8-3.9,3.9-3.9,3.9,1.8,3.9,3.9h0Z"/>
      <circle class="pl-4" cx="233.2" cy="33.8" r="6.5"/>
      <path class="pl-13" d="m237.1,33.8c0,2.2-1.8,3.9-3.9,3.9s-3.9-1.8-3.9-3.9,1.8-3.9,3.9-3.9,3.9,1.7,3.9,3.9h0Z"/>
      <circle class="pl-4" cx="267.2" cy="33.8" r="6.5"/>
      <path class="pl-13" d="m271.1,33.8c0,2.2-1.8,3.9-3.9,3.9s-3.9-1.8-3.9-3.9,1.8-3.9,3.9-3.9,3.9,1.8,3.9,3.9h0Z"/>
      <circle class="pl-4" cx="301.3" cy="33.8" r="6.5"/>
      <path class="pl-13" d="m305.2,33.8c0,2.2-1.8,3.9-3.9,3.9s-3.9-1.8-3.9-3.9,1.8-3.9,3.9-3.9,3.9,1.8,3.9,3.9h0Z"/>
      <path class="pl-4" d="m341.7,33.8c0,3.6-2.9,6.5-6.5,6.5s-6.5-2.9-6.5-6.5,2.9-6.5,6.5-6.5,6.5,2.9,6.5,6.5h0Z"/>
      <path class="pl-13" d="m339.1,33.8c0,2.2-1.8,3.9-3.9,3.9s-3.9-1.8-3.9-3.9,1.8-3.9,3.9-3.9,3.9,1.8,3.9,3.9h0Z"/>
      <path class="pl-4" d="m375.7,33.8c0,3.6-2.9,6.5-6.5,6.5s-6.5-2.9-6.5-6.5,2.9-6.5,6.5-6.5,6.5,2.9,6.5,6.5h0Z"/>
      <path class="pl-13" d="m373.2,33.8c0,2.2-1.8,3.9-3.9,3.9s-3.9-1.8-3.9-3.9,1.8-3.9,3.9-3.9,3.9,1.7,3.9,3.9h0Z"/>
      <path class="pl-4" d="m409.6,33.8c0,3.6-2.9,6.5-6.5,6.5s-6.5-2.9-6.5-6.5,2.9-6.5,6.5-6.5,6.5,2.9,6.5,6.5h0Z"/>
      <path class="pl-13" d="m407.1,33.8c0,2.2-1.8,3.9-3.9,3.9s-3.9-1.8-3.9-3.9,1.7-3.9,3.9-3.9,3.9,1.7,3.9,3.9h0Z"/>
      <path class="pl-4" d="m443.7,33.8c0,3.6-2.9,6.5-6.5,6.5s-6.5-2.9-6.5-6.5,2.9-6.5,6.5-6.5,6.5,2.9,6.5,6.5h0Z"/>
      <path class="pl-13" d="m441.1,33.8c0,2.2-1.8,3.9-3.9,3.9s-3.9-1.8-3.9-3.9,1.8-3.9,3.9-3.9,3.9,1.7,3.9,3.9h0Z"/>
      <circle class="pl-4" cx="471.2" cy="33.8" r="6.5"/>
      <path class="pl-13" d="m475.1,33.8c0,2.2-1.8,3.9-3.9,3.9s-3.9-1.8-3.9-3.9,1.8-3.9,3.9-3.9,3.9,1.7,3.9,3.9h0Z"/>
      <path class="pl-6" d="m66.4,20.1c0,3.2-.4,13.8-.4,13.8,0,3.7-5.7,3.7-5.7,0v-16.1c0-8.1-3.6-11.1-7.1-11.1-4.4,0-7,5.3-7,10.9h-5.7c0-12.7,6.1-17.6,12.3-17.6,9.5,0,13.6,6.3,13.6,20.1Z"/>
      <path class="pl-6" d="m100.4,20.1c0,3.2-.4,13.8-.4,13.8,0,3.7-5.7,3.7-5.7,0v-16.1c0-8.1-3.5-11.1-7.1-11.1-4.4,0-7,5.3-7,10.9h-5.7c0-12.7,6.1-17.6,12.3-17.6,9.5,0,13.6,6.3,13.6,20.1Z"/>
      <path class="pl-6" d="m134.4,20.1c0,3.2-.4,13.8-.4,13.8,0,3.7-5.7,3.7-5.7,0v-16.1c0-8.1-3.6-11.1-7.1-11.1-4.4,0-7,5.3-7,10.9h-5.7c0-12.7,6.1-17.6,12.3-17.6,9.5,0,13.6,6.3,13.6,20.1Z"/>
      <path class="pl-6" d="m168.4,20.1c0,3.2-.4,13.8-.4,13.8,0,3.7-5.7,3.7-5.7,0v-16.1c0-8.1-3.5-11.1-7.1-11.1-4.4,0-7,5.3-7,10.9h-5.7c0-12.7,6.1-17.6,12.3-17.6,9.5,0,13.6,6.3,13.6,20.1Z"/>
      <path class="pl-6" d="m202.4,20.1c0,3.2-.4,13.8-.4,13.8,0,3.7-5.7,3.7-5.7,0v-16.1c0-8.1-3.5-11.1-7.1-11.1-4.4,0-7,5.3-7,10.9h-5.7c0-12.7,6.1-17.6,12.3-17.6,9.5,0,13.6,6.3,13.6,20.1Z"/>
      <path class="pl-6" d="m236.4,20.1c0,3.2-.4,13.8-.4,13.8,0,3.7-5.7,3.7-5.7,0v-16.1c0-8.1-3.5-11.1-7.1-11.1-4.4,0-7,5.3-7,10.9h-5.7c0-12.7,6-17.6,12.3-17.6,9.5,0,13.6,6.3,13.6,20.1Z"/>
      <path class="pl-6" d="m270.4,20.1c0,3.2-.4,13.8-.4,13.8,0,3.7-5.7,3.7-5.7,0v-16.1c0-8.1-3.5-11.1-7.1-11.1-4.4,0-7,5.3-7,10.9h-5.7c0-12.7,6.1-17.6,12.3-17.6,9.5,0,13.6,6.3,13.6,20.1Z"/>
      <path class="pl-6" d="m304.4,20.1c0,3.2-.4,13.8-.4,13.8,0,3.7-5.7,3.7-5.7,0v-16.1c0-8.1-3.5-11.1-7.1-11.1-4.4,0-7,5.3-7,10.9h-5.7c0-12.7,6.1-17.6,12.3-17.6,9.5,0,13.6,6.3,13.6,20.1Z"/>
      <path class="pl-6" d="m338.4,20.1c0,3.2-.4,13.8-.4,13.8,0,3.7-5.7,3.7-5.7,0v-16.1c0-8.1-3.5-11.1-7.1-11.1-4.4,0-7,5.3-7,10.9h-5.7c0-12.7,6.1-17.6,12.3-17.6,9.5,0,13.6,6.3,13.6,20.1Z"/>
      <path class="pl-6" d="m372.4,20.1c0,3.2-.4,13.8-.4,13.8,0,3.7-5.7,3.7-5.7,0v-16.1c0-8.1-3.5-11.1-7.1-11.1-4.4,0-7,5.3-7,10.9h-5.7c0-12.7,6.1-17.6,12.3-17.6,9.5,0,13.6,6.3,13.6,20.1Z"/>
      <path class="pl-6" d="m406.4,20.1c0,3.2-.4,13.8-.4,13.8,0,3.7-5.7,3.7-5.7,0v-16.1c0-8.1-3.5-11.1-7.1-11.1-4.4,0-7,5.3-7,10.9h-5.7c0-12.7,6.1-17.6,12.3-17.6,9.5,0,13.6,6.3,13.6,20.1Z"/>
      <path class="pl-6" d="m440.4,20.1c0,3.2-.4,13.8-.4,13.8,0,3.7-5.7,3.7-5.7,0v-16.1c0-8.1-3.5-11.1-7.1-11.1-4.4,0-7,5.3-7,10.9h-5.7c0-12.7,6.1-17.6,12.3-17.6,9.5,0,13.6,6.3,13.6,20.1Z"/>
      <path class="pl-6" d="m474.4,20.1c0,3.2-.4,13.8-.4,13.8,0,3.7-5.7,3.7-5.7,0v-16.1c0-8.1-3.5-11.1-7.1-11.1-4.4,0-7,5.3-7,10.9h-5.7c0-12.7,6.1-17.6,12.3-17.6,9.5,0,13.6,6.3,13.6,20.1Z"/>
    </g>
    <g id="freepik--Notes--inject-5">
      <path class="pl-6" d="m283.7,189.4h-39c-1.1-2.4-1.8-5.1-1.9-7.8v-31.2h39v31.7c0,3.1,1.9,7.3,1.9,7.3Z"/>
      <path class="pl-1" d="m249.5,159.6c4.6-.4,9.2-.5,13.8-.5s9.2.1,13.8.5c-4.6.4-9.2.5-13.8.5s-9.3-.1-13.8-.5Z"/>
      <path class="pl-1" d="m249.5,164.8c4.1-.4,8.2-.5,12.4-.5s8.2.1,12.4.5c-4.1.4-8.2.5-12.4.5s-8.3-.2-12.4-.5Z"/>
      <path class="pl-1" d="m249.5,169.9c3.6-.4,7.2-.5,10.8-.5s7.2.1,10.8.5c-3.6.4-7.2.5-10.8.5s-7.2-.1-10.8-.5Z"/>
      <path class="pl-1" d="m249.5,175c4.6-.4,9.2-.5,13.8-.5s9.2.1,13.8.5c-4.6.4-9.2.5-13.8.5s-9.3-.1-13.8-.5Z"/>
      <path class="pl-7" d="m228.8,293.9h-39c-1.1-2.4-1.8-5.1-1.9-7.8v-31.2h39v31.6c0,3.2,1.9,7.4,1.9,7.4Z"/>
      <path class="pl-1" d="m194.6,264.1c4.6-.4,9.2-.5,13.8-.5s9.2.1,13.8.5c-4.6.4-9.2.5-13.8.5s-9.3-.1-13.8-.5Z"/>
      <path class="pl-1" d="m194.6,269.2c4.1-.4,8.2-.5,12.4-.5s8.3.1,12.4.5c-4.1.4-8.2.5-12.4.5s-8.3-.1-12.4-.5Z"/>
      <path class="pl-1" d="m194.6,274.4c3.6-.4,7.2-.5,10.8-.5s7.2.1,10.8.5c-3.6.4-7.2.5-10.8.5s-7.3-.1-10.8-.5Z"/>
      <path class="pl-1" d="m194.6,279.5c4.6-.4,9.2-.5,13.8-.5s9.2.1,13.8.5c-4.6.4-9.2.5-13.8.5s-9.3-.1-13.8-.5Z"/>
      <path class="pl-8" d="m172.6,188.7h-39c-1.1-2.4-1.8-5.1-1.9-7.8v-31.2h39v31.7c0,3.1,1.9,7.3,1.9,7.3Z"/>
      <path class="pl-1" d="m138.4,158.9c4.6-.4,9.2-.5,13.8-.5s9.2.1,13.8.5c-4.6.4-9.2.5-13.8.5s-9.2-.1-13.8-.5Z"/>
      <path class="pl-1" d="m138.4,164c4.1-.4,8.3-.5,12.4-.5s8.2.1,12.4.5c-4.1.4-8.2.5-12.4.5s-8.3-.1-12.4-.5Z"/>
      <path class="pl-1" d="m138.4,169.2c3.6-.4,7.2-.5,10.8-.5s7.2.1,10.8.5c-3.6.4-7.2.5-10.8.5s-7.2-.1-10.8-.5Z"/>
      <path class="pl-1" d="m138.4,174.3c4.6-.4,9.2-.5,13.8-.5s9.2.1,13.8.5c-4.6.4-9.2.5-13.8.5s-9.2-.1-13.8-.5Z"/>
      <path class="pl-10" d="m327,346.2h-31c-.4-2.6-.6-5.2-.7-7.8v-31.2h39v31.6c.1,3.2-7.3,7.4-7.3,7.4Z"/>
      <path class="pl-3" d="m334.4,338.8c0,3.1-6.9,7.1-7.3,7.4,1.1-.8,1-6.9,1-6.9,0,0,6.1-.8,6.3-.5Z"/>
      <path class="pl-1" d="m301.1,316.4c4.6-.4,9.2-.5,13.8-.5s9.2.1,13.8.5c-4.6.4-9.2.5-13.8.5s-9.2-.1-13.8-.5Z"/>
      <path class="pl-1" d="m301.1,321.5c3.6-.4,7.2-.5,10.8-.5s7.2.1,10.8.5c-3.6.3-7.2.5-10.8.5s-7.2-.1-10.8-.5Z"/>
      <path class="pl-1" d="m301.1,326.7c3.6-.4,7.2-.5,10.8-.5s7.2.1,10.8.5c-3.6.4-7.2.5-10.8.5s-7.2-.2-10.8-.5Z"/>
      <path class="pl-10" d="m432.5,240.5h-31c-.4-2.6-.6-5.2-.7-7.8v-31.2h39v31.6c0,3.2-7.3,7.4-7.3,7.4Z"/>
      <path class="pl-3" d="m439.8,233.1c0,3.1-6.9,7.1-7.3,7.4,1.1-.8.9-6.9.9-6.9,0,0,6.3-.8,6.4-.5Z"/>
      <path class="pl-1" d="m406.5,210.7c4.6-.4,9.2-.5,13.8-.5s9.2.1,13.8.5c-4.6.4-9.2.5-13.8.5s-9.2-.1-13.8-.5Z"/>
      <path class="pl-1" d="m406.5,215.9c3.6-.4,7.2-.5,10.8-.5s7.2.1,10.8.5c-3.6.4-7.2.5-10.8.5s-7.2-.2-10.8-.5Z"/>
      <path class="pl-1" d="m406.5,221c3.6-.4,7.2-.5,10.8-.5s7.2.1,10.8.5c-3.6.4-7.2.5-10.8.5s-7.2-.1-10.8-.5Z"/>
    </g>
  </g>
</svg>