<svg xmlns="http://www.w3.org/2000/svg" viewBox="0 0 500 500"><g id="freepik--background-complete--inject-37"><path d="M458.55,160H241.7s4.88-17.67,20.07-13.21c0,0,3.12-10.73,11.56-16.3s19.26,0,19.26,0,2.3-8.37,8.29-11.35,12.6,0,12.6,0,6.71-23.52,27.73-23.52c22.32,0,26.1,20.81,26.1,20.81s8.72-15.81,26-11.71c14.45,3.43,17.34,22.32,17.34,22.32a10.59,10.59,0,0,1,8.85,0c4.8,2.17,5.17,8.67,5.17,8.67s6-3.63,11.83,0c6.63,4.15,5.07,14.19,5.07,14.19S451.77,149.64,458.55,160Z" style="fill:#ebebeb"></path><path d="M171.06,117.58H41.45s2.92-9.08,12-6.79a16.85,16.85,0,0,1,6.9-8.38c5.05-2.86,11.52,0,11.52,0s1.37-4.3,4.95-5.83a11.15,11.15,0,0,1,7.53,0s4-12.09,16.58-12.09c13.34,0,15.6,10.7,15.6,10.7a15.1,15.1,0,0,1,15.55-6c8.63,1.76,10.36,11.47,10.36,11.47a7.24,7.24,0,0,1,5.29,0c2.87,1.12,3.09,4.46,3.09,4.46a8.16,8.16,0,0,1,7.07,0c4,2.13,3,7.29,3,7.29A13.22,13.22,0,0,1,171.06,117.58Z" style="fill:#ebebeb"></path><path d="M86.5,289.28a56.38,56.38,0,0,0-1.83,10.36c.09.17.07.82,0,.64,0,.57-.89.47-.89-.09,0-.37,0-.74,0-1.09-2-2.52-5-4.11-7.34-6.29a13.72,13.72,0,0,1-4-6.4c-2-6.79-.13-14-2.5-20.76-2-5.84-5.7-10.92-8.81-16.21-3.27-5.59-5.68-11.48-5.93-18-.19-5,.41-11.71,4.23-15.46,4-4,9.08-1,12.18,2.55,9,10.33,13.16,23.37,14.84,36.71.93,7.38,1.89,14.81,1.67,22.26A60.16,60.16,0,0,1,86.5,289.28Z" style="fill:#ebebeb"></path><path d="M84.71,302.35a128.06,128.06,0,0,0-.25-20.91s0,0,0-.08c.12-5.65.57-11.28.34-16.94a100.41,100.41,0,0,0-2.49-18.18c0-.07-.12-.05-.11,0a117.84,117.84,0,0,1,2,17.77c.12,3.2.09,6.39-.07,9.59-.06,1-.16,2.08-.23,3.13h0a111.84,111.84,0,0,0-16.82-44.51c-.11-.19-.44,0-.32.2a116.45,116.45,0,0,1,13.69,33c-4.33-8-10.86-14.6-15.71-22.3,0,0-.1,0-.07,0C69,251.75,76.21,258.51,80.8,267q1.2,5.16,1.93,10.42a114.85,114.85,0,0,1,1,14.46c-2.63-4.92-5.36-9.63-7.52-14.84a.11.11,0,0,0-.21.09c1.83,5.41,4.3,11.24,7.75,15.85q0,5.15-.29,10.27c-.53,9.14-2.09,18.14-2.81,27.25,0,.27.36.3.41,0A209.63,209.63,0,0,0,84.71,302.35Z" style="fill:#a6a6a6"></path><path d="M75,231.94a.05.05,0,1,0-.1,0c1.67,4.61,2.61,9.29,3.81,14a.18.18,0,0,0,.35-.05A50.43,50.43,0,0,0,75,231.94Z" style="fill:#a6a6a6"></path><path d="M117.36,251.26a67.45,67.45,0,0,1-3.84,7.88c-3,5.46-6.13,10.45-6.7,16.81a38.44,38.44,0,0,1-1.21,8.41,25.13,25.13,0,0,1-3.35,6.59c-3.26,4.74-7.32,8.83-10.34,13.75a57.93,57.93,0,0,0-6.87,16.56c-.07.32-.58.24-.5-.08l0-.08a.09.09,0,0,1,0-.06c-.48-13.62.61-27.34,4.76-40.39a138.91,138.91,0,0,1,6.6-16.79A39.67,39.67,0,0,1,104.8,251c2.53-2.28,8-6.6,11.64-4.31C118.17,247.83,118,249.56,117.36,251.26Z" style="fill:#ebebeb"></path><path d="M103.67,282.13a111.11,111.11,0,0,1-7.91,11.38l-4,5.15c-.62.81-1.32,1.62-1.89,2.5.36-1.43.71-2.87,1.08-4.3C92.73,290,94.42,283,97,276.43a138.72,138.72,0,0,1,9.45-18.54c.1-.15-.16-.27-.25-.12-2.88,4.74-5.8,9.46-8.22,14.45a76.55,76.55,0,0,0-3.49,8.57,132,132,0,0,1,4.65-18.31c0-.06-.06-.1-.09,0a62.81,62.81,0,0,0-4.81,19.05,0,0,0,0,0,0,0q-.89,2.66-1.64,5.35c-2.15,7.62-4,15.32-5.78,23a81.86,81.86,0,0,1,1.32-15.14c0-.12-.15-.14-.18,0a48,48,0,0,0-1.32,16q-1,4.41-1.93,8.82c-1.34,6.28-3,12.67-3.76,19a.13.13,0,0,0,.25,0c.93-3.43,1.5-7,2.26-10.47s1.56-7,2.37-10.45c1.18-5.07,2.42-10.12,3.68-15.17.85-1.85,2.48-3.49,3.7-5,1.34-1.71,2.68-3.41,4-5.14a76.25,76.25,0,0,0,6.55-10.14C103.84,282.11,103.72,282.06,103.67,282.13Z" style="fill:#a6a6a6"></path><path d="M104.26,276.31a70.9,70.9,0,0,0-7.75,12.3c0,.06.06.12.1.06,2.6-4.08,5.16-8.2,7.77-12.28C104.42,276.32,104.3,276.25,104.26,276.31Z" style="fill:#a6a6a6"></path><path d="M46.29,264.17c1.77,3,3.78,6.69,3,10.34-.48,2.31-2.17,4.19-2.47,6.54-.69,5.2,4.5,8.64,8.25,11.1,9.35,6.13,22.17,11.6,23.87,24.13.06.44.83.33.78-.1a.29.29,0,0,0,0-.09s0,0,0-.07a48,48,0,0,0-.17-19.13c-1.4-6.46-4.21-12.26-7.54-17.93-5.63-9.6-11.59-19.43-20.09-26.79-2.36-2-7.18-5.69-9.06-1.1S44.13,260.47,46.29,264.17Z" style="fill:#ebebeb"></path><path d="M54.85,284.53c6.2,6.71,16.05,10.47,21.39,18A75.19,75.19,0,0,0,59.8,271.64c-.21-.23.12-.56.34-.35a61,61,0,0,1,13.44,19.46A87.74,87.74,0,0,0,67.79,276a.16.16,0,0,1,.28-.16,56.63,56.63,0,0,1,6.23,16.63c7,17,7.68,37,6.21,54.92,0,.25-.41.26-.4,0,.4-14.14.17-28.52-3.22-42.33-.07-.29-.15-.57-.22-.86-5.8-8.09-15.62-11.84-21.93-19.53C54.68,284.56,54.78,284.45,54.85,284.53Z" style="fill:#a6a6a6"></path><path d="M53.41,278.76c3.26,3,6.46,6,9.72,9,0,0,0,.09-.05.07A47.68,47.68,0,0,1,53.22,279C53.11,278.82,53.28,278.64,53.41,278.76Z" style="fill:#a6a6a6"></path><path d="M52.9,265.83a102.06,102.06,0,0,0,9.73,13.39.06.06,0,1,1-.08.08,47.2,47.2,0,0,1-9.83-13.37A.1.1,0,0,1,52.9,265.83Z" style="fill:#a6a6a6"></path><polygon points="67.55 360 96.05 360 92.21 321.65 71.94 321.65 67.55 360" style="fill:#ebebeb"></polygon><polygon points="71.22 327.89 92.84 327.89 92.21 321.65 71.94 321.65 71.22 327.89" style="fill:#c7c7c7"></polygon><rect x="68.44" y="317.4" width="26.72" height="6.12" transform="translate(163.6 640.93) rotate(180)" style="fill:#ebebeb"></rect></g><g id="freepik--Floor--inject-37"><polygon points="41.45 359.87 93.59 359.63 145.73 359.54 250 359.37 354.27 359.54 406.41 359.63 458.55 359.87 406.41 360.12 354.27 360.2 250 360.37 145.73 360.2 93.59 360.12 41.45 359.87" style="fill:#263238"></polygon></g><g id="freepik--Shadow--inject-37"><ellipse cx="250" cy="443.22" rx="192.03" ry="19.57" style="fill:#ebebeb"></ellipse></g><g id="freepik--Puddles--inject-37"><path d="M141.32,444.08c0,2.84-13.8,5.15-30.81,5.15s-30.82-2.31-30.82-5.15,13.8-5.16,30.82-5.16S141.32,441.23,141.32,444.08Z" style="fill:#c7c7c7"></path><path d="M97.65,446.25a59.9,59.9,0,0,1-6.82-.69,11.55,11.55,0,0,1-3.33-.92,1.26,1.26,0,0,1-.35-.31.67.67,0,0,1-.09-.26.54.54,0,0,1,.09-.25,1.74,1.74,0,0,1,.75-.51,9.93,9.93,0,0,1,1.66-.51,56,56,0,0,1,6.8-.88c2.28-.15,4.57-.23,6.85-.32l-6.83.49a53,53,0,0,0-6.77,1,9.1,9.1,0,0,0-1.62.47,1.53,1.53,0,0,0-.66.42c-.16.18.06.39.28.52a11.52,11.52,0,0,0,3.24.94C93.1,445.79,95.37,446,97.65,446.25Z" style="fill:#fff"></path><path d="M110.51,446.68c-1.63.07-3.26,0-4.89,0s-3.25-.1-4.88-.24c1.64-.07,3.26,0,4.89,0S108.88,446.54,110.51,446.68Z" style="fill:#fff"></path><path d="M128.23,445.77c-1.08.2-2.17.31-3.26.42s-2.18.18-3.28.18c1.09-.21,2.17-.31,3.26-.42S127.13,445.77,128.23,445.77Z" style="fill:#fff"></path><path d="M110.51,441.47q3,0,5.94.07c2,0,4,0,6,.22s3.95.33,5.92.55c1,.14,2,.3,2.94.51a14.59,14.59,0,0,1,1.43.42,3.43,3.43,0,0,1,.68.3c.21.12.45.28.47.54,0-.26-.28-.4-.48-.51a4.53,4.53,0,0,0-.69-.28c-.47-.14-.95-.25-1.44-.35-1-.2-1.95-.34-2.93-.46-2-.19-4-.31-5.92-.47s-3.95-.23-5.93-.31S112.49,441.57,110.51,441.47Z" style="fill:#fff"></path><path d="M101.25,445.35a46.92,46.92,0,0,1-4.88-.37,10.18,10.18,0,0,1-2.41-.52.76.76,0,0,1-.29-.2.27.27,0,0,1,0-.4,1.61,1.61,0,0,1,.58-.3,8.52,8.52,0,0,1,1.21-.29,72.35,72.35,0,0,1,9.75-.64c-1.62.13-3.25.22-4.87.32s-3.25.28-4.84.56a9.19,9.19,0,0,0-1.18.27,1.44,1.44,0,0,0-.5.23c-.07.06,0,.07,0,.12a.7.7,0,0,0,.21.14,10.11,10.11,0,0,0,2.34.55C98,445.05,99.62,445.2,101.25,445.35Z" style="fill:#fff"></path><path d="M110.51,445.6c-1.18.08-2.35.06-3.52.06s-2.35-.07-3.51-.2c1.17-.08,2.34-.06,3.51,0S109.33,445.47,110.51,445.6Z" style="fill:#fff"></path><path d="M123.27,445.07a23.22,23.22,0,0,1-2.35.3,20.62,20.62,0,0,1-2.36,0,20.66,20.66,0,0,1,2.35-.29A18.52,18.52,0,0,1,123.27,445.07Z" style="fill:#fff"></path><path d="M110.51,442.56c1.41,0,2.83,0,4.25,0s2.85,0,4.26.11l4.25.34c.71.08,1.41.17,2.11.3.35.07.7.15,1,.25a3.45,3.45,0,0,1,.51.18c.15.07.35.15.38.34,0-.18-.24-.25-.4-.31a2.88,2.88,0,0,0-.5-.15c-.35-.08-.7-.14-1-.19-.7-.11-1.4-.19-2.11-.26l-4.24-.25c-1.41-.14-2.83-.14-4.25-.19S111.92,442.63,110.51,442.56Z" style="fill:#fff"></path><ellipse cx="385.38" cy="387.09" rx="30.82" ry="5.15" style="fill:#c7c7c7"></ellipse><path d="M371.55,389.85a51.93,51.93,0,0,1-6.9-.91,16.85,16.85,0,0,1-1.69-.45,5,5,0,0,1-1.6-.75.77.77,0,0,1-.35-.86,1.48,1.48,0,0,1,.65-.66,7.85,7.85,0,0,1,1.63-.66,41.4,41.4,0,0,1,6.88-1.17c2.31-.2,4.63-.31,6.95-.44l-6.93.61a42.19,42.19,0,0,0-6.82,1.23,7.64,7.64,0,0,0-1.59.63,1.3,1.3,0,0,0-.57.54.58.58,0,0,0,.28.62,5.05,5.05,0,0,0,1.53.74c.54.18,1.11.32,1.67.46A68.88,68.88,0,0,0,371.55,389.85Z" style="fill:#fff"></path><path d="M384.41,390.4c-1.62.05-3.25,0-4.88,0s-3.26-.12-4.88-.27c1.64-.06,3.26,0,4.89,0S382.79,390.25,384.41,390.4Z" style="fill:#fff"></path><path d="M402.14,389.24c-1.07.23-2.17.36-3.26.5s-2.18.23-3.28.26c1.08-.23,2.17-.36,3.25-.5S401,389.27,402.14,389.24Z" style="fill:#fff"></path><path d="M384.41,383.79q3,0,6,.1c2,.06,4,0,6,.3s4,.42,6,.71a27.48,27.48,0,0,1,2.93.66,9.25,9.25,0,0,1,1.41.53c.42.22,1,.47,1,1-.08-.52-.63-.75-1.06-.95a11.1,11.1,0,0,0-1.41-.47c-1-.25-1.95-.45-2.93-.61-2-.26-4-.41-6-.62a59.81,59.81,0,0,0-6-.38Q387.41,384,384.41,383.79Z" style="fill:#fff"></path><path d="M375.15,388.7a38.85,38.85,0,0,1-4.92-.49,8.3,8.3,0,0,1-2.4-.68.84.84,0,0,1-.26-.24.52.52,0,0,1-.07-.2c0-.06,0-.15.07-.2a1.17,1.17,0,0,1,.54-.39,7.58,7.58,0,0,1,1.2-.38,38.83,38.83,0,0,1,4.91-.65c1.65-.11,3.29-.16,4.94-.21-1.64.15-3.28.26-4.93.38a37.71,37.71,0,0,0-4.86.72,6.58,6.58,0,0,0-1.17.35,1.08,1.08,0,0,0-.45.3c-.1.1,0,.24.19.34a8.22,8.22,0,0,0,2.32.7C371.88,388.34,373.52,388.53,375.15,388.7Z" style="fill:#fff"></path><path d="M384.41,389c-1.17.08-2.34.06-3.51,0s-2.35-.08-3.52-.21c1.18-.08,2.35-.05,3.52,0S383.24,388.89,384.41,389Z" style="fill:#fff"></path><path d="M397.18,388.35a23.38,23.38,0,0,1-4.71.44,21,21,0,0,1,2.34-.35A23.25,23.25,0,0,1,397.18,388.35Z" style="fill:#fff"></path><path d="M384.41,385.16q2.14,0,4.29,0c1.43,0,2.86,0,4.29.15s2.85.26,4.27.42c.7.11,1.41.23,2.11.39.35.09.69.19,1,.31s.73.26.82.63c-.11-.36-.53-.45-.84-.57a9.26,9.26,0,0,0-1-.25c-.69-.15-1.4-.25-2.11-.34-1.42-.14-2.84-.22-4.26-.34s-2.85-.18-4.28-.24S385.84,385.25,384.41,385.16Z" style="fill:#fff"></path><ellipse cx="405.9" cy="392.25" rx="11.22" ry="1.95" style="fill:#c7c7c7"></ellipse><path d="M409.79,391.44a13.6,13.6,0,0,1,2.11.22,2.59,2.59,0,0,1,1,.38.32.32,0,0,1,.13.35.52.52,0,0,1-.23.25,2.07,2.07,0,0,1-.51.22,15.77,15.77,0,0,1-4.21.42,29.76,29.76,0,0,0,4.14-.66c.29-.07.76-.28.53-.41a2.87,2.87,0,0,0-.93-.36C411.18,391.68,410.49,391.56,409.79,391.44Z" style="fill:#fff"></path><path d="M405.9,391.27a8.21,8.21,0,0,1,1.48-.08,8,8,0,0,1,1.47.18,9,9,0,0,1-1.47.07A8.4,8.4,0,0,1,405.9,391.27Z" style="fill:#fff"></path><path d="M400.55,391.63a3.63,3.63,0,0,1,1-.24,3.72,3.72,0,0,1,1,0,3.83,3.83,0,0,1-1,.24A4.19,4.19,0,0,1,400.55,391.63Z" style="fill:#fff"></path><path d="M405.9,393.33c-.6,0-1.21,0-1.82,0a13.93,13.93,0,0,1-1.82-.08c-.6-.08-1.21-.13-1.81-.23-.29-.07-.59-.14-.88-.24a2,2,0,0,1-.42-.19c-.13-.07-.29-.16-.3-.33.11.29.48.32.75.4a8.74,8.74,0,0,0,.89.17l1.8.17a17.94,17.94,0,0,0,1.8.14C404.7,393.22,405.3,393.27,405.9,393.33Z" style="fill:#fff"></path><path d="M408.7,391.8a10.92,10.92,0,0,1,1.51.08,2.45,2.45,0,0,1,.75.22c.05,0,.2.16.11.3a.39.39,0,0,1-.2.16,1.9,1.9,0,0,1-.38.13,12.62,12.62,0,0,1-3,.19c1-.17,2-.2,2.95-.43.21,0,.55-.21.4-.16a2.51,2.51,0,0,0-.67-.22C409.69,392,409.2,391.89,408.7,391.8Z" style="fill:#fff"></path><path d="M405.9,391.7a4.85,4.85,0,0,1,1.07-.1,4.32,4.32,0,0,1,1.06.16,4.3,4.3,0,0,1-1.07.09A4.37,4.37,0,0,1,405.9,391.7Z" style="fill:#fff"></path><path d="M402.05,391.91a2.15,2.15,0,0,1,.69-.19,2,2,0,0,1,.73,0,2.06,2.06,0,0,1-.7.2A2.22,2.22,0,0,1,402.05,391.91Z" style="fill:#fff"></path><path d="M405.9,392.91a17.35,17.35,0,0,1-2.6,0c-.43-.05-.86-.08-1.29-.14-.22-.05-.43-.09-.64-.15s-.46-.12-.55-.34c.12.18.38.18.58.22l.63.08,1.29.09c.43.06.86.05,1.29.09S405.47,392.85,405.9,392.91Z" style="fill:#fff"></path><ellipse cx="405.9" cy="440.87" rx="41.73" ry="7.5" style="fill:#c7c7c7"></ellipse><path d="M423.5,444.54a84.73,84.73,0,0,0,9.39-1.56,22.74,22.74,0,0,0,2.27-.68,6.54,6.54,0,0,0,2.06-1.08.89.89,0,0,0,.38-.93,1.65,1.65,0,0,0-.72-.81,9.56,9.56,0,0,0-2.14-1,53.51,53.51,0,0,0-9.32-1.82c-1.57-.2-3.16-.28-4.74-.43l-4.74-.43c3.17.21,6.34.38,9.5.69a52.47,52.47,0,0,1,9.37,1.76,9.64,9.64,0,0,1,2.2,1,1.9,1.9,0,0,1,.8.94,1.09,1.09,0,0,1-.45,1.14,6.83,6.83,0,0,1-2.14,1.11,23,23,0,0,1-2.29.66A66.82,66.82,0,0,1,423.5,444.54Z" style="fill:#fff"></path><path d="M406,445.34l13.27-.44c-2.2.26-4.41.37-6.63.46S408.23,445.45,406,445.34Z" style="fill:#fff"></path><path d="M381.92,443.64l4.45.53c1.47.19,3,.35,4.44.58-1.5,0-3-.17-4.47-.33A40.85,40.85,0,0,1,381.92,443.64Z" style="fill:#fff"></path><path d="M406,435.61c-5.46.11-10.92.28-16.35.82-2.72.24-5.43.55-8.12,1a35.88,35.88,0,0,0-4,.92,12.87,12.87,0,0,0-1.91.71,4,4,0,0,0-.86.54,1.15,1.15,0,0,0-.51.84,1.2,1.2,0,0,1,.49-.87,4,4,0,0,1,.85-.56,13.08,13.08,0,0,1,1.9-.78,36.76,36.76,0,0,1,4-1c2.69-.51,5.4-.85,8.12-1.12A160,160,0,0,1,406,435.61Z" style="fill:#fff"></path><path d="M418.61,442.85c2.24-.24,4.47-.5,6.68-.93.55-.12,1.09-.24,1.63-.4a5.25,5.25,0,0,0,1.52-.63c.22-.14.4-.36.28-.55a1.47,1.47,0,0,0-.61-.47,8.87,8.87,0,0,0-1.58-.52,47.56,47.56,0,0,0-6.64-1.05l-6.73-.53c2.25.1,4.5.19,6.75.36a47.54,47.54,0,0,1,6.69,1,8.79,8.79,0,0,1,1.61.56,1.52,1.52,0,0,1,.7.57.71.71,0,0,1,.06.25.67.67,0,0,1-.08.25,1.11,1.11,0,0,1-.33.32,5.31,5.31,0,0,1-1.59.64c-.54.16-1.1.27-1.65.38A56.26,56.26,0,0,1,418.61,442.85Z" style="fill:#fff"></path><path d="M406,443.32c1.59-.15,3.18-.2,4.77-.26s3.19-.06,4.78,0c-1.58.14-3.18.19-4.77.25S407.61,443.38,406,443.32Z" style="fill:#fff"></path><path d="M388.67,442.32c1.08,0,2.14.11,3.21.2s2.13.24,3.19.45c-1.08,0-2.15-.11-3.22-.2S389.72,442.53,388.67,442.32Z" style="fill:#fff"></path><path d="M406,437.63c-1.95.1-3.89.19-5.84.25s-3.89.08-5.82.33-3.88.3-5.82.52c-1,.13-1.92.29-2.87.51a13.85,13.85,0,0,0-1.4.39,5.58,5.58,0,0,0-.66.3.85.85,0,0,0-.44.54.78.78,0,0,1,.43-.56,3.61,3.61,0,0,1,.65-.33,10.92,10.92,0,0,1,1.4-.46c.94-.23,1.9-.41,2.87-.56,1.93-.24,3.88-.4,5.82-.6s3.89-.2,5.84-.25S404.07,437.64,406,437.63Z" style="fill:#fff"></path><ellipse cx="265.03" cy="422.82" rx="24.65" ry="3.93" style="fill:#c7c7c7"></ellipse><path d="M254.62,423.86a53.41,53.41,0,0,1-5.5-.45,10.7,10.7,0,0,1-2.7-.63,1,1,0,0,1-.31-.23.36.36,0,0,1-.08-.23.38.38,0,0,1,.1-.21,1.62,1.62,0,0,1,.65-.36,10.71,10.71,0,0,1,1.35-.35,53.34,53.34,0,0,1,5.48-.59c1.84-.1,3.68-.15,5.51-.19-1.83.14-3.66.25-5.49.36a52,52,0,0,0-5.45.67,9.42,9.42,0,0,0-1.32.32,1.63,1.63,0,0,0-.56.28c-.15.11,0,.24.21.35a11.46,11.46,0,0,0,2.64.65C251,423.52,252.79,423.69,254.62,423.86Z" style="fill:#fff"></path><path d="M265,424.17c-1.32.07-2.64.05-4,0s-2.63-.08-3.94-.21c1.32-.08,2.63-.06,3.95,0S263.71,424,265,424.17Z" style="fill:#fff"></path><path d="M279.38,423.53a25.88,25.88,0,0,1-2.63.33,23.64,23.64,0,0,1-2.66.08c.88-.17,1.76-.24,2.64-.33S278.49,423.5,279.38,423.53Z" style="fill:#fff"></path><path d="M265,420.52c1.6,0,3.2,0,4.8,0s3.2,0,4.79.14l4.78.4c.8.1,1.59.21,2.38.36.39.08.78.17,1.17.29a5.42,5.42,0,0,1,.56.22c.17.09.39.19.42.4,0-.21-.26-.3-.43-.37a4.23,4.23,0,0,0-.57-.19c-.39-.1-.78-.17-1.17-.23-.79-.13-1.58-.23-2.37-.31l-4.78-.32c-1.59-.16-3.19-.16-4.79-.22S266.63,420.61,265,420.52Z" style="fill:#fff"></path><path d="M257.53,423.23c-1.31,0-2.62-.07-3.93-.22a11.07,11.07,0,0,1-2-.36,1,1,0,0,1-.25-.15s-.1-.13-.06-.2a.25.25,0,0,1,.11-.16,1.81,1.81,0,0,1,.49-.2,8.52,8.52,0,0,1,1-.2,60.84,60.84,0,0,1,7.87-.4c-1.31.1-2.62.17-3.93.24s-2.62.2-3.91.4c-.32,0-.64.1-.95.18a1.6,1.6,0,0,0-.42.16c-.06.05,0,0,0,0a1.09,1.09,0,0,0,.17.1,9.84,9.84,0,0,0,1.9.38C254.92,423,256.22,423.11,257.53,423.23Z" style="fill:#fff"></path><path d="M265,423.41a27.12,27.12,0,0,1-2.85.07c-.95,0-1.9-.05-2.84-.17a27.12,27.12,0,0,1,2.85-.07C263.13,423.27,264.08,423.29,265,423.41Z" style="fill:#fff"></path><path d="M275.36,423a13.38,13.38,0,0,1-1.89.24,13.67,13.67,0,0,1-1.92,0,13.74,13.74,0,0,1,1.9-.25A13.53,13.53,0,0,1,275.36,423Z" style="fill:#fff"></path><path d="M265,421.28c1.14,0,2.29,0,3.44,0s2.29,0,3.44.07,2.29.14,3.43.24c.57.06,1.14.13,1.71.23a8.39,8.39,0,0,1,.84.18,2,2,0,0,1,.41.13c.13,0,.3.1.34.25-.05-.15-.22-.18-.35-.23a2.71,2.71,0,0,0-.41-.09,8.27,8.27,0,0,0-.85-.12c-.57-.07-1.14-.12-1.71-.16l-3.43-.18c-1.14-.1-2.28-.08-3.43-.13S266.17,421.35,265,421.28Z" style="fill:#fff"></path><ellipse cx="153.64" cy="451.58" rx="41.73" ry="7.5" style="fill:#c7c7c7"></ellipse><path d="M172.31,446.67a69.9,69.9,0,0,1,10.16,1.58,24.18,24.18,0,0,1,2.47.75,7,7,0,0,1,2.28,1.23,1.27,1.27,0,0,1,.48,1.23,1.94,1.94,0,0,1-.84,1,9.87,9.87,0,0,1-2.34,1.12,55.07,55.07,0,0,1-10.09,2c-3.41.35-6.84.54-10.25.79l5.12-.48c1.7-.17,3.41-.25,5.11-.48a54.09,54.09,0,0,0,10-2.05,9.75,9.75,0,0,0,2.29-1.06,1.73,1.73,0,0,0,.75-.91,1,1,0,0,0-.41-1,6.82,6.82,0,0,0-2.2-1.21,25.54,25.54,0,0,0-2.44-.76A86.27,86.27,0,0,0,172.31,446.67Z" style="fill:#fff"></path><path d="M153.51,445.77c2.38-.1,4.77-.07,7.15,0s4.76.22,7.12.5Z" style="fill:#fff"></path><path d="M127.6,447.68a42.19,42.19,0,0,1,4.75-.86c1.59-.19,3.2-.34,4.8-.38-1.59.24-3.18.41-4.77.63Z" style="fill:#fff"></path><path d="M153.51,456.66a170.41,170.41,0,0,1-17.64-.66c-2.93-.3-5.85-.68-8.75-1.25a37.23,37.23,0,0,1-4.28-1.08,13.59,13.59,0,0,1-2-.87,4.69,4.69,0,0,1-.9-.63,1.37,1.37,0,0,1-.51-.95,1.33,1.33,0,0,0,.53.93,4.62,4.62,0,0,0,.91.6,13.82,13.82,0,0,0,2,.8,38.69,38.69,0,0,0,4.28,1c2.88.54,5.81.89,8.73,1.16C141.74,456.35,147.63,456.55,153.51,456.66Z" style="fill:#fff"></path><path d="M167.05,448.56a58.7,58.7,0,0,1,7.23.87c.59.13,1.19.25,1.77.43a5.63,5.63,0,0,1,1.7.71c.25.15.56.52.38.89a1.69,1.69,0,0,1-.73.63,8.64,8.64,0,0,1-1.74.63,48.73,48.73,0,0,1-7.2,1.1c-2.42.19-4.85.3-7.27.42l7.25-.58a50.43,50.43,0,0,0,7.16-1.18,9.65,9.65,0,0,0,1.69-.59,1.46,1.46,0,0,0,.64-.52c.11-.22-.06-.47-.3-.63A5.4,5.4,0,0,0,176,450c-.58-.18-1.17-.32-1.76-.45C171.87,449.12,169.46,448.83,167.05,448.56Z" style="fill:#fff"></path><path d="M153.51,448c1.72-.06,3.43,0,5.14,0s3.43.12,5.14.27c-1.72.05-3.43,0-5.14,0S155.22,448.19,153.51,448Z" style="fill:#fff"></path><path d="M134.85,449.15c1.14-.22,2.28-.35,3.43-.49s2.3-.22,3.45-.23c-1.13.22-2.28.35-3.42.48S136,449.13,134.85,449.15Z" style="fill:#fff"></path><path d="M153.51,454.39q-3.13,0-6.29-.09c-2.1-.06-4.2,0-6.29-.29s-4.18-.4-6.26-.67c-1-.17-2.07-.36-3.09-.63a12.41,12.41,0,0,1-1.49-.5,4.24,4.24,0,0,1-.7-.37.87.87,0,0,1-.44-.62.85.85,0,0,0,.46.59,3.49,3.49,0,0,0,.7.34,11.2,11.2,0,0,0,1.5.44c1,.25,2,.43,3.09.58,2.08.25,4.17.39,6.25.59s4.18.28,6.28.37S151.42,454.29,153.51,454.39Z" style="fill:#fff"></path><path d="M74.8,408.73c0,1.07-5,1.95-11.22,1.95s-11.22-.88-11.22-1.95,5-2,11.22-2S74.8,407.65,74.8,408.73Z" style="fill:#c7c7c7"></path><path d="M59.08,409.71a15.43,15.43,0,0,1-2.43-.26,3,3,0,0,1-1.18-.44.34.34,0,0,1-.15-.38.55.55,0,0,1,.26-.28,2.9,2.9,0,0,1,.58-.25,19.57,19.57,0,0,1,4.87-.5,34.37,34.37,0,0,0-4.79.74,2.89,2.89,0,0,0-.54.21c-.16.12-.23.18-.09.29a3.43,3.43,0,0,0,1.08.42C57.48,409.45,58.28,409.58,59.08,409.71Z" style="fill:#fff"></path><path d="M63.58,409.91a12.23,12.23,0,0,1-1.71.07,10.77,10.77,0,0,1-1.7-.18,9.79,9.79,0,0,1,1.71-.07A10.9,10.9,0,0,1,63.58,409.91Z" style="fill:#fff"></path><path d="M69.78,409.49a4.8,4.8,0,0,1-1.12.26,5,5,0,0,1-1.16,0,5,5,0,0,1,1.12-.26A5.62,5.62,0,0,1,69.78,409.49Z" style="fill:#fff"></path><path d="M63.58,407.54c.7,0,1.4,0,2.11,0a16.4,16.4,0,0,1,2.1.09c.7.09,1.4.15,2.09.27a9.13,9.13,0,0,1,1,.26,4.25,4.25,0,0,1,.49.21c.14.08.34.19.35.38,0-.19-.23-.26-.38-.33a4.5,4.5,0,0,0-.49-.14,7.18,7.18,0,0,0-1-.19l-2.08-.21a20.76,20.76,0,0,0-2.09-.15C65,407.67,64.28,407.61,63.58,407.54Z" style="fill:#fff"></path><path d="M60.34,409.3a11.17,11.17,0,0,1-1.73-.11,2.67,2.67,0,0,1-.87-.25.35.35,0,0,1-.12-.1.22.22,0,0,1,0-.22.56.56,0,0,1,.22-.18,3.73,3.73,0,0,1,.44-.14,14.93,14.93,0,0,1,3.46-.23c-1.14.18-2.3.21-3.41.47a2.52,2.52,0,0,0-.39.12l-.12.07s0,0,0,0a3,3,0,0,0,.78.25C59.2,409.12,59.77,409.21,60.34,409.3Z" style="fill:#fff"></path><path d="M63.58,409.42a6.37,6.37,0,0,1-1.23.09,5.76,5.76,0,0,1-1.23-.16,5.8,5.8,0,0,1,1.24-.09A5.17,5.17,0,0,1,63.58,409.42Z" style="fill:#fff"></path><path d="M68.05,409.17a2.69,2.69,0,0,1-1.65.16,2.67,2.67,0,0,1,.81-.2A3,3,0,0,1,68.05,409.17Z" style="fill:#fff"></path><path d="M63.58,408a23.26,23.26,0,0,1,3,0c.5.06,1,.09,1.5.16.25.05.49.1.74.17s.53.13.63.38c-.13-.22-.43-.21-.66-.26s-.49-.07-.74-.09l-1.49-.11c-.49-.07-1-.06-1.49-.1S64.08,408.09,63.58,408Z" style="fill:#fff"></path></g><g id="freepik--Character--inject-37"><path d="M152.89,267.38c19.47,24.26,54.35,59.89,65.93,58.58,10.33-1.18,47.59-9.17,66.06-21.8,4.78-3.27-14.81-46.31-19.6-42.39C255.22,270,230.05,280.39,223.14,282c-6.15,1.4-42.82-22.59-62.89-32.57C135.89,237.27,145.13,257.71,152.89,267.38Z" style="fill:#d3766a"></path><path d="M256.83,268.86l12.62,21.29.05.08.28.47,9.56,16.16a38.42,38.42,0,0,0,4.4-1.36h0a159,159,0,0,0,31.87-16.26c6.05-4.17,22.17-18,19.31-22.87s-7.91-1.28-7.91-1.28,5.94-6.85,2.63-11.51c-2.73-3.82-8.37-.56-10.34.74l-.31.21,0,0-.34.25s5.59-7.49,2-11.89c-3.25-3.94-9,1.41-10.16,2.58l-.15.15s.06-.08.09-.14c.87-1.13,4.77-6.64.72-8.77-5.44-2.85-14.06,10.47-21,14.73-.35.21-2.15,1.16-4.75,2.55-3,1.57-7,3.65-11.09,5.79Z" style="fill:#d3766a"></path><path d="M288.87,263.8a65.15,65.15,0,0,0,9.73-4.12c5.11-2.84,8.81-6.64,11.91-13.67.14-.3.06-.49-.09-.53a.06.06,0,0,0-.06,0c-.11,0-.22.08-.34.25-3.88,6-7.08,9.49-11.36,12.4a64.35,64.35,0,0,1-9.91,5.33C288.55,263.56,288.65,263.89,288.87,263.8Z" style="fill:#263238"></path><path d="M296.27,273.65c10.84-4.85,17-8.15,23.17-18.7.2-.32.08-.64-.13-.64a.38.38,0,0,0-.29.18s0,0,0,0l0,0c-7.45,9.53-12.28,13-22.82,18.83C296,273.45,296.12,273.71,296.27,273.65Z" style="fill:#263238"></path><path d="M326.37,265.84c-7.93,8.75-13.05,12.8-24,17.14a.22.22,0,0,0,.14.41c11.61-3.34,18-8.35,24.12-17.28C327,265.5,326.86,265.29,326.37,265.84Z" style="fill:#263238"></path><path d="M273.2,287.08a11.37,11.37,0,0,0,1.29-1.31l.34-.41a.1.1,0,0,0,0,0c6-7.87.83-21.39.83-21.39a56.16,56.16,0,0,0,8.79-4.37c4-2.47,7.74-5.51,9-8.64,0,0,0,0,0,0a5.45,5.45,0,0,0,.43-2.57,4.76,4.76,0,0,0-.31-1.38.34.34,0,0,0-.06-.12c-1.11-2.4-7.26-1.87-13.95-.23-7.35,1.8-15.35,5-18.05,7-3.46,2.7-13,18.12-13,18.12S264.71,294.48,273.2,287.08Z" style="fill:#d3766a"></path><path d="M293.68,249.06c-2.1,7.92-11.61,10.95-18.26,14.15a.68.68,0,0,0-.22,1.09c2.09,6.76,3.07,16.92-1.53,22.81a.17.17,0,0,0,.25.24c5.79-5.66,5.64-15.71,2.88-23,6.87-3.17,16.27-6.63,17-15.3C293.76,249,293.69,249,293.68,249.06Z" style="fill:#263238"></path><path d="M273.56,312.58l-26.8-42.06s-20.38,10.35-24.26,10.67-49.91-27.38-65-33.8-17.08,1.38-7,17.77,53.24,59.47,64.85,61.64S273.56,312.58,273.56,312.58Z" style="fill:#A285D5"></path><path d="M174.47,271.59a1.81,1.81,0,0,1-.88.45,1.79,1.79,0,0,1-1.66-.51,2.27,2.27,0,0,0-2.52-.43,4.4,4.4,0,0,0-1.58,1.76c.33-.19.63-.43.95-.64a1.9,1.9,0,0,1,.87-.48,1.74,1.74,0,0,1,1.66.43,2.29,2.29,0,0,0,2.49.52c.87-.38,1.19-1.13,1.62-1.74C175.08,271.14,174.79,271.38,174.47,271.59Zm92.34,43.27,1.14-.37A2.23,2.23,0,0,0,266.81,314.86Zm3.28-3.34c-.1.38-.15.75-.22,1.13a1.9,1.9,0,0,1-.28,1,1.65,1.65,0,0,1-.41.46l1.07-.36h0A5,5,0,0,0,270.09,311.52Zm-27.92-14.89c-.1.38-.14.75-.22,1.13a2,2,0,0,1-.27.95,1.77,1.77,0,0,1-1.49.87,2.3,2.3,0,0,0-2.13,1.4,4.11,4.11,0,0,0,.09,2.37c.1-.37.15-.75.22-1.13a1.82,1.82,0,0,1,1.84-1.75,2.26,2.26,0,0,0,2.08-1.47A4.47,4.47,0,0,0,242.17,296.63Zm-33.83,20c-.1.38-.14.75-.22,1.13a1.94,1.94,0,0,1-.28,1,1.75,1.75,0,0,1-1.48.86,2.34,2.34,0,0,0-2,1.06l.61.44a1.77,1.77,0,0,1,1.36-.61,2.25,2.25,0,0,0,2.09-1.47A4.47,4.47,0,0,0,208.34,316.65ZM191.1,265.09l0,.1a4,4,0,0,0,.09,2.37c.1-.37.14-.75.22-1.12a1.84,1.84,0,0,1,.3-.94l.05-.07Zm-19,25.2c-.06.23-.1.46-.14.69l.35.36C172.3,291,172.2,290.64,172.14,290.29Zm-18.33-34.36c-.1.38-.14.75-.22,1.13a2,2,0,0,1-.27.95,1.77,1.77,0,0,1-1.49.87,2.3,2.3,0,0,0-2.13,1.4,4.11,4.11,0,0,0,.09,2.37c.1-.37.15-.75.22-1.12a1.84,1.84,0,0,1,.3-.94,1.81,1.81,0,0,1,1.53-.82,2.26,2.26,0,0,0,2.09-1.47A4.47,4.47,0,0,0,153.81,255.93Zm45.6,28.13a2,2,0,0,1-.88.48,1.74,1.74,0,0,1-1.66-.44,2.27,2.27,0,0,0-2.49-.51c-.87.38-1.19,1.13-1.62,1.74.34-.2.63-.43,1-.64a1.81,1.81,0,0,1,.88-.45,1.78,1.78,0,0,1,1.66.5,2.28,2.28,0,0,0,2.52.44,4.57,4.57,0,0,0,1.59-1.76C200,283.61,199.72,283.85,199.41,284.06Zm50.64-8.36a1.17,1.17,0,0,1-.31.17,1.76,1.76,0,0,1-1.71-.16,2.28,2.28,0,0,0-2.54-.1,4.11,4.11,0,0,0-1.31,2c.3-.25.56-.53.83-.79a1.94,1.94,0,0,1,.8-.59,1.82,1.82,0,0,1,1.72.23,2.26,2.26,0,0,0,2.55,0,1.84,1.84,0,0,0,.29-.26ZM219,300.78a2,2,0,0,1-.78.62,1.76,1.76,0,0,1-1.71-.16,2.28,2.28,0,0,0-2.54-.1,4,4,0,0,0-1.31,2c.3-.25.55-.53.83-.79a1.89,1.89,0,0,1,.79-.59A1.81,1.81,0,0,1,216,302a2.28,2.28,0,0,0,2.56,0,4.51,4.51,0,0,0,1.28-2C219.51,300.24,219.25,300.52,219,300.78Zm31.65,16.64a2,2,0,0,1-.88.48,1.78,1.78,0,0,1-1.66-.44,2.29,2.29,0,0,0-2.49-.52c-.87.38-1.18,1.13-1.62,1.74a10.51,10.51,0,0,0,.95-.64,2,2,0,0,1,.88-.45,1.81,1.81,0,0,1,1.66.51,2.29,2.29,0,0,0,2.52.44,4.45,4.45,0,0,0,1.59-1.77C251.23,317,250.93,317.2,250.62,317.42ZM226.45,285a1.87,1.87,0,0,1-.94-.3,1.79,1.79,0,0,1-.81-1.54,2.26,2.26,0,0,0-1.47-2.08h0a6.44,6.44,0,0,1-.7.12,2.24,2.24,0,0,1-.84-.15h0c-.27,0-.53.11-.79.15.37.1.75.14,1.12.22a2,2,0,0,1,1,.27,1.77,1.77,0,0,1,.87,1.49,2.3,2.3,0,0,0,1.4,2.13,4.11,4.11,0,0,0,2.37-.09C227.2,285.11,226.83,285.06,226.45,285Zm3.36,33.46a1.88,1.88,0,0,1-.94-.31,1.77,1.77,0,0,1-.81-1.53,2.28,2.28,0,0,0-1.47-2.09,4.37,4.37,0,0,0-2.37.13c.37.1.75.14,1.12.21a2,2,0,0,1,1,.28,1.77,1.77,0,0,1,.87,1.49,2.28,2.28,0,0,0,1.4,2.12,4,4,0,0,0,2.37-.09C230.56,318.56,230.19,318.52,229.81,318.45Zm-37.26-11.67a1.8,1.8,0,0,1-.93-.3,1.77,1.77,0,0,1-.82-1.53,2.26,2.26,0,0,0-1.47-2.09A4.47,4.47,0,0,0,187,303c.37.1.75.14,1.13.22a2,2,0,0,1,.95.27,1.79,1.79,0,0,1,.87,1.49,2.3,2.3,0,0,0,1.4,2.13,4,4,0,0,0,2.37-.09C193.3,306.9,192.93,306.86,192.55,306.78Z" style="opacity:0.2"></path><path d="M240.18,277c3.27,6.41,7,12.61,10.91,18.66,1.91,3,3.83,5.93,5.85,8.83s4.38,5.9,6.55,8.87c.1.14.32,0,.22-.14-2-3.09-3.78-6.29-5.73-9.39s-3.81-6-5.71-8.92c-3.89-6.06-7.75-12.15-11.88-18.05C240.3,276.75,240.11,276.88,240.18,277Z" style="fill:#263238"></path><path d="M214.67,283.1a66.61,66.61,0,0,0-8.3,3.66c-.07,0,0,.16,0,.13,2.89-1,5.83-1.72,8.71-2.68s5.72-2.24,8.67-3a.14.14,0,0,0-.07-.27C220.7,281.68,217.64,282.09,214.67,283.1Z" style="fill:#263238"></path><path d="M261.64,316.56c-14.63,4.69-38.52,11.71-46.36,10.24-11.62-2.17-54.83-45.25-64.85-61.64a66.2,66.2,0,0,1-3.91-7.24Z" style="fill:#263238"></path><path d="M381.16,443.88c-3.54,1.21-105.06,1.88-109-.54-1.47-.91-2.43-15.69-3.09-33.58-.14-3.87-13.3-66-13.3-66l67.91-.65,10.84,66s39,17.13,43,20.24S384.7,442.67,381.16,443.88Z" style="fill:#d3766a"></path><path d="M381.16,443.87c-3.54,1.22-105.06,1.89-109-.53-1.48-.92-2.44-15.69-3.08-33.59,0-.89-.78-4.94-1.89-10.63h65.68l1.65,10s39,17.13,43,20.24S384.7,442.67,381.16,443.87Z" style="fill:#fff"></path><path d="M381.16,443.88c-3.54,1.21-105.06,1.88-109-.54-1.47-.91-2.43-15.69-3.09-33.58l65.45-.63s39,17.13,43,20.24S384.7,442.67,381.16,443.88Z" style="fill:#A285D5"></path><path d="M379.68,439.82c-17-.3-85.7.08-102.55,1.07-.14,0-.14.1,0,.1,16.87.68,85.54-.26,102.55-.89C380,440.09,380,439.83,379.68,439.82Z" style="fill:#263238"></path><path d="M371,425.76A13.68,13.68,0,0,0,360.83,430a13.19,13.19,0,0,0-3.74,9.11c0,.1.19.1.2,0,.93-6.67,6.95-12.56,13.69-13.12A.11.11,0,0,0,371,425.76Z" style="fill:#263238"></path><path d="M341.18,410.78c-6.81,0-14.69,2.41-18.88,8-.17.22.14.44.35.34a93.74,93.74,0,0,1,18.66-7.51A.43.43,0,0,0,341.18,410.78Z" style="fill:#263238"></path><path d="M346.46,412.8c-6.82-.05-14.7,2.4-18.89,8-.16.22.15.45.35.34a93.7,93.7,0,0,1,18.66-7.5A.43.43,0,0,0,346.46,412.8Z" style="fill:#263238"></path><path d="M351.73,414.81c-6.81-.05-14.69,2.41-18.89,8-.16.22.15.44.35.34a94,94,0,0,1,18.66-7.51A.43.43,0,0,0,351.73,414.81Z" style="fill:#263238"></path><path d="M357,416.83c-6.81-.05-14.69,2.4-18.89,8-.16.22.15.45.35.34a94.59,94.59,0,0,1,18.66-7.51A.42.42,0,0,0,357,416.83Z" style="fill:#263238"></path><path d="M281.36,424.7c-7.64.07-7.54,11.94.11,11.87S289,424.62,281.36,424.7Z" style="fill:#fff"></path><path d="M348.42,392.56c-3.46-2.84-7.79,0-9.89,3A35.73,35.73,0,0,0,332.45,413a.19.19,0,0,0,.22.19.83.83,0,0,0,1.23.54c4.82-3.39,10.4-6.41,14.05-11.17C350.08,399.76,351.7,395.24,348.42,392.56Zm-8.26,14.53c-2.33,1.72-4.73,3.32-7,5.13a105.18,105.18,0,0,1,3.77-10.12,37.06,37.06,0,0,1,2.46-4.61c1.46-2.26,8.11-8,8.84-.59C348.63,401,343,405,340.16,407.09Z" style="fill:#263238"></path><path d="M315.55,415.62c5.93.88,12-.85,17.86-1.8a.82.82,0,0,0,.5-1.24.18.18,0,0,0,0-.29A35.73,35.73,0,0,0,317.4,404c-3.59-.66-8.66.33-9.16,4.78C307.76,413,312.08,415.11,315.55,415.62Zm-4.14-3.85c-4.65-5.81,4.12-6.34,6.74-5.74a37.94,37.94,0,0,1,5,1.59,106,106,0,0,1,9.76,4.61c-2.88.29-5.72.82-8.6,1.22C320.87,413.92,314,415,311.41,411.77Z" style="fill:#263238"></path><path d="M381.16,443.88c-2.67.91-61.29,1.52-91.46.72l-6.77-35,51.64-.5s39,17.13,43,20.24S384.7,442.67,381.16,443.88Z" style="opacity:0.1"></path><path d="M302,256.76c14.18,24,37.07,135.06,37.07,135.06l-74.66.72-14.09-52.4s-18.16,60.52-75.37,90.69c-25,13.2-71.27,4.56-81.49-35.06l48.18-60.34s16.33,3.91,22.93-3c22.74-23.92,60.75-77.89,74.83-88.05C257.53,231.26,288.93,234.75,302,256.76Z" style="fill:#37474f"></path><path d="M235.07,285.46a67,67,0,0,0,1.77,8.13c.65,2.81,1.26,5.64,1.91,8.46l0,.08c-.32-.67-.65-1.34-1-2-1.05-2.31-2.3-4.51-3.15-6.91,0-.15-.27-.07-.23.08.82,2.42,1.41,4.94,2.43,7.28.48,1.11,1,2.2,1.54,3.27.29.59.59,1.18.91,1.76.15.26.3.56.48.81.32,1.29,8.93,32.08,10.25,33.73.1.13.26.07.23-.08-.64-2.75-9.66-35.4-10.41-38.19s-1.52-5.42-2.26-8.14a69.53,69.53,0,0,0-2.35-8.3C235.21,285.34,235.06,285.36,235.07,285.46Z" style="fill:#263238"></path><path d="M332.31,379c-4.21-.29-8.46-.27-12.68-.3s-8.47,0-12.7,0c-8.47,0-16.95,0-25.42.15-4.65.08-9.3.21-13.94.54-.21,0-.19.35,0,.36,8.45.5,16.92.36,25.38.32s17-.09,25.42-.26c4.64-.09,9.32-.1,13.94-.47C332.51,379.35,332.49,379.05,332.31,379Z" style="fill:#263238"></path><path d="M339,391.82l-63.56.6L247.77,239.8c18.28-7.18,43-1.94,54.18,17C316.13,280.74,339,391.82,339,391.82Z" style="fill:#263238"></path><path d="M410.73,448c-3.55,1.2-105.07,1.69-109-.73-1.48-.92-2.41-15.7-3-33.59-.14-3.86-27.24-60.76-27.24-60.76l67.91-.52,24.78,60.77s38.95,17.2,42.93,20.32S414.27,446.76,410.73,448Z" style="fill:#d3766a"></path><path d="M410.72,448c-3.54,1.2-105.06,1.7-108.94-.73-1.48-.92-2.41-15.7-3-33.59,0-.85-2.31-6.48-4.4-11.33l64.95-1.19,4.9,12s38.95,17.19,42.93,20.31S414.26,446.76,410.72,448Z" style="fill:#fff"></path><path d="M410.73,448c-3.55,1.2-105.07,1.69-109-.73-1.48-.92-2.41-15.7-3-33.59l65.45-.51s38.95,17.2,42.93,20.32S414.27,446.76,410.73,448Z" style="fill:#A285D5"></path><path d="M409.25,443.91c-17-.34-85.7-.09-102.55.88-.14,0-.14.1,0,.1,16.86.7,85.54-.11,102.55-.71C409.61,444.17,409.61,443.91,409.25,443.91Z" style="fill:#263238"></path><path d="M400.58,429.83A13.67,13.67,0,0,0,390.42,434a13.17,13.17,0,0,0-3.76,9.1c0,.1.19.1.2,0,.94-6.67,7-12.54,13.72-13.1A.11.11,0,0,0,400.58,429.83Z" style="fill:#263238"></path><path d="M370.81,414.79c-6.81-.06-14.7,2.39-18.9,8-.17.21.14.44.34.34a94.29,94.29,0,0,1,18.68-7.48A.43.43,0,0,0,370.81,414.79Z" style="fill:#263238"></path><path d="M376.08,416.82c-6.82-.06-14.7,2.38-18.91,8-.16.22.15.45.35.34a94,94,0,0,1,18.68-7.47A.43.43,0,0,0,376.08,416.82Z" style="fill:#263238"></path><path d="M381.34,418.84c-6.81-.06-14.69,2.38-18.9,8-.16.21.15.44.35.34a93.81,93.81,0,0,1,18.68-7.48A.43.43,0,0,0,381.34,418.84Z" style="fill:#263238"></path><path d="M386.61,420.87c-6.81-.06-14.69,2.38-18.9,8-.16.22.15.45.35.34a93.93,93.93,0,0,1,18.67-7.47A.43.43,0,0,0,386.61,420.87Z" style="fill:#263238"></path><path d="M311,428.6c-7.64.06-7.56,11.94.09,11.88S318.61,428.54,311,428.6Z" style="fill:#fff"></path><path d="M378.08,396.58c-3.46-2.84-7.79,0-9.9,2.95A35.86,35.86,0,0,0,362.07,417c0,.15.1.2.22.2a.83.83,0,0,0,1.22.54c4.84-3.38,10.42-6.39,14.08-11.15C379.72,403.79,381.36,399.27,378.08,396.58Zm-8.29,14.52c-2.33,1.72-4.74,3.31-7,5.12a106.82,106.82,0,0,1,3.79-10.11A37.69,37.69,0,0,1,369,401.5c1.47-2.26,8.13-8,8.84-.57C378.27,405,372.58,409.05,369.79,411.1Z" style="fill:#263238"></path><path d="M345.16,419.59c5.94.88,12-.84,17.87-1.77a.82.82,0,0,0,.5-1.24.18.18,0,0,0,0-.29A35.65,35.65,0,0,0,347,408c-3.58-.67-8.65.32-9.17,4.77C337.38,417,341.7,419.07,345.16,419.59ZM341,415.73c-4.64-5.82,4.13-6.33,6.76-5.73a38.33,38.33,0,0,1,5,1.6,104.74,104.74,0,0,1,9.75,4.63c-2.88.28-5.72.81-8.6,1.2C350.49,417.89,343.59,418.94,341,415.73Z" style="fill:#263238"></path><path d="M304.49,252.17c14.19,24,62.32,144.76,62.32,144.76l-79.29.72-26-63.59S226.76,442.7,155.85,442.7c-35.1,0-54-17.79-65.44-43l64.41-63.42s6.78,4.81,10.33,1.16c23-23.61,62.66-87.48,76.75-97.64C260.08,226.67,291.47,230.17,304.49,252.17Z" style="fill:#37474f"></path><path d="M355.46,384.15c-4.2-.29-8.46-.26-12.67-.29s-8.47,0-12.7,0c-8.47,0-16.95,0-25.42.15-4.65.08-9.3.21-13.95.54-.2,0-.18.35,0,.36,8.45.5,16.92.36,25.38.33s16.95-.1,25.42-.26c4.64-.09,9.32-.1,13.94-.47C355.66,384.46,355.64,384.16,355.46,384.15Z" style="fill:#263238"></path><path d="M259.66,326.46c-.77-2.51-1.55-5-2.37-7.52-1.62-4.91-3.1-9.88-4.88-14.74-.51-1.36-.93-2.76-1.44-4.12s-1-2.82-1.49-4.24a.15.15,0,0,0-.28.08c1.1,5.15,2.19,10.31,3.72,15.35q.79,2.58,1.64,5.15c-.73-1.26-1.52-2.48-2.33-3.7a30,30,0,0,1-3.47-6.18c0-.08-.17,0-.14,0a24.26,24.26,0,0,0,3.13,6.2c1.06,1.58,2.21,3.14,3.19,4.79,1,2.86,2,5.69,3.05,8.51a61.18,61.18,0,0,0,3.56,7.93c0,.08.15,0,.14-.07C261.18,331.42,260.4,328.92,259.66,326.46Z" style="fill:#263238"></path><path d="M293.21,378.72c-5.82-11.07-12-22-17.68-33.11s-11.18-22.45-16.34-33.84c-1.44-3.18-2.88-6.36-4.27-9.55s-2.71-6.49-4.11-9.72c0-.07-.15,0-.12,0,2.15,5.88,4.61,11.66,7,17.46s4.91,11.4,7.5,17q7.83,17,17,33.51c3.43,6.18,7,12.32,10.9,18.27A.1.1,0,0,0,293.21,378.72Z" style="fill:#263238"></path><path d="M167.1,335.46c-3.76,3.59-7.4,7.35-10.8,11.29-.69.8-1.37,1.62-2,2.43-2,1.45-3.88,3-5.72,4.57-2.06,1.81-4,3.76-5.95,5.66-.06.06,0,.18.09.11,2-1.83,4.16-3.51,6.26-5.22l3.46-2.83c-2,2.52-4,5.07-5.91,7.64-1.81,2.4-3.42,4.94-5.16,7.39-.08.12.08.25.17.14,1.63-2.07,3.41-4,5.08-6.05s3.36-4,5-6.07,3.34-4,5-5.94,3.33-4.06,5-6.08c1.89-2.27,3.75-4.56,5.61-6.86C167.36,335.53,167.2,335.36,167.1,335.46Z" style="fill:#263238"></path><path d="M133.88,377a44.65,44.65,0,0,0-2.37-5.19l-1.41-2.59a12.65,12.65,0,0,0-1.51-2.48c-.13-.13-.4,0-.34.14a4.16,4.16,0,0,0,.17.65l.09.38s0,0,.06,0c.15.36.31.71.46,1.06.35.82.7,1.64,1,2.47.57,1.55,1.15,3.09,1.61,4.66a33.76,33.76,0,0,1,1.68,9.13,15,15,0,0,1-2.3,8.41,23.91,23.91,0,0,1-5.91,5.92c-2.65,2-5.5,3.81-8.37,5.55-.17.1,0,.35.21.28a57,57,0,0,0,8.75-4,22.4,22.4,0,0,0,6.76-6C136.17,390.26,136.31,383.15,133.88,377Z" style="fill:#263238"></path><path d="M257,319a383.3,383.3,0,0,1-21.47,42c-7.87,13.07-16.51,25.88-26.69,37-9.87,10.79-21.52,20-34.93,24.95a58.75,58.75,0,0,1-20.47,3.86,56,56,0,0,1-19.73-3.68A57.7,57.7,0,0,1,115.9,412.4a97.92,97.92,0,0,1-14.76-17.15q-1.65-2.33-3.27-4.66a.12.12,0,0,0-.19.13,129.46,129.46,0,0,0,13.6,18.55,58.76,58.76,0,0,0,16.87,12.84,56.5,56.5,0,0,0,40.31,4.07c13.82-3.75,26.16-12.11,36.56-22.41,10.79-10.69,19.77-23.43,27.93-36.48a301.27,301.27,0,0,0,22.16-42.61c.76-1.81,1.46-3.65,2.17-5.49C257.35,319,257.1,318.84,257,319Z" style="fill:#263238"></path><path d="M283.62,386.62c-.75-1.87-1.48-3.74-2.26-5.6q-2.34-5.56-4.69-11.14c-3.12-7.37-6.06-14.8-9-22.23-.83-2.11-1.63-4.23-2.47-6.33-.42-1.05-.85-2.09-1.27-3.14a48.93,48.93,0,0,0-2-4.56c-.15-.24-.61-.14-.57.17.27,1.91,1.73,5.41,2.33,7.24s1.31,3.81,2,5.71c1.36,3.8,2.79,7.57,4.26,11.32,2.93,7.51,5.93,15,9.26,22.35q1.4,3.07,2.89,6.1c.5,1,1,2,1.52,3s1.12,1.93,1.64,2.93c.14.28.61.07.49-.22C285,390.38,284.37,388.48,283.62,386.62Z" style="fill:#263238"></path><path d="M227.52,255.84c-3.58,4.52-7.09,9.11-10.58,13.71s-7,9.18-10.47,13.82c-6.87,9.26-13.74,18.53-20.52,27.86-3.81,5.24-7.61,10.48-11.27,15.83-.05.07.07.16.12.09,7.22-9,14.1-18.31,21-27.57S209.52,281,216.29,271.7c3.8-5.24,7.6-10.49,11.28-15.82A0,0,0,0,0,227.52,255.84Z" style="fill:#263238"></path><path d="M88.25,402.64l96.86-56.76c1.58-1.42-9.88-74.15-21.1-95-1.89-3.5-19.5-12-32.51,3.44C79.82,315.53,88.25,402.64,88.25,402.64Z" style="fill:#A285D5"></path><path d="M150.12,282.73a1.87,1.87,0,0,1-.94-.3,1.81,1.81,0,0,1-.82-1.53,2.26,2.26,0,0,0-1.47-2.09,4.47,4.47,0,0,0-2.37.12c.38.1.75.14,1.13.22a1.94,1.94,0,0,1,1,.28,1.75,1.75,0,0,1,.86,1.48,2.3,2.3,0,0,0,1.4,2.13,4,4,0,0,0,2.37-.09C150.87,282.85,150.49,282.81,150.12,282.73Zm7.37,47.07a1.87,1.87,0,0,1-.94-.3,1.79,1.79,0,0,1-.81-1.54,2.26,2.26,0,0,0-1.47-2.08,4.47,4.47,0,0,0-2.37.12c.37.1.75.14,1.12.22a2,2,0,0,1,1,.27,1.77,1.77,0,0,1,.87,1.49,2.3,2.3,0,0,0,1.4,2.13,4.11,4.11,0,0,0,2.37-.09C158.24,329.92,157.87,329.87,157.49,329.8Zm-27.8-31.39a1.87,1.87,0,0,1-.94-.3,1.81,1.81,0,0,1-.82-1.53,2.25,2.25,0,0,0-1.47-2.09,4.47,4.47,0,0,0-2.37.12c.38.1.76.15,1.13.22a1.9,1.9,0,0,1,1,.28,1.78,1.78,0,0,1,.87,1.48,2.27,2.27,0,0,0,1.39,2.13,4,4,0,0,0,2.37-.09C130.44,298.53,130.06,298.49,129.69,298.41Zm-15.08,48.21a1.72,1.72,0,0,1-.93-.31,1.78,1.78,0,0,1-.82-1.53,2.28,2.28,0,0,0-1.47-2.09,4.47,4.47,0,0,0-2.37.13c.38.1.75.14,1.13.21a2.08,2.08,0,0,1,.95.28,1.77,1.77,0,0,1,.87,1.49,2.28,2.28,0,0,0,1.4,2.12,4,4,0,0,0,2.37-.08C115.36,346.74,115,346.69,114.61,346.62Zm-1.88,31a1.82,1.82,0,0,1-1.76-1.84,2.28,2.28,0,0,0-1.47-2.09,4.47,4.47,0,0,0-2.37.13c.38.1.75.14,1.13.22a2,2,0,0,1,1,.27,1.76,1.76,0,0,1,.86,1.49,2.31,2.31,0,0,0,1.4,2.13,4.11,4.11,0,0,0,2.37-.09C113.48,377.73,113.1,377.68,112.73,377.61ZM138,248.74h-.12l-.69.44a5.34,5.34,0,0,0,1.93-.21C138.72,248.86,138.34,248.82,138,248.74Zm33.78,64.82a2,2,0,0,1-.87.48,1.79,1.79,0,0,1-1.67-.44,2.27,2.27,0,0,0-2.49-.51c-.87.38-1.18,1.13-1.62,1.74.34-.2.64-.43,1-.65a1.84,1.84,0,0,1,2.53.06,2.28,2.28,0,0,0,2.52.44,4.49,4.49,0,0,0,1.59-1.76C172.36,313.11,172.07,313.34,171.75,313.56Zm11.18,12.25a5.06,5.06,0,0,0-1,1.72c.3-.24.55-.52.83-.79a2.12,2.12,0,0,1,.26-.26C183,326.26,183,326,182.93,325.81Zm-84.09,5.1a2,2,0,0,1-.88.48A1.74,1.74,0,0,1,96.3,331a2.38,2.38,0,0,0-1.72-.68l-.18.78a1.72,1.72,0,0,1,1.28.54,2.26,2.26,0,0,0,2.52.44,4.4,4.4,0,0,0,1.58-1.76C99.45,330.46,99.15,330.7,98.84,330.91Zm31.44,32.71a2,2,0,0,1-.87.48,1.8,1.8,0,0,1-1.67-.44,2.27,2.27,0,0,0-2.49-.51c-.86.38-1.18,1.13-1.61,1.74.33-.2.63-.43,1-.65a1.85,1.85,0,0,1,2.54.06,2.26,2.26,0,0,0,2.51.44,4.42,4.42,0,0,0,1.59-1.76C130.89,363.17,130.6,363.41,130.28,363.62ZM90.59,383.48a2,2,0,0,1-.87.49,1.8,1.8,0,0,1-1.67-.44,1.38,1.38,0,0,0-.26-.22c0,.38,0,.75,0,1.12a2.24,2.24,0,0,0,2.18.17,4.35,4.35,0,0,0,1.59-1.76C91.2,383,90.91,383.27,90.59,383.48Zm42-59.55a2.1,2.1,0,0,1-.87.48,1.77,1.77,0,0,1-1.66-.44,2.29,2.29,0,0,0-2.49-.52c-.87.38-1.19,1.13-1.62,1.74.34-.19.63-.43,1-.64a1.9,1.9,0,0,1,.88-.45,1.81,1.81,0,0,1,1.66.51A2.27,2.27,0,0,0,132,325a4.4,4.4,0,0,0,1.58-1.76C133.26,323.48,133,323.71,132.64,323.93Zm26.66,33a2,2,0,0,1-.87.48,1.8,1.8,0,0,1-1.67-.44,2.27,2.27,0,0,0-2.49-.51c-.86.37-1.18,1.12-1.61,1.74.33-.2.63-.43,1-.65a1.9,1.9,0,0,1,.88-.45,1.81,1.81,0,0,1,1.66.51,2.26,2.26,0,0,0,2.51.44,4.38,4.38,0,0,0,1.59-1.77C159.91,356.45,159.62,356.68,159.3,356.9Zm-5.49-101c-.1.38-.14.75-.22,1.13a2,2,0,0,1-.27.95,1.77,1.77,0,0,1-1.49.87,2.3,2.3,0,0,0-2.13,1.4,4.11,4.11,0,0,0,.09,2.37c.1-.37.15-.75.22-1.12a1.84,1.84,0,0,1,.3-.94,1.81,1.81,0,0,1,1.53-.82,2.26,2.26,0,0,0,2.09-1.47A4.47,4.47,0,0,0,153.81,255.93Zm22.08,83.93c-.1.37-.15.75-.22,1.12a1.9,1.9,0,0,1-.28,1,1.76,1.76,0,0,1-1.48.87,2.3,2.3,0,0,0-2.13,1.4,4,4,0,0,0,.09,2.37c.1-.38.14-.75.22-1.13a1.87,1.87,0,0,1,.3-.94,1.78,1.78,0,0,1,1.53-.81,2.26,2.26,0,0,0,2.09-1.47A4.47,4.47,0,0,0,175.89,339.86Zm-3.75-49.57c-.1.38-.14.75-.21,1.13a2,2,0,0,1-.28,1,1.8,1.8,0,0,1-1.49.87,2.26,2.26,0,0,0-2.12,1.39,4,4,0,0,0,.09,2.37c.1-.37.14-.75.21-1.12a1.88,1.88,0,0,1,.31-.94,1.8,1.8,0,0,1,1.53-.82,2.27,2.27,0,0,0,2.09-1.47A4.37,4.37,0,0,0,172.14,290.29Zm-23.35,12.44c-.1.37-.15.75-.22,1.12a1.9,1.9,0,0,1-.28,1,1.76,1.76,0,0,1-1.48.87,2.3,2.3,0,0,0-2.13,1.4,4,4,0,0,0,.09,2.37c.1-.38.14-.75.22-1.13a1.87,1.87,0,0,1,.3-.94,1.78,1.78,0,0,1,1.53-.81,2.28,2.28,0,0,0,2.09-1.47A4.47,4.47,0,0,0,148.79,302.73ZM98,357.24c-.1.37-.14.75-.21,1.12a2,2,0,0,1-.28,1,1.77,1.77,0,0,1-1.49.87,2.27,2.27,0,0,0-2.12,1.4A4,4,0,0,0,94,364c.1-.38.14-.75.21-1.13a1.88,1.88,0,0,1,.31-.94,1.77,1.77,0,0,1,1.53-.81,2.28,2.28,0,0,0,2.09-1.47A4.37,4.37,0,0,0,98,357.24Zm7,35.18c0,.16-.07.32-.11.48l.19-.11C105,392.67,105,392.54,105,392.42Zm9.46-113.51c-.06.1-.12.19-.17.29h0c0,.18-.07.37-.1.55a2,2,0,0,1-.28,1,1.83,1.83,0,0,1-.87.74l-.54,1a2.24,2.24,0,0,0,2-1.46A3.77,3.77,0,0,0,114.44,278.91Zm0,32.61c-.1.38-.15.75-.22,1.13a2,2,0,0,1-.28,1,1.78,1.78,0,0,1-1.48.87,2.27,2.27,0,0,0-2.13,1.39,4,4,0,0,0,.09,2.37c.1-.37.14-.75.22-1.12a1.87,1.87,0,0,1,.3-.94,1.81,1.81,0,0,1,1.53-.82,2.27,2.27,0,0,0,2.09-1.47A4.47,4.47,0,0,0,114.39,311.52Zm26.43,28.34c-.1.37-.14.75-.21,1.12a2,2,0,0,1-.28,1,1.77,1.77,0,0,1-1.49.87,2.28,2.28,0,0,0-2.12,1.4,4,4,0,0,0,.08,2.37,11.26,11.26,0,0,0,.22-1.13,1.88,1.88,0,0,1,.31-.94,1.77,1.77,0,0,1,1.53-.81,2.28,2.28,0,0,0,2.09-1.47A4.37,4.37,0,0,0,140.82,339.86Zm30.57-68.71a2.23,2.23,0,0,0-2,0,4.4,4.4,0,0,0-1.58,1.76c.33-.19.63-.43.95-.64a1.9,1.9,0,0,1,.87-.48,1.74,1.74,0,0,1,1.66.43,2,2,0,0,0,.47.36Zm-37.31-2.92a1.81,1.81,0,0,1-.88.45,1.79,1.79,0,0,1-1.66-.51,2.27,2.27,0,0,0-2.52-.43,4.5,4.5,0,0,0-1.59,1.76c.34-.2.64-.43.95-.64a2,2,0,0,1,.88-.48,1.74,1.74,0,0,1,1.66.43,2.29,2.29,0,0,0,2.49.52c.87-.38,1.19-1.13,1.62-1.74C134.69,267.78,134.39,268,134.08,268.23Z" style="opacity:0.2"></path><path d="M162.23,270.32c-5,.42-18.35-11.82-19.33-20.38-.06-.58,9.76-18.94,11.33-22.78.32-.79,21.7,15.69,21.7,15.69s-5.66,7.08-8.35,13.79a9.23,9.23,0,0,0-.48,1.65c0,.07,0,.17-.07.27C166.29,261.75,167.84,269.87,162.23,270.32Z" style="fill:#d3766a"></path><path d="M155.73,227.91c-1.47,6.2-4.42,24,8.77,29.78a16.93,16.93,0,0,0,2.53.87c0-.1.05-.2.06-.28a11.28,11.28,0,0,1,.5-1.64c2.68-6.71,8.34-13.8,8.34-13.8S160.67,231.08,155.73,227.91Z" style="fill:#263238"></path><path d="M161.19,197.25c-5.95,7.68-10.91,34.54-6.85,42.49,5.88,11.52,20.26,17.88,31.25,9.72,10.65-7.9,16.49-43,11.52-50.73C189.78,187.37,170,185.9,161.19,197.25Z" style="fill:#d3766a"></path><path d="M191.24,229s-1.32-.71-1.32-.56.4.73.4.79.92.58.92.69v2.37c0,.87-.31,1.95-.29,2.41a18.38,18.38,0,0,1,.29,2.78c-.11.59-.08,4.71-.38,5.26s-.45,3,.2,2.37.2-3.11.44-3.6a24.77,24.77,0,0,0,.19-4.28c0-.65-.31-2.2-.31-2.67s.26-2,.26-2.47v-1.72s.61-.42.7-.65a11.78,11.78,0,0,1,.81-1.17c0-.23-1.51.45-1.51.45Z" style="fill:#fff;opacity:0.4"></path><path d="M176.49,215.94a21.5,21.5,0,0,1,2.4-.42,3.91,3.91,0,0,1,2.53,0A1.25,1.25,0,0,1,182,217a3.12,3.12,0,0,1-2.58,1.82,4.59,4.59,0,0,1-3.27-.44A1.34,1.34,0,0,1,176.49,215.94Z" style="fill:#263238"></path><path d="M196.34,222.63a23.5,23.5,0,0,0-1.63-1.82,3.93,3.93,0,0,0-2-1.53,1.25,1.25,0,0,0-1.32.77,3.1,3.1,0,0,0,.9,3,4.63,4.63,0,0,0,2.84,1.68A1.34,1.34,0,0,0,196.34,222.63Z" style="fill:#263238"></path><path d="M172,238.56c.33.51.63,1.19,1.26,1.4a5,5,0,0,0,2,0,.06.06,0,0,1,0,.11,2.49,2.49,0,0,1-2.5.45,2,2,0,0,1-1-1.91C171.84,238.49,172,238.48,172,238.56Z" style="fill:#263238"></path><path d="M176.23,236.86c2.5-.39,5.39.57,7.2,1.22.22,0,.5-.35.58-.54v0c0-.06.74-3.85.74-3.85.45.36,2.76,2.1,2.88,1.37,1-6,2.08-12.76,1.78-19a.17.17,0,0,0-.34,0c-1.17,5.77-1.33,11.71-2.41,17.52A11,11,0,0,0,184,232c-.21,0-.58,4.12-.79,4.72a9.08,9.08,0,0,0-6.81-.68C175.49,236.39,175,237.05,176.23,236.86Z" style="fill:#263238"></path><path d="M190.38,224.91c0-.06.11.11.09.18-.54,1.63-.87,3.6.46,4.58,0,0,0,.11,0,.09C189.14,229,189.61,226.37,190.38,224.91Z" style="fill:#263238"></path><path d="M189.7,227.07a2.73,2.73,0,0,0,.22,1.41,2,2,0,0,0,1.2,1,1.73,1.73,0,0,0,1.53-.34,2.94,2.94,0,0,0,.84-1.13,4.75,4.75,0,0,0,.28-.8,3.81,3.81,0,0,0,.08-1.74,5.54,5.54,0,0,1-.4,1.21,7.07,7.07,0,0,1-.54,1c-.42.66-1,1.14-1.58.95s-.92-.76-1-1.55a13.84,13.84,0,0,1,.17-2.45A5.59,5.59,0,0,0,189.7,227.07Z" style="fill:#263238"></path><path d="M176,224.36a3.77,3.77,0,0,0,.48,1.66,2.13,2.13,0,0,1,.55,1.46,8.42,8.42,0,0,1,0,1.05c0,.7-.75,2.63-.66,3.54s0,1.51-.18,1.75A25.23,25.23,0,0,0,173.3,236c-.58.74-2.87,3.06-3,4.1s-.46,6-.37,6.86a27,27,0,0,1,.54,3.29,9.39,9.39,0,0,0,0,2.36.51.51,0,0,0,.36.3c.14,0,.24-.08.22-.18s-.33-.27-.35-.62.34-1.61.34-2c0-.58-.83-3-.78-3.34s.48-6.59.54-6.87a30.8,30.8,0,0,1,2.81-3.65,30,30,0,0,0,3.16-2.27,6.59,6.59,0,0,0,.16-2.2c0-.17.49-2.56.66-4.41a2,2,0,0,1,.87-1.1,1.22,1.22,0,0,0,.5-.6c0-.33-.83-.18-1.54-.36S176,224.18,176,224.36Z" style="fill:#fff;opacity:0.4"></path><path d="M180.11,222.29c0-.07-.15.05-.16.12-.29,1.7-.9,3.59-2.54,3.85,0,0-.06.09,0,.09C179.32,226.46,180.11,223.94,180.11,222.29Z" style="fill:#263238"></path><path d="M179.71,224.52a2.66,2.66,0,0,1-.85,1.15,1.94,1.94,0,0,1-1.52.31,1.75,1.75,0,0,1-1.2-1,3.12,3.12,0,0,1-.22-1.39,8.09,8.09,0,0,1,.12-.84,3.79,3.79,0,0,1,.75-1.58,5.55,5.55,0,0,0-.22,1.26,8.81,8.81,0,0,0,0,1.15c.07.78.36,1.48,1,1.58s1.17-.25,1.58-.93a12.42,12.42,0,0,0,1-2.25A5.64,5.64,0,0,1,179.71,224.52Z" style="fill:#263238"></path><path d="M161.86,209.75c-2,2.41-6.38,8.21-7.83,8.25,1.72-9.48,4.34-17.72,8.23-22.05a19.52,19.52,0,0,1,5.67-4.36C167.33,194.08,164,207.22,161.86,209.75Z" style="fill:#263238;opacity:0.2"></path><path d="M190.33,204.63a9.48,9.48,0,0,1-9,2,9.66,9.66,0,0,1-6.58-6.71c0-.09-.17-.06-.15,0a9.55,9.55,0,0,0,6.5,7.41,9.74,9.74,0,0,0,9.38-2.57C190.59,204.69,190.44,204.53,190.33,204.63Z" style="fill:#263238"></path><path d="M183.79,180.18c-5.45-.62-10.84,1.7-13.33,5.13a10.67,10.67,0,0,0-2,6.71c0,.1.2.1.21,0a11.64,11.64,0,0,1,6.86-9.69,15,15,0,0,1,13.37.22,9.51,9.51,0,0,1,4.5,4.74c.08.21.5.14.44-.07C192.88,183.64,188.72,180.74,183.79,180.18Z" style="fill:#263238"></path><path d="M213.71,196.25a12,12,0,0,0-4.22-7.13c-3.05-2.52-6.86-2.73-10.65-2.86a.08.08,0,0,0,0,.16c3.22.12,6.49.44,9.21,2.33a11.93,11.93,0,0,1,4.66,6.47,11.59,11.59,0,0,1-6.7,13.6,11.73,11.73,0,0,1-9.31-.32c-.12-.05-.23.11-.11.17a11.82,11.82,0,0,0,17.12-12.42Z" style="fill:#263238"></path><path d="M157.86,203.63s-3.78-10.43,1.32-15.44c2.89-2.84,10.92-1.28,10.92-1.28A14.76,14.76,0,0,1,180.29,182c7-.59,14.5,4.5,14.5,4.5s7-2.77,12.5,1.53c7.73,6,4.87,18.64-4.17,21.57-6.35,2.05-13.68-4.35-13.68-4.35-.79,0-9.41,3.66-14.41-4.28,0,0-5.5,3.65-9.45,0A7.15,7.15,0,0,1,157.86,203.63Z" style="fill:#263238"></path><path d="M158.77,219.72s-2.8-10.22-7.24-9.51-4.37,14.11-.59,17.29a4.71,4.71,0,0,0,6.79-.26Z" style="fill:#d3766a"></path><path d="M151.65,214.05a.07.07,0,0,0-.07.11c2.62,2.33,3.21,5.74,3.29,9.08-.51-1.46-1.52-2.52-3.42-2a.1.1,0,0,0,0,.19,2.89,2.89,0,0,1,2.66,2,13.3,13.3,0,0,1,.57,2.94c.05.32.59.35.6,0v-.08C156.77,222.47,155.69,215.94,151.65,214.05Z" style="fill:#263238"></path><path d="M332.23,272.9c3,4.69-.7,9.11-.7,9.11a11.91,11.91,0,0,1,5.67,5.76c1.84,4.53-4.47,9.4-4.47,9.4a14.67,14.67,0,0,1,5,7c1.32,4.52-4.34,10.34-4.34,10.34a12.86,12.86,0,0,1,.52,9c-2.74,7.79-15,10.54-22.83,12.37s-31.64-.28-36.22-.22l-12.18-50s32.64-18.15,42.11-19C312.78,266,328.86,267.63,332.23,272.9Z" style="fill:#d3766a"></path><path d="M331,281.3c-8.67-1.28-17.24.08-25.88.95a.15.15,0,0,0,0,.3c8.58-1,17.24-.22,25.84-.84A.21.21,0,0,0,331,281.3Z" style="fill:#263238"></path><path d="M332.41,296.56a23,23,0,0,0-6,.48q-3.13.48-6.26,1.06-6.24,1.15-12.44,2.63c-.18,0-.16.33,0,.29,4.15-.76,8.32-1.46,12.5-2,2.09-.3,4.19-.57,6.29-.83a27.21,27.21,0,0,0,5.89-1A.3.3,0,0,0,332.41,296.56Z" style="fill:#263238"></path><path d="M333.22,314.56c-1.7-.27-3.67.38-5.34.72q-2.83.59-5.68,1.14c-3.79.74-7.58,1.48-11.39,2.09-.19,0-.16.33,0,.3,3.88-.6,7.76-1.14,11.64-1.78q2.85-.46,5.7-1c1.61-.28,3.66-.45,5.08-1.32A.1.1,0,0,0,333.22,314.56Z" style="fill:#263238"></path><path d="M274.87,335.63c-23.82,1.34-81.33,10.64-95.24,3.79C167,333.17,146.38,307,129.87,281.5c-8.81-13.57-5.27-23.69,10.12-16.6,16,7.37,48,35.54,51.43,37,4.48,1.93,64.77-14.19,75.14-18.38C274.08,280.53,279.68,335.35,274.87,335.63Z" style="fill:#d3766a"></path><path d="M272.54,339.25l-9.63-56.11s-64.84,19.59-71.82,17.14c-3.77-1.32-33.32-25.75-47.76-35.33-13.52-9-24.4-3.08-15.4,16.1,11.47,24.43,41.62,57.39,52.71,62.59C189.12,347.62,272.54,339.25,272.54,339.25Z" style="fill:#A285D5"></path><path d="M150.12,282.73a1.87,1.87,0,0,1-.94-.3,1.81,1.81,0,0,1-.82-1.53,2.26,2.26,0,0,0-1.47-2.09,4.47,4.47,0,0,0-2.37.12c.38.1.75.14,1.13.22a1.94,1.94,0,0,1,1,.28,1.75,1.75,0,0,1,.86,1.48,2.3,2.3,0,0,0,1.4,2.13,4,4,0,0,0,2.37-.09C150.87,282.85,150.49,282.81,150.12,282.73Zm42.43,24a1.8,1.8,0,0,1-.93-.3,1.77,1.77,0,0,1-.82-1.53,2.26,2.26,0,0,0-1.47-2.09A4.47,4.47,0,0,0,187,303c.37.1.75.14,1.13.22a2,2,0,0,1,.95.27,1.79,1.79,0,0,1,.87,1.49,2.3,2.3,0,0,0,1.4,2.13,4,4,0,0,0,2.37-.09C193.3,306.9,192.93,306.86,192.55,306.78Zm7.85,36.32a2.28,2.28,0,0,0-1.47-2.09,4.47,4.47,0,0,0-2.37.12c.37.1.75.15,1.13.22a1.87,1.87,0,0,1,.95.28,1.76,1.76,0,0,1,.87,1.48,2.3,2.3,0,0,0,.53,1.48l1.08,0A1.75,1.75,0,0,1,200.4,343.1Zm29.41-24.65a1.88,1.88,0,0,1-.94-.31,1.77,1.77,0,0,1-.81-1.53,2.28,2.28,0,0,0-1.47-2.09,4.37,4.37,0,0,0-2.37.13c.37.1.75.14,1.12.21a2,2,0,0,1,1,.28,1.77,1.77,0,0,1,.87,1.49,2.28,2.28,0,0,0,1.4,2.12,4,4,0,0,0,2.37-.09C230.56,318.56,230.19,318.52,229.81,318.45Zm34.76-25.66a0,0,0,0,0,0,0,2.08,2.08,0,0,0-.83-.55,4.47,4.47,0,0,0-2.37.12c.38.1.75.15,1.13.22a1.87,1.87,0,0,1,.95.28,1.76,1.76,0,0,1,.87,1.48,2.34,2.34,0,0,0,.83,1.79Zm-4.28,44.66a1.87,1.87,0,0,1-.94-.3,1.81,1.81,0,0,1-.82-1.53,2.25,2.25,0,0,0-1.47-2.09,4.47,4.47,0,0,0-2.37.12c.38.1.75.14,1.13.22a1.94,1.94,0,0,1,1,.28,1.75,1.75,0,0,1,.86,1.48,2.3,2.3,0,0,0,1.4,2.13,4,4,0,0,0,2.37-.09C261,337.57,260.66,337.53,260.29,337.45Zm-88.54-23.89a2,2,0,0,1-.87.48,1.79,1.79,0,0,1-1.67-.44,2.27,2.27,0,0,0-2.49-.51c-.87.38-1.18,1.13-1.62,1.74.34-.2.64-.43,1-.65a1.84,1.84,0,0,1,2.53.06,2.28,2.28,0,0,0,2.52.44,4.49,4.49,0,0,0,1.59-1.76C172.36,313.11,172.07,313.34,171.75,313.56Zm78.87,3.86a2,2,0,0,1-.88.48,1.78,1.78,0,0,1-1.66-.44,2.29,2.29,0,0,0-2.49-.52c-.87.38-1.18,1.13-1.62,1.74a10.51,10.51,0,0,0,.95-.64,2,2,0,0,1,.88-.45,1.81,1.81,0,0,1,1.66.51,2.29,2.29,0,0,0,2.52.44,4.45,4.45,0,0,0,1.59-1.77C251.23,317,250.93,317.2,250.62,317.42Zm-28.91,15.72a2,2,0,0,1-.87.49,1.77,1.77,0,0,1-1.66-.44,2.29,2.29,0,0,0-2.49-.52c-.87.38-1.19,1.13-1.62,1.74.34-.19.63-.43,1-.64a1.81,1.81,0,0,1,.88-.45,1.79,1.79,0,0,1,1.66.51,2.27,2.27,0,0,0,2.52.43,4.4,4.4,0,0,0,1.58-1.76C222.33,332.7,222,332.93,221.71,333.14Zm-33.42-7.95a2,2,0,0,1-.78.62,1.76,1.76,0,0,1-1.71-.16,2.3,2.3,0,0,0-2.55-.1,4,4,0,0,0-1.3,2c.3-.24.55-.52.83-.79a1.86,1.86,0,0,1,.79-.58,1.79,1.79,0,0,1,1.72.22,2.28,2.28,0,0,0,2.56,0,4.4,4.4,0,0,0,1.27-2C188.82,324.65,188.57,324.93,188.29,325.19ZM219,300.78a2,2,0,0,1-.78.62,1.76,1.76,0,0,1-1.71-.16,2.28,2.28,0,0,0-2.54-.1,4,4,0,0,0-1.31,2c.3-.25.55-.53.83-.79a1.89,1.89,0,0,1,.79-.59A1.81,1.81,0,0,1,216,302a2.28,2.28,0,0,0,2.56,0,4.51,4.51,0,0,0,1.28-2C219.51,300.24,219.25,300.52,219,300.78Zm-43.08,39.08c-.06.22-.1.45-.14.67l.31.23C176,340.45,175.94,340.16,175.89,339.86Zm-3.75-49.57c-.1.38-.14.75-.21,1.13a2,2,0,0,1-.28,1,1.8,1.8,0,0,1-1.49.87,2.26,2.26,0,0,0-2.12,1.39,4,4,0,0,0,.09,2.37c.1-.37.14-.75.21-1.12a1.88,1.88,0,0,1,.31-.94,1.8,1.8,0,0,1,1.53-.82,2.27,2.27,0,0,0,2.09-1.47A4.37,4.37,0,0,0,172.14,290.29Zm67.77,40.82c-.1.37-.14.75-.21,1.13a2.08,2.08,0,0,1-.28.95,1.77,1.77,0,0,1-1.49.87,2.28,2.28,0,0,0-2.12,1.4,4,4,0,0,0,.08,2.37c.1-.38.15-.75.22-1.13a1.72,1.72,0,0,1,.31-.93A1.76,1.76,0,0,1,238,335a2.28,2.28,0,0,0,2.09-1.47A4.47,4.47,0,0,0,239.91,331.11Zm-91.12-28.38c-.1.37-.15.75-.22,1.12a1.9,1.9,0,0,1-.28,1,1.76,1.76,0,0,1-1.48.87,2.3,2.3,0,0,0-2.13,1.4,2.68,2.68,0,0,0-.1.35c.14.2.29.4.45.59a1.73,1.73,0,0,1,.26-.64,1.78,1.78,0,0,1,1.53-.81,2.28,2.28,0,0,0,2.09-1.47A4.47,4.47,0,0,0,148.79,302.73Zm59.55,13.92c-.1.38-.14.75-.22,1.13a1.94,1.94,0,0,1-.28,1,1.75,1.75,0,0,1-1.48.86,2.3,2.3,0,0,0-2.13,1.4,4,4,0,0,0,.09,2.37c.1-.37.14-.75.22-1.12a1.87,1.87,0,0,1,.3-.94,1.81,1.81,0,0,1,1.53-.82,2.25,2.25,0,0,0,2.09-1.47A4.47,4.47,0,0,0,208.34,316.65Zm33.83-20c-.1.38-.14.75-.22,1.13a2,2,0,0,1-.27.95,1.77,1.77,0,0,1-1.49.87,2.3,2.3,0,0,0-2.13,1.4,4.11,4.11,0,0,0,.09,2.37c.1-.37.15-.75.22-1.13a1.82,1.82,0,0,1,1.84-1.75,2.26,2.26,0,0,0,2.08-1.47A4.47,4.47,0,0,0,242.17,296.63Zm26.12,17.83a.55.55,0,0,1-.18,0,2.27,2.27,0,0,0-2.13,1.39,4,4,0,0,0,.09,2.37c.1-.37.14-.75.22-1.12a1.87,1.87,0,0,1,.3-.94,1.81,1.81,0,0,1,1.53-.82,1.55,1.55,0,0,0,.31,0ZM134.08,268.23a1.81,1.81,0,0,1-.88.45,1.79,1.79,0,0,1-1.66-.51,2.27,2.27,0,0,0-2.52-.43,4.5,4.5,0,0,0-1.59,1.76c.34-.2.64-.43.95-.64a2,2,0,0,1,.88-.48,1.74,1.74,0,0,1,1.66.43,2.29,2.29,0,0,0,2.49.52c.87-.38,1.19-1.13,1.62-1.74C134.69,267.78,134.39,268,134.08,268.23Z" style="opacity:0.2"></path><path d="M254.41,288.85c.4,7.8,1.37,15.61,2.54,23.34.57,3.8,1.18,7.59,1.9,11.36.74,3.93,1.73,7.8,2.56,11.71a.15.15,0,0,0,.29,0c-.59-3.93-1-7.91-1.53-11.85S259,315.78,258.46,312c-1.17-7.73-2.3-15.49-3.78-23.17A.14.14,0,0,0,254.41,288.85Z" style="fill:#263238"></path><path d="M175.9,289.63c-1.09-.93-2.09-2-3.21-2.87l-1.93-1.58a.07.07,0,0,0-.07-.08l-.05,0-.34-.28c-.05-.07-.09-.14-.14-.2a6,6,0,0,0-.44-.56c-.32-.38-.63-.77-1-1.14-.68-.73-1.35-1.45-2-2.2,0,0,0,0,0,0,.67.87,1.28,1.78,2,2.64l.33.4c-2.11-1.67-4.29-3.19-6.49-4.72a0,0,0,0,0,0,.06c2.1,1.91,4.18,3.81,6.43,5.56,1.1.87,2.21,1.72,3.32,2.58s2.4,1.64,3.56,2.5C175.87,289.8,176,289.7,175.9,289.63Z" style="fill:#263238"></path><path d="M185.49,344.39c-.57-.16-3-.54-3.6-.8-3.89-1.68-11-7.91-12.63-9.45q-4.95-4.65-9.47-9.72c-6.07-6.78-11.55-14-17.13-21.21-3.15-4.06-6.23-8.19-9.27-12.34,0-.08-.18,0-.12.08,3.19,4.8,6.32,9.64,9.59,14.39l-1.52-1.53c-1.3-1.3-2.63-2.57-4-3.76-.06-.05-.13,0-.08.09,1.59,1.89,3.33,3.64,5.08,5.39.43.42.85.85,1.3,1.26l.64.59.11.1c1.46,2.08,2.95,4.15,4.49,6.18A163.9,163.9,0,0,0,167,334.17a50.6,50.6,0,0,0,5.83,5c3.44,2.35,6.52,4.86,8.79,5.41a17.11,17.11,0,0,0,3.85-.08A.07.07,0,0,0,185.49,344.39Z" style="fill:#263238"></path></g><g id="freepik--Cloud--inject-37"><path d="M115.68,139.28H360.3s-3.62-7.74-8.59-11.62-12.24,0-12.24,0,.81-6.9-3.54-10.78a9.39,9.39,0,0,0-9.31-1.89s3.53-16.71-8.4-26.95C304.77,76.49,293,85.73,293,85.73s1.16-5.46-2.63-9a6.94,6.94,0,0,0-7.95-1.19s-4.17-28-26.2-31.92c-24.74-4.45-35.17,23.12-35.17,23.12s-8-10.44-18.78-6.41c-9.51,3.54-9.62,18.38-9.62,18.38s-5.79-4.32-10.56-1.5-4.58,8.89-4.58,8.89a21.51,21.51,0,0,0-18.66,1.32C149,92.94,151,105.15,151,105.15s-5.45-1.12-8.82,2.1-2.16,7.9-2.16,7.9A13.49,13.49,0,0,0,129.48,117c-5,3.46-4.15,12.94-4.15,12.94S118.49,130.35,115.68,139.28Z" style="fill:#c7c7c7"></path><path d="M259.45,166.89c-5.48,0-5.17-6.29-2.65-12.57.82-2,1.36-3.73,2.65-6.42,1.29,2.69,1.83,4.4,2.65,6.42C264.62,160.6,264.93,166.89,259.45,166.89Z" style="fill:#c7c7c7"></path><path d="M279,237.33c-5.48,0-5.17-6.29-2.65-12.57.82-2,1.36-3.73,2.65-6.41,1.29,2.68,1.83,4.39,2.65,6.41C284.19,231,284.5,237.33,279,237.33Z" style="fill:#dbdbdb"></path><path d="M316.24,189.93c-5.48,0-5.17-6.29-2.65-12.57.82-2,1.36-3.73,2.65-6.42,1.29,2.69,1.83,4.4,2.65,6.42C321.41,183.64,321.72,189.93,316.24,189.93Z" style="fill:#dbdbdb"></path><path d="M345.77,278.05c-5.49,0-5.18-6.28-2.65-12.57.81-2,1.35-3.73,2.65-6.41,1.28,2.68,1.82,4.39,2.64,6.41C350.94,271.77,351.25,278.05,345.77,278.05Z" style="fill:#c7c7c7"></path><path d="M196.42,194.51c-5.48,0-5.17-6.28-2.65-12.57.82-2,1.36-3.73,2.65-6.41,1.29,2.68,1.83,4.39,2.65,6.41C201.59,188.23,201.9,194.51,196.42,194.51Z" style="fill:#c7c7c7"></path><path d="M130.22,163.06c-5.48,0-5.17-6.29-2.65-12.58.82-2,1.36-3.73,2.65-6.41,1.29,2.68,1.83,4.39,2.65,6.41C135.39,156.77,135.7,163.06,130.22,163.06Z" style="fill:#dbdbdb"></path><path d="M91.63,244.84c-5.48,0-5.17-6.29-2.65-12.57.82-2,1.36-3.73,2.65-6.42,1.29,2.69,1.83,4.4,2.65,6.42C96.8,238.55,97.11,244.84,91.63,244.84Z" style="fill:#dbdbdb"></path></g></svg>